<?xml version="1.0" encoding="utf-8"?>
<!-- Generator: Adobe Illustrator 21.1.0, SVG Export Plug-In . SVG Version: 6.00 Build 0)  -->
<svg version="1.1" id="Layer_1" xmlns="http://www.w3.org/2000/svg" xmlns:xlink="http://www.w3.org/1999/xlink" x="0px" y="0px"
	 viewBox="0 0 260 260" style="enable-background:new 0 0 260 260;" xml:space="preserve">
<style type="text/css">
	.st0{fill:#212430;}
</style>
<g>
	<path class="st0" d="M220.6,73.9c0,1.6-0.9,2.8-2.3,3.3c-4.7,2.6-9.3,4.8-14.2,7.3c-3.6,2.2-6.8,4.4-10,6.6
		c-0.8,0.6-1.9,1.5-2.6,2.5c-1.1,1.3-0.8,1.7,0.5,2.8c1.3,1.1,2.5,2.9,3.2,4.5c2.2,4.6,2,4.7,7.1,3.9c4.3-0.7,8.7-0.5,12.9,1.3
		c1.3,0.6,2.7,1.7,3.2,2.9c0.5,1.4-1.2,2.6-2.6,3.4c-3.6,2.2-7.1,3.6-10.7,5.5c-1.1,0.7-2.5,1.2-3.9,1.8c0.4,1.2,0.9,2.3,1.3,3.6
		c6.7,19.2,13.1,38.4,19.6,57.8c1,2.6,1.9,5.3,2.7,8.2c0.3,0.8,0,1.6-0.3,2.2c-0.9,1.9-1.9,3.7-2.6,5.3c-2.6,4.8-6.6,7-11.8,7.5
		c-9.4,0.8-18.4-1.4-26.8-5.2c-11.3-5-21.6-11.8-29.5-21.7c-1.8-2-3.3-4.7-4.6-6.9c-2.9-4.9-1.3-10.4,3.8-12.8
		c7.1-3.6,14.5-6.3,22.5-7.1c1.3-0.2,2.6-0.1,3.8,0c3.6,0.3,5.9,2.2,7.4,5.4c1.1,2.2,0.7,4.1-2.1,4.8c-2.2,0.8-4.5,1.1-6.8,1.6
		c-2.7,0.7-5.4,1.4-8.2,1.9c-2,0.4-4.1,0.7-6.1-0.4c-1.7-1-5.4,0.1-6.8,1.6c-0.8,0.8-0.7,1.9,0.1,2.6c0.8,0.8,1.9,1.4,2.8,1.9
		c12.6,6.3,25.5,11.3,39.8,12c1.1,0.1,2.2,0.1,3.3,0.2c2.4,0,2.8-0.5,2.2-2.7c-0.2-1.5-0.6-3-1.2-4.7c-5.4-15.6-11.1-31.4-18.7-46.2
		c-0.1-0.3-0.1-0.3-0.6-0.6c-3.9,1.9-7.7,3.9-11.6,6.1c-12.3,7.1-24.4,14.5-36.4,21.9c-1.6,0.9-3.1,2-5.1,1c-2.4-1.3-4.3-3-4.9-6.1
		c-0.6-5.4,3.2-11.5,7.5-14.1c3.3-2.1,6.7-4.6,9.4-7.5c7-6.9,13.8-14.2,20.7-21.1c2.2-2.2,4.6-4.3,6.8-6.5c4.2-4,4.3-5.1,1.8-10.6
		c-2.5,1.2-4.9,2.1-7.4,3.2c-14,6-27.6,13.3-41,20.9c-5.4,3-10.8,5.9-17.1,7.1c-4.5,1.1-8.6,0.1-13.1-1.7c2.6-1.5,5.2-2.7,7.6-4.2
		c11.1-6.7,22.2-13.2,33.2-20.2c1.6-0.9,2.9-2.6,3.4-4.2c0.9-3.3,1.9-6.9,2.2-10.3c0.3-3.6-1.2-4.7-4.7-3.4
		c-7.5,2.4-14.7,2.1-22.3,0.5c-0.6-0.1-1.2-0.4-1.9-0.7c-1-0.5-1.3-1.1-0.3-1.8c1.5-1.1,2.8-2.1,4.3-3.2c6.3-4.2,12.7-8.1,19.3-12.5
		c-0.3-0.9-0.8-2.2-1.2-3.4c-2.6-6.4-4.9-12.6-7.7-18.8c-0.5-1.4-1.9-2.3-2.8-3.3c-0.8-0.8-1.1-1.5-0.4-2.5c1.7-2.5,4.4-3.5,7.1-4.2
		c4.5-1.1,8.9-0.6,13.4,0.6c2.7,0.6,3.9,2.6,5.2,4.6c1.8,3.4,3.5,6.8,5.6,10.1c1.8,3.4,2.7,3.6,6.5,3c2.8-0.5,5.8-0.5,8.9-0.2
		c3.3,0.4,5.3,2.6,5.8,5.4c0.2,2.9-1.2,5.5-4.4,6.7c-7,2.9-10.2,8.3-11.1,15.6c-0.4,2.8-0.3,5.8-0.8,8.9c0.8-0.3,1.4-0.5,1.9-0.7
		c11.2-4.1,22.5-8.2,33.6-12.2c3.4-1.2,6.8-2.1,10-2.8c3.7-0.8,7.6,0.2,11,1.9c1,0.5,1.6,1.3,2.4,2.1
		C220,72.3,220.3,73.2,220.6,73.9z M147,130.9c0.1,0.3,0.2,0.5,0.5,0.4c1.2-0.4,2.7-0.7,3.9-1.4c8.8-4.8,17.9-9.7,26.5-14.8
		c4.2-2.4,4.2-2.6,2.5-7.1c-0.6-1.7-1.4-3-2.2-5.2c-3.8,3-7.4,5.7-10.7,8.5c-6.1,5.4-12.2,10.9-18.1,16.3
		C148.6,128.8,148,130.1,147,130.9z M189,86.5c-0.1-0.3-0.2-0.5-0.6-0.6c-1.9,0.7-3.6,1.3-5.5,2c-0.5,0.2-0.6,0.7-0.9,1.2
		c0.5,0.4,0.8,0.8,1.5,1.1c0.4,0.2,1-0.1,1.3-0.2C186.2,88.6,187.7,87.5,189,86.5z"/>
	<path class="st0" d="M97.3,172.6c0.3,0.9,1.2,1.7,1.2,2.5c1.3,5.2,2.7,10.4,3.8,15.7c1.7,8.3,3.1,16.7,4.2,25
		c0.5,2.8,0.2,5.9-0.4,8.6c-0.9,4.7-4.4,6.7-9.1,5.4c-5-1.2-9.3-4-11.3-8.9c-2.5-5.3-3.5-10.6-3.6-16.6c-0.1-6.1-1.1-12.6-2.3-18.9
		c-2.4-12.3-6.2-24.3-11.2-35.9c-0.6-1.7-1.7-3.2-2.3-4.8c-0.7-1.1-1.5-1.1-2-0.1c-0.7,1.1-1.4,2.1-2,3.4c-4.8,8.5-9.5,17-14.2,25.5
		c-9.1-3.2-13-11.8-10.2-20.3c2.7-7.5,5.7-14.7,8.8-22.1c4.6-10.6,9.1-21.2,13.5-31.9C63,92.8,64.9,86.1,65,79
		c0.3-3.1-0.6-6-2.1-8.7c-0.8-1.3-1.5-2.6-3.3-3.2c-1.6-0.5-1.8-2-0.2-2.9c1.3-0.8,3-1.4,4.4-1.3c6.5,0.1,12.3,2.5,16.9,7
		c1.7,1.8,2.8,3.9,2.6,6.4c-0.5,5.3-1,10.7-2.2,15.7c-3.1,12.2-6.8,24.4-10.3,36.4c-0.6,2.1-0.2,3.3,1.3,4.4
		c0.8,0.8,1.8,1.2,2.5,1.7c3,1.6,5,4.1,6.2,7.4c2.9,8.1,6.1,15.9,9.1,24c0.9,2.3,2.1,4.9,3,7.3c1.1,2.2,1.3,2.2,2.9,0.6
		C96.4,173.1,96.6,173,97.3,172.6z"/>
</g>
</svg>
