<?xml version="1.0" encoding="utf-8"?>
<!-- Generator: Adobe Illustrator 21.1.0, SVG Export Plug-In . SVG Version: 6.00 Build 0)  -->
<svg version="1.1" id="Layer_1" xmlns="http://www.w3.org/2000/svg" xmlns:xlink="http://www.w3.org/1999/xlink" x="0px" y="0px"
	 viewBox="0 0 200 200" style="enable-background:new 0 0 200 200;" xml:space="preserve">
<style type="text/css">
	.st0{fill:#D4D9DA;}
	.st1{fill:#2D3E53;}
	.st2{fill:#2E3E52;}
	.st3{fill:#97CBDC;}
	.st4{fill:#6DC2DD;}
	.st5{fill:#96CADC;}
	.st6{fill:#BCD4DB;}
	.st7{fill:#F5283F;}
	.st8{fill:#96CADB;}
	.st9{fill:#6EBFDA;}
	.st10{fill:#ED2940;}
</style>
<rect x="-0.5" y="-0.4" class="st0" width="200.6" height="200.6"/>
<g id="_x37_l3eZF.tif">
	<g>
		<path class="st1" d="M42.4,62.9c0-0.5-0.1-1.1-0.1-1.6c0-11.3,0-22.6,0-33.9c0-1.4,0.4-1.9,1.8-1.8c2.2,0.1,4.3,0.1,6.5,0
			c1.2-0.1,1.9,0.4,2.5,1.4c2.6,3.9,5.3,7.8,7.9,11.7c0.7,1.1,1,1,1.7,0c2.6-3.9,5.3-7.8,7.8-11.7c0.6-1,1.3-1.4,2.5-1.3
			c2.3,0.1,4.6,0,6.9,0c0.8,0,1.4,0.1,1.4,1.1c0,11.8,0,23.7,0,35.5c0,0.2-0.2,0.4-0.2,0.7c-3.8,0-7.7,0-11.5,0c0,0-0.1-0.1-0.1-0.1
			c0-4.2,0-8.4,0-12.5c-2.5,2.9-4.5,5.8-6.5,8.8c-0.8,1.3-1.3,1.5-2.3,0c-2-3.1-4.1-6-6.3-9.2c-0.1,0.4-0.2,0.6-0.2,0.8
			c0,2.8,0,5.5,0,8.3c0,1.3-0.1,2.6-0.1,3.9C50.2,62.9,46.3,62.9,42.4,62.9z M73.7,33.4c0.1,0,0.2,0.1,0.4,0.1c0,0.6,0,1.2,0,1.8
			c0,7.2,0,14.4,0,21.6c0,0.5-0.3,1.3,0.7,1.4c0.8,0.1,0.8-0.6,0.8-1.1c0-8.6,0-17.3,0-25.9c0-0.4,0.1-0.9-0.5-1
			c-0.4-0.1-0.9-0.1-1.2,0.3c-0.3,0.4-0.6,0.8-0.8,1.2c-3.5,5.1-6.9,10.2-10.3,15.3c-0.8,1.2-1.2,1.2-2,0
			c-3.5-5.3-7.1-10.5-10.7-15.7c-0.4-0.6-0.8-1.3-1.7-1c-0.9,0.3-0.5,1.1-0.5,1.7c0,8.2,0,16.3,0,24.5c0,0.4,0,0.7,0,1.1
			c0,0.4,0.2,0.7,0.6,0.7c0.5,0,0.8-0.3,0.8-0.8c0-0.5,0-1,0-1.4c0-6.9,0-13.9,0-20.8c0-0.6,0.1-1.1,0.1-2.1
			c3.9,5.7,7.6,11,11.2,16.3c0.9,1.3,1.3,1.3,2.2,0C66.4,44.1,70.1,38.8,73.7,33.4z"/>
		<path class="st2" d="M26.1,62.9c-0.1-0.5-0.2-1.1-0.2-1.6c0-11.3,0-22.6,0-33.9c0-1.5,0.4-1.8,1.8-1.8c3.2,0.1,6.4,0,9.6,0
			c0.7,0,1.3,0.1,1.3,1c-0.1,12.1-0.1,24.2-0.1,36.2C34.3,62.9,30.2,62.9,26.1,62.9z M31.6,44.3c0,4.2,0,8.4,0,12.7
			c0,0.5-0.3,1.4,0.6,1.4c1.1,0.1,0.8-0.8,0.8-1.4c0-8.4,0-16.7,0-25.1c0-0.6,0.3-1.5-0.7-1.5c-1.1,0-0.7,1-0.7,1.5
			C31.6,36,31.6,40.1,31.6,44.3z"/>
		<path class="st3" d="M26.2,81.4c-0.7-3.1-0.3-6.3-0.2-9.5c4.2,0,8.3,0,12.5,0c0,3.1,0,6.3,0,9.4C34.4,81.4,30.3,81.4,26.2,81.4z"
			/>
		<path class="st4" d="M38.5,72c-4.2,0-8.3,0-12.5,0c-0.1-3-0.2-6,0.1-9c4.1,0,8.2,0,12.4,0C38.5,65.9,38.5,68.9,38.5,72z"/>
		<path class="st5" d="M42.2,81.4c0-3.1,0-6.3,0.1-9.4c3.9,0,7.9,0,11.8,0c0,1.8,0,3.7,0.1,5.5c0,1.3,0,2.6-0.1,3.9
			C50.2,81.4,46.2,81.4,42.2,81.4z"/>
		<path class="st5" d="M81,72c0,3.1,0,6.3,0,9.4c-3.9,0-7.7,0-11.6,0c0-1.1,0-2.2,0-3.2c0-2.1,0-4.1,0-6.2C73.3,72,77.1,72,81,72z"
			/>
		<path class="st4" d="M54.1,72c-3.9,0-7.9,0-11.8,0c0-3-0.2-6,0.1-9c3.9,0,7.8,0,11.7,0c0,1.8,0.1,3.7,0.1,5.5
			C54.2,69.6,54.1,70.8,54.1,72z"/>
		<path class="st4" d="M81,72c-3.9,0-7.7,0-11.6,0c0-1.1,0-2.2,0-3.2c0-1.9,0.1-3.9,0.1-5.8c3.8,0,7.7,0,11.5,0C81,66,81,69,81,72z"
			/>
		<path class="st6" d="M26.2,81.4c4.1,0,8.2,0,12.3,0c0,1.6,0,3.1,0,4.7c-4.1,0-8.2,0-12.3,0C26.2,84.5,26.2,83,26.2,81.4z"/>
		<path class="st6" d="M42.2,81.4c4,0,7.9,0,11.9,0c0,1.6,0,3.1,0,4.7c-4,0-8,0-11.9,0C42.2,84.5,42.2,82.9,42.2,81.4z"/>
		<path class="st6" d="M69.4,81.4c3.9,0,7.7,0,11.6,0c0,1.6,0,3.1,0,4.7c-3.9,0-7.7,0-11.6,0C69.4,84.5,69.4,83,69.4,81.4z"/>
		<path class="st6" d="M69.3,68.8c0,1.1,0,2.2,0,3.2c0,2.1,0,4.1,0,6.2c-0.5,0-0.8,0.2-1.1,0.6c-1.6,2.5-3.4,4.7-4.7,7.3
			c-1.2,0-2.4,0-3.6,0c-1.6-3.1-3.8-5.8-5.8-8.6c0-1.8,0-3.7-0.1-5.5c0-1.2,0-2.4,0-3.6c0.6,0.3,0.8,0.9,1.1,1.4
			c1.8,2.6,3.6,5.2,5.4,7.9c0.8,1.1,1.3,1.3,2.1,0c1.6-2.6,3.4-5.1,5.1-7.6C68.3,69.5,68.5,68.7,69.3,68.8z"/>
		<path class="st0" d="M63.6,86.1c1.3-2.6,3.2-4.9,4.7-7.3c0.2-0.4,0.6-0.6,1.1-0.6c0,1.1,0,2.2,0,3.2c0,1.6,0,3.1,0,4.7
			C67.4,86.1,65.5,86.1,63.6,86.1z"/>
		<path class="st0" d="M54.2,77.5c1.9,2.9,4.2,5.6,5.8,8.6c-1.9,0-3.9,0-5.8,0c0-1.6,0-3.1,0-4.7C54.1,80.1,54.2,78.8,54.2,77.5z"/>
		<path class="st7" d="M73.7,33.4c-3.6,5.3-7.3,10.6-10.9,16c-0.9,1.3-1.3,1.3-2.2,0c-3.6-5.4-7.3-10.6-11.2-16.3
			c-0.1,1-0.1,1.5-0.1,2.1c0,6.9,0,13.9,0,20.8c0,0.5,0,1,0,1.4c0,0.5-0.3,0.8-0.8,0.8c-0.5,0-0.6-0.3-0.6-0.7c0-0.4,0-0.7,0-1.1
			c0-8.2,0-16.3,0-24.5c0-0.6-0.4-1.4,0.5-1.7c0.9-0.3,1.3,0.4,1.7,1c3.6,5.2,7.2,10.5,10.7,15.7c0.8,1.2,1.2,1.2,2,0
			c3.4-5.1,6.9-10.2,10.3-15.3c0.3-0.4,0.5-0.8,0.8-1.2c0.3-0.4,0.7-0.4,1.2-0.3c0.6,0.1,0.5,0.6,0.5,1c0,8.6,0,17.3,0,25.9
			c0,0.5,0.1,1.2-0.8,1.1c-1-0.1-0.7-0.9-0.7-1.4c0-7.2,0-14.4,0-21.6c0-0.6,0-1.2,0-1.8C74,33.5,73.8,33.5,73.7,33.4z"/>
		<path class="st8" d="M69.3,68.8c-0.8,0-1,0.7-1.4,1.2c-1.7,2.5-3.5,5-5.1,7.6c-0.8,1.3-1.3,1.2-2.1,0c-1.8-2.6-3.6-5.3-5.4-7.9
			c-0.3-0.5-0.5-1.1-1.1-1.4c0-1.8-0.1-3.7-0.1-5.5c0-1.3,0.1-2.6,0.1-3.9c1.6,2.2,3.2,4.5,4.8,6.7c2.8,4.1,2.8,4.1,5.6-0.1
			c1.3-2,2.7-4,4.1-6.2c0.6,1.3-0.1,2.5,0.6,3.4c0,0,0.1,0.1,0.1,0.1C69.4,64.9,69.4,66.8,69.3,68.8z"/>
		<path class="st9" d="M69.3,62.8c-0.7-1,0-2.1-0.6-3.4c-1.4,2.1-2.8,4.1-4.1,6.2c-2.8,4.3-2.8,4.2-5.6,0.1
			c-1.6-2.3-3.2-4.5-4.8-6.7c0-2.8,0-5.5,0-8.3c0-0.2,0.1-0.3,0.2-0.8c2.2,3.2,4.3,6.1,6.3,9.2c0.9,1.5,1.4,1.3,2.3,0
			c1.9-3,4-5.9,6.5-8.8C69.3,54.4,69.3,58.6,69.3,62.8z"/>
		<path class="st10" d="M31.6,44.3c0-4.2,0-8.3,0-12.5c0-0.6-0.4-1.5,0.7-1.5c1.1,0,0.7,0.9,0.7,1.5c0,8.4,0,16.7,0,25.1
			c0,0.6,0.3,1.5-0.8,1.4c-0.9-0.1-0.6-0.9-0.6-1.4C31.6,52.7,31.6,48.5,31.6,44.3z"/>
	</g>
</g>
</svg>
