<?xml version="1.0" encoding="utf-8"?>
<!-- Generator: Adobe Illustrator 21.1.0, SVG Export Plug-In . SVG Version: 6.00 Build 0)  -->
<svg version="1.1" id="Layer_1" xmlns="http://www.w3.org/2000/svg" xmlns:xlink="http://www.w3.org/1999/xlink" x="0px" y="0px"
	 viewBox="0 0 200 200" style="enable-background:new 0 0 200 200;" xml:space="preserve">
<style type="text/css">
	.st0{fill:#F1DD3F;}
	.st1{fill:#333333;}
</style>
<rect class="st0" width="199.5" height="199.8"/>
<path class="st1" d="M91.2,116.9c-0.1,9-6,15.9-14.8,17.7c-10.7,2.3-20.5-1.2-25.9-9.3c-2-3-2-3,1-4.9c2.9-1.8,5.8-3.5,8.8-5.4
	c0.9,1.3,1.7,2.5,2.5,3.7c1.6,2.4,4.4,3.7,7.2,3.5c4.3-0.1,6.7-2.5,6.8-6.8c0.1-4.1,0.1-8.2,0.1-12.2c0-11.6,0-23.3,0-34.9
	c0-3.4-0.1-2.9,2.9-3c3.2,0,6.5,0,9.7,0c1.3,0,1.6,0.4,1.6,1.7C91.3,83.7,91.4,100.3,91.2,116.9z"/>
<path class="st1" d="M147.2,126.1c-4.1,6-10.3,8.3-17.1,9c-1.1,0.1-2.3,0.1-3.6,0.2c-10-0.2-18.7-3.6-24.4-12.5
	c-1.3-2-1.3-2,0.8-3.3c2.6-1.6,5.3-3,7.9-4.6c1.4-0.9,2.1-0.7,3,0.7c3.6,5.5,8.8,7.6,15.2,6.7c3-0.4,5.6-1.8,6.6-4.8
	c0.9-2.6-0.1-5.4-2.3-6.9c-2-1.3-4-2.4-6.1-3.4c-4.6-2.3-9.5-4.2-13.7-7.1c-8.3-5.7-10.9-16.8-6.1-25.7c3.3-5.8,8.6-8.9,15.1-9.5
	c3.6-0.3,7.2-0.1,10.8,0.7c5.5,1.1,9.4,4.8,12.3,9.5c0.4,0.4,0.4,1,0,1.4c-0.1,0.1-0.2,0.2-0.4,0.2c-3.1,1.9-6.1,3.9-9.1,5.9
	c-1.1,0.7-1.5,0.1-2-0.7c-2.2-3.3-5.1-5-9.2-4.6c-2.5,0.3-4.4,1.4-5.2,3.8c-1,2.3-0.4,4.9,1.4,6.6c1.1,1,2.3,1.8,3.7,2.4
	c3.8,1.9,7.7,3.5,11.6,5.4c1.5,0.7,2.9,1.5,4.3,2.4C150.4,104.1,153.4,116.9,147.2,126.1z"/>
</svg>
