<?xml version="1.0" encoding="utf-8"?>
<!-- Generator: Adobe Illustrator 21.1.0, SVG Export Plug-In . SVG Version: 6.00 Build 0)  -->
<svg version="1.1" id="Layer_1" xmlns="http://www.w3.org/2000/svg" xmlns:xlink="http://www.w3.org/1999/xlink" x="0px" y="0px"
	 viewBox="0 0 200 200" style="enable-background:new 0 0 200 200;" xml:space="preserve">
<style type="text/css">
	.st0{fill:#EFD641;}
</style>
<path class="st0" d="M0,0v199.8h199.5V0H0z M163.2,54.3c0,3.3-2.2,5.9-5.5,6.5c-3.9,0.8-7.6-0.4-9.6-3.4c-0.7-1.1-0.7-1.1,0.4-1.8
	c1.1-0.7,2.1-1.3,3.2-2c0.3,0.5,0.6,0.9,0.9,1.4c0.6,0.9,1.6,1.4,2.7,1.3c1.6,0,2.5-0.9,2.5-2.5c0-1.5,0-3,0-4.5c0-4.3,0-8.6,0-12.9
	c0-1.3,0-1.1,1.1-1.1c1.2,0,2.4,0,3.6,0c0.5,0,0.6,0.1,0.6,0.6C163.3,42,163.3,48.2,163.2,54.3z M183.9,57.7
	c-1.5,2.2-3.8,3.1-6.3,3.3c-0.4,0-0.8,0-1.3,0.1c-3.7-0.1-6.9-1.3-9-4.6c-0.5-0.7-0.5-0.7,0.3-1.2c1-0.6,2-1.1,2.9-1.7
	c0.5-0.3,0.8-0.3,1.1,0.3c1.3,2,3.2,2.8,5.6,2.5c1.1-0.1,2.1-0.7,2.4-1.8c0.3-1,0-2-0.8-2.5c-0.7-0.5-1.5-0.9-2.2-1.3
	c-1.7-0.8-3.5-1.5-5.1-2.6c-3.1-2.1-4-6.2-2.2-9.5c1.2-2.1,3.2-3.3,5.6-3.5c1.3-0.1,2.7,0,4,0.3c2,0.4,3.5,1.8,4.5,3.5
	c0.1,0.1,0.1,0.4,0,0.5c0,0-0.1,0.1-0.1,0.1c-1.1,0.7-2.2,1.4-3.4,2.2c-0.4,0.3-0.6,0-0.7-0.3c-0.8-1.2-1.9-1.8-3.4-1.7
	c-0.9,0.1-1.6,0.5-1.9,1.4c-0.4,0.8-0.1,1.8,0.5,2.4c0.4,0.4,0.8,0.7,1.4,0.9c1.4,0.7,2.8,1.3,4.3,2c0.6,0.3,1.1,0.6,1.6,0.9
	C185.1,49.6,186.2,54.3,183.9,57.7z"/>
</svg>
