<?xml version="1.0" encoding="utf-8"?>
<!-- Generator: Adobe Illustrator 21.1.0, SVG Export Plug-In . SVG Version: 6.00 Build 0)  -->
<svg version="1.1" id="Layer_1" xmlns="http://www.w3.org/2000/svg" xmlns:xlink="http://www.w3.org/1999/xlink" x="0px" y="0px"
	 viewBox="0 0 200 200" style="enable-background:new 0 0 200 200;" xml:space="preserve">
<style type="text/css">
	.st0{fill:#EFD641;}
</style>
<path class="st0" d="M146.6,70.5c0,6.7-4.4,11.9-11.1,13.1c-7.9,1.6-15.3-0.8-19.4-6.9c-1.4-2.2-1.4-2.2,0.8-3.6
	c2.2-1.4,4.2-2.6,6.5-4c0.6,1,1.2,1.8,1.8,2.8c1.2,1.8,3.2,2.8,5.5,2.6c3.2,0,5-1.8,5-5c0-3,0-6.1,0-9.1c0-8.7,0-17.4,0-26
	c0-2.6,0-2.2,2.2-2.2c2.4,0,4.8,0,7.3,0c1,0,1.2,0.2,1.2,1.2C146.8,45.6,146.8,58.2,146.6,70.5z M188.4,77.3
	c-3,4.4-7.7,6.3-12.7,6.7c-0.8,0-1.6,0-2.6,0.2c-7.5-0.2-13.9-2.6-18.2-9.3c-1-1.4-1-1.4,0.6-2.4c2-1.2,4-2.2,5.9-3.4
	c1-0.6,1.6-0.6,2.2,0.6c2.6,4,6.5,5.7,11.3,5c2.2-0.2,4.2-1.4,4.8-3.6c0.6-2,0-4-1.6-5c-1.4-1-3-1.8-4.4-2.6
	c-3.4-1.6-7.1-3-10.3-5.2c-6.3-4.2-8.1-12.5-4.4-19.2c2.4-4.2,6.5-6.7,11.3-7.1c2.6-0.2,5.5,0,8.1,0.6c4,0.8,7.1,3.6,9.1,7.1
	c0.2,0.2,0.2,0.8,0,1l-0.2,0.2c-2.2,1.4-4.4,2.8-6.9,4.4c-0.8,0.6-1.2,0-1.4-0.6c-1.6-2.4-3.8-3.6-6.9-3.4c-1.8,0.2-3.2,1-3.8,2.8
	c-0.8,1.6-0.2,3.6,1,4.8c0.8,0.8,1.6,1.4,2.8,1.8c2.8,1.4,5.7,2.6,8.7,4c1.2,0.6,2.2,1.2,3.2,1.8C190.9,61,193.1,70.5,188.4,77.3z"
	/>
</svg>
