<svg xmlns="http://www.w3.org/2000/svg" width="1920" height="1080"><path d="M552,-177L658,-172L1264,-205Z" fill="#2b2f3b" stroke="#2b2f3b" stroke-width="1.51"/><path d="M131,-207L552,-177L1264,-205Z" fill="#2a2e3a" stroke="#2a2e3a" stroke-width="1.51"/><path d="M658,-172L787,-164L1264,-205Z" fill="#2c303c" stroke="#2c303c" stroke-width="1.51"/><path d="M1111,1316L827,1322L1341,1319Z" fill="#3a404c" stroke="#3a404c" stroke-width="1.51"/><path d="M1544,-197L1813,-146L2005,-184Z" fill="#333844" stroke="#333844" stroke-width="1.51"/><path d="M2058,700L1999,826L2079,873Z" fill="#3c414d" stroke="#3c414d" stroke-width="1.51"/><path d="M2071,-65L2023,107L2121,161Z" fill="#353946" stroke="#353946" stroke-width="1.51"/><path d="M1996,1079L2079,1118L2128,918Z" fill="#3e4450" stroke="#3e4450" stroke-width="1.51"/><path d="M2114,543L2058,700L2128,918Z" fill="#3b404d" stroke="#3b404d" stroke-width="1.51"/><path d="M2058,700L2079,873L2128,918Z" fill="#3c424e" stroke="#3c424e" stroke-width="1.51"/><path d="M131,-207L1264,-205L2156,-231Z" fill="#2f333f" stroke="#2f333f" stroke-width="1.51"/><path d="M1264,-205L1544,-197L2156,-231Z" fill="#323742" stroke="#323742" stroke-width="1.51"/><path d="M1544,-197L2005,-184L2156,-231Z" fill="#333844" stroke="#333844" stroke-width="1.51"/><path d="M2005,-184L2071,-65L2156,-231Z" fill="#353946" stroke="#353946" stroke-width="1.51"/><path d="M2071,-65L2121,161L2156,-231Z" fill="#353a46" stroke="#353a46" stroke-width="1.51"/><path d="M1922,366L2114,543L2161,395Z" fill="#363c48" stroke="#363c48" stroke-width="1.51"/><path d="M2117,193L1991,202L2161,395Z" fill="#353a46" stroke="#353a46" stroke-width="1.51"/><path d="M1991,202L1922,366L2161,395Z" fill="#353a46" stroke="#353a46" stroke-width="1.51"/><path d="M2121,161L2117,193L2161,395Z" fill="#353a46" stroke="#353a46" stroke-width="1.51"/><path d="M2114,543L2128,918L2161,395Z" fill="#3a3f4b" stroke="#3a3f4b" stroke-width="1.51"/><path d="M2156,-231L2121,161L2161,395Z" fill="#353a46" stroke="#353a46" stroke-width="1.51"/><path d="M2079,1118L1977,1253L2162,1205Z" fill="#404652" stroke="#404652" stroke-width="1.51"/><path d="M2128,918L2079,1118L2162,1205Z" fill="#3f4551" stroke="#3f4551" stroke-width="1.51"/><path d="M2161,395L2128,918L2162,1205Z" fill="#3d424e" stroke="#3d424e" stroke-width="1.51"/><path d="M1953,990L1996,1079L2128,918Z" fill="#3e434f" stroke="#3e434f" stroke-width="1.51"/><path d="M1988,674L2058,700L2114,543Z" fill="#393f4b" stroke="#393f4b" stroke-width="1.51"/><path d="M1922,366L1917,552L2114,543Z" fill="#373c48" stroke="#373c48" stroke-width="1.51"/><path d="M2079,873L1953,990L2128,918Z" fill="#3d424f" stroke="#3d424f" stroke-width="1.51"/><path d="M1544,-197L1641,-154L1813,-146Z" fill="#323743" stroke="#323743" stroke-width="1.51"/><path d="M2023,107L1991,202L2117,193Z" fill="#343946" stroke="#343946" stroke-width="1.51"/><path d="M2023,107L2117,193L2121,161Z" fill="#353a46" stroke="#353a46" stroke-width="1.51"/><path d="M1917,552L1988,674L2114,543Z" fill="#393d4a" stroke="#393d4a" stroke-width="1.51"/><path d="M1839,1221L1663,1301L1977,1253Z" fill="#3f4451" stroke="#3f4451" stroke-width="1.51"/><path d="M1984,-87L2023,107L2071,-65Z" fill="#343945" stroke="#343945" stroke-width="1.51"/><path d="M2005,-184L1984,-87L2071,-65Z" fill="#343945" stroke="#343945" stroke-width="1.51"/><path d="M1996,1079L1977,1253L2079,1118Z" fill="#3f4551" stroke="#3f4551" stroke-width="1.51"/><path d="M1999,826L1953,990L2079,873Z" fill="#3d424e" stroke="#3d424e" stroke-width="1.51"/><path d="M1988,674L1999,826L2058,700Z" fill="#3b404c" stroke="#3b404c" stroke-width="1.51"/><path d="M1519,1284L1341,1319L1663,1301Z" fill="#3d434f" stroke="#3d434f" stroke-width="1.51"/><path d="M1839,1221L1977,1253L1996,1079Z" fill="#3f4551" stroke="#3f4551" stroke-width="1.51"/><path d="M1825,1122L1839,1221L1996,1079Z" fill="#3e4450" stroke="#3e4450" stroke-width="1.51"/><path d="M1988,674L1851,789L1999,826Z" fill="#3b404c" stroke="#3b404c" stroke-width="1.51"/><path d="M1984,-87L1794,6L2023,107Z" fill="#343945" stroke="#343945" stroke-width="1.51"/><path d="M1782,128L1991,202L2023,107Z" fill="#343845" stroke="#343845" stroke-width="1.51"/><path d="M1794,6L1782,128L2023,107Z" fill="#333844" stroke="#333844" stroke-width="1.51"/><path d="M1782,128L1817,226L1991,202Z" fill="#333844" stroke="#333844" stroke-width="1.51"/><path d="M1817,226L1922,366L1991,202Z" fill="#343844" stroke="#343844" stroke-width="1.51"/><path d="M1851,789L1953,990L1999,826Z" fill="#3c414d" stroke="#3c414d" stroke-width="1.51"/><path d="M1813,-146L1984,-87L2005,-184Z" fill="#343945" stroke="#343945" stroke-width="1.51"/><path d="M1953,990L1825,1122L1996,1079Z" fill="#3e434f" stroke="#3e434f" stroke-width="1.51"/><path d="M1794,705L1851,789L1988,674Z" fill="#3a3f4b" stroke="#3a3f4b" stroke-width="1.51"/><path d="M1917,552L1794,705L1988,674Z" fill="#383e49" stroke="#383e49" stroke-width="1.51"/><path d="M1792,449L1917,552L1922,366Z" fill="#363b47" stroke="#363b47" stroke-width="1.51"/><path d="M1851,789L1774,984L1953,990Z" fill="#3c414d" stroke="#3c414d" stroke-width="1.51"/><path d="M1813,-146L1794,6L1984,-87Z" fill="#333844" stroke="#333844" stroke-width="1.51"/><path d="M1264,-205L1395,-183L1544,-197Z" fill="#303540" stroke="#303540" stroke-width="1.51"/><path d="M1774,984L1825,1122L1953,990Z" fill="#3d434e" stroke="#3d434e" stroke-width="1.51"/><path d="M1791,521L1794,705L1917,552Z" fill="#383c48" stroke="#383c48" stroke-width="1.51"/><path d="M1792,449L1791,521L1917,552Z" fill="#373b47" stroke="#373b47" stroke-width="1.51"/><path d="M1817,226L1792,449L1922,366Z" fill="#343945" stroke="#343945" stroke-width="1.51"/><path d="M1746,967L1774,984L1851,789Z" fill="#3b414d" stroke="#3b414d" stroke-width="1.51"/><path d="M1680,301L1738,450L1792,449Z" fill="#343945" stroke="#343945" stroke-width="1.51"/><path d="M1680,301L1792,449L1817,226Z" fill="#333844" stroke="#333844" stroke-width="1.51"/><path d="M1794,705L1642,787L1851,789Z" fill="#3a3f4a" stroke="#3a3f4a" stroke-width="1.51"/><path d="M1642,787L1746,967L1851,789Z" fill="#3b404b" stroke="#3b404b" stroke-width="1.51"/><path d="M1825,1122L1648,1174L1839,1221Z" fill="#3e434f" stroke="#3e434f" stroke-width="1.51"/><path d="M1648,1174L1663,1301L1839,1221Z" fill="#3e444f" stroke="#3e444f" stroke-width="1.51"/><path d="M1791,521L1625,687L1794,705Z" fill="#373d48" stroke="#373d48" stroke-width="1.51"/><path d="M1636,-59L1794,6L1813,-146Z" fill="#333743" stroke="#333743" stroke-width="1.51"/><path d="M1774,984L1648,1174L1825,1122Z" fill="#3d424e" stroke="#3d424e" stroke-width="1.51"/><path d="M1641,-154L1636,-59L1813,-146Z" fill="#323743" stroke="#323743" stroke-width="1.51"/><path d="M1782,128L1680,301L1817,226Z" fill="#333743" stroke="#333743" stroke-width="1.51"/><path d="M1746,967L1648,1174L1774,984Z" fill="#3c424e" stroke="#3c424e" stroke-width="1.51"/><path d="M1249,1307L1111,1316L1341,1319Z" fill="#3b414c" stroke="#3b414c" stroke-width="1.51"/><path d="M1642,787L1596,860L1746,967Z" fill="#3a3f4b" stroke="#3a3f4b" stroke-width="1.51"/><path d="M1622,128L1680,301L1782,128Z" fill="#323743" stroke="#323743" stroke-width="1.51"/><path d="M1637,480L1625,687L1791,521Z" fill="#363b47" stroke="#363b47" stroke-width="1.51"/><path d="M1738,450L1791,521L1792,449Z" fill="#363a46" stroke="#363a46" stroke-width="1.51"/><path d="M1622,128L1782,128L1794,6Z" fill="#323743" stroke="#323743" stroke-width="1.51"/><path d="M1636,-59L1622,128L1794,6Z" fill="#323743" stroke="#323743" stroke-width="1.51"/><path d="M1625,687L1642,787L1794,705Z" fill="#393e49" stroke="#393e49" stroke-width="1.51"/><path d="M1738,450L1637,480L1791,521Z" fill="#353a46" stroke="#353a46" stroke-width="1.51"/><path d="M1622,128L1570,216L1680,301Z" fill="#323642" stroke="#323642" stroke-width="1.51"/><path d="M1680,301L1637,480L1738,450Z" fill="#343945" stroke="#343945" stroke-width="1.51"/><path d="M1499,1028L1648,1174L1746,967Z" fill="#3c414d" stroke="#3c414d" stroke-width="1.51"/><path d="M1596,860L1499,1028L1746,967Z" fill="#3b404c" stroke="#3b404c" stroke-width="1.51"/><path d="M1584,151L1570,216L1622,128Z" fill="#323642" stroke="#323642" stroke-width="1.51"/><path d="M1529,562L1584,677L1625,687Z" fill="#373c47" stroke="#373c47" stroke-width="1.51"/><path d="M1504,7L1622,128L1636,-59Z" fill="#323642" stroke="#323642" stroke-width="1.51"/><path d="M1529,562L1625,687L1637,480Z" fill="#363b46" stroke="#363b46" stroke-width="1.51"/><path d="M1499,1028L1541,1171L1648,1174Z" fill="#3c424d" stroke="#3c424d" stroke-width="1.51"/><path d="M1648,1174L1519,1284L1663,1301Z" fill="#3d434f" stroke="#3d434f" stroke-width="1.51"/><path d="M1547,414L1637,480L1680,301Z" fill="#333844" stroke="#333844" stroke-width="1.51"/><path d="M1570,216L1547,414L1680,301Z" fill="#323743" stroke="#323743" stroke-width="1.51"/><path d="M787,-164L1079,-149L1264,-205Z" fill="#2d323d" stroke="#2d323d" stroke-width="1.51"/><path d="M1541,1171L1519,1284L1648,1174Z" fill="#3d424e" stroke="#3d424e" stroke-width="1.51"/><path d="M1544,-197L1636,-59L1641,-154Z" fill="#323642" stroke="#323642" stroke-width="1.51"/><path d="M1625,687L1584,677L1642,787Z" fill="#383d48" stroke="#383d48" stroke-width="1.51"/><path d="M1504,7L1584,151L1622,128Z" fill="#313642" stroke="#313642" stroke-width="1.51"/><path d="M1584,677L1596,860L1642,787Z" fill="#393e49" stroke="#393e49" stroke-width="1.51"/><path d="M1544,-197L1504,7L1636,-59Z" fill="#313642" stroke="#313642" stroke-width="1.51"/><path d="M1547,414L1529,562L1637,480Z" fill="#343945" stroke="#343945" stroke-width="1.51"/><path d="M1414,341L1547,414L1570,216Z" fill="#323642" stroke="#323642" stroke-width="1.51"/><path d="M1584,677L1451,877L1596,860Z" fill="#393e49" stroke="#393e49" stroke-width="1.51"/><path d="M1451,877L1499,1028L1596,860Z" fill="#3a3f4a" stroke="#3a3f4a" stroke-width="1.51"/><path d="M1360,677L1451,877L1584,677Z" fill="#373c47" stroke="#373c47" stroke-width="1.51"/><path d="M1395,-183L1504,7L1544,-197Z" fill="#313541" stroke="#313541" stroke-width="1.51"/><path d="M1351,71L1570,216L1584,151Z" fill="#313641" stroke="#313641" stroke-width="1.51"/><path d="M1450,14L1351,71L1584,151Z" fill="#313541" stroke="#313541" stroke-width="1.51"/><path d="M1504,7L1450,14L1584,151Z" fill="#313641" stroke="#313641" stroke-width="1.51"/><path d="M1529,562L1360,677L1584,677Z" fill="#363b46" stroke="#363b46" stroke-width="1.51"/><path d="M1395,-183L1450,14L1504,7Z" fill="#313541" stroke="#313541" stroke-width="1.51"/><path d="M1399,553L1529,562L1547,414Z" fill="#343945" stroke="#343945" stroke-width="1.51"/><path d="M1352,301L1414,341L1570,216Z" fill="#313541" stroke="#313541" stroke-width="1.51"/><path d="M1351,71L1352,301L1570,216Z" fill="#313541" stroke="#313541" stroke-width="1.51"/><path d="M1351,71L1311,260L1352,301Z" fill="#303440" stroke="#303440" stroke-width="1.51"/><path d="M1399,553L1360,677L1529,562Z" fill="#353a45" stroke="#353a45" stroke-width="1.51"/><path d="M1499,1028L1377,1085L1541,1171Z" fill="#3b404c" stroke="#3b404c" stroke-width="1.51"/><path d="M1414,341L1399,553L1547,414Z" fill="#333843" stroke="#333843" stroke-width="1.51"/><path d="M1296,1171L1519,1284L1541,1171Z" fill="#3c414d" stroke="#3c414d" stroke-width="1.51"/><path d="M1377,1085L1296,1171L1541,1171Z" fill="#3b404c" stroke="#3b404c" stroke-width="1.51"/><path d="M1296,1171L1341,1319L1519,1284Z" fill="#3c414d" stroke="#3c414d" stroke-width="1.51"/><path d="M-174,-158L3,-180L131,-207Z" fill="#292d39" stroke="#292d39" stroke-width="1.51"/><path d="M1360,677L1296,824L1451,877Z" fill="#383d48" stroke="#383d48" stroke-width="1.51"/><path d="M1451,877L1348,1033L1499,1028Z" fill="#3a3f4a" stroke="#3a3f4a" stroke-width="1.51"/><path d="M1348,1033L1377,1085L1499,1028Z" fill="#3a3f4b" stroke="#3a3f4b" stroke-width="1.51"/><path d="M1231,481L1399,553L1414,341Z" fill="#333743" stroke="#333743" stroke-width="1.51"/><path d="M1395,-183L1266,-1L1450,14Z" fill="#303540" stroke="#303540" stroke-width="1.51"/><path d="M1266,-1L1351,71L1450,14Z" fill="#303540" stroke="#303540" stroke-width="1.51"/><path d="M1296,824L1348,1033L1451,877Z" fill="#393e49" stroke="#393e49" stroke-width="1.51"/><path d="M1264,-205L1266,-1L1395,-183Z" fill="#303440" stroke="#303440" stroke-width="1.51"/><path d="M1352,301L1238,345L1414,341Z" fill="#313541" stroke="#313541" stroke-width="1.51"/><path d="M1238,345L1231,481L1414,341Z" fill="#313541" stroke="#313541" stroke-width="1.51"/><path d="M213,1286L-57,1277L322,1305Z" fill="#353a46" stroke="#353a46" stroke-width="1.51"/><path d="M1296,824L1199,986L1348,1033Z" fill="#383d48" stroke="#383d48" stroke-width="1.51"/><path d="M1195,142L1311,260L1351,71Z" fill="#2f343f" stroke="#2f343f" stroke-width="1.51"/><path d="M1217,640L1360,677L1399,553Z" fill="#353945" stroke="#353945" stroke-width="1.51"/><path d="M1231,481L1217,640L1399,553Z" fill="#333843" stroke="#333843" stroke-width="1.51"/><path d="M131,-207L237,-182L552,-177Z" fill="#292d39" stroke="#292d39" stroke-width="1.51"/><path d="M1296,1171L1249,1307L1341,1319Z" fill="#3c404d" stroke="#3c404d" stroke-width="1.51"/><path d="M1348,1033L1296,1171L1377,1085Z" fill="#3a3f4b" stroke="#3a3f4b" stroke-width="1.51"/><path d="M1217,640L1296,824L1360,677Z" fill="#363b46" stroke="#363b46" stroke-width="1.51"/><path d="M1199,986L1296,1171L1348,1033Z" fill="#393e4a" stroke="#393e4a" stroke-width="1.51"/><path d="M1266,-1L1195,142L1351,71Z" fill="#2f343f" stroke="#2f343f" stroke-width="1.51"/><path d="M1311,260L1238,345L1352,301Z" fill="#303540" stroke="#303540" stroke-width="1.51"/><path d="M1264,-205L1155,-28L1266,-1Z" fill="#2f333f" stroke="#2f333f" stroke-width="1.51"/><path d="M1199,986L1097,1154L1296,1171Z" fill="#393e4a" stroke="#393e4a" stroke-width="1.51"/><path d="M1217,640L1166,661L1296,824Z" fill="#353a45" stroke="#353a45" stroke-width="1.51"/><path d="M1145,290L1238,345L1311,260Z" fill="#2f343f" stroke="#2f343f" stroke-width="1.51"/><path d="M1195,142L1145,290L1311,260Z" fill="#2f333f" stroke="#2f333f" stroke-width="1.51"/><path d="M1103,1028L1097,1154L1199,986Z" fill="#383d49" stroke="#383d49" stroke-width="1.51"/><path d="M1097,1154L1249,1307L1296,1171Z" fill="#3a3f4b" stroke="#3a3f4b" stroke-width="1.51"/><path d="M1065,844L1199,986L1296,824Z" fill="#373c47" stroke="#373c47" stroke-width="1.51"/><path d="M1166,661L1065,844L1296,824Z" fill="#353a45" stroke="#353a45" stroke-width="1.51"/><path d="M787,-164L928,-124L1079,-149Z" fill="#2c303c" stroke="#2c303c" stroke-width="1.51"/><path d="M1097,1154L1111,1316L1249,1307Z" fill="#3a3f4b" stroke="#3a3f4b" stroke-width="1.51"/><path d="M1079,-149L1155,-28L1264,-205Z" fill="#2e333e" stroke="#2e333e" stroke-width="1.51"/><path d="M1155,-28L1195,142L1266,-1Z" fill="#2f333f" stroke="#2f333f" stroke-width="1.51"/><path d="M1166,661L1217,640L1231,481Z" fill="#333843" stroke="#333843" stroke-width="1.51"/><path d="M1051,498L1166,661L1231,481Z" fill="#323742" stroke="#323742" stroke-width="1.51"/><path d="M1073,411L1231,481L1238,345Z" fill="#303540" stroke="#303540" stroke-width="1.51"/><path d="M1145,290L1073,411L1238,345Z" fill="#2f343f" stroke="#2f343f" stroke-width="1.51"/><path d="M1155,-28L1060,114L1195,142Z" fill="#2e323e" stroke="#2e323e" stroke-width="1.51"/><path d="M1073,411L1051,498L1231,481Z" fill="#303540" stroke="#303540" stroke-width="1.51"/><path d="M931,1279L827,1322L1111,1316Z" fill="#383e4a" stroke="#383e4a" stroke-width="1.51"/><path d="M1060,114L1145,290L1195,142Z" fill="#2e323e" stroke="#2e323e" stroke-width="1.51"/><path d="M1065,844L1103,1028L1199,986Z" fill="#373c47" stroke="#373c47" stroke-width="1.51"/><path d="M1010,660L1065,844L1166,661Z" fill="#343844" stroke="#343844" stroke-width="1.51"/><path d="M1060,114L1001,228L1145,290Z" fill="#2d323d" stroke="#2d323d" stroke-width="1.51"/><path d="M1004,0L1060,114L1155,-28Z" fill="#2d323d" stroke="#2d323d" stroke-width="1.51"/><path d="M1051,498L1010,660L1166,661Z" fill="#333742" stroke="#333742" stroke-width="1.51"/><path d="M1079,-149L1004,0L1155,-28Z" fill="#2e323e" stroke="#2e323e" stroke-width="1.51"/><path d="M996,165L1001,228L1060,114Z" fill="#2d313d" stroke="#2d313d" stroke-width="1.51"/><path d="M1065,844L970,1017L1103,1028Z" fill="#363b47" stroke="#363b47" stroke-width="1.51"/><path d="M1020,1109L1097,1154L1103,1028Z" fill="#373d49" stroke="#373d49" stroke-width="1.51"/><path d="M1001,228L1073,411L1145,290Z" fill="#2e323e" stroke="#2e323e" stroke-width="1.51"/><path d="M1010,660L969,843L1065,844Z" fill="#343944" stroke="#343944" stroke-width="1.51"/><path d="M969,843L970,1017L1065,844Z" fill="#353a45" stroke="#353a45" stroke-width="1.51"/><path d="M1001,228L1000,424L1073,411Z" fill="#2e323e" stroke="#2e323e" stroke-width="1.51"/><path d="M1020,1109L931,1279L1097,1154Z" fill="#383d49" stroke="#383d49" stroke-width="1.51"/><path d="M1097,1154L931,1279L1111,1316Z" fill="#393e4a" stroke="#393e4a" stroke-width="1.51"/><path d="M970,1017L1020,1109L1103,1028Z" fill="#373c48" stroke="#373c48" stroke-width="1.51"/><path d="M928,-124L1004,0L1079,-149Z" fill="#2d313d" stroke="#2d313d" stroke-width="1.51"/><path d="M960,486L1010,660L1051,498Z" fill="#313641" stroke="#313641" stroke-width="1.51"/><path d="M1000,424L1051,498L1073,411Z" fill="#303440" stroke="#303440" stroke-width="1.51"/><path d="M1004,0L996,165L1060,114Z" fill="#2d313d" stroke="#2d313d" stroke-width="1.51"/><path d="M1000,424L960,486L1051,498Z" fill="#2f343f" stroke="#2f343f" stroke-width="1.51"/><path d="M804,418L1000,424L1001,228Z" fill="#2d313d" stroke="#2d313d" stroke-width="1.51"/><path d="M832,190L804,418L1001,228Z" fill="#2c303c" stroke="#2c303c" stroke-width="1.51"/><path d="M818,148L996,165L1004,0Z" fill="#2c313c" stroke="#2c313c" stroke-width="1.51"/><path d="M960,486L860,505L1010,660Z" fill="#313540" stroke="#313540" stroke-width="1.51"/><path d="M860,505L810,652L1010,660Z" fill="#303540" stroke="#303540" stroke-width="1.51"/><path d="M810,652L969,843L1010,660Z" fill="#323742" stroke="#323742" stroke-width="1.51"/><path d="M970,1017L777,1135L1020,1109Z" fill="#363b47" stroke="#363b47" stroke-width="1.51"/><path d="M777,1135L931,1279L1020,1109Z" fill="#373c48" stroke="#373c48" stroke-width="1.51"/><path d="M811,-48L818,148L1004,0Z" fill="#2c303c" stroke="#2c303c" stroke-width="1.51"/><path d="M797,1027L777,1135L970,1017Z" fill="#353a46" stroke="#353a46" stroke-width="1.51"/><path d="M969,843L781,865L970,1017Z" fill="#343944" stroke="#343944" stroke-width="1.51"/><path d="M996,165L832,190L1001,228Z" fill="#2c313c" stroke="#2c313c" stroke-width="1.51"/><path d="M928,-124L811,-48L1004,0Z" fill="#2c303c" stroke="#2c303c" stroke-width="1.51"/><path d="M804,418L960,486L1000,424Z" fill="#2f333f" stroke="#2f333f" stroke-width="1.51"/><path d="M781,865L797,1027L970,1017Z" fill="#343945" stroke="#343945" stroke-width="1.51"/><path d="M818,148L832,190L996,165Z" fill="#2c303c" stroke="#2c303c" stroke-width="1.51"/><path d="M548,1280L322,1305L694,1320Z" fill="#353a46" stroke="#353a46" stroke-width="1.51"/><path d="M804,418L860,505L960,486Z" fill="#2f333e" stroke="#2f333e" stroke-width="1.51"/><path d="M810,652L781,865L969,843Z" fill="#323742" stroke="#323742" stroke-width="1.51"/><path d="M777,1135L827,1322L931,1279Z" fill="#373c48" stroke="#373c48" stroke-width="1.51"/><path d="M787,-164L811,-48L928,-124Z" fill="#2b303b" stroke="#2b303b" stroke-width="1.51"/><path d="M781,865L727,932L797,1027Z" fill="#343844" stroke="#343844" stroke-width="1.51"/><path d="M638,795L781,865L810,652Z" fill="#313641" stroke="#313641" stroke-width="1.51"/><path d="M811,-48L726,-19L818,148Z" fill="#2b2f3b" stroke="#2b2f3b" stroke-width="1.51"/><path d="M726,-19L702,135L818,148Z" fill="#2b2f3b" stroke="#2b2f3b" stroke-width="1.51"/><path d="M777,1135L694,1320L827,1322Z" fill="#373b48" stroke="#373b48" stroke-width="1.51"/><path d="M690,269L804,418L832,190Z" fill="#2b2f3b" stroke="#2b2f3b" stroke-width="1.51"/><path d="M649,523L810,652L860,505Z" fill="#2f333f" stroke="#2f333f" stroke-width="1.51"/><path d="M804,418L649,523L860,505Z" fill="#2e323e" stroke="#2e323e" stroke-width="1.51"/><path d="M690,407L649,523L804,418Z" fill="#2d313d" stroke="#2d313d" stroke-width="1.51"/><path d="M690,269L690,407L804,418Z" fill="#2c303c" stroke="#2c303c" stroke-width="1.51"/><path d="M621,696L638,795L810,652Z" fill="#303540" stroke="#303540" stroke-width="1.51"/><path d="M818,148L702,135L832,190Z" fill="#2b2f3b" stroke="#2b2f3b" stroke-width="1.51"/><path d="M702,135L690,269L832,190Z" fill="#2a2f3a" stroke="#2a2f3a" stroke-width="1.51"/><path d="M718,1059L777,1135L797,1027Z" fill="#353a46" stroke="#353a46" stroke-width="1.51"/><path d="M787,-164L726,-19L811,-48Z" fill="#2b2f3b" stroke="#2b2f3b" stroke-width="1.51"/><path d="M649,523L621,696L810,652Z" fill="#2f333f" stroke="#2f333f" stroke-width="1.51"/><path d="M658,-172L726,-19L787,-164Z" fill="#2a2e3a" stroke="#2a2e3a" stroke-width="1.51"/><path d="M727,932L718,1059L797,1027Z" fill="#343945" stroke="#343945" stroke-width="1.51"/><path d="M548,1280L694,1320L777,1135Z" fill="#353a47" stroke="#353a47" stroke-width="1.51"/><path d="M718,1059L548,1280L777,1135Z" fill="#353a46" stroke="#353a46" stroke-width="1.51"/><path d="M638,795L727,932L781,865Z" fill="#323742" stroke="#323742" stroke-width="1.51"/><path d="M237,-182L417,-144L552,-177Z" fill="#292d39" stroke="#292d39" stroke-width="1.51"/><path d="M563,645L621,696L649,523Z" fill="#2e323e" stroke="#2e323e" stroke-width="1.51"/><path d="M483,1123L548,1280L718,1059Z" fill="#343945" stroke="#343945" stroke-width="1.51"/><path d="M658,-172L552,-177L726,-19Z" fill="#2a2e3a" stroke="#2a2e3a" stroke-width="1.51"/><path d="M552,-177L462,-102L726,-19Z" fill="#292d39" stroke="#292d39" stroke-width="1.51"/><path d="M478,113L702,135L726,-19Z" fill="#2a2e3a" stroke="#2a2e3a" stroke-width="1.51"/><path d="M535,932L718,1059L727,932Z" fill="#333743" stroke="#333743" stroke-width="1.51"/><path d="M638,795L535,932L727,932Z" fill="#323742" stroke="#323742" stroke-width="1.51"/><path d="M462,-102L478,113L726,-19Z" fill="#292d39" stroke="#292d39" stroke-width="1.51"/><path d="M542,347L690,407L690,269Z" fill="#2b2f3b" stroke="#2b2f3b" stroke-width="1.51"/><path d="M512,264L690,269L702,135Z" fill="#2a2e3a" stroke="#2a2e3a" stroke-width="1.51"/><path d="M535,932L483,1123L718,1059Z" fill="#333844" stroke="#333844" stroke-width="1.51"/><path d="M528,861L535,932L638,795Z" fill="#313541" stroke="#313541" stroke-width="1.51"/><path d="M478,113L512,264L702,135Z" fill="#292d39" stroke="#292d39" stroke-width="1.51"/><path d="M542,347L649,523L690,407Z" fill="#2b2f3b" stroke="#2b2f3b" stroke-width="1.51"/><path d="M512,264L542,347L690,269Z" fill="#2a2e3a" stroke="#2a2e3a" stroke-width="1.51"/><path d="M496,559L563,645L649,523Z" fill="#2d313d" stroke="#2d313d" stroke-width="1.51"/><path d="M542,347L496,559L649,523Z" fill="#2c303c" stroke="#2c303c" stroke-width="1.51"/><path d="M621,696L528,861L638,795Z" fill="#303540" stroke="#303540" stroke-width="1.51"/><path d="M563,645L429,791L621,696Z" fill="#2f333f" stroke="#2f333f" stroke-width="1.51"/><path d="M429,791L528,861L621,696Z" fill="#303440" stroke="#303440" stroke-width="1.51"/><path d="M462,-102L413,84L478,113Z" fill="#292d39" stroke="#292d39" stroke-width="1.51"/><path d="M411,916L483,1123L535,932Z" fill="#323742" stroke="#323742" stroke-width="1.51"/><path d="M322,404L496,559L542,347Z" fill="#2b2f3b" stroke="#2b2f3b" stroke-width="1.51"/><path d="M483,1123L424,1183L548,1280Z" fill="#343945" stroke="#343945" stroke-width="1.51"/><path d="M496,559L439,584L563,645Z" fill="#2d323d" stroke="#2d323d" stroke-width="1.51"/><path d="M439,584L429,791L563,645Z" fill="#2e333e" stroke="#2e333e" stroke-width="1.51"/><path d="M417,-144L462,-102L552,-177Z" fill="#292d39" stroke="#292d39" stroke-width="1.51"/><path d="M478,113L402,238L512,264Z" fill="#292d39" stroke="#292d39" stroke-width="1.51"/><path d="M424,1183L322,1305L548,1280Z" fill="#343946" stroke="#343946" stroke-width="1.51"/><path d="M349,732L429,791L439,584Z" fill="#2f333f" stroke="#2f333f" stroke-width="1.51"/><path d="M528,861L411,916L535,932Z" fill="#313641" stroke="#313641" stroke-width="1.51"/><path d="M512,264L402,238L542,347Z" fill="#292d39" stroke="#292d39" stroke-width="1.51"/><path d="M402,238L322,404L542,347Z" fill="#2a2e3a" stroke="#2a2e3a" stroke-width="1.51"/><path d="M322,404L439,584L496,559Z" fill="#2c303c" stroke="#2c303c" stroke-width="1.51"/><path d="M336,-10L413,84L462,-102Z" fill="#292d39" stroke="#292d39" stroke-width="1.51"/><path d="M429,791L411,916L528,861Z" fill="#313541" stroke="#313541" stroke-width="1.51"/><path d="M239,1119L424,1183L483,1123Z" fill="#333844" stroke="#333844" stroke-width="1.51"/><path d="M411,916L239,1119L483,1123Z" fill="#333743" stroke="#333743" stroke-width="1.51"/><path d="M413,84L402,238L478,113Z" fill="#292d39" stroke="#292d39" stroke-width="1.51"/><path d="M322,404L271,561L439,584Z" fill="#2c303c" stroke="#2c303c" stroke-width="1.51"/><path d="M417,-144L336,-10L462,-102Z" fill="#292d39" stroke="#292d39" stroke-width="1.51"/><path d="M198,936L239,1119L411,916Z" fill="#323742" stroke="#323742" stroke-width="1.51"/><path d="M259,79L402,238L413,84Z" fill="#292d39" stroke="#292d39" stroke-width="1.51"/><path d="M349,732L411,916L429,791Z" fill="#303540" stroke="#303540" stroke-width="1.51"/><path d="M271,561L349,732L439,584Z" fill="#2e323e" stroke="#2e323e" stroke-width="1.51"/><path d="M349,732L216,814L411,916Z" fill="#303540" stroke="#303540" stroke-width="1.51"/><path d="M237,357L322,404L402,238Z" fill="#2a2e3a" stroke="#2a2e3a" stroke-width="1.51"/><path d="M239,1119L322,1305L424,1183Z" fill="#343945" stroke="#343945" stroke-width="1.51"/><path d="M237,-182L336,-10L417,-144Z" fill="#292d39" stroke="#292d39" stroke-width="1.51"/><path d="M259,79L209,244L402,238Z" fill="#292d39" stroke="#292d39" stroke-width="1.51"/><path d="M216,814L198,936L411,916Z" fill="#313641" stroke="#313641" stroke-width="1.51"/><path d="M336,-10L259,79L413,84Z" fill="#292d39" stroke="#292d39" stroke-width="1.51"/><path d="M237,-182L256,-21L336,-10Z" fill="#292d39" stroke="#292d39" stroke-width="1.51"/><path d="M209,244L237,357L402,238Z" fill="#292d39" stroke="#292d39" stroke-width="1.51"/><path d="M239,1119L213,1286L322,1305Z" fill="#343946" stroke="#343946" stroke-width="1.51"/><path d="M256,-21L259,79L336,-10Z" fill="#292d39" stroke="#292d39" stroke-width="1.51"/><path d="M271,561L212,630L349,732Z" fill="#2e323e" stroke="#2e323e" stroke-width="1.51"/><path d="M212,630L216,814L349,732Z" fill="#2f343f" stroke="#2f343f" stroke-width="1.51"/><path d="M237,357L151,396L271,561Z" fill="#2b2f3b" stroke="#2b2f3b" stroke-width="1.51"/><path d="M151,396L141,517L271,561Z" fill="#2c303c" stroke="#2c303c" stroke-width="1.51"/><path d="M237,357L271,561L322,404Z" fill="#2b2f3b" stroke="#2b2f3b" stroke-width="1.51"/><path d="M212,630L150,785L216,814Z" fill="#2f343f" stroke="#2f343f" stroke-width="1.51"/><path d="M131,-207L81,-24L237,-182Z" fill="#292d39" stroke="#292d39" stroke-width="1.51"/><path d="M198,936L99,1026L239,1119Z" fill="#323743" stroke="#323743" stroke-width="1.51"/><path d="M128,1207L213,1286L239,1119Z" fill="#343945" stroke="#343945" stroke-width="1.51"/><path d="M237,-182L81,-24L256,-21Z" fill="#292d39" stroke="#292d39" stroke-width="1.51"/><path d="M27,130L209,244L259,79Z" fill="#292d39" stroke="#292d39" stroke-width="1.51"/><path d="M141,517L212,630L271,561Z" fill="#2d313d" stroke="#2d313d" stroke-width="1.51"/><path d="M256,-21L81,-24L259,79Z" fill="#292d39" stroke="#292d39" stroke-width="1.51"/><path d="M81,-24L27,130L259,79Z" fill="#292d39" stroke="#292d39" stroke-width="1.51"/><path d="M27,130L38,228L209,244Z" fill="#292d39" stroke="#292d39" stroke-width="1.51"/><path d="M112,627L150,785L212,630Z" fill="#2e333e" stroke="#2e333e" stroke-width="1.51"/><path d="M209,244L151,396L237,357Z" fill="#2a2e3a" stroke="#2a2e3a" stroke-width="1.51"/><path d="M73,1132L128,1207L239,1119Z" fill="#333844" stroke="#333844" stroke-width="1.51"/><path d="M99,1026L73,1132L239,1119Z" fill="#333844" stroke="#333844" stroke-width="1.51"/><path d="M38,228L151,396L209,244Z" fill="#292d39" stroke="#292d39" stroke-width="1.51"/><path d="M141,517L112,627L212,630Z" fill="#2d313d" stroke="#2d313d" stroke-width="1.51"/><path d="M128,1207L-57,1277L213,1286Z" fill="#343946" stroke="#343946" stroke-width="1.51"/><path d="M150,785L198,936L216,814Z" fill="#313541" stroke="#313541" stroke-width="1.51"/><path d="M150,785L-16,850L198,936Z" fill="#313541" stroke="#313541" stroke-width="1.51"/><path d="M-16,850L99,1026L198,936Z" fill="#313642" stroke="#313642" stroke-width="1.51"/><path d="M-16,850L-16,1012L99,1026Z" fill="#323642" stroke="#323642" stroke-width="1.51"/><path d="M3,-180L81,-24L131,-207Z" fill="#292d39" stroke="#292d39" stroke-width="1.51"/><path d="M-9,357L-17,570L141,517Z" fill="#2c303c" stroke="#2c303c" stroke-width="1.51"/><path d="M112,627L0,671L150,785Z" fill="#2f333f" stroke="#2f333f" stroke-width="1.51"/><path d="M0,671L-16,850L150,785Z" fill="#303440" stroke="#303440" stroke-width="1.51"/><path d="M-9,357L141,517L151,396Z" fill="#2b2f3b" stroke="#2b2f3b" stroke-width="1.51"/><path d="M38,228L-9,357L151,396Z" fill="#2a2e39" stroke="#2a2e39" stroke-width="1.51"/><path d="M-17,570L112,627L141,517Z" fill="#2d313d" stroke="#2d313d" stroke-width="1.51"/><path d="M3,-180L-35,-81L81,-24Z" fill="#292d39" stroke="#292d39" stroke-width="1.51"/><path d="M73,1132L-57,1277L128,1207Z" fill="#343945" stroke="#343945" stroke-width="1.51"/><path d="M-17,570L0,671L112,627Z" fill="#2e323e" stroke="#2e323e" stroke-width="1.51"/><path d="M-16,1012L73,1132L99,1026Z" fill="#333743" stroke="#333743" stroke-width="1.51"/><path d="M-103,1159L-57,1277L73,1132Z" fill="#343945" stroke="#343945" stroke-width="1.51"/><path d="M-35,-81L27,130L81,-24Z" fill="#292d39" stroke="#292d39" stroke-width="1.51"/><path d="M-16,1012L-103,1159L73,1132Z" fill="#333844" stroke="#333844" stroke-width="1.51"/><path d="M-162,385L-17,570L-9,357Z" fill="#2b2f3b" stroke="#2b2f3b" stroke-width="1.51"/><path d="M-35,-81L-115,146L27,130Z" fill="#292d39" stroke="#292d39" stroke-width="1.51"/><path d="M27,130L-101,216L38,228Z" fill="#292d39" stroke="#292d39" stroke-width="1.51"/><path d="M-101,216L-9,357L38,228Z" fill="#292d39" stroke="#292d39" stroke-width="1.51"/><path d="M-196,-32L-115,146L-35,-81Z" fill="#292d39" stroke="#292d39" stroke-width="1.51"/><path d="M-162,385L-186,545L-17,570Z" fill="#2c303c" stroke="#2c303c" stroke-width="1.51"/><path d="M-16,850L-142,916L-16,1012Z" fill="#313642" stroke="#313642" stroke-width="1.51"/><path d="M-115,146L-101,216L27,130Z" fill="#292d39" stroke="#292d39" stroke-width="1.51"/><path d="M-210,658L-142,916L-16,850Z" fill="#303540" stroke="#303540" stroke-width="1.51"/><path d="M-210,658L-16,850L0,671Z" fill="#2f343f" stroke="#2f343f" stroke-width="1.51"/><path d="M-17,570L-210,658L0,671Z" fill="#2e323e" stroke="#2e323e" stroke-width="1.51"/><path d="M-174,-158L-35,-81L3,-180Z" fill="#292d39" stroke="#292d39" stroke-width="1.51"/><path d="M-101,216L-162,385L-9,357Z" fill="#292d39" stroke="#292d39" stroke-width="1.51"/><path d="M-186,545L-210,658L-17,570Z" fill="#2d313d" stroke="#2d313d" stroke-width="1.51"/><path d="M-142,916L-103,1159L-16,1012Z" fill="#323743" stroke="#323743" stroke-width="1.51"/><path d="M-142,916L-142,1168L-103,1159Z" fill="#333844" stroke="#333844" stroke-width="1.51"/><path d="M-103,1159L-139,1243L-57,1277Z" fill="#343945" stroke="#343945" stroke-width="1.51"/><path d="M-174,-158L-196,-32L-35,-81Z" fill="#292d39" stroke="#292d39" stroke-width="1.51"/><path d="M-210,658L-254,888L-142,916Z" fill="#303540" stroke="#303540" stroke-width="1.51"/><path d="M-196,-32L-247,75L-115,146Z" fill="#292d39" stroke="#292d39" stroke-width="1.51"/><path d="M-142,916L-254,888L-142,1168Z" fill="#323742" stroke="#323742" stroke-width="1.51"/><path d="M-142,1168L-139,1243L-103,1159Z" fill="#343945" stroke="#343945" stroke-width="1.51"/><path d="M-115,146L-262,302L-101,216Z" fill="#292d39" stroke="#292d39" stroke-width="1.51"/><path d="M-262,302L-162,385L-101,216Z" fill="#292d39" stroke="#292d39" stroke-width="1.51"/><path d="M-247,75L-262,302L-115,146Z" fill="#292d39" stroke="#292d39" stroke-width="1.51"/><path d="M-142,1168L-254,888L-139,1243Z" fill="#333844" stroke="#333844" stroke-width="1.51"/><path d="M-262,302L-186,545L-162,385Z" fill="#2b2f3b" stroke="#2b2f3b" stroke-width="1.51"/><path d="M-247,75L-196,-32L-174,-158Z" fill="#292d39" stroke="#292d39" stroke-width="1.51"/><path d="M-262,302L-210,658L-186,545Z" fill="#2c303c" stroke="#2c303c" stroke-width="1.51"/><path d="M-262,302L-254,888L-210,658Z" fill="#2e323e" stroke="#2e323e" stroke-width="1.51"/></svg>