<?xml version="1.0" encoding="utf-8"?>
<!-- Generator: Adobe Illustrator 21.1.0, SVG Export Plug-In . SVG Version: 6.00 Build 0)  -->
<svg version="1.1" id="Layer_1" xmlns="http://www.w3.org/2000/svg" xmlns:xlink="http://www.w3.org/1999/xlink" x="0px" y="0px"
	 viewBox="0 0 200 200" style="enable-background:new 0 0 200 200;" xml:space="preserve">
<style type="text/css">
	.st0{fill:#F72354;}
</style>
<path class="st0" d="M0,0v199.8h199.5V0H0z"/>
<g>
	<path d="M86.1,59.8c-0.2,0.6-0.7,0.9-1.3,0.9c-2.1,0.3-4.1,0.5-6.2,0.8c-1.6,0.3-3.1,0.7-4.6,1.1c-0.4,0.1-0.9,0.3-1.3,0.6
		c-0.6,0.3-0.5,0.5-0.2,1.1c0.3,0.6,0.5,1.4,0.6,2.1c0.2,2,0.1,2,2.1,2.4c1.7,0.3,3.3,1,4.6,2.2c0.4,0.4,0.8,1,0.8,1.5
		c0,0.6-0.8,0.8-1.4,0.9c-1.6,0.3-3.1,0.4-4.7,0.6c-0.5,0.1-1.1,0.1-1.7,0.1c0,0.5,0,1,0,1.5c-0.1,8-0.3,16-0.5,24
		c0,1.1,0,2.2-0.1,3.4c0,0.3-0.2,0.6-0.4,0.8c-0.6,0.6-1.2,1.1-1.7,1.6c-1.6,1.4-3.4,1.7-5.4,1.2c-3.6-1-6.6-3-9.2-5.5
		c-3.5-3.4-6.4-7.3-8-12c-0.4-1-0.6-2.2-0.8-3.2c-0.4-2.2,0.9-4,3.1-4.2c3.1-0.4,6.2-0.4,9.3,0.4c0.5,0.1,1,0.3,1.4,0.5
		c1.3,0.6,1.9,1.6,2,3c0.1,1-0.3,1.6-1.4,1.5c-0.9,0-1.8-0.2-2.7-0.3c-1.1-0.1-2.2-0.2-3.3-0.4c-0.8-0.1-1.6-0.3-2.2-1
		c-0.5-0.6-2-0.7-2.7-0.3c-0.4,0.2-0.5,0.6-0.3,1c0.2,0.4,0.5,0.8,0.8,1.1c3.8,4,7.9,7.6,13.1,9.8c0.4,0.2,0.8,0.3,1.2,0.5
		c0.9,0.3,1.1,0.2,1.2-0.7c0.1-0.6,0.2-1.2,0.2-1.9c0.1-6.5,0.1-13.1-0.7-19.6c0-0.1,0-0.1-0.1-0.3c-1.7,0.2-3.4,0.4-5.1,0.7
		c-5.5,1-11,2.1-16.4,3.2c-0.7,0.1-1.4,0.3-2-0.3c-0.7-0.8-1.2-1.7-1-2.9c0.5-2.1,2.7-3.8,4.7-4.2c1.5-0.3,3.1-0.8,4.5-1.5
		c3.5-1.6,7-3.4,10.5-5c1.1-0.5,2.3-1,3.4-1.5c2.1-0.9,2.3-1.3,2.1-3.7c-1.1,0.1-2.1,0.1-3.2,0.2c-6,0.3-12,1.2-18,2.2
		c-2.4,0.4-4.8,0.7-7.3,0.3c-1.8-0.2-3.2-1.1-4.6-2.4c1.2-0.2,2.3-0.3,3.4-0.5c5-1,10-1.9,15-3c0.7-0.1,1.4-0.6,1.8-1.1
		c0.8-1.1,1.6-2.3,2.2-3.5c0.6-1.3,0.2-1.9-1.3-1.9c-3.1-0.1-5.7-1.2-8.3-2.8c-0.2-0.1-0.4-0.3-0.6-0.5c-0.3-0.3-0.3-0.6,0.1-0.7
		c0.7-0.2,1.3-0.4,2-0.6c2.9-0.7,5.8-1.3,8.8-2c0-0.4,0-0.9,0-1.4c-0.1-2.7-0.1-5.3-0.3-8c0-0.6-0.4-1.1-0.6-1.6
		c-0.2-0.4-0.2-0.7,0.2-1c1-0.7,2.1-0.7,3.2-0.6c1.8,0.2,3.4,1,4.9,2c0.9,0.6,1.1,1.5,1.3,2.4c0.2,1.5,0.4,3,0.7,4.5
		c0.2,1.5,0.5,1.7,2,2c1.1,0.2,2.2,0.6,3.3,1.1c1.2,0.6,1.6,1.7,1.4,2.8c-0.3,1.1-1.2,1.9-2.5,1.9c-3,0.1-4.9,1.7-6.2,4.3
		c-0.5,1-0.9,2.1-1.5,3.2c0.3,0,0.6,0,0.8,0c4.7,0,9.4,0,14.1,0c1.4,0,2.8,0.1,4.1,0.3c1.5,0.2,2.8,1.1,3.8,2.2
		c0.3,0.3,0.4,0.7,0.6,1.1C86.1,59.1,86.1,59.5,86.1,59.8z M51.2,71c0,0.1,0,0.2,0.1,0.2c0.5,0,1.1,0.1,1.6,0
		c3.9-0.6,7.9-1.2,11.8-1.9c1.9-0.3,1.9-0.4,1.9-2.3c0-0.7-0.1-1.3-0.1-2.2c-1.8,0.6-3.5,1.1-5.1,1.7c-3,1.2-6,2.4-8.9,3.6
		C52.1,70.4,51.7,70.8,51.2,71z M72.7,60.2c0-0.1,0-0.2-0.1-0.3c-0.8,0-1.5,0-2.3,0c-0.2,0-0.3,0.2-0.5,0.3c0.1,0.2,0.2,0.4,0.4,0.6
		c0.1,0.1,0.4,0.1,0.5,0.1C71.4,60.6,72.1,60.4,72.7,60.2z"/>
	<path d="M27.2,79.7c0,0.4,0.2,0.8,0.1,1.1c-0.2,2.1-0.4,4.2-0.7,6.3c-0.5,3.3-1.1,6.6-1.8,9.8c-0.2,1.1-0.7,2.2-1.3,3.1
		c-1,1.6-2.5,1.9-4.1,0.8c-1.7-1.1-2.9-2.7-3-4.8c-0.2-2.3,0.1-4.4,0.9-6.6c0.8-2.3,1.3-4.8,1.7-7.3c0.8-4.9,1-9.8,0.7-14.8
		c0-0.7-0.2-1.4-0.2-2.1c-0.1-0.5-0.4-0.6-0.7-0.3c-0.4,0.3-0.8,0.6-1.2,1c-2.9,2.5-5.8,5-8.7,7.5C6,71,5.7,67.3,7.9,64.5
		c2-2.4,4.1-4.7,6.2-7c3.1-3.3,6.2-6.6,9.3-10c1.9-2,3.5-4.2,4.5-6.8c0.5-1.1,0.6-2.3,0.4-3.5c-0.1-0.6-0.2-1.2-0.8-1.6
		c-0.5-0.4-0.4-1,0.3-1.1c0.6-0.1,1.3-0.1,1.8,0.1c2.4,0.9,4.2,2.6,5.3,4.9c0.4,0.9,0.5,1.8,0.1,2.7c-0.9,1.9-1.8,3.8-2.9,5.5
		c-2.8,4.1-5.8,8.1-8.7,12.1c-0.5,0.7-0.5,1.2-0.1,1.8c0.2,0.4,0.5,0.7,0.7,1c0.9,1,1.3,2.2,1.3,3.6c0,3.4,0.1,6.7,0.1,10.1
		c0,1,0.1,2.1,0.1,3.1c0.1,1,0.2,1,1,0.6C26.8,79.8,26.9,79.8,27.2,79.7z"/>
</g>
</svg>
