<?xml version="1.0" encoding="utf-8"?>
<!-- Generator: Adobe Illustrator 21.1.0, SVG Export Plug-In . SVG Version: 6.00 Build 0)  -->
<svg version="1.1" id="Layer_1" xmlns="http://www.w3.org/2000/svg" xmlns:xlink="http://www.w3.org/1999/xlink" x="0px" y="0px"
	 viewBox="0 0 206.4 206.4" style="enable-background:new 0 0 206.4 206.4;" xml:space="preserve">
<style type="text/css">
	.st0{fill:#F72354;}
</style>
<g>
	<path class="st0" d="M204.5,79.5c-0.5,1.5-1.8,2.3-3.3,2.3c-5.3,0.8-10.4,1.3-15.8,2c-4.1,0.8-7.9,1.8-11.7,2.8
		c-1,0.3-2.3,0.8-3.3,1.5c-1.5,0.8-1.3,1.3-0.5,2.8s1.3,3.6,1.5,5.3c0.5,5.1,0.3,5.1,5.3,6.1c4.3,0.8,8.4,2.5,11.7,5.6
		c1,1,2,2.5,2,3.8c0,1.5-2,2-3.6,2.3c-4.1,0.8-7.9,1-11.9,1.5c-1.3,0.3-2.8,0.3-4.3,0.3c0,1.3,0,2.5,0,3.8
		c-0.3,20.3-0.8,40.6-1.3,61c0,2.8,0,5.6-0.3,8.6c0,0.8-0.5,1.5-1,2c-1.5,1.5-3,2.8-4.3,4.1c-4.1,3.6-8.6,4.3-13.7,3
		c-9.1-2.5-16.8-7.6-23.4-14c-8.9-8.6-16.3-18.5-20.3-30.5c-1-2.5-1.5-5.6-2-8.1c-1-5.6,2.3-10.2,7.9-10.7c7.9-1,15.8-1,23.6,1
		c1.3,0.3,2.5,0.8,3.6,1.3c3.3,1.5,4.8,4.1,5.1,7.6c0.3,2.5-0.8,4.1-3.6,3.8c-2.3,0-4.6-0.5-6.9-0.8c-2.8-0.3-5.6-0.5-8.4-1
		c-2-0.3-4.1-0.8-5.6-2.5c-1.3-1.5-5.1-1.8-6.9-0.8c-1,0.5-1.3,1.5-0.8,2.5c0.5,1,1.3,2,2,2.8c9.7,10.2,20.1,19.3,33.3,24.9
		c1,0.5,2,0.8,3,1.3c2.3,0.8,2.8,0.5,3-1.8c0.3-1.5,0.5-3,0.5-4.8c0.3-16.5,0.3-33.3-1.8-49.8c0-0.3,0-0.3-0.3-0.8
		c-4.3,0.5-8.6,1-13,1.8c-14,2.5-27.9,5.3-41.7,8.1c-1.8,0.3-3.6,0.8-5.1-0.8c-1.8-2-3-4.3-2.5-7.4c1.3-5.3,6.9-9.7,11.9-10.7
		c3.8-0.8,7.9-2,11.4-3.8c8.9-4.1,17.8-8.6,26.7-12.7c2.8-1.3,5.8-2.5,8.6-3.8c5.3-2.3,5.8-3.3,5.3-9.4c-2.8,0.3-5.3,0.3-8.1,0.5
		c-15.2,0.8-30.5,3-45.7,5.6c-6.1,1-12.2,1.8-18.5,0.8c-4.6-0.5-8.1-2.8-11.7-6.1c3-0.5,5.8-0.8,8.6-1.3c12.7-2.5,25.4-4.8,38.1-7.6
		c1.8-0.3,3.6-1.5,4.6-2.8c2-2.8,4.1-5.8,5.6-8.9c1.5-3.3,0.5-4.8-3.3-4.8c-7.9-0.3-14.5-3-21.1-7.1c-0.5-0.3-1-0.8-1.5-1.3
		c-0.8-0.8-0.8-1.5,0.3-1.8c1.8-0.5,3.3-1,5.1-1.5c7.4-1.8,14.7-3.3,22.4-5.1c0-1,0-2.3,0-3.6c-0.3-6.9-0.3-13.5-0.8-20.3
		c0-1.5-1-2.8-1.5-4.1c-0.5-1-0.5-1.8,0.5-2.5c2.5-1.8,5.3-1.8,8.1-1.5c4.6,0.5,8.6,2.5,12.4,5.1c2.3,1.5,2.8,3.8,3.3,6.1
		c0.5,3.8,1,7.6,1.8,11.4c0.5,3.8,1.3,4.3,5.1,5.1c2.8,0.5,5.6,1.5,8.4,2.8c3,1.5,4.1,4.3,3.6,7.1c-0.8,2.8-3,4.8-6.4,4.8
		c-7.6,0.3-12.4,4.3-15.8,10.9c-1.3,2.5-2.3,5.3-3.8,8.1c0.8,0,1.5,0,2,0c11.9,0,23.9,0,35.8,0c3.6,0,7.1,0.3,10.4,0.8
		c3.8,0.5,7.1,2.8,9.7,5.6c0.8,0.8,1,1.8,1.5,2.8C204.5,77.8,204.5,78.8,204.5,79.5z M115.9,108c0,0.3,0,0.5,0.3,0.5
		c1.3,0,2.8,0.3,4.1,0c9.9-1.5,20.1-3,30-4.8c4.8-0.8,4.8-1,4.8-5.8c0-1.8-0.3-3.3-0.3-5.6c-4.6,1.5-8.9,2.8-13,4.3
		c-7.6,3-15.2,6.1-22.6,9.1C118.1,106.5,117.1,107.5,115.9,108z M170.5,80.6c0-0.3,0-0.5-0.3-0.8c-2,0-3.8,0-5.8,0
		c-0.5,0-0.8,0.5-1.3,0.8c0.3,0.5,0.5,1,1,1.5c0.3,0.3,1,0.3,1.3,0.3C167.2,81.6,169,81.1,170.5,80.6z"/>
	<path class="st0" d="M54.9,130.1c0,1,0.5,2,0.3,2.8c-0.5,5.3-1,10.7-1.8,16c-1.3,8.4-2.8,16.8-4.6,24.9c-0.5,2.8-1.8,5.6-3.3,7.9
		c-2.5,4.1-6.4,4.8-10.4,2c-4.3-2.8-7.4-6.9-7.6-12.2c-0.5-5.8,0.3-11.2,2.3-16.8c2-5.8,3.3-12.2,4.3-18.5c2-12.4,2.5-24.9,1.8-37.6
		c0-1.8-0.5-3.6-0.5-5.3c-0.3-1.3-1-1.5-1.8-0.8c-1,0.8-2,1.5-3,2.5c-7.4,6.4-14.7,12.7-22.1,19.1C1,108,0.3,98.6,5.9,91.5
		c5.1-6.1,10.4-11.9,15.8-17.8c7.9-8.4,15.8-16.8,23.6-25.4c4.8-5.1,8.9-10.7,11.4-17.3c1.3-2.8,1.5-5.8,1-8.9c-0.3-1.5-0.5-3-2-4.1
		c-1.3-1-1-2.5,0.8-2.8c1.5-0.3,3.3-0.3,4.6,0.3c6.1,2.3,10.7,6.6,13.5,12.4c1,2.3,1.3,4.6,0.3,6.9c-2.3,4.8-4.6,9.7-7.4,14
		c-7.1,10.4-14.7,20.6-22.1,30.7c-1.3,1.8-1.3,3-0.3,4.6c0.5,1,1.3,1.8,1.8,2.5c2.3,2.5,3.3,5.6,3.3,9.1c0,8.6,0.3,17,0.3,25.7
		c0,2.5,0.3,5.3,0.3,7.9c0.3,2.5,0.5,2.5,2.5,1.5C53.9,130.3,54.1,130.3,54.9,130.1z"/>
</g>
</svg>
