<?xml version="1.0" encoding="utf-8"?>
<!-- Generator: Adobe Illustrator 21.1.0, SVG Export Plug-In . SVG Version: 6.00 Build 0)  -->
<svg version="1.1" id="Layer_1" xmlns="http://www.w3.org/2000/svg" xmlns:xlink="http://www.w3.org/1999/xlink" x="0px" y="0px"
	 viewBox="0 0 200 200" style="enable-background:new 0 0 200 200;" xml:space="preserve">
<style type="text/css">
	.st0{fill:#EC168E;}
	.st1{fill:#EB0B8D;}
	.st2{fill:#512C86;}
	.st3{fill:#E60A8D;}
	.st4{fill:#EB0F8E;}
	.st5{fill:#D5128C;}
	.st6{fill:#C9148C;}
	.st7{fill:#BE198C;}
	.st8{fill:#CC128C;}
	.st9{fill:#DB108C;}
	.st10{fill:#DF0E8C;}
	.st11{fill:#D8118C;}
	.st12{fill:#CC138C;}
	.st13{fill:#C3168C;}
	.st14{fill:#D2128C;}
	.st15{fill:#D9108C;}
	.st16{fill:#BD1A8C;}
	.st17{fill:#512C87;}
	.st18{fill:#AA218D;}
	.st19{fill:#A9218D;}
	.st20{fill:#E30C8C;}
	.st21{fill:#762A8A;}
	.st22{fill:#8B288C;}
	.st23{fill:#B91B8C;}
	.st24{fill:#B01F8D;}
	.st25{fill:#A5228D;}
	.st26{fill:#C1178C;}
	.st27{fill:#D0138C;}
	.st28{fill:#A6228D;}
	.st29{fill:#91278C;}
	.st30{fill:#AF1F8D;}
	.st31{fill:#BA1B8C;}
	.st32{fill:#83298B;}
	.st33{fill:#722B89;}
	.st34{fill:#C5168C;}
	.st35{fill:#D1138C;}
	.st36{fill:#99258C;}
	.st37{fill:#A2238D;}
	.st38{fill:#EB108E;}
	.st39{fill:#D1138D;}
	.st40{fill:#A1238D;}
	.st41{fill:#B41D8C;}
	.st42{fill:#BE198D;}
	.st43{fill:#CD138C;}
	.st44{fill:#612C89;}
	.st45{fill:#7C2A8A;}
	.st46{fill:#CA138C;}
	.st47{fill:#7B2A8A;}
	.st48{fill:#C8148C;}
	.st49{fill:#692C89;}
	.st50{fill:#95268C;}
	.st51{fill:#9D248D;}
	.st52{fill:#B01E8D;}
	.st53{fill:#572D89;}
	.st54{fill:#7F2A8B;}
	.st55{fill:#87288B;}
	.st56{fill:#BA1B8D;}
	.st57{fill:#A6228E;}
	.st58{fill:#8C288C;}
	.st59{fill:#C4168D;}
	.st60{fill:#B51D8D;}
	.st61{fill:#C3178D;}
	.st62{fill:#6E2B8A;}
	.st63{fill:#7C2A8B;}
	.st64{fill:#532D87;}
	.st65{fill:#86298B;}
	.st66{fill:#81298B;}
	.st67{fill:#87298B;}
	.st68{fill:#5D2D89;}
	.st69{fill:#732B89;}
	.st70{fill:#95268D;}
	.st71{fill:#C4178D;}
	.st72{fill:#92278D;}
	.st73{fill:#6E2C8A;}
	.st74{fill:#99258D;}
	.st75{fill:#82298B;}
	.st76{fill:#97268D;}
	.st77{fill:#762C8A;}
	.st78{fill:#91278D;}
	.st79{fill:#92288D;}
	.st80{fill:#C9168D;}
	.st81{fill:#662D89;}
	.st82{fill:#B61D8D;}
	.st83{fill:#C01B8E;}
	.st84{fill:#C8168C;}
	.st85{fill:#9F288F;}
	.st86{fill:#63388F;}
	.st87{fill:#612C88;}
	.st88{fill:#6E2B89;}
	.st89{fill:#5C2D88;}
	.st90{fill:#582D88;}
	.st91{fill:#552D88;}
	.st92{fill:#652C88;}
	.st93{fill:#8D288C;}
	.st94{fill:#90278C;}
	.st95{fill:#C7178C;}
	.st96{fill:#EB0C8D;}
	.st97{fill:#E40D8D;}
	.st98{fill:#DF108D;}
	.st99{fill:#CB178C;}
	.st100{fill:#93268C;}
	.st101{fill:#98258C;}
	.st102{fill:#D2148C;}
	.st103{fill:#DA138D;}
	.st104{fill:#AB208D;}
	.st105{fill:#B31D8D;}
	.st106{fill:#B71C8C;}
	.st107{fill:#212430;}
	.st108{fill:#EC148E;}
</style>
<g>
	<path class="st0" d="M108,196.9c-11-0.3-21.6-2.6-31.8-6.6c-27.7-10.9-48-29.5-59.7-57.1c-0.3-0.6-0.5-1.3-0.7-2
		c-0.3-0.7-0.2-1.6-0.7-2.4c-0.2-0.6-0.2-1.2,0-1.8c1.1-0.7,1.8,0.3,2.5,0.8c6.9,5,13.6,10.2,20.4,15.4c17.2,13,34.4,26,51.5,39
		c5.3,4,10.6,8,15.9,12C106.4,195,107.6,195.6,108,196.9z"/>
	<path class="st0" d="M13,125.4c-3.3-3.4-6.4-7-8.8-11.2c-2.5-4.3-2.9-8.5,0.6-12.7c3.7-4.3,3.4-9.4,1.8-14.5c-1-3.4-2.2-6.7-3-10.2
		c-1-4.5,0-8.4,3-11.9c2.2-2.5,4.4-4.9,7.1-6.8c4.3-3.1,5.7-7.4,5.9-12.4c0.1-3.1-0.1-6.2,0.3-9.3c0.7-5.3,3.7-8.8,8.6-10.7
		c2.8-1.1,5.7-1.7,8.7-1.8c6.6-0.2,11.5-3.4,15.6-8.2c1.6-1.8,3.2-3.5,4.7-5.4c4.8-6,11.2-7.8,18.5-7c6.6,0.7,12.3,3.6,17,8.4
		c-0.9,0.9-2.1,0.3-3.1,0.8c-1.3,0.3-2.6,0-3.8,0.4c-1.1,0.2-2.3,0.1-3.4,0.5c-1.3,0.4-2.6,0.4-3.9,0.7c-1.5,0.5-3.1,0.7-4.7,1.1
		c-1.7,0.3-3.3,1-5,1.5c-1.7,0.6-3.4,1.2-5,1.9c-2,0.7-3.9,1.7-5.8,2.7c-2.1,1-4.1,2.2-6.1,3.5c-1.7,1.1-3.5,2.2-5.1,3.4
		c-1.4,0.9-2.6,2-3.9,3.1c-1.5,1.1-2.7,2.4-4.2,3.5c-1.4,1.4-2.9,2.8-4.3,4.3c-1.1,0.9-1.7,2.2-2.7,3.1c-1.6,1.8-3.1,3.8-4.6,5.8
		c-1.2,1.7-2.3,3.4-3.4,5.1c-1.1,1.9-2.3,3.7-3.2,5.7c-1,1.9-2,3.7-2.8,5.7c-3.9,9-6.3,18.4-7.6,28.1c-1.2,9.8-0.5,19.4,2.3,28.9
		C13.1,122.8,14,124,13,125.4z"/>
	<path class="st1" d="M124.3,196.2c-4,0.7-8,0.9-12,0.7c-4.5-3-8.7-6.3-12.9-9.5c-9.9-7.5-19.8-14.9-29.6-22.4
		c-17.4-13.2-34.9-26.4-52.3-39.6c-1-0.7-2.1-1.2-2.9-2.2c-0.8-3.2-0.4-6.4-0.3-9.6c0.7-1.4,1.5-0.5,2.2,0
		c5.1,3.9,10.2,7.7,15.3,11.5c10,7.6,20.1,15.2,30.1,22.8c20.4,15.4,40.7,30.8,61.1,46.2C123.6,194.6,124.8,194.9,124.3,196.2z"/>
	<path class="st2" d="M14.7,112.9c-0.1,3.5-0.4,7,0.3,10.4c0.8,1.1,0.6,2.3,0.4,3.5c0,0.6,0,1.3,0,1.9c0.2,0.4,0.3,0.8-0.3,0.8
		c-0.8-1.3-1-3-2.1-4.2c-0.2-2.7-1.3-5.1-1.9-7.6c-3-13.1-2-25.9,1.3-38.8c1.3-5.1,2.9-10.1,5.2-14.9c1.4,0.2,1.3,1.4,1.4,2.4
		c0.6,5.8,1.3,11.7,2.8,17.4c0.1,0.7-0.2,1.4-0.5,2c-0.3,0.7-0.7,1.3-1,2c-0.3,0.6-0.5,1.1-0.7,1.7c-0.7,1.7-1.4,3.5-1.8,5.3
		c-0.3,1.1-0.7,2.2-0.9,3.4c-0.3,1.3-0.6,2.6-0.7,3.9c-0.3,1.5-0.5,3.1-0.7,4.7c0,1.5-0.6,3-0.4,4.5
		C15.1,111.9,15.1,112.5,14.7,112.9z"/>
	<path class="st3" d="M14.7,112.9c0-0.5,0-1.1,0-1.6c0.2-0.3,0-0.8,0.5-0.9c1.1,0.1,1.9,0.8,2.7,1.4c15,11.3,30,22.6,45,34
		c0.8,0.6,1.7,1,2.5,1.5c1.8,2.1,3.4,4.3,5.4,6.2c5.1,4.9,10.9,8.9,17.4,11.6c1.5-0.1,2.2,1.1,3.2,1.8c0.6,0.4,1.2,0.9,1.8,1.4
		c4.2,3.3,8.6,6.2,13.4,8.6c0.8,0.4,1.6,0.8,2.1,1.6c0.7,1.2,1.9,1.9,3,2.7c5.3,4.1,10.8,8,16,12.1c0.6,0.5,1.8,0.7,1.3,2
		c-1.5,0.6-3.1,0.7-4.6,0.8c-0.6-1.7-2.3-2.3-3.6-3.3c-11.9-9.1-23.8-18-35.8-27c-6.7-5-13.3-10-20-15.1c-12.5-9.5-25-19-37.6-28.5
		C23.1,119.2,18.9,116.1,14.7,112.9z"/>
	<path class="st4" d="M15.4,126.9c-0.6-1.1-0.3-2.3-0.4-3.5c2.8,1.2,4.8,3.3,7.2,5.1c9.3,6.9,18.6,13.9,27.9,21
		c13.5,10.2,27,20.5,40.5,30.7c6.7,5,13.3,10,20,15.1c0.6,0.5,1.5,0.8,1.7,1.7c-1.4,0-2.9,0-4.3,0c-12.3-9.3-24.5-18.7-36.8-28
		c-8.6-6.5-17.2-13-25.8-19.5c-9.4-7.1-18.7-14.2-28.1-21.2C16.7,127.7,16,127.3,15.4,126.9z"/>
	<path class="st5" d="M143.7,26.8c6.2,3.7,11.9,8.2,17,13.3c7.1,13,4,29.9-9.3,39c-1.4,0.9-2.6,2.5-4.6,1.7c-1.2,0-2.3,0.1-3.5-0.4
		c-0.1-1.2,0.9-1.3,1.6-1.6c9-4.1,14.6-10.9,15.9-20.8c1.8-13.7-6.9-25.8-19.6-28c-17.5-3.1-29.5,11.1-29.6,24.3
		c0,6.8,1.6,12.9,6.2,18c0.5,0.6,1.2,1.2,0.7,2.2c-1.5-0.3-2.9-0.8-4.3-1.5c-3.5-3.9-5.1-8.6-5.9-13.6c-2.2-15.3,8.3-31.3,26-33.4
		C137.5,25.7,140.6,26.4,143.7,26.8z"/>
	<path class="st1" d="M108.4,178.8c-3.3-2.5-7.3-3.9-10.6-6.4c-1.6-1.2-3.3-2.4-4.9-3.6c-1.4-2.8-3.3-5.2-5-7.8
		c-4.2-6.1-8.3-12.3-12.6-18.4c-0.2-0.3-0.3-0.7-0.6-1l0,0c-0.4-0.7,0-1.6-0.3-2.3c-0.1-1.3,0.6-0.4,0.7-0.2
		c1.8,2.8,4.5,4.7,6.8,6.9c5,4.9,10.7,9,16.4,13c-0.1,0.6,0.4,1.1,0.7,1.5c3.7,5.5,7.5,11.1,11.3,16.6c0.5,0.7,1.8,1.6,0.4,2.7
		C109.7,180,109,179.4,108.4,178.8z"/>
	<path class="st6" d="M106,70c-1.8-0.5-3.4-1.2-5-2.1c-1.3-2.6-1.7-5.4-2-8.2c-1.3-12,2.6-22.4,10.5-31.2c4.3-4.9,9.9-8,16-10.1
		c0.6-0.2,1.2-0.4,1.9,0c1.8,0.5,3.5,1.3,5.1,2.2c0.1,1.4-1.2,1.4-2,1.6c-3.8,0.9-7.6,2.2-10.9,4.4c-9.1,6.2-14.4,14.6-15.8,25.7
		c-0.6,5.2,0.4,10.1,1.9,15C106,68.1,106.7,69,106,70z"/>
	<path class="st7" d="M97.1,66.2c-0.9-0.3-1.8-0.7-2.7-1c-0.6-0.2-1.3-0.3-1.5-1.1c-1.3-5.8-1.1-11.6,0-17.4
		c0.2-0.8,0.3-1.6,0.2-2.5c-0.1-1,0.4-1.8,0.8-2.7c1.1-2.2,2.3-4.3,2.8-6.7c4.1-8.1,10-14.6,17.8-19.3c0.7-0.4,1.4-1.2,2.4-0.8
		c1.8,0.3,3.5,0.7,5.1,1.5c-0.2,0.9-0.8,1.3-1.5,1.6c-8.2,4-14.6,10.1-18.9,18.1c-2.9,5.5-4.5,11.4-4.7,17.6c-0.1,3.3,0,6.6,0.7,9.8
		C97.7,64.4,98.2,65.5,97.1,66.2z"/>
	<path class="st8" d="M17.4,94.7c0.4-1.9,1-3.7,1.9-5.4c0.7-0.2,1.2,0.3,1.7,0.6c11.2,8.5,22.4,16.9,33.6,25.4
		c0.1,0.1,0.2,0.2,0.3,0.3c0,0.9,0,1.8,0,2.6c0.4,0.8,0,1.6,0.3,2.4c0,0.5,0.1,1,0.1,1.6c-1.4,0.3-2.1-0.7-3-1.4
		c-10.6-8-21.3-16-31.9-24.1C19.5,96,18.5,95.3,17.4,94.7z"/>
	<path class="st9" d="M136.2,79.2c-3.8-0.4-7.5-1.5-11.2-2.6c-5.7-3.1-9.4-7.7-11.3-13.8c-2.6-8.2-1.2-15.9,3.9-22.7
		c5.4-7.1,12.8-10.5,21.7-9.3c10.2,1.3,16.8,7.4,19.7,17.3c4.3,14.4-6.2,30.8-22.7,31.2C136.3,79.3,136.3,79.3,136.2,79.2z"/>
	<path class="st10" d="M15.1,106.7c0.2-1.6,0.1-3.1,0.7-4.6c1.1-0.6,1.8,0.3,2.5,0.9c10,7.5,20,15,29.9,22.6
		c3.1,2.4,6.4,4.6,9.4,7.1c1.1,2.4,2.1,4.9,3.2,7.3c-1.2,0.6-1.9-0.4-2.7-1c-5.1-3.8-10.2-7.7-15.3-11.5
		c-8.4-6.4-16.8-12.7-25.2-19.1C16.8,107.9,15.9,107.3,15.1,106.7z"/>
	<path class="st11" d="M118.5,74.5c-0.4-1.6-1.8-2.5-2.6-3.7c-3.2-4.5-4.7-9.4-4.8-15c-0.1-6.3,1.5-12,5.5-16.9
		c4.8-6,10.9-9.5,18.9-9.8c7.9-0.3,14.4,2.4,19.6,8.2c4.1,4.4,6.1,9.7,6.4,15.7c0.3,5.2-0.7,10.2-3.4,14.8
		c-3.2,5.3-7.5,9.2-13.2,11.6c-0.6,0.2-1.3,0.3-1.6,1c-1.7,0-3.4-0.3-5.1-0.8c0.9-0.7,2-0.8,3.1-1.1c16.4-3.9,24.5-24,13.7-38.5
		c-8-10.7-21.8-12.3-32.1-4.7c-12.4,9.1-13.6,26.8-2.5,37.7c0.8,0.8,2.4,1,2.1,2.7C121,75.5,119.7,75.1,118.5,74.5z"/>
	<path class="st12" d="M106,70c-0.8-2.7-1.7-5.4-2.3-8.1c-1.6-6.9-0.6-13.6,2.2-19.9c4.6-10.5,12.4-17.3,23.6-20.1
		c1-0.2,2.3,0,2.9-1.2c1.8,1,3.6,1.9,5.4,2.9c-0.2,1-1.1,0.8-1.7,0.9c-3.1,0.5-6.1,0.8-9.1,1.8c-11.8,4.1-20.4,16.1-20.5,28.6
		c0,5,1.1,9.7,3.1,14.2c0.3,0.8,1,1.6,0.3,2.5C108.6,71.2,107.3,70.7,106,70z"/>
	<path class="st13" d="M97.1,66.2c0.5-1.8-0.2-3.4-0.4-5.1c-1-7.6,0.1-15,3-22.1c1.6-4,3.9-7.6,6.7-10.8c3.8-4.3,8.2-8,13.4-10.4
		c0.8-0.4,1.5-1,2.3-1.4c1.9,0.4,3.7,1.1,5.4,2c-5.1,1.3-9.6,3.8-13.8,7c-4,3.1-7.1,7.1-9.5,11.5c-2.6,4.7-4.1,9.8-4.7,15.1
		c-0.5,4.9,0,9.7,1.5,14.4c0.1,0.5,0.1,1,0.1,1.5C99.7,67.3,98.4,66.8,97.1,66.2z"/>
	<path class="st14" d="M17.4,94.7c0.7-0.4,1.2,0,1.7,0.4c7.8,5.9,15.6,11.7,23.4,17.6c3.5,2.6,6.9,5.3,10.4,8c0.8,0.6,1.6,1,2.5,1.5
		c0.4,1.9,0.7,3.9,1.1,5.8c-1-0.1-1.7-0.8-2.5-1.3c-12.2-9.1-24.2-18.3-36.3-27.4c-0.4-0.3-0.9-0.6-1.1-1.1
		C16.6,97,17,95.9,17.4,94.7z"/>
	<path class="st15" d="M16.5,98.2c2.7,1.3,4.9,3.4,7.3,5.2c10.2,7.7,20.4,15.4,30.6,23.2c0.7,0.5,1.5,0.7,2,1.5
		c0.4,1.6,0.8,3.1,1.2,4.7c-2.5-0.8-4.3-2.8-6.3-4.3c-7.9-5.8-15.6-11.7-23.4-17.6c-3.4-2.6-6.8-5.2-10.2-7.8
		c-0.6-0.4-1.1-0.8-1.9-0.9C15.7,100.7,16.1,99.4,16.5,98.2z"/>
	<path class="st16" d="M55.7,104.5c0,1.2-0.1,2.3-0.4,3.4c-0.9,0.3-1.5-0.3-2.1-0.7C43,99.4,32.8,91.7,22.6,84
		c-0.2-0.1-0.3-0.3-0.4-0.4c-0.2-1.4,0.9-2.2,1.5-3.2c0.3-0.4,0.6-0.7,1.1-0.8c1.5,0.4,2.6,1.6,3.8,2.5c8.6,6.5,17.2,13,25.7,19.5
		C55.4,102.2,56.3,103,55.7,104.5z"/>
	<path class="st17" d="M181.6,77.2c0.1-6.1,0-12.1-1.9-18c-0.5-1.6-1-3.2-2.1-5c7.3,5.5,13,19.8,11.2,34.3c-0.7,1.1-1.3,0.5-1.8-0.1
		c-1.9-2.6-3.6-5.3-5.4-8C181.1,79.5,181.3,78.3,181.6,77.2z"/>
	<path class="st18" d="M172.3,174.1c-1.3,1.3-2.6,2.5-4.1,3.5c-1.2,0.2-2.5,0.1-3.7,0.7c-0.9,0.5-1.5-0.3-2.1-1
		c-1.4-1.9-2.7-3.8-4-5.7c-4.1-6-8.2-12-12.3-18.1c-0.5-0.7-1.1-1.3-0.9-2.3c1.4-0.6,2.8-1.2,4.2-1.7c0.9,0.3,1.2,1.2,1.6,1.9
		c5,7.3,10,14.7,15.1,22c1.4,2,1.4,2,3.6,0.6C170.6,173.6,171.4,173,172.3,174.1z"/>
	<path class="st10" d="M110.7,165.7c1.7,0.7,3.4,1.3,5,2c0.7,0.4,1.2,1,1.6,1.7c2.7,4.3,5.8,8.4,8.5,12.6c0.6,0.9,1.3,1.8,1.5,2.9
		c0.1,0.8,0.8,1.3,1.5,1.7c2.3,1.7,4.5,3.4,6.7,5.2c0.6,0.5,1.7,0.9,1.2,2.1c-1.5,0.4-3.1,0.8-4.6,1.1c-4.9-3.4-9.5-7.2-14.3-10.7
		c-0.6-0.4-1.3-1-1-1.9c0.1-0.1,0.3-0.2,0.5-0.2c1.4,0.2,2.7,0.8,4.3,1c-0.8-1.8-1.8-3.1-2.8-4.4c-2.5-3.4-4.6-7-7.1-10.4
		C111.1,167.5,110.4,166.8,110.7,165.7z"/>
	<path class="st19" d="M59.6,91.3c-0.4,1-0.8,2-1.3,3c-1,0.3-1.6-0.4-2.2-0.9C47.6,87,39,80.6,30.5,74.1c-0.4-0.3-0.7-0.6-0.9-1
		c0.3-1.4,1.3-2.2,2.4-3c0.8-0.1,1.5,0.3,2.1,0.8c8,6.1,16,12.2,24.1,18.2C58.9,89.6,60.1,90,59.6,91.3z"/>
	<path class="st20" d="M15.1,106.7c0.9-0.5,1.4,0.4,2,0.8c12.6,9.5,25.2,19,37.7,28.5c1.9,1.5,3.6,3.2,6,4.1
		c0.9,1.5,1.8,3.1,2.7,4.6c-1.2,0.7-2-0.3-2.7-0.8c-4.4-3.2-8.7-6.5-13-9.7c-10.2-7.8-20.5-15.6-30.8-23.3c-0.6-0.4-1.2-1.1-2-0.2
		c-0.1,0.2-0.2,0.5-0.3,0.7C14.5,109.8,15,108.3,15.1,106.7z"/>
	<path class="st21" d="M168,115.2c0.9-1.4,1.7-2.9,2.6-4.3c0.7-0.3,1.1,0.3,1.4,0.7c5.1,7.3,10,14.7,15.1,22
		c0.1,0.2,0.2,0.4,0.2,0.5c-0.8,1.4-1.8,2.8-3,3.9c-0.8,0.2-1.1-0.5-1.5-1c-1.8-2.8-3.8-5.3-5.5-8.1
		C174.3,124.4,171,119.9,168,115.2z"/>
	<path class="st22" d="M74,74.6c-1.1,0.9-2.3,1.8-3.4,2.7c-0.9,0.5-1.6-0.1-2.3-0.6c-6.8-5.2-13.6-10.2-20.3-15.5
		c-0.6-0.5-1.3-0.9-1.3-1.8c0-0.3,0.2-0.5,0.5-0.7c1.1-0.6,2.3-1.1,3.5-1.3c0.7-0.1,1.3,0.2,1.8,0.6c7.1,5.4,14.1,10.8,21.3,16.1
		C73.8,74.2,73.9,74.4,74,74.6z"/>
	<path class="st23" d="M55.7,104.5c0.1-1-0.2-1.6-1.1-2.2c-7.4-5.5-14.7-11-22-16.5c-2.7-2-5.3-4.1-7.9-6.1
		c-0.2-1.1,0.4-1.9,1.2-2.6c0.2-0.1,0.5-0.2,0.8-0.3c1.2,0.3,1.9,1.3,2.8,2c8.8,6.5,17.3,13.1,26.1,19.6c0.4,0.3,0.8,0.6,1.2,1
		C56.4,101.1,56.1,102.8,55.7,104.5z"/>
	<path class="st24" d="M145.2,151.4c4.7,6.9,9.4,13.9,14.1,20.8c1.2,1.7,2.5,3.4,3.6,5.2c0.6,0.9,1.3,1,1.9,0.4
		c1.1-1.1,2.2-0.7,3.3-0.2c-0.9,1-1.9,1.8-3.1,2.4c-1.3-1.1-2.6-0.5-3.9,0.1c-0.2,0-0.4,0-0.5-0.1c-1.9-1.7-3-4-4.4-6
		c-4.4-6.4-8.8-12.8-13.1-19.3c-0.5-0.7-1.1-1.3-0.9-2.2C143.1,152.1,144.2,151.8,145.2,151.4z"/>
	<path class="st25" d="M59.6,91.3c0-1.2-1.1-1.4-1.7-1.9c-8-6.2-16.1-12.3-24.2-18.4c-0.5-0.4-1-0.6-1.6-0.7c-0.2-0.4,0-0.7,0.2-1
		c0.6-0.7,1.2-1.4,2.2-1.6c0.8,0,1.3,0.4,1.9,0.8c8.1,6,16.1,12.2,24.2,18.3c0.4,0.3,0.7,0.5,0.9,1C60.9,88.9,60.2,90.1,59.6,91.3z"
		/>
	<path class="st26" d="M22.3,83.5c3.8,2.3,7.2,5.2,10.8,7.9c6.7,5,13.2,10.1,19.8,15.1c0.7,0.5,1.5,0.9,2.3,1.4c0,1.2,0,2.4-0.3,3.6
		c-1.5-0.6-2.7-1.8-3.9-2.7c-9.8-7.4-19.6-14.9-29.5-22.2c-0.3-0.2-0.5-0.4-0.7-0.7c0.2-0.5,0.5-1.1,0.7-1.6
		C21.8,84,21.7,83.3,22.3,83.5z"/>
	<path class="st3" d="M117.3,182.3c-0.1,0-0.3,0-0.4,0c-2.3-0.3-4.6-0.8-6.2-2.7c0.7-0.7,0-1.2-0.3-1.7c-3.9-5.8-7.9-11.6-11.9-17.3
		c-0.4-0.5-0.9-1-0.1-1.6c2.6,1.5,5.1,2.9,7.7,4.4c4,5.7,7.8,11.5,11.8,17.2C118.3,181.2,119,182.2,117.3,182.3z"/>
	<path class="st27" d="M146.7,80.8c1.6,0.4,2.4-0.9,3.5-1.5c4-2.5,7.2-5.8,9.6-9.8c3.6-5.9,4.6-12.3,3.7-19.1
		c-0.4-3-1.4-5.7-2.6-8.4c-0.2-0.6-0.3-1.1-0.3-1.7c1.6,1.3,3.1,2.8,4.3,4.5c2.1,5.6,2.2,11.3,0.9,17c-1.9,8.2-6.2,14.8-13.3,19.5
		C150.6,81.1,148.6,81.3,146.7,80.8z"/>
	<path class="st28" d="M170,174.5c-0.4,0.3-0.9,0.5-1.3,0.9c-0.9,0.8-1.5,0.6-2.2-0.3c-5.5-8.1-11-16.1-16.5-24.2
		c-0.3-0.4-0.4-0.8-0.6-1.2c1-0.5,2.1-1,3.1-1.5c3.6,4.7,6.8,9.8,10.2,14.7c2.3,3.3,4.6,6.5,6.7,9.9
		C169.8,173.3,170.5,173.7,170,174.5z"/>
	<path class="st29" d="M46.8,59.5c2.2,2.6,5.2,4.3,7.9,6.4c4.5,3.6,9.2,7,13.8,10.5c0.6,0.5,1.3,0.9,2.1,1c-0.9,0.9-1.9,1.8-2.8,2.7
		c-0.9,0.2-1.4-0.5-2-0.9c-6.8-5.3-13.8-10.3-20.6-15.6c-0.8-0.6-1.6-1.1-2-2c0-0.4,0.2-0.7,0.5-1C44.6,59.9,45.5,58.9,46.8,59.5z"
		/>
	<path class="st30" d="M29.7,73c8.6,6.5,17.2,13,25.9,19.5c0.9,0.7,1.8,1.2,2.7,1.8c-0.3,0.9-0.6,1.9-1,2.8
		c-0.8,0.3-1.4-0.2-1.9-0.6c-9.2-7-18.6-13.8-27.6-21c-0.3-0.9,0.5-1.3,0.9-1.9C29,73.3,29.2,72.8,29.7,73z"/>
	<path class="st15" d="M136.7,193.8c-0.9-2.2-3.4-2.8-4.9-4.4c-0.6-0.6-1.4-1.1-2.2-1.6c-1.9-1-2.5-3-3.5-4.6
		c-3-4.8-6.3-9.5-9.5-14.2c-0.3-0.4-0.5-0.9-0.8-1.3c1.8,0.5,3.6,1,5.4,1.6c3.3,5.2,6.9,10.3,10.4,15.4c1.1,1.6,2.9,2.5,4.4,3.7
		c1.1,0.9,2.3,1.7,3.4,2.6c0.6,0.5,1.3,0.8,1.2,1.8C139.2,193,138,193.4,136.7,193.8z"/>
	<path class="st18" d="M100.7,12.2c0.8,0,1.5,0.1,2.3,0.1c0.9,0.1,1,0.6,0.6,1.3c-0.3,0.4-0.7,0.7-1.1,1.1
		C97.3,19.4,93.2,24.8,90,31c-0.4,0.7-0.7,1.6-1.7,1.7c-0.3,0-0.6,0-0.8-0.1c-0.8-0.3-1.6-0.5-2.4-0.7c-0.4-0.1-0.7-0.3-0.8-0.8
		c2.9-6.3,6.8-11.8,11.3-17.1C97,12.5,98.4,11.5,100.7,12.2z"/>
	<path class="st31" d="M116.9,14.9c-5.9,3.1-11,7.3-15.1,12.7c-1.8,2.4-3.3,4.9-4.7,7.5c-1,0.6-1.9-0.2-2.8-0.3
		c-0.4-0.1-0.7-0.3-0.8-0.7c1.4-4.3,4-7.8,6.9-11.1c2.8-3.2,5.8-6.2,9.4-8.5c0.6-0.4,1.2-1,2.1-0.7
		C113.7,13.8,115.3,14.3,116.9,14.9z"/>
	<path class="st32" d="M78.7,71.5c-0.7,0.6-1.5,1.2-2.4,1.5c-0.9,0.5-1.6-0.1-2.3-0.6c-6.2-4.6-12.2-9.4-18.5-13.9
		c-0.8-0.6-1.5-1.2-1.8-2.2c-0.2-4.7,0.3-9.4,1.1-14c0.1-0.7,0.4-1.4,1-1.8c1.7,0.2,1.2,1.8,1.7,2.8c-1,3.5-0.8,7.1-1.2,10.7
		c-0.2,1.9,1,1.7,2.2,1.6c0.3,0,0.6,0.1,0.8,0.2c0.6,1.6,2,2.5,3.2,3.4C67.8,63,73,66.9,78.1,70.8C78.3,71,78.6,71.2,78.7,71.5z"/>
	<path class="st33" d="M187.3,134.2c-1.3-0.9-2-2.2-2.8-3.4c-4.3-6.2-8.5-12.5-12.8-18.7c-0.3-0.5-0.5-1-1.2-1.2
		c0.7-1.3,1.4-2.5,2.1-3.8c2.3,2.6,4.2,5.6,6.1,8.5c0,0.1,0.1,0.3,0.1,0.4c1,0.9,1.8,2,2.5,3.1c2.6,4,5.6,7.8,7.9,12
		C189,132.3,188,133.2,187.3,134.2z"/>
	<path class="st34" d="M20.9,85.8c2.5,0.9,4.3,2.8,6.3,4.3c7.3,5.4,14.5,10.8,21.7,16.4c2.1,1.6,4.4,2.9,6.1,5c0,0.6,0,1.2-0.1,1.9
		c-1.1,0.8-1.8-0.2-2.5-0.8c-7.2-5.3-14.2-10.8-21.3-16.1c-3.2-2.4-6.3-4.9-9.5-7.3c-0.6-0.4-1.2-0.7-1.5-1.5
		C20.1,87,20.5,86.4,20.9,85.8z"/>
	<path class="st35" d="M143.7,26.8c-1.2,1.2-2.5,0.2-3.6,0c-5.1-0.9-9.9,0.1-14.4,2.2c-9.5,4.3-14.9,11.9-16.8,22
		c-1.3,7.1,0.5,13.7,4.2,19.9c0.4,0.7,1.1,1.3,1.2,2.2c-0.7,0.1-1.4-0.3-2-0.6c-3.1-3.5-4.4-7.7-5.1-12.1c-1.6-10,1.2-18.9,8-26.2
		c5.3-5.7,12-8.8,19.9-9.2c2.1-0.1,4.3-0.4,6.3,0.5C142.2,25.7,143,26.2,143.7,26.8z"/>
	<path class="st36" d="M66.2,81.6c-0.7,0.8-1.3,1.5-2,2.3c-0.8,0.3-1.3-0.2-1.9-0.7c-7.3-5.6-14.6-11-21.9-16.6c-0.7-0.6-1.7-1-2-2
		c0.1-1.1,1.1-1.4,1.9-2c0.4-0.2,0.7-0.3,1.1-0.2c7.8,6.2,15.8,12,23.7,18C65.5,80.8,66,81.1,66.2,81.6z"/>
	<path class="st12" d="M150.7,188.5c-1.2,1-2.8,1.5-4.3,2c-2.7-1.7-5.3-3.5-7.9-5.4c-2.3-1.6-3.3-4.4-4.9-6.6
		c-1.3-1.7-2.5-3.6-3.6-5.4c-0.4-0.7-1.2-1.4-0.7-2.3c0.5-0.8,1.4-0.3,2.1-0.4c0.3,0,0.5,0,0.7,0.2c0.5,0,1,0,1.5,0
		c1.9,2.2,3.4,4.7,5,7.1c1.1,1.7,2.2,3.3,3.4,4.9c0.8,1.1,1.7,1.7,3.1,2C147.5,185.1,149.2,186.6,150.7,188.5z"/>
	<path class="st35" d="M132,170.6c-0.2,0-0.4,0-0.6,0c-0.7,0.1-1.5-0.4-2,0.3c-0.5,0.8,0.4,1.3,0.7,1.8c2.4,3.6,4.8,7.1,7.2,10.6
		c0.8,1.2,1.9,1.9,3.1,2.5c2.2,1.2,4.3,2.5,5.9,4.5c-1.1,0.7-2.3,1-3.5,1.4c-3.7-2.6-7.7-4.9-10.2-8.9c-2.2-3.5-4.7-6.9-7-10.4
		c-0.5-0.8-1.3-1.5-0.6-2.6C127.4,170.2,129.7,170.4,132,170.6z"/>
	<path class="st37" d="M170,174.5c-2.2-3.3-4.5-6.7-6.7-10c-3.4-5-6.9-10.1-10.3-15.1c-0.2-0.4-0.3-0.8-0.4-1.3
		c0.8-0.4,1.5-0.8,2.3-1.2c1,0.4,1.3,1.4,1.8,2.2c1.6,2.4,3.2,4.8,5,7.1c2.9,5,6.5,9.6,9.7,14.5c0.5,0.8,1.2,1.4,2.2,0.7
		c0.4-0.3,1-0.4,1.4,0.1c-0.8,1.1-1.7,1.9-2.8,2.7C171.4,173.8,170.7,173.9,170,174.5z"/>
	<path class="st38" d="M74.7,141.6c0.9,0.5,1.5,1.3,2.1,2.2c3.2,4.7,6.4,9.5,9.6,14.2c2.1,3,4.1,6,6.2,9.1c0.3,0.5,1,0.9,0.3,1.7
		c-1.6-1.2-3.2-2.4-4.7-3.5c-1-1.9-2.8-3.1-4.2-4.7c-4.2-4.9-7.6-10.2-9-16.6C74.8,143.1,74.7,142.4,74.7,141.6z"/>
	<path class="st39" d="M141.3,25.4c-6.5-0.3-12.9,0.2-18.7,3.6c-5.7,3.3-10.1,8-12.8,14.2c-1.8,4.2-2.7,8.4-2.6,12.9
		c0.1,5.4,1.7,10.4,4.4,15c0.3,0.4,0.4,0.9,0.6,1.4c-0.8-0.3-1.6-0.4-2.3-0.9c-0.3-2.1-1.6-3.9-2.2-5.9c-3.5-10.9-1.6-20.8,5.2-29.8
		c4.9-6.4,11.5-10,19.2-11.5c1.9-0.4,3.8-0.2,5.6-0.8C139.2,23.8,140.2,24.6,141.3,25.4z"/>
	<path class="st40" d="M61.5,87.7c-2.7-1.3-4.9-3.4-7.3-5.2c-6-4.5-12-9.1-18-13.6c-0.5-0.4-1.1-1-1.8-1c-0.1-0.1-0.1-0.2-0.1-0.3
		c0-0.1,0-0.2,0-0.2c0.5-0.7,1.2-1.1,2.1-1.4c0.8-0.1,1.5,0.3,2.1,0.7c8.1,6.3,16.4,12.3,24.5,18.6C62.7,86.3,62.1,87,61.5,87.7z"/>
	<path class="st41" d="M27.8,75.3c2.6,1.3,4.7,3.3,7,5c5.2,3.8,10.3,7.8,15.5,11.7c2.3,1.7,4.4,3.7,7,5c-0.2,0.8-0.4,1.5-0.6,2.3
		c-2.5-0.9-4.4-2.9-6.5-4.4C43.1,89.6,36,84.2,28.9,78.8c-0.8-0.6-1.5-1.2-2.2-1.9C26.5,76,27.1,75.6,27.8,75.3z"/>
	<path class="st42" d="M160,183.5c-1.3,1-2.8,1.9-4.3,2.6c-1.5-1.2-2.8-2.7-5.1-2.3c-0.9,0.2-1.4-0.7-1.9-1.4
		c-2.1-2.8-3.9-5.7-5.9-8.6c-1-1.5-2-2.9-4.1-2.7c-0.3,0-0.5-0.2-0.6-0.4c2.6-0.2,5.2-0.5,7.8-0.7c1.9,1.9,3.2,4.2,4.7,6.3
		c0.8,1.2,1.7,2.4,2.4,3.7c0.8,1.4,1.7,2,3.4,1.4C158.2,180.7,159.5,181.7,160,183.5z"/>
	<path class="st43" d="M152.6,81.1c0.2-1.3,1.5-1.7,2.4-2.4c8.4-7.1,11.7-16.3,11.2-27.1c-0.1-2.4-1.2-4.6-1.1-7
		c1.3,1.3,2.6,2.7,3.4,4.4c1,9.6-0.7,18.6-6.7,26.4c-1,1.2-2.1,2.3-3.1,3.4c-0.5,0.6-1.1,1.1-0.8,2C156,81.4,154.3,81.1,152.6,81.1z
		"/>
	<path class="st44" d="M184.7,110.6c1.3-1.7,2.6-3.4,3.8-5.1c1.6,1.6,2.7,3.5,4,5.4c1.2,1.7,2.3,3.6,3.7,5.2
		c-0.6,2.3-1.4,4.5-2.5,6.6c-0.9,0.3-1.3-0.4-1.7-0.9c-2.5-3.5-4.9-7-7.3-10.6C184.7,111,184.7,110.8,184.7,110.6z"/>
	<path class="st45" d="M168,115.2c0.4,0.3,0.9,0.6,1.2,1c2.9,4.2,5.7,8.4,8.6,12.6c-0.1,1.2-0.6,2.1-2.1,1.9
		c-0.6,0.3-1.1,0.6-1.7,0.9c-0.8,0.3-1.2-0.3-1.6-0.8c-2.5-3.2-4.5-6.8-6.9-10c-0.3-0.5-0.5-1-0.2-1.6
		C166.2,117.8,167.1,116.5,168,115.2z"/>
	<path class="st46" d="M157.7,80.8c-1.8-0.1-1.2-0.8-0.4-1.5c2.9-2.6,5.3-5.6,7.1-9.1c2.3-4.6,3.8-9.5,3.7-14.8
		c0-2.1-0.4-4.3,0.3-6.5c1,1.4,2.3,2.6,2.9,4.2c-0.6,3.5-0.3,7-1.3,10.5c-1.6,5.7-4.3,10.9-8.2,15.3c-0.6,0.7-1.2,1.5-2.3,1.7
		C158.9,80.7,158.3,80.8,157.7,80.8z"/>
	<path class="st47" d="M84.9,68.4c-1.3,0.6-2.6,1.3-4,1.9c-5.5-4.1-11-8.3-16.5-12.5c-0.6-0.5-1.8-0.9-0.8-2.1
		c0.5-0.3,1-0.3,1.5-0.3c0.8,0,1.7,0,2.5,0c1.1,0.3,2.2,0.2,3.2,0.8c0.3,1,1.1,1.5,1.9,2.1c3.5,2.6,7.1,5.3,10.6,8
		C84,66.9,84.8,67.4,84.9,68.4z"/>
	<path class="st15" d="M122.3,75.7c-1.3-2.1-3.4-3.5-4.9-5.4c-3.4-4.4-5.2-9.5-5.1-14.9c0.2-12,7.8-22.3,20.1-24.6
		c12.3-2.3,23.8,6,26.7,17.4c3.5,13.7-4.8,27.4-18,30.5c-1,0.2-1.9,0.9-3,0.8c-0.7,0-1.4,0-2-0.4c3.4-0.8,7-1.2,10.1-2.9
		c7.3-4,11.7-10.1,12.8-18.4c1.3-10.2-2.6-18.2-11.1-23.6c-6.3-3.9-13.2-4.3-20.2-1.4c-8.5,3.6-13.5,10.3-14.7,19.3
		c-1.1,8.4,1.6,15.8,8.3,21.5c1.2,1,2.7,1.5,3.5,2.9C124.1,76.4,123.1,76.3,122.3,75.7z"/>
	<path class="st48" d="M159.5,80.7c6.7-7,10.8-15,10.8-24.9c0-1,0.1-1.9,0.9-2.6c1.1,1.2,1.5,2.9,2.2,4.3c0.5,1.4-0.1,2.8-0.3,4.1
		c-1,5.9-3.3,11.3-6.9,16.1c-0.5,0.7-0.9,1.4-1.7,1.8C163,80.2,161.3,80.5,159.5,80.7z"/>
	<path class="st5" d="M125,170c-0.1,1.2,0.8,2,1.4,2.9c2.1,3.2,4.4,6.3,6.5,9.6c2,3.2,5,5.3,7.9,7.4c0.8,0.6,1.5,1.2,2.1,2
		c-0.8,0.3-1.6,0.5-2.3,0.8c-2.1-2.3-4.8-3.9-7.2-5.7c-1.7-1.2-2.7-2.9-3.8-4.5c-2.6-3.6-5.1-7.4-7.6-11.1c-0.5-0.7-0.8-1.3-0.7-2.1
		C122.5,169.5,123.8,169.7,125,170z"/>
	<path class="st48" d="M20,87.7c4,2.5,7.5,5.6,11.2,8.4c7.4,5.5,14.8,11.2,22.2,16.8c0.4,0.3,0.9,0.5,1.4,0.5c0,0.8,0,1.5,0,2.3
		c-2.5-0.8-4.3-2.8-6.3-4.3c-7.8-5.8-15.6-11.7-23.3-17.5c-2-1.5-4-3-6-4.5C19.3,88.7,19.6,88.2,20,87.7z"/>
	<path class="st49" d="M184.7,110.6c2.7,3.2,4.7,6.8,7.2,10.2c0.5,0.7,1,1.5,1.8,1.9c-0.6,1.9-1.5,3.6-2.5,5.3
		c-0.8,0.1-1.1-0.6-1.4-1.1c-2.8-3.7-5-7.6-7.8-11.3c-0.3-0.4-0.8-0.9-0.3-1.5C182.7,112.9,183.7,111.8,184.7,110.6z"/>
	<path class="st3" d="M15,110.6c0-0.9-0.3-2.1,1.3-0.8c13.1,10,26.3,19.8,39.4,29.7c1.9,1.5,3.9,2.9,5.9,4.3
		c0.6,0.4,1.2,0.8,1.9,0.8c0.7,0.8,1.5,1.7,1.8,2.7c-1.2,0.2-2-0.5-2.8-1.1c-10.4-7.9-20.8-15.7-31.1-23.6
		c-4.5-3.4-9.1-6.9-13.7-10.3C16.9,111.7,15.9,111.2,15,110.6z"/>
	<path class="st50" d="M66.2,81.6c-2.7-1.3-4.8-3.4-7.2-5.1c-5.2-3.8-10.2-7.7-15.4-11.6c-0.9-0.7-1.7-1.4-2.3-2.3
		c0.2-1.1,0.8-1.6,1.9-1.2c8.1,6.2,16.3,12.4,24.4,18.6C67.2,80.5,66.7,81,66.2,81.6z"/>
	<path class="st51" d="M63,85.4c-2.5-0.7-4.2-2.6-6.1-4.1c-6.2-4.6-12.2-9.3-18.3-13.9c-0.6-0.5-1.3-1.1-2.2-1
		c-0.2-0.9,0.5-1.3,1.1-1.7c0.4-0.2,0.8-0.5,1.3-0.2c3.8,3,7.7,6,11.5,9c4.3,3.3,8.6,6.5,12.9,9.8c0.4,0.3,0.8,0.4,1.2,0.6
		C64.1,84.6,63.4,84.9,63,85.4z"/>
	<path class="st52" d="M88.2,32.3c1.8-1,2.1-3.1,3.1-4.7c3.1-5.1,6.9-9.6,11.3-13.6c0.5-0.5,1.5-0.8,0.4-1.7
		c1.6,0.1,3.1,0.2,4.6,0.7c0.6,1.1-0.4,1.5-1,2c-5.2,4.2-9.4,9.1-12.8,14.8c-0.7,1.3-1,2.8-2.4,3.7c-0.3,0.1-0.6,0.1-0.9,0.1
		c-0.7-0.1-1.3-0.2-2-0.5C88.3,32.9,88.1,32.7,88.2,32.3z"/>
	<path class="st53" d="M181.6,77.2c-0.2,1.6,0.3,2.9,1.3,4.3c1.6,2,2.9,4.2,4.3,6.4c0.4,0.6,0.7,1.3,1.6,0.7
		c-0.2,2.9-0.7,5.7-1.5,8.5c-0.8,0.1-1.2-0.4-1.6-0.9c-1.9-2.8-4-5.5-5.8-8.4C180.5,84.2,181.1,80.7,181.6,77.2z"/>
	<path class="st54" d="M63.4,56c0.7,1.8,2.4,2.3,3.8,3.4c4.3,3.4,8.7,6.6,13,9.9c0.4,0.3,0.6,0.6,0.6,1.1c-0.6,0.6-1.4,1-2.2,1.2
		c-2.9-1.4-5.1-3.8-7.8-5.6c-3.5-2.5-6.9-5.1-10.3-7.7c-0.7-0.5-1.8-1-1.1-2.3C60.9,55.1,62.2,55.1,63.4,56z"/>
	<path class="st55" d="M54.1,56.7c6.8,5.2,13.6,10.3,20.4,15.5c0.5,0.4,1.1,0.7,1.7,0.8c-0.7,0.7-1.4,1.2-2.3,1.6
		c-3.1-1.4-5.6-3.8-8.3-5.8c-4.6-3.4-9.1-6.9-13.6-10.4c-0.4-0.3-0.9-0.5-1.4-0.4c-0.1-0.7,0.5-0.7,0.9-0.9
		C52.4,56.8,53.2,56.4,54.1,56.7z"/>
	<path class="st56" d="M146.6,168.4c-0.9,0-1.8,0.1-2.6-0.3c-2.8-3.6-5.1-7.5-7.7-11.1c-0.5-0.7-1.2-1.4-1.6-2.2
		c1.4-0.5,2.8-0.9,4.3-1.1c1.2-0.4,1.6,0.5,2.1,1.2c2.6,3.7,5.2,7.4,7.6,11.2c0.4,0.7,1.3,1.4,0.8,2.2c-0.4,0.6-1.4,0.2-2.2,0.2
		C147,168.5,146.8,168.5,146.6,168.4z"/>
	<path class="st57" d="M100.7,12.2c-2.2-0.5-3.6,0.8-4.9,2.4c-3.4,4.1-6.6,8.3-9.2,13c-0.7,1.2-0.6,3-2.2,3.6c-1,0.5-1.7,0-2.4-0.6
		c-0.2-1.6,0.7-2.9,1.5-4.3c2.3-4.2,4.9-8.3,8.1-11.9c0.4-0.4,0.8-0.9,1-1.4c-0.6-0.6-1.4-0.2-2-0.4c-0.3-0.1-0.5-0.2-0.7-0.4
		c1-0.7,2.1-0.2,3.2-0.4C95.5,12.1,98.1,11.5,100.7,12.2z"/>
	<path class="st31" d="M160,183.5c-1.1-1.6-2.3-2.6-4.3-1.5c-0.8,0.5-1.6,0.2-2-0.5c-2.5-3.9-5.4-7.6-7.7-11.6c1-0.2,2-0.5,3.1-0.4
		c1.3-0.5,1.9,0.3,2.5,1.1c1.8,2.6,3.7,5.2,5.4,7.9c0.6,0.9,1.1,1.8,2.4,1.4c0.4-0.1,0.9-0.2,1.3,0c0.1,0,0.3,0,0.4,0
		c1.1-0.1,1.8,0.2,1.9,1.5C161.8,181.9,161.2,183.1,160,183.5z"/>
	<path class="st58" d="M184.3,161c-0.9,1.4-2,2.7-3.1,3.9c-0.7,0.5-1.1,0-1.4-0.5c-2.5-3.3-4.7-6.8-7-10.2c-0.2-0.3-0.2-0.6,0-0.9
		c1.7-0.8,3.4-1.5,5-2.3C179.9,154.3,182.6,157.3,184.3,161z"/>
	<path class="st59" d="M138.1,170.6c2.5-0.5,3.8,0.9,5.1,2.8c1.9,3,4.1,5.9,6,8.9c0.5,0.8,1.1,1.3,2,1.1c2.3-0.5,3.5,0.9,4.4,2.7
		c-0.7,0.6-1.5,1-2.4,1.2c-1.4,0.6-2-0.7-2.9-1.1c-0.1-0.1-0.3-0.2-0.4-0.3c-0.4-0.4-0.9-0.7-1.5-0.8c-0.5-0.1-1-0.3-1.5-0.5
		c-1.6-0.9-2.2-2.6-3.3-4c-1.9-2.6-3.5-5.4-5.4-8c-0.4-0.5-0.9-1.1-0.4-1.9C137.9,170.6,138,170.5,138.1,170.6z"/>
	<path class="st60" d="M91.3,33.1c1.7-2.6,3.1-5.5,4.9-8c3-4.1,6.5-7.6,10.4-10.8c0.5-0.4,1-0.6,1-1.3c1.5,0,2.9,0.3,4.3,0.8
		c-2.4,1.2-4.5,2.9-6.5,4.7c-5,4.4-8.7,9.7-11.8,15.5c-0.2,0.2-0.5,0.3-0.8,0.3C92.2,34,91.4,34.1,91.3,33.1z"/>
	<path class="st20" d="M117.3,182.3c1.4-0.4,0.4-1.1,0.1-1.6c-3.4-5.1-6.9-10.1-10.3-15.1c-0.5-0.7-1.2-1.3-1-2.2
		c1.6,0.8,3.1,1.5,4.7,2.3c3.2,5.4,7,10.4,10.4,15.6c0.1,0.2,0.3,0.4,0.4,0.6c0.2,0.5,1.1,1,0.5,1.7c-0.5,0.6-1.1,0-1.6-0.2
		C119.5,183,118.2,183.1,117.3,182.3z"/>
	<path class="st60" d="M160.7,180c-0.4,0.1-0.8,0.3-1.2,0.4c-1.2-0.6-1.6-1.8-2.3-2.8c-1.9-2.9-3.9-5.7-6-8.5
		c-1.4-0.9-3.2,0.1-4.6-0.7c0.8,0,1.7,0,2.6,0c-0.2-1.3-1-2-1.5-2.8c-2.4-3.6-4.9-7.2-7.3-10.8c-0.4-0.5-0.6-1.1-1.4-1.1
		c1.1-0.4,2.1-0.7,3.2-1.1c5,7.3,9.9,14.7,14.9,22C158.2,176.3,159.5,178.2,160.7,180z"/>
	<path class="st42" d="M134.6,154.7c1.5,0.2,1.7,1.6,2.4,2.6c2.2,3,4.3,6.1,6.4,9.1c0.3,0.5,0.6,1,0.6,1.6c-2.1-0.2-4.2-0.7-6.2-1.6
		c-2.4-3-4.5-6.2-6.6-9.5c-0.3-0.4-0.5-0.9-0.5-1.4C132,155,133.3,154.8,134.6,154.7z"/>
	<path class="st61" d="M164.6,79.5c1.7-3,3.9-5.7,5.3-8.9c1.9-4.2,2.6-8.7,3.6-13.1c1.1,2.2,1.9,4.5,1.9,7c0,2.6-1.3,4.7-2.2,7
		c-0.7,1.7-1.6,3.4-2.4,5C169,78,166.9,79,164.6,79.5z"/>
	<path class="st62" d="M181.6,114.1c2.5,3.7,5,7.5,7.5,11.2c0.6,1,1.4,1.8,2.1,2.8c-0.5,1.1-1.1,2.2-1.8,3.1
		c-1.6-1.1-2.3-2.9-3.3-4.4c-2.4-3.5-5-7-7.1-10.7C180.2,115.9,180.6,114.6,181.6,114.1z"/>
	<path class="st63" d="M175.7,130.7c1-0.3,1.5-1.1,2.1-1.9c1.9,2.8,3.8,5.6,5.7,8.4c0.3,0.4,0.5,0.8,0.9,0.9
		c-0.9,1.5-2.1,2.8-3.4,3.9c-0.7,0.3-1.1-0.2-1.4-0.7c-1.7-2.5-3.5-4.9-5.1-7.4c-0.2-0.4-0.4-0.8-0.2-1.3
		C174.7,132,175.6,131.6,175.7,130.7z"/>
	<path class="st58" d="M164.6,140.8c1.3-1,2.6-2,3.9-2.9c0.3,0.1,0.5,0.1,0.7,0.3c2.1,2.8,4.1,5.7,5.9,8.7c0.1,0.2,0.1,0.5,0,0.7
		c-1.2,1.2-2.5,2.2-4,3c-0.4,0.1-0.6-0.1-0.8-0.4c-1.9-2.6-3.8-5.3-5.5-8C164.5,141.7,164.3,141.2,164.6,140.8z"/>
	<path class="st58" d="M156.4,129.2c1.3-1.3,2.6-2.6,3.9-3.9c1.4,1,2.1,2.6,3,4c1.3,2,2.7,3.9,4.1,5.8c-1.8,1-3.8,1.6-5.8,1.9
		c-0.1,0-0.2,0.1-0.2,0.1c-2.3-2.1-4-4.6-5.1-7.5C156.2,129.4,156.4,129.3,156.4,129.2z"/>
	<path class="st44" d="M176.9,97.8c0.7-2,1.3-3.9,2-5.9c1.2,0,1.6,1,2.1,1.8c1.7,2.4,3.1,5,5.2,7.2c-0.6,2-1.3,4-2.3,5.8
		c-0.6,0.4-1-0.1-1.2-0.5C180.7,103.4,178.7,100.7,176.9,97.8z"/>
	<path class="st20" d="M110.7,179.6c1.9,1.2,4.2,1.7,6.2,2.7c0.1,1,0.8,1.4,1.5,1.9c4.4,3.3,8.7,6.6,13.1,9.8c0.3,0.3,0.5,0.5,0.6,1
		c-1,0.2-2,0.6-3.1,0.5c-1.9-2.5-4.6-4-7-5.8c-4.3-3.3-8.6-6.5-12.9-9.7c-0.4-0.3-0.6-0.6-0.7-1.1
		C109.2,179.1,109.9,179.3,110.7,179.6z"/>
	<path class="st36" d="M164.9,155.6c1-0.3,2.1-0.5,3.1-0.8c2.3,4.4,5.5,8.2,8.1,12.3c0.5,0.8,1.3,0.7,1.9,1.1
		c-0.3,0.7-0.8,1.2-1.5,1.6c-2,1.5-2.3,1.5-3.8-0.5c-2.7-3.7-5.3-7.6-7.8-11.4C164.5,157.2,163.7,156.4,164.9,155.6z"/>
	<path class="st21" d="M84.9,68.4c-3.3-3.1-7.1-5.5-10.6-8.2c-1.1-0.8-2.2-1.6-3.2-2.4c-0.4-0.3-0.7-0.6-0.2-1.1
		c0.2-0.2,0.5-0.4,0.8-0.4c1-0.1,2,0.2,3,0.5c1.1,0.4,2.3,0.4,3.3,1.3c2,2.2,4.5,3.7,6.9,5.5c0.9,0.7,1.7,1.3,2.5,2
		c0.5,0.4,1.1,0.8,0.6,1.6C86.9,67.8,85.9,68.2,84.9,68.4z"/>
	<path class="st51" d="M164.9,155.6c-0.5,0.6-0.2,1.2,0.2,1.8c2.6,3.8,5.3,7.6,7.8,11.4c1,1.6,2,2.2,3.6,1.1
		c-0.4,0.6-0.9,1.2-1.5,1.5c-0.2,0-0.5-0.1-0.6,0c-2.1,1.7-3.1,0.1-4.1-1.4c-2.6-4-5.3-7.9-8-11.8c-0.4-0.6-0.8-1.2-0.9-1.9
		c0.2-0.4,0.4-0.6,0.8-0.4C163.2,155.8,164.1,155.7,164.9,155.6z"/>
	<path class="st48" d="M147.1,184.2c0.5,0.1,1,0.3,1.5,0.4c0.5,0.4,1,0.8,1.5,1.2c0.7,0.4,1.1,1,1.8,1.4c0.5,0.3,0.2,0.6-0.2,0.8
		c-0.4,0.2-0.6,0.6-1.1,0.5c-1.2-0.8-2.3-1.6-3.5-2.5c-0.3-0.2-0.6-0.6-1-0.6c-3.9-0.1-5.2-3.3-7-5.8c-1.6-2.3-3.2-4.7-4.8-7
		c-0.4-0.6-0.8-1.2-0.9-1.9c1,0,2.1,0,3.1,0c2.2,2.6,3.9,5.5,5.9,8.3c1,1.4,2.1,2.8,2.9,4.3C145.8,183.9,146.3,184.5,147.1,184.2z"
		/>
	<path class="st64" d="M193.2,97.8c1.5-3,3-6.1,4.6-9.6c1.2,5.8,1.4,11.1,0.7,16.6c-0.6,0.4-1,0.1-1.3-0.3c-1.6-1.8-2.8-3.8-4.1-5.8
		C193,98.4,193,98.1,193.2,97.8z"/>
	<path class="st65" d="M167.4,135.1c-0.3-0.1-0.7-0.2-0.8-0.4c-2.3-3-4.4-6.1-6.3-9.4c0.9-1,1.8-2.1,2.7-3.1c1.8,1.3,2.6,3.3,3.8,5
		c1.5,2,3.1,4,4,6.3C169.7,134.2,168.6,134.8,167.4,135.1z"/>
	<path class="st53" d="M193.2,97.8c1.6,2.5,2.8,5.2,5.4,7c-0.2,2.4-0.6,4.7-1.2,7c-0.7,0.1-1.1-0.3-1.4-0.8c-2-2.5-3.6-5.2-5.4-7.8
		c-0.1-0.2-0.2-0.5-0.1-0.7C191.4,100.9,192.3,99.3,193.2,97.8z"/>
	<path class="st66" d="M170.8,133.5c-2.8-3.6-5.4-7.4-7.8-11.3c0.8-1,1.6-2,2.3-3.1c0.1,1.2,1,1.9,1.6,2.8c1.9,2.9,3.9,5.7,5.8,8.6
		c0.3,0.5,0.7,0.9,1.2,1.2C173,132.4,172,133,170.8,133.5z"/>
	<path class="st65" d="M175.1,147.5c-2.2-3.2-4.4-6.5-6.6-9.7c1.1-1,2.3-1.9,3.4-2.9c2.3,3.2,4.7,6.3,6.3,9.8
		C177.3,145.8,176.3,146.8,175.1,147.5z"/>
	<path class="st67" d="M184.3,161c-2.3-3.2-5.1-6.2-6.5-10c1.2-0.6,2.3-1.3,3.5-1.9c2.1,2.7,4.2,5.3,5.7,8.4
		C186.2,158.7,185.3,159.9,184.3,161z"/>
	<path class="st68" d="M190.5,102.4c1.8,2.6,3.6,5.2,5.5,7.8c0.4,0.6,0.9,1,1.4,1.5c-0.4,1.4-0.8,2.9-1.2,4.3
		c-0.3-0.2-0.8-0.3-1-0.5c-2.4-3.2-4.7-6.5-6.7-10C189.2,104.5,189.9,103.5,190.5,102.4z"/>
	<path class="st69" d="M87.9,67.2c-0.8-1.8-2.7-2.6-4.1-3.8c-1.7-1.4-3.5-2.7-5.3-4c-0.4-0.3-0.6-0.6-0.6-1.1c0.6-0.3,1.1,0,1.7,0.1
		c1.6,0.6,3.2,1,4.9,1.5c1.1,0.5,2.2,0.9,3.3,1.4c0.7,0.4,1.5,0.6,2.3,0.9c1.1,0.7,2.6,1,3.4,2.2c0.4,0.2,0.8,0.5,1.2,0.7
		C92.2,65.9,90,66.5,87.9,67.2z"/>
	<path class="st70" d="M178.1,168.3c-0.9,0.4-1.6,0.3-2.2-0.7c-2.5-3.7-5-7.4-7.5-11.1c-0.4-0.5-0.9-1-0.3-1.7
		c0.8-0.3,1.6-0.5,2.3-0.8c2.2,3,4.3,6,6.3,9.1c0.8,1.2,1.6,2.4,2.6,3.6C179.1,167.5,178.7,168,178.1,168.3z"/>
	<path class="st49" d="M174.3,104c0.6-1.4,1.3-2.9,1.9-4.3c1.3,0.8,1.9,2.2,2.8,3.4c1.3,1.8,2.5,3.7,3.8,5.6c-0.3,1.5-1.2,2.7-2,3.9
		c-0.6,0.4-1,0-1.3-0.4c-1.8-2.5-3.6-4.9-5.2-7.6C174.2,104.4,174.2,104.2,174.3,104z"/>
	<path class="st68" d="M186.2,100.9c-1.4,0-1.6-1.2-2.3-2c-1.8-2.2-2.9-4.9-5-6.9c0.4-1.4,0.7-2.8,1.1-4.2c2.3,1.7,3.3,4.4,5.1,6.6
		c0.8,0.9,1.2,2.1,2.3,2.8C187,98.3,186.6,99.6,186.2,100.9z"/>
	<path class="st71" d="M130.8,155.5c2.2,3.2,4.3,6.3,6.5,9.5c0.3,0.4,0.4,0.9,0.5,1.4c-2.4-0.6-4.6-1.6-6.6-3
		c-1.1-1.8-2.3-3.5-3.4-5.2c-0.4-0.7-1.1-1.3-0.4-2.2C128.5,155.7,129.6,155.5,130.8,155.5z"/>
	<path class="st72" d="M179.3,166.8c-0.6,0-1-0.3-1.3-0.7c-2.5-3.7-5-7.3-7.5-11c-0.2-0.2-0.1-0.6-0.2-0.9c0.8-0.3,1.6-0.6,2.3-0.8
		c2.5,3.7,5,7.4,7.5,11.1c0.2,0.3,0.6,0.5,1,0.5C180.8,165.7,180,166.2,179.3,166.8z"/>
	<path class="st66" d="M178.3,144.8c-2.4-2.7-4-6-6.2-8.9c-0.2-0.2-0.1-0.6-0.1-0.9c0.8-0.7,1.6-1.5,2.4-2.2c2.1,3.2,4,6.6,6.7,9.4
		C180.2,143.1,179.3,144,178.3,144.8z"/>
	<path class="st63" d="M184.3,147.3c1.6-1,3.1-2,4.7-3c1.4,1.1,1.8,3.1,3.5,4c-0.8,2.1-2,4-3.2,5.8c-0.6,0.4-1,0-1.3-0.4
		c-1.3-1.8-2.6-3.6-3.7-5.6C184.1,147.8,184.1,147.5,184.3,147.3z"/>
	<path class="st73" d="M174.3,104c1.7,2.4,3.4,4.9,5.1,7.3c0.4,0.5,0.6,1.2,1.3,1.2c-0.5,1.1-1.2,2.1-2,3.1c-0.1,0-0.3,0-0.4-0.1
		c-2-2.7-4.2-5.3-5.7-8.4C173.2,106.1,173.8,105.1,174.3,104z"/>
	<path class="st70" d="M169.3,151.7c-0.9,0.9-2.1,1.3-3.2,1.9c-2.5-2.7-4.2-5.9-6.3-8.8c-0.2-0.3-0.1-0.6,0.1-0.9
		c0.9-0.6,1.8-1.2,2.6-1.7c1.9,2.1,3.2,4.6,4.9,6.8C168.1,149.9,169,150.7,169.3,151.7z"/>
	<path class="st74" d="M159.9,144c1.6,2.4,3.2,4.9,4.8,7.3c0.5,0.8,1.3,1.4,1.4,2.4c-0.6,0.6-1.4,1-2.2,1.2
		c-0.7,0.2-1.1-0.2-1.4-0.7c-1.9-2.4-3.6-5.1-5.3-7.7c-0.2-0.3-0.2-0.6,0.1-0.9C158.1,145,159,144.5,159.9,144z"/>
	<path class="st75" d="M184.3,147.3c1.3,1.9,2.6,3.8,3.8,5.8c0.3,0.4,0.5,0.9,1.1,0.9c-0.8,1.2-1.5,2.3-2.3,3.5
		c-2.1-2.7-4.3-5.3-5.7-8.4C182.2,148.5,183.3,147.9,184.3,147.3z"/>
	<path class="st76" d="M158,137.8c-2.3,0.6-4.7,0.8-7,0.7c-0.7-0.9-1.7-1.7-1.6-3.1c1.6-1.3,3.1-2.6,4.7-3.9
		C155.9,133.3,157.4,135.3,158,137.8z"/>
	<path class="st51" d="M157.2,145.6c2.2,3.1,3.8,6.6,6.7,9.2c-0.4,0.6-1.3,0.4-1.6,1.1c-0.3,0.1-0.5,0.3-0.8,0.4
		c-2.8-2.7-4.6-6.1-6.6-9.4C155.6,146.5,156.4,146,157.2,145.6z"/>
	<path class="st77" d="M192.4,148.2c-0.4,0.1-0.8,0.5-1.2-0.1c-0.8-1.3-1.9-2.4-2.3-3.9c2.4-1.8,4.8-3.6,7.1-5.4
		C195.3,142.2,194.1,145.3,192.4,148.2z"/>
	<path class="st78" d="M169.3,151.7c-2.9-2.7-4.9-6-6.7-9.5c0.7-0.5,1.3-1,2-1.4c1.9,3.4,4.3,6.5,6.5,9.7
		C170.7,151.1,170,151.4,169.3,151.7z"/>
	<path class="st79" d="M158,137.8c-1.3-2.1-2.6-4.2-3.9-6.3c0.8-0.8,1.6-1.5,2.3-2.3c1.3,2.8,3.3,5.3,5.1,7.8
		C160.5,137.5,159.3,137.8,158,137.8z"/>
	<path class="st80" d="M127.4,156c0.3,2,1.9,3.3,2.8,4.9c0.4,0.8,1.3,1.5,1.1,2.6c-3.5-1.7-6.3-4.1-9.5-7.1
		C123.9,156.2,125.6,156.1,127.4,156z"/>
	<path class="st81" d="M182.8,108.7c-0.4,0-0.7-0.2-1-0.5c-1.9-2.8-3.7-5.6-5.6-8.4c0.1-0.7,0.3-1.3,0.8-1.9c2.4,2,3.6,4.9,5.4,7.3
		c0.4,0.6,0.6,1.4,1.5,1.6C183.7,107.5,183.2,108.1,182.8,108.7z"/>
	<path class="st82" d="M151.3,169.1c0.5,0.1,0.9,0.2,1.1,0.6c2.4,3.5,5,7,7.1,10.7c-1.4,0.9-2-0.1-2.6-1c-2-2.8-3.9-5.7-5.8-8.6
		c-0.5-0.8-1-1.3-2-1.2C149.7,169.1,150.5,169.1,151.3,169.1z"/>
	<path class="st83" d="M170.8,76.5c0-2.5,1.9-4.3,2.6-6.5c0.6-1.9,1.4-3.7,2.1-5.5C176.1,69.3,174.8,73.4,170.8,76.5z"/>
	<path class="st84" d="M147.1,184.2c-0.9,0.6-1.3,0.5-1.9-0.3c-2.7-4-5.4-8-8.1-12c-0.2-0.4-0.3-0.8-0.5-1.2c0.4,0,0.8,0,1.2,0
		c0.1,1.1,0.9,1.8,1.5,2.6c2.2,3.2,4.3,6.4,6.5,9.6C146.2,183.4,146.5,183.9,147.1,184.2z"/>
	<path class="st85" d="M149.4,135.4c0.5,1,1.6,1.8,1.6,3.1c-1.7,0.1-3.3,0-5.1-0.4C147,136.9,148.3,136.2,149.4,135.4z"/>
	<path class="st82" d="M163,181.4c-0.4-0.8-1.2-1.1-1.9-1.5c2.3-1.6,2.6-1.6,3.9,0.1C164.3,180.5,163.7,181,163,181.4z"/>
	<path class="st84" d="M151.8,188c0.2-1.3-1.4-1.3-1.6-2.3c1.2,0.1,1.8,1.6,3.1,1.5C152.9,187.7,152.4,188,151.8,188z"/>
	<path class="st86" d="M15.1,129.6c0.1-0.3,0.2-0.5,0.3-0.8c0.6,0.7,0.3,1.6,0.4,2.4C15.6,130.7,15.3,130.1,15.1,129.6z"/>
	<path class="st38" d="M74.4,139.3c0.6,0.7,0.2,1.6,0.3,2.3C74.3,140.9,74.3,140.1,74.4,139.3z"/>
	<path class="st14" d="M55.2,120.7c-0.5-0.7-0.2-1.6-0.3-2.4C55.3,119,55.2,119.8,55.2,120.7z"/>
	<path class="st47" d="M51.8,57.5c-0.4,0-0.9-0.1-1.2,0.4c-1.2,0.4-2.3,0.8-3.5,1.2c-0.9-0.9-0.9-2.1-0.9-3.3
		c0.4-7.1,1-14.2,2.7-21.2c0.8-3.4,2-6.6,2.8-10c1.9-1.4,4-2.6,6.2-3.5c1.3,0.4,0.8,1.4,0.5,2.2c-0.8,2.4-1.7,4.7-2.4,7.1
		c-2.2,7.1-3.5,14.4-3.7,21.8C52.2,54,52.3,55.8,51.8,57.5z"/>
	<path class="st21" d="M51.8,24.6c0.7,0.5,0.4,1.1,0.1,1.7c-2.3,6.9-3.9,13.9-4.4,21.1c-0.3,3.9-0.9,7.7-0.3,11.6
		c-0.1,0.1-0.3,0.3-0.4,0.4c-1,0.4-2.1,0.8-3.1,1.2c-1-0.7-0.9-1.8-1-2.8c-0.2-6.2,0.5-12.4,1.5-18.5c0.7-3.8,1.6-7.6,2.4-11.3
		C48.2,26.6,50,25.6,51.8,24.6z"/>
	<path class="st66" d="M51.8,57.5c-1-3,0-6,0.1-9c0.3-5,1.2-10,2.6-14.9c1-3.6,2.1-7.1,3.5-10.6c0.3-0.7,0.7-1.3-0.1-1.9
		c1.8-1.2,3.7-2.1,5.8-2.7c0.7,0.8,0.1,1.6-0.2,2.3c-1.4,3.4-3,6.8-3.8,10.5c-0.2,0.5-0.7,1-1.1,1.3c-2,1.8-3,4-2.4,6.7
		c0.1,0.4,0.1,0.9-0.3,1.3c-1.3,2.2-1.3,4.8-1.5,7.3c-0.2,3-0.8,6-0.5,9C53.4,57,52.6,57.3,51.8,57.5z"/>
	<path class="st87" d="M29.7,73c-0.3,0.2-0.5,0.5-0.8,0.7c-1-0.4-1.2-1.3-1.3-2.2c-0.7-6.2-1.5-12.4-0.9-18.7c0.2-1.7-0.1-3.4,0.3-5
		c1.3-2.1,2.8-4.1,4.6-5.9c1.5,0.6,1,1.9,0.9,3c-0.3,4-0.7,7.9-0.7,11.9c0,3.7,0.3,7.3,0.7,11c0.1,0.6,0.1,1.2-0.1,1.7
		c-0.1,0.2-0.3,0.5-0.4,0.7C31.3,71.2,30.5,72.1,29.7,73z"/>
	<path class="st49" d="M37.5,64.9c-0.4,0.5-0.8,1-1.2,1.5c-0.6,0.4-1.3,0.8-1.9,1.2c-0.7-0.3-0.9-0.9-0.9-1.6
		c-0.6-5.5-0.6-11-0.2-16.6c0.3-3.5,0.7-7.1,1.1-10.6c1.3-1.5,2.7-3,4.3-4.2c1.4,0.6,0.8,1.7,0.7,2.6c-0.5,3.6-1,7.1-1.4,10.7
		c-0.5,5-0.2,9.9-0.3,14.9C37.7,63.5,38,64.3,37.5,64.9z"/>
	<path class="st33" d="M46.7,28c0.6,0.4,0.5,1,0.4,1.6c-1.7,5.4-2.6,10.9-3.2,16.5c-0.5,4.8-1.2,9.7-0.2,14.5
		c-0.1,0.3-0.3,0.5-0.4,0.8c-0.8,0.1-1.4,0.7-1.9,1.2c-0.3,0.1-0.5,0.2-0.8,0.4c-0.7-0.6-0.9-1.4-0.9-2.2c-0.3-10,0.7-19.9,3.2-29.6
		C44,29.9,45.2,28.8,46.7,28z"/>
	<path class="st88" d="M42.9,31.1c0.5,2.3-0.7,4.5-0.9,6.7c-0.5,3.7-1.1,7.4-1.4,11.2c-0.2,2.8-0.3,5.6-0.3,8.4
		c0,1.9-0.1,3.7,0.4,5.5c-0.6,0.5-1.5,0.8-1.9,1.6c-0.4,0.1-0.8,0.3-1.1,0.4c-0.3-1-0.4-2.1-0.4-3.2c-0.2-8.5,0.1-16.9,1.9-25.2
		c0.1-0.6,0.3-1.3-0.3-1.8C40,33.4,41.2,32,42.9,31.1z"/>
	<path class="st89" d="M27.1,47.9c0.7,1.9,0.6,3.8,0.2,5.7c-0.7,4.1,0.4,8.1,0.2,12.2c-0.1,1.8,0.5,3.5,0.6,5.3
		c0.1,1,0.3,1.9,0.8,2.7c-0.4,0.5-0.7,1.1-1.1,1.6c-0.4,0.5-0.8,1-1.2,1.6c-0.1,0.1-0.3,0.2-0.4,0.3c-1.3-0.8-1.1-2.1-1.3-3.3
		c-1.1-6.7-1.3-13.5-1.3-20.3c0-0.3,0-0.5-0.1-0.8C24.6,51.1,25.7,49.4,27.1,47.9z"/>
	<path class="st90" d="M23.6,52.9c0.9,0.5,0.7,1.5,0.7,2.2c-0.2,7,0.4,14,1.6,21c0.1,0.4,0.2,0.7,0.3,1.1c-0.8,0.6-0.9,1.7-1.5,2.4
		c-0.3,0.3-0.5,0.5-0.8,0.8c-1.2-0.1-1.2-1-1.4-1.8c-1-5.5-1.7-11.1-2-16.7c-0.1-1.1-0.2-2.2-0.3-3.3C21.3,56.6,22.3,54.7,23.6,52.9
		z"/>
	<path class="st91" d="M20.4,58.6c0.6,0.5,0.8,1.1,0.8,1.8c0,6.2,1.1,12.2,1.9,18.3c0.1,0.7,0.3,1.3,0.8,1.7c-0.6,1-1.1,2-1.7,3.1
		c-0.2,0.2-0.5,0.5-0.7,0.7c-1.6-3.4-1.7-7.1-2.3-10.6c-0.4-2.6-0.8-5.2-0.8-7.8c0-0.7-0.3-1.3-0.8-1.7
		C18.4,62.2,19.2,60.3,20.4,58.6z"/>
	<path class="st92" d="M34.4,38.9c1.1,2,0,4-0.1,6c-0.5,6.2-1,12.4-0.3,18.6c0.2,1.4-0.3,2.8,0.4,4.2c0,0.1,0,0.2,0,0.4
		c-0.6,0.5-1.3,1.1-1.9,1.6c-1.3-2.3-0.8-4.9-1-7.4c-0.4-3.9-0.2-7.8,0-11.7c0.1-2.8,1.2-5.6,0.2-8.5C32.5,40.9,33.2,39.7,34.4,38.9
		z"/>
	<path class="st55" d="M59.6,31.1c0-2.9,1.6-5.3,2.5-8c0.5-1.6,1.6-3,1.8-4.8c1.6-0.9,3.3-1.5,5-1.9c0.8,0.8,0.9,0.8,0.4,1.9
		c-0.9,1.9-1.8,3.8-2.7,5.8c-0.7,1.4-1.2,2.8-1.6,4.3C63.4,29.7,61.8,31.1,59.6,31.1z"/>
	<path class="st36" d="M82.4,13c1.1-0.6,2.3-0.3,3.5-0.4c1.2,0.2,1.3,0.4,0.6,1.5c-1.1,1.8-2.5,3.4-3.6,5.2
		c-1.7,2.8-3.5,5.5-4.7,8.6c-0.2,0.5-0.4,0.9-0.9,1.2c-1.5,0.2-2.8,0-3.9-1.1c2.1-3.3,3.5-7,5.7-10.2C80.2,16.1,81.2,14.4,82.4,13z"
		/>
	<path class="st93" d="M64.6,28.5c0.2-2.9,2-5.2,2.9-7.8c0.3-1,0.9-1.8,1.3-2.7c0.2-0.5,0.6-1,0-1.5c1.6-0.8,3.2-1.4,5-1.5
		c1.3,0.2,1.4,0.5,0.7,1.8c-1.3,2.5-2.8,4.9-3.8,7.5c-0.4,0.9-0.7,1.9-1.1,2.9C68.1,28,66.5,28.8,64.6,28.5z"/>
	<path class="st51" d="M77.4,28.9c1.7-5.2,4.8-9.5,7.9-13.9c0.4-0.6,0.9-1.1,1.2-1.7c0.3-0.5-0.2-0.6-0.6-0.7
		c1.2-0.7,2.6-0.2,3.9-0.4c0.3,0,0.5,0,0.8,0c0.5,0.7,0,1.2-0.4,1.7c-3.7,4.4-6.8,9.3-9.3,14.5c-0.3,0.6-0.6,1.2-1.2,1.4
		C78.7,30,77.8,30,77.4,28.9z"/>
	<path class="st50" d="M82.4,13c-0.5,2.2-2.2,3.7-3.2,5.5c-1.5,2.7-3,5.4-4.3,8.1c-0.3,0.7-0.6,1.1-1.4,1c-1.1,0.6-2,0.3-2.8-0.5
		c2.2-3.6,3.8-7.6,6.1-11.1c0.5-0.8,1-1.7,1.7-2.3C79.8,13.1,81.2,13.3,82.4,13z"/>
	<path class="st94" d="M78.6,13.7c-0.5,2-1.9,3.5-2.8,5.2c-1.2,2.1-2.3,4.3-3.3,6.5c-0.3,0.8-0.7,1.4-1.6,1.4
		c-0.4,0.3-0.8,0.3-1.2-0.1c-0.6-0.7,0-1.3,0.2-1.9c1.2-3,2.8-5.9,4.5-8.7c0.4-0.7,0.6-1.2-0.4-1.4C75.3,14.1,77,14,78.6,13.7z"/>
	<path class="st31" d="M93.3,64.5c-1.2-0.6-2.3-1.2-3.5-1.9c-1.3-3.5-1-7.1-0.8-10.7c0-0.9,0.2-1.8-0.3-2.6
		c-0.2-0.3-0.2-0.6,0.1-0.8c1.5-0.3,2.6-1.2,3.1-2.6c0.5-0.7,0.6-1.6,1.5-1.9c0.7,0.6,0.5,1.5,0.3,2.2c-1.2,5.6-1.5,11.1-0.4,16.8
		C93.4,63.4,93.3,63.9,93.3,64.5z"/>
	<path class="st95" d="M93.3,44c-0.4,0.6-0.5,1.4-1.2,1.9c-0.7-0.8-0.6-1.7-0.3-2.6c0.9-3,1.7-6.1,2.7-9.1c0.9,0.3,1.8,0.5,2.7,0.8
		C96.5,38.3,94.6,41,93.3,44z"/>
	<path class="st10" d="M136.5,32.7c11.8-0.2,21.6,9.9,21.5,22.1c-0.1,12.1-10,22.8-22.6,22.4c-12.1-0.4-21-9.8-20.9-21.9
		C114.4,42.8,123.9,32.9,136.5,32.7z"/>
	<path class="st96" d="M82,30.4c0.8,0.3,1.6,0.5,2.3,0.8c0.2,0.3,0.5,0.4,0.8,0.4c0.5,0.7,0.1,1.4,0,2c-1.3,4.5-2.7,9-3.9,13.6
		c-0.3,1-0.6,2-1.6,2.5c-1.3,0.4-2.6,0.4-4-0.1c-0.7-0.6-0.4-1.3-0.2-2c1.5-5.1,3-10.3,4.5-15.4c0.2-0.8,0.4-1.7,1.2-2.1
		C81.5,30.1,81.8,30.1,82,30.4z"/>
	<path class="st97" d="M79.7,49.4c1.8-3.9,2.4-8.2,3.8-12.3c0.6-1.8,1.1-3.7,1.6-5.5c0.9,0,1.6,0.2,2.3,0.8c0.3,0.3,0.3,0.7,0.2,1.1
		c-1.5,5.2-2.9,10.4-4.6,15.5c-0.3,0.4-0.8,0.6-1.3,0.7c-0.6,0.2-1.2,0.2-1.8-0.1C79.9,49.5,79.8,49.4,79.7,49.4z"/>
	<path class="st98" d="M82.8,49c1.2-5.7,3.2-11.1,4.7-16.7c0.3,0,0.5,0,0.8,0c0.1,0.1,0.3,0.3,0.4,0.4c0.4,0.5,0.3,1.1,0.2,1.6
		c-1.3,4.4-2.5,8.9-3.9,13.3c-0.2,0.6-0.4,1.1-0.9,1.5C83.6,49.3,83.2,49.3,82.8,49z"/>
	<path class="st99" d="M94.4,34.3c0.6,1.5-0.5,2.8-0.7,4.2c-0.4,2.5-1.9,4.8-1.6,7.4c-0.4,1.6-1,3-3.1,2.7c-0.5-0.5-0.4-1.1-0.2-1.6
		c1.2-4.2,2.3-8.4,3.6-12.4c0.1-0.2,0.2-0.4,0.4-0.6c0.3,0,0.5,0,0.8,0C93.8,34.2,94.1,34.3,94.4,34.3z"/>
	<path class="st0" d="M69.6,26.9c0.4,0,0.8,0,1.2,0.1c0.8,0.5,1.7,0.7,2.7,0.8c1.2,0.8,2.6,0.9,3.9,1.2c0.7,0.5,1.5,0.7,2.3,0.8
		c0.1,0.2,0.2,0.4,0.2,0.6c-1.5,6.2-3.5,12.2-5.2,18.4c-0.1,0.5-0.3,1-0.7,1.3c-0.7,0.4-1.5,0.4-2.2,0.4c-0.2,0-0.4,0-0.6,0
		c-1.2,0-2.4-0.1-3.5,0.3c-1.7,0.2-3.5,0.2-5.2,0c-1.6-0.5-2.1-2.1-3.1-3.2c-0.9-1.3-1.6-2.6-2-4.1c-0.4-0.9-0.8-1.9-1.1-2.8
		c-1.2-4,0.3-7,3.5-9.3c1.7-0.9,3.4-1.8,5-2.6C66.3,27.9,68,27.4,69.6,26.9z"/>
	<path class="st22" d="M59.5,47.1c0.8,1,1.6,2,2.3,3c2.4,0.4,2.4,0.4,2.5,3c0,1,0.6,1.8,0.6,2.8c-0.5,0-1,0-1.5,0
		c-1.3,0-2.6,0-3.9,0c-0.3,0-0.5,0-0.8,0C57.6,53.5,58,48.7,59.5,47.1z"/>
	<path class="st55" d="M59.5,47.1C58.3,50,59,53,58.8,56c-0.5,0.1-1,0.2-1.5,0.3c-0.9,0.2-1.6-0.1-1.6-1.1c0.2-3.5,0.5-7,0.9-10.5
		c0-0.5,0.4-0.9,0.6-1.4C58.2,44.4,58.8,45.8,59.5,47.1z"/>
	<path class="st100" d="M65,56c-1.4-0.5-1.2-1.6-1.2-2.7c0.1-1.6,0-2.9-2-3.1c1.9,0,3.9,0,5.8,0c0.2-0.1,0.4-0.1,0.6,0.1
		c0.2,1.9,0.3,3.9-0.6,5.7C66.8,56,65.9,56,65,56z"/>
	<path class="st101" d="M67.7,56c-0.1-1.9,0-3.9,0.4-5.8c1-0.5,2.1,0.1,3.1-0.4c0.1,0,0.3,0,0.4,0c1,2.3,0.6,4.6,0,6.9
		c-0.3,0-0.5,0-0.8,0C69.9,56.1,68.7,56.4,67.7,56z"/>
	<path class="st102" d="M92.9,33.9c-0.4,3-1.6,5.7-2.3,8.6c-0.5,2-1.3,4-1.6,6.1c-0.1,0.1-0.3,0.3-0.4,0.4c-0.2,0.3-0.5,0.4-0.8,0.4
		c-0.7,0.1-1.3,0.1-1.9-0.3c-0.3-0.6-0.1-1.1,0-1.7c1.2-4.3,2.5-8.6,3.7-12.9c0.2-0.6,0.4-1.1,0.9-1.4c0.3,0,0.5,0,0.8,0
		C91.9,33.4,92.4,33.6,92.9,33.9z"/>
	<path class="st103" d="M90.6,33.1C89,38.4,87.5,43.7,85.9,49c-0.6,0.6-1.3,0.6-1.9,0c1.6-5.4,3.1-10.8,4.7-16.3
		C89.3,32.7,90,32.7,90.6,33.1z"/>
	<path class="st37" d="M79.7,30c0-0.1,0-0.2,0-0.4c2.8-6,6.1-11.6,10.5-16.6c0.2-0.2,0.2-0.6,0.3-0.9c0.9,0.1,2.3-0.5,2.7,0.2
		c0.6,0.9-0.8,1.6-1.4,2.2c-3.1,3.6-5.6,7.5-7.9,11.5c-0.8,1.4-1.2,2.8-2,4.2c-0.3,0-0.5,0-0.8,0C80.8,30.1,80.1,30.6,79.7,30z"/>
	<path class="st84" d="M150.2,185.8c-0.8,0-1.2-0.5-1.5-1.2C149.5,184.6,149.9,185.1,150.2,185.8z"/>
	<path class="st25" d="M75.5,49.4c1.4,0,2.8,0,4.3,0l0,0.1c0.1,0.2,0.3,0.3,0.3,0.5c0.4,3,0.2,5.9-0.7,8.8c-0.6,0-1.1-0.1-1.5-0.4
		c-1-0.4-2.1-0.8-3.1-1.2c-1.1-2.4-0.5-4.9-0.2-7.3C74.6,49.3,74.9,49,75.5,49.4z"/>
	<path class="st51" d="M74.7,49.8c0,2.5,0,4.9,0,7.4c-1-0.1-2.1-0.3-3.1-0.4c0-2.3,0-4.6,0-6.9c0.8,0,1.6-0.1,2.3-0.1
		C74.2,49.5,74.4,49.5,74.7,49.8z"/>
	<path class="st104" d="M79.3,58.7c-0.3-3.1,0.6-6.2,0.4-9.3c0.6,0,1.3,0,1.9,0c0.1-0.1,0.2-0.1,0.3-0.2c3.1-0.2,3.2-0.2,3.3,3
		c0.1,1.9,0.1,3.8,0,5.7c0,0.9,0,1.8-1,2.3C82.6,59.9,80.9,59.6,79.3,58.7z"/>
	<path class="st105" d="M84.3,60.3c0.9-3.4,0.2-6.9,0.3-10.3c0-0.5-0.5-0.5-0.9-0.5c-0.7,0-1.4,0-2.1,0c0.3-0.4,0.7-0.4,1.2-0.4
		c0.4,0,0.8,0,1.2,0c0.6,0,1.3,0,1.9,0c0.6,0,1.3,0,1.9,0c0.6,1.2,0.2,2.4,0.2,3.6c0.1,2.3,0,4.5,0,6.8c0,0.8,0.1,1.7-0.6,2.4
		C86.5,61.1,85.2,61.1,84.3,60.3z"/>
	<path class="st106" d="M87.5,61.7c0-3.2,0-6.4,0-9.6c0-1.1,0.1-2.2,0.4-3.2c0.3,0,0.5,0,0.8,0c0.9-0.1,1.3,0.4,1.2,1.3
		c-0.8,4.1-0.1,8.2,0,12.3C89,62.3,88.2,62,87.5,61.7z"/>
	<path class="st20" d="M120.7,44.3c-0.4-0.7,0.1-1.1,0.4-1.5c8.4-10.6,23-10.1,30.5-0.1c7.3,9.7,4.4,22.7-5,29
		c-11.4,7.7-26.7,1.1-29.4-12.4c-0.9-4.4-0.3-8.5,1.4-12.5c0.3-0.6,0.4-1.4,1.3-1.3c0.1,0.1,0.2,0.3,0.2,0.4c-0.1,0.7-0.2,1.3,0.2,2
		c0.3,0.7,0.7,1.3,0.5,2.1c-3.5,10.2,3.7,21.1,14.5,21.7c8.5,0.5,16.7-7.2,17-15.9c0.4-8.9-5.1-15.8-13.8-17.3
		c-4.4-0.8-8.3,0.6-11.8,3.1c-0.6,0.4-1.1,0.9-1.6,1.4C123.6,43.3,122.1,43.7,120.7,44.3z"/>
	<path class="st107" d="M120.7,44.3c1.1-1.6,2.7-1.6,4.4-1.6c1.5-0.1,2.4,0.8,3.2,1.9c1.7,3.2-0.5,6.9-4.6,7.1
		c-1.2-0.3-2.4-0.6-2.9-2c-0.3-0.7-0.5-1.3-0.8-2c-0.1-0.6-0.2-1.3,0-1.9c0-0.1,0-0.3,0.1-0.4C120.2,45.1,120.4,44.7,120.7,44.3z"/>
	<path class="st38" d="M74.7,49.8c-0.3,0-0.5,0-0.8-0.1c1.6-5.5,3.1-11,4.7-16.5c0.3-1.1,0.3-2.3,1.1-3.2c0.5,0.1,1.1-0.1,1.5,0.4
		c-1.7,3.9-2.5,8.2-3.8,12.2c-0.7,2.2-1.3,4.5-2,6.8C75.1,49.4,74.9,49.5,74.7,49.8z"/>
	<path class="st51" d="M71.2,49.8c-1,0.7-2.1,0.2-3.1,0.4c-0.1,0-0.3,0-0.4,0C68.8,49.5,70,49.9,71.2,49.8z"/>
	<path class="st3" d="M127.8,44.7c-0.6-1.1-1.8-1.4-2.8-2c2-2.8,5.1-3.9,8.2-4.5c6.4-1.3,11.8,0.7,15.8,5.7
		c4.2,5.2,5.1,11.1,2.6,17.4c-2.8,7.1-9.2,11.1-16,10.9c-8.7-0.3-16.1-7.6-16-16.2c0-2.1-0.5-4.4,1.1-6.3c0.9,0.6,1.7,1.4,2.8,1.5
		c0.6,0.7,0.5,1.4,0.4,2.2c-0.9,6.8,3.7,13,10.4,14.2c6,1.1,12.8-3.6,14.1-10.1c1.8-9.4-5.2-15.7-12.1-15.5
		c-2.2,0.1-4.3,0.8-6.2,1.9C129.3,44.4,128.7,45,127.8,44.7z"/>
	<path class="st10" d="M119.9,45.9c0,0.6,0,1.3,0,1.9C119.5,47.2,119.5,46.5,119.9,45.9z"/>
	<path class="st1" d="M127.8,44.7c2.7-1.7,5.6-3.2,9-3.1c6.5,0.1,12.3,5.9,12.3,12.4c0,6.6-2.9,11-8.5,13.3
		c-7.6,3.2-15.5-2.1-17.1-9.5c-0.5-2.3,0.1-4.5,0-6.7C127.7,50.7,129.1,48.6,127.8,44.7z"/>
	<path class="st4" d="M130.9,55c0-3,2.6-5.6,5.5-5.6c2.8,0,5.4,2.7,5.4,5.5c0,2.9-2.9,5.8-5.7,5.8C133.3,60.6,130.9,57.9,130.9,55z"
		/>
	<path class="st108" d="M136.1,57.5c-1.5,0-2.4-0.7-2.5-2.3c-0.1-1.7,1-2.8,2.7-2.8c1.4,0,2.7,1.2,2.7,2.5
		C139,56.2,137.5,57.5,136.1,57.5z"/>
</g>
</svg>
