<?xml version="1.0" encoding="utf-8"?>
<!-- Generator: Adobe Illustrator 21.1.0, SVG Export Plug-In . SVG Version: 6.00 Build 0)  -->
<svg version="1.1" id="Layer_1" xmlns="http://www.w3.org/2000/svg" xmlns:xlink="http://www.w3.org/1999/xlink" x="0px" y="0px"
	 viewBox="0 0 206.4 206.4" style="enable-background:new 0 0 206.4 206.4;" xml:space="preserve">
<style type="text/css">
	.st0{fill:#EC168E;}
	.st1{fill:#EB0B8D;}
	.st2{fill:#512C86;}
	.st3{fill:#E60A8D;}
	.st4{fill:#EB0F8E;}
	.st5{fill:#D5128C;}
	.st6{fill:#C9148C;}
	.st7{fill:#BE198C;}
	.st8{fill:#CC128C;}
	.st9{fill:#DB108C;}
	.st10{fill:#DF0E8C;}
	.st11{fill:#D8118C;}
	.st12{fill:#CC138C;}
	.st13{fill:#C3168C;}
	.st14{fill:#D2128C;}
	.st15{fill:#D9108C;}
	.st16{fill:#BD1A8C;}
	.st17{fill:#512C87;}
	.st18{fill:#AA218D;}
	.st19{fill:#A9218D;}
	.st20{fill:#E30C8C;}
	.st21{fill:#762A8A;}
	.st22{fill:#8B288C;}
	.st23{fill:#B91B8C;}
	.st24{fill:#B01F8D;}
	.st25{fill:#A5228D;}
	.st26{fill:#C1178C;}
	.st27{fill:#D0138C;}
	.st28{fill:#A6228D;}
	.st29{fill:#91278C;}
	.st30{fill:#AF1F8D;}
	.st31{fill:#BA1B8C;}
	.st32{fill:#83298B;}
	.st33{fill:#722B89;}
	.st34{fill:#C5168C;}
	.st35{fill:#D1138C;}
	.st36{fill:#99258C;}
	.st37{fill:#A2238D;}
	.st38{fill:#EB108E;}
	.st39{fill:#D1138D;}
	.st40{fill:#A1238D;}
	.st41{fill:#B41D8C;}
	.st42{fill:#BE198D;}
	.st43{fill:#CD138C;}
	.st44{fill:#612C89;}
	.st45{fill:#7C2A8A;}
	.st46{fill:#CA138C;}
	.st47{fill:#7B2A8A;}
	.st48{fill:#C8148C;}
	.st49{fill:#692C89;}
	.st50{fill:#95268C;}
	.st51{fill:#9D248D;}
	.st52{fill:#B01E8D;}
	.st53{fill:#572D89;}
	.st54{fill:#7F2A8B;}
	.st55{fill:#87288B;}
	.st56{fill:#BA1B8D;}
	.st57{fill:#A6228E;}
	.st58{fill:#8C288C;}
	.st59{fill:#C4168D;}
	.st60{fill:#B51D8D;}
	.st61{fill:#C3178D;}
	.st62{fill:#6E2B8A;}
	.st63{fill:#7C2A8B;}
	.st64{fill:#532D87;}
	.st65{fill:#86298B;}
	.st66{fill:#81298B;}
	.st67{fill:#87298B;}
	.st68{fill:#5D2D89;}
	.st69{fill:#732B89;}
	.st70{fill:#95268D;}
	.st71{fill:#C4178D;}
	.st72{fill:#92278D;}
	.st73{fill:#6E2C8A;}
	.st74{fill:#99258D;}
	.st75{fill:#82298B;}
	.st76{fill:#97268D;}
	.st77{fill:#762C8A;}
	.st78{fill:#91278D;}
	.st79{fill:#92288D;}
	.st80{fill:#C9168D;}
	.st81{fill:#662D89;}
	.st82{fill:#B61D8D;}
	.st83{fill:#C01B8E;}
	.st84{fill:#C8168C;}
	.st85{fill:#9F288F;}
	.st86{fill:#63388F;}
	.st87{fill:#612C88;}
	.st88{fill:#6E2B89;}
	.st89{fill:#5C2D88;}
	.st90{fill:#582D88;}
	.st91{fill:#552D88;}
	.st92{fill:#652C88;}
	.st93{fill:#8D288C;}
	.st94{fill:#90278C;}
	.st95{fill:#C7178C;}
	.st96{fill:#EB0C8D;}
	.st97{fill:#E40D8D;}
	.st98{fill:#DF108D;}
	.st99{fill:#CB178C;}
	.st100{fill:#93268C;}
	.st101{fill:#98258C;}
	.st102{fill:#D2148C;}
	.st103{fill:#DA138D;}
	.st104{fill:#AB208D;}
	.st105{fill:#B31D8D;}
	.st106{fill:#B71C8C;}
	.st107{fill:#212430;}
	.st108{fill:#EC148E;}
</style>
<g>
	<path class="st0" d="M140,189.7c-10.5,3.2-21.3,4.3-32.3,3.7c-29.7-1.7-54.8-13-74.6-35.5c-0.5-0.5-0.9-1.1-1.3-1.7
		c-0.5-0.6-0.7-1.5-1.4-2.1c-0.4-0.5-0.6-1.1-0.6-1.7c0.8-1,1.8-0.3,2.6,0c8.1,2.6,16.1,5.4,24.2,8.2c20.4,6.9,40.8,13.9,61.1,20.9
		c6.3,2.1,12.6,4.3,18.9,6.4C137.9,188.4,139.2,188.6,140,189.7z"/>
	<path class="st0" d="M27.4,151.6c-4.2-2.2-8.3-4.6-11.9-7.9c-3.7-3.3-5.4-7.2-3.4-12.2c2.2-5.2,0.3-10-2.8-14.3
		c-2-2.9-4.2-5.7-6-8.7c-2.4-4-2.6-8-0.9-12.2c1.3-3.1,2.6-6,4.6-8.7c3.1-4.3,3.1-8.8,1.7-13.6c-0.9-3-2-5.9-2.6-8.9
		c-1-5.3,0.8-9.5,4.8-12.9c2.3-1.9,4.9-3.4,7.7-4.4c6.2-2.3,9.9-6.8,12.2-12.7c1-2.2,1.9-4.3,2.8-6.6c2.7-7.2,8.2-10.9,15.4-12.4
		c6.5-1.4,12.8-0.4,18.8,2.6c-0.6,1.1-1.9,0.9-2.7,1.7c-1.1,0.7-2.5,0.8-3.5,1.6c-1,0.5-2.2,0.8-3.1,1.5c-1.1,0.8-2.3,1.2-3.5,1.9
		c-1.3,0.9-2.7,1.6-4.1,2.5c-1.5,0.8-2.8,2-4.3,3c-1.4,1.1-2.9,2.2-4.2,3.4c-1.7,1.3-3.2,2.8-4.7,4.4c-1.7,1.6-3.2,3.4-4.7,5.2
		c-1.3,1.6-2.6,3.2-3.8,4.8c-1,1.3-1.8,2.7-2.7,4.2c-1.1,1.5-1.8,3.1-2.9,4.6c-0.9,1.8-1.9,3.6-2.7,5.4c-0.8,1.2-0.9,2.6-1.6,3.8
		c-1,2.2-1.8,4.6-2.5,7c-0.6,2-1.1,3.9-1.6,5.9c-0.4,2.1-1,4.2-1.3,6.4C13.5,88,13.1,90,13,92.2c-0.9,9.8-0.2,19.4,1.6,29.1
		c1.9,9.7,5.6,18.6,11.2,26.7C26.6,149.1,27.9,149.9,27.4,151.6z"/>
	<path class="st1" d="M155.3,183.9c-3.6,1.9-7.3,3.4-11.2,4.4c-5.2-1.4-10.2-3.3-15.2-5c-11.8-4-23.5-7.9-35.1-12
		c-20.7-7.1-41.4-14.1-62.1-21.2c-1.2-0.4-2.4-0.5-3.4-1.2c-1.8-2.8-2.4-6-3.3-9c0.2-1.5,1.3-0.9,2.1-0.7c6.1,2.1,12.1,4.1,18.1,6.1
		c11.9,4.1,23.9,8.1,35.7,12.2c24.2,8.2,48.3,16.5,72.5,24.7C154.1,182.6,155.3,182.5,155.3,183.9z"/>
	<path class="st2" d="M25.1,139.2c1,3.4,1.8,6.8,3.5,9.8c1.1,0.8,1.3,2,1.5,3.2c0.2,0.6,0.4,1.2,0.6,1.8c0.3,0.3,0.5,0.7,0,0.9
		c-1.2-1-1.9-2.5-3.3-3.3c-1-2.5-2.8-4.4-4.2-6.6c-7-11.5-10-24-10.9-37.3c-0.4-5.3-0.4-10.5,0.3-15.8c1.4-0.2,1.7,0.9,2.1,1.8
		c2.4,5.3,4.9,10.7,8.1,15.6c0.3,0.6,0.2,1.4,0.2,2.1c-0.1,0.8-0.3,1.5-0.3,2.2c-0.1,0.7-0.1,1.2-0.1,1.8c-0.1,1.8-0.2,3.8,0,5.6
		c0.1,1.1,0,2.3,0.2,3.5c0.1,1.3,0.2,2.7,0.6,3.9c0.2,1.5,0.5,3.1,0.8,4.7c0.5,1.4,0.4,3,1,4.4C25.1,138.1,25.3,138.7,25.1,139.2z"
		/>
	<path class="st3" d="M25.1,139.2c-0.2-0.5-0.3-1-0.5-1.5c0.1-0.3-0.3-0.8,0.2-1c1.1-0.3,2.1,0.2,3,0.5c17.8,6,35.6,12.1,53.4,18.2
		c0.9,0.3,1.9,0.4,2.8,0.6c2.4,1.4,4.6,3,7.1,4.2c6.4,3.1,13.1,5,20.2,5.6c1.4-0.6,2.4,0.4,3.6,0.7c0.7,0.2,1.4,0.5,2.1,0.8
		c5,1.8,10.1,3.2,15.4,4c0.9,0.1,1.8,0.3,2.5,0.9c1,0.9,2.4,1.2,3.7,1.6c6.3,2.2,12.8,4.2,19,6.5c0.7,0.3,1.9,0.1,1.9,1.5
		c-1.2,1-2.7,1.6-4.1,2.2c-1.1-1.4-2.9-1.5-4.5-2c-14.2-4.9-28.2-9.6-42.5-14.4c-7.9-2.6-15.8-5.3-23.7-8.1
		C69.8,154.2,55,149.1,40,144C35,142.5,30.1,140.9,25.1,139.2z"/>
	<path class="st4" d="M30.1,152.3c-0.9-0.9-1-2.1-1.5-3.2c3,0.3,5.6,1.6,8.4,2.6c11,3.6,22,7.4,33.1,11.2c16,5.5,32.1,11,48.1,16.4
		c7.9,2.6,15.8,5.3,23.7,8.1c0.7,0.3,1.7,0.3,2.1,1.1c-1.3,0.4-2.8,0.9-4.1,1.3c-14.6-5-29.1-10.1-43.7-15
		c-10.2-3.5-20.4-6.9-30.6-10.4c-11.2-3.8-22.2-7.6-33.3-11.3C31.6,152.6,30.8,152.5,30.1,152.3z"/>
	<path class="st5" d="M120.5,17c7,1.6,13.9,4.1,20.3,7.3c10.8,10.1,13.2,27.1,3.4,39.9c-1,1.3-1.7,3.2-3.8,3.1
		c-1.1,0.4-2.2,0.8-3.4,0.7c-0.5-1.1,0.4-1.5,1-2c7.3-6.7,10.4-14.9,8.6-24.7c-2.6-13.6-14.6-22.3-27.4-20.4
		c-17.6,2.5-24.5,19.8-20.5,32.4c2.1,6.5,5.6,11.7,11.5,15.1c0.7,0.4,1.5,0.8,1.4,1.9c-1.5,0.2-3,0.1-4.6-0.1
		c-4.5-2.6-7.5-6.6-9.9-11.1c-6.9-13.8-1.9-32.3,14.2-39.9C114.3,17.9,117.5,17.6,120.5,17z"/>
	<path class="st1" d="M134.7,172.4c-3.9-1.3-8.2-1.4-12.1-2.8c-1.9-0.6-3.9-1.2-5.8-1.9c-2.2-2.2-4.8-3.9-7.2-5.8
		c-5.9-4.5-11.7-9.1-17.7-13.5c-0.3-0.2-0.5-0.6-0.9-0.8l0,0c-0.6-0.5-0.5-1.5-1-2.1c-0.5-1.2,0.4-0.6,0.6-0.4
		c2.6,2.1,5.7,3.1,8.6,4.4c6.3,3.1,13,5.2,19.6,7.2c0.1,0.6,0.7,0.9,1.1,1.2c5.2,4.1,10.6,8.2,15.9,12.2c0.7,0.5,2.2,1,1.2,2.4
		C136.3,173.1,135.5,172.8,134.7,172.4z"/>
	<path class="st6" d="M98.3,69.8c-1.9,0.1-3.6-0.1-5.4-0.4c-2-2.1-3.3-4.6-4.5-7.2c-5-11-4.6-22.1,0.2-32.9c2.5-6,6.9-10.7,12-14.6
		c0.5-0.4,1-0.8,1.8-0.6c1.9-0.1,3.7,0.1,5.5,0.5c0.5,1.3-0.7,1.7-1.4,2.1c-3.3,2-6.5,4.5-9,7.6c-6.7,8.7-9.1,18.4-6.9,29.4
		c1.1,5.1,3.5,9.5,6.5,13.6C97.7,68,98.6,68.6,98.3,69.8z"/>
	<path class="st7" d="M88.7,69c-0.9,0-1.9-0.1-2.9-0.1c-0.6,0-1.3,0.1-1.8-0.6c-3.1-5.1-4.7-10.7-5.5-16.5c-0.1-0.8-0.2-1.6-0.6-2.4
		c-0.4-0.9-0.2-1.8-0.1-2.8c0.4-2.4,0.8-4.8,0.6-7.2c1.4-9,4.9-17,10.8-23.9c0.5-0.6,1-1.6,2-1.5c1.8-0.3,3.5-0.4,5.3-0.2
		c0.1,0.9-0.4,1.5-0.9,2C89.2,22.1,85,29.9,83.4,38.8c-1,6.1-0.7,12.2,1.1,18.2c0.9,3.2,2.1,6.3,3.7,9.1C88.7,67.1,89.5,68,88.7,69z
		"/>
	<path class="st8" d="M21.9,121.1c-0.2-1.9-0.2-3.8,0.1-5.7c0.6-0.4,1.2-0.1,1.8,0c13.3,4.6,26.6,9,39.9,13.6
		c0.1,0.1,0.3,0.1,0.4,0.2c0.3,0.9,0.6,1.7,0.8,2.5c0.6,0.6,0.5,1.5,1,2.2c0.2,0.5,0.4,0.9,0.6,1.5c-1.2,0.7-2.2,0-3.3-0.4
		c-12.6-4.3-25.2-8.5-37.8-12.9C24.3,121.6,23.1,121.3,21.9,121.1z"/>
	<path class="st9" d="M129.9,69.1c-3.7,0.8-7.6,0.9-11.5,1c-6.4-1.2-11.3-4.4-15.1-9.6c-5-7-6.1-14.7-3.4-22.8
		c2.9-8.4,8.9-14,17.7-15.6c10.1-2,18.3,1.8,24.1,10.2c8.6,12.3,3.8,31.2-11.8,36.7C130,69.1,130,69.1,129.9,69.1z"/>
	<path class="st10" d="M23.5,133.2c-0.3-1.6-0.9-3-0.8-4.6c0.9-0.9,1.8-0.3,2.7,0.1c11.8,4,23.7,8,35.5,12.1
		c3.7,1.3,7.5,2.4,11.2,3.8c1.8,1.9,3.5,4,5.3,5.9c-1,0.9-1.9,0.2-2.9-0.1c-6-2-12.1-4.1-18.1-6.1c-10-3.4-19.9-6.8-29.9-10.2
		C25.5,133.8,24.4,133.5,23.5,133.2z"/>
	<path class="st11" d="M111.6,70.2c-0.9-1.4-2.5-1.8-3.6-2.7c-4.4-3.3-7.4-7.5-9.3-12.7c-2.1-6-2.3-11.9-0.1-17.8
		c2.7-7.2,7.4-12.4,14.9-15.2c7.4-2.8,14.4-2.2,21.2,1.6c5.3,2.9,8.8,7.3,11,12.9c1.9,4.8,2.5,9.9,1.4,15.1
		c-1.4,6-4.2,11.1-8.9,15.2c-0.5,0.4-1.1,0.7-1.2,1.5c-1.6,0.5-3.3,0.8-5.1,0.8c0.6-0.9,1.6-1.4,2.6-2c14.3-8.8,15.7-30.5,0.9-40.9
		c-11-7.7-24.6-4.8-32,5.6c-8.9,12.5-4.5,29.7,9.5,36.6c1,0.5,2.6,0.2,2.8,1.9C114.3,70.3,112.9,70.4,111.6,70.2z"/>
	<path class="st12" d="M98.3,69.8c-1.6-2.3-3.3-4.6-4.7-7c-3.7-6.1-4.8-12.7-4.2-19.6c1.1-11.4,6.3-20.3,16.1-26.5
		c0.9-0.5,2.2-0.7,2.4-2c2,0.4,4,0.7,6,1.1c0.1,1-0.8,1.1-1.3,1.4c-2.8,1.4-5.5,2.7-8.1,4.6C94.6,29.3,90.2,43.4,94,55.3
		c1.6,4.7,4.1,8.9,7.4,12.5c0.5,0.7,1.5,1.2,1.1,2.3C101.1,70.1,99.8,70.1,98.3,69.8z"/>
	<path class="st13" d="M88.7,69c-0.1-1.9-1.3-3.2-2-4.7c-3.3-6.9-4.6-14.3-4.1-21.9c0.3-4.3,1.3-8.4,3-12.4
		c2.3-5.3,5.3-10.2,9.5-14.1c0.6-0.6,1.1-1.4,1.7-2.1c1.9-0.2,3.9-0.1,5.8,0.2c-4.4,2.8-7.9,6.6-10.9,11c-2.8,4.2-4.5,9-5.4,13.9
		c-1,5.3-0.8,10.6,0.3,15.8c1.1,4.8,3,9.2,5.9,13.2c0.3,0.4,0.4,0.9,0.6,1.4C91.5,69.2,90.1,69.2,88.7,69z"/>
	<path class="st14" d="M21.9,121.1c0.5-0.6,1.1-0.4,1.7-0.2c9.3,3.2,18.5,6.2,27.7,9.4c4.1,1.4,8.2,2.9,12.4,4.3
		c0.9,0.3,1.8,0.4,2.8,0.6c1,1.7,1.9,3.5,2.9,5.2c-1,0.2-1.9-0.2-2.8-0.5c-14.4-4.8-28.7-9.8-43.1-14.6c-0.5-0.2-1-0.3-1.4-0.7
		C21.9,123.5,21.9,122.3,21.9,121.1z"/>
	<path class="st15" d="M22.2,124.7c3,0.4,5.7,1.7,8.6,2.6c12.1,4.1,24.2,8.2,36.3,12.4c0.8,0.3,1.6,0.2,2.4,0.8
		c0.9,1.4,1.7,2.7,2.6,4.1c-2.6,0-5-1.3-7.3-2.1c-9.3-3-18.5-6.2-27.7-9.4c-4-1.4-8.1-2.8-12.1-4.2c-0.7-0.2-1.3-0.4-2.1-0.3
		C22.2,127.3,22.2,125.9,22.2,124.7z"/>
	<path class="st16" d="M61.4,118.4c0.4,1.1,0.6,2.2,0.7,3.4c-0.8,0.6-1.5,0.2-2.2,0c-12.1-4.2-24.2-8.3-36.3-12.4
		c-0.2,0-0.4-0.2-0.5-0.3c-0.6-1.3,0.2-2.4,0.4-3.5c0.2-0.5,0.4-0.9,0.8-1.1c1.5-0.1,3,0.7,4.4,1.2c10.2,3.5,20.4,6.9,30.5,10.5
		C60.4,116.3,61.5,116.7,61.4,118.4z"/>
	<path class="st17" d="M172.3,52.9c-1.8-5.8-3.8-11.5-7.4-16.5c-1-1.4-2-2.7-3.6-4.1c8.7,2.9,18.6,14.7,21.4,29.1
		c-0.3,1.3-1.1,0.9-1.7,0.5c-2.6-1.9-5.1-3.9-7.6-5.9C172.6,55.3,172.4,54.1,172.3,52.9z"/>
	<path class="st18" d="M193.9,147.9c-0.8,1.6-1.7,3.2-2.8,4.6c-1.1,0.6-2.3,0.9-3.3,1.8c-0.7,0.8-1.5,0.2-2.3-0.3
		c-1.9-1.4-3.8-2.8-5.6-4.2c-5.8-4.4-11.5-8.8-17.4-13.3c-0.7-0.5-1.5-0.9-1.6-1.9c1.1-1,2.3-2,3.5-2.9c0.9,0,1.5,0.8,2.1,1.3
		c7,5.4,14.1,10.8,21.2,16.2c2,1.5,2,1.5,3.6-0.6C192.1,147.9,192.7,147.1,193.9,147.9z"/>
	<path class="st10" d="M132.8,159.2c1.8,0.1,3.6,0.2,5.4,0.3c0.8,0.2,1.5,0.6,2.1,1.1c3.9,3.2,8.1,6.2,12,9.3
		c0.9,0.7,1.8,1.3,2.3,2.3c0.3,0.7,1.2,1,2,1.1c2.7,0.9,5.3,1.8,8,2.8c0.7,0.3,1.9,0.3,1.8,1.6c-1.3,0.9-2.7,1.7-4,2.5
		c-5.7-1.7-11.3-3.9-16.9-5.7c-0.7-0.2-1.5-0.5-1.5-1.5c0.1-0.1,0.2-0.3,0.4-0.3c1.4-0.2,2.8-0.1,4.4-0.4c-1.3-1.5-2.7-2.4-4-3.3
		c-3.4-2.4-6.6-5.2-10-7.6C133.7,160.8,132.8,160.4,132.8,159.2z"/>
	<path class="st19" d="M60.9,104.6c-0.1,1.1-0.1,2.1-0.3,3.3c-0.9,0.6-1.6,0.1-2.4-0.2c-10.1-3.4-20.3-6.8-30.4-10.3
		c-0.5-0.2-0.9-0.4-1.2-0.7c-0.2-1.4,0.5-2.5,1.3-3.6c0.7-0.3,1.5-0.2,2.2,0.1c9.5,3.3,19,6.6,28.6,9.7
		C59.7,103.2,61,103.2,60.9,104.6z"/>
	<path class="st20" d="M23.5,133.2c0.7-0.8,1.5-0.1,2.1,0.1c14.9,5.1,29.9,10.1,44.7,15.2c2.3,0.8,4.4,1.9,7,2
		c1.3,1.1,2.7,2.4,4,3.5c-0.9,1-2,0.3-2.8,0.1c-5.2-1.7-10.3-3.4-15.4-5.1c-12.1-4.2-24.4-8.4-36.6-12.5c-0.7-0.2-1.5-0.7-2,0.4
		c0,0.2,0,0.5-0.1,0.8C23.9,136.3,23.9,134.7,23.5,133.2z"/>
	<path class="st21" d="M171.3,93.3c0.4-1.6,0.7-3.3,1.1-4.9c0.6-0.5,1.1-0.1,1.5,0.2c7.1,5.3,14.1,10.8,21.2,16.2
		c0.2,0.2,0.3,0.3,0.3,0.4c-0.3,1.6-0.8,3.2-1.6,4.6c-0.7,0.4-1.2-0.1-1.7-0.5c-2.6-2.1-5.3-3.8-7.8-6
		C180.2,100,175.7,96.8,171.3,93.3z"/>
	<path class="st22" d="M69.4,84.2c-0.8,1.2-1.6,2.4-2.4,3.6c-0.7,0.8-1.6,0.4-2.4,0.2c-8.1-2.8-16.1-5.4-24.1-8.4
		c-0.7-0.3-1.5-0.4-1.8-1.3c-0.1-0.3,0-0.5,0.3-0.8c0.9-0.9,1.8-1.8,2.9-2.3c0.6-0.3,1.3-0.2,1.9,0c8.4,2.9,16.8,5.8,25.3,8.6
		C69,83.9,69.2,84.1,69.4,84.2z"/>
	<path class="st23" d="M61.4,118.4c-0.2-1-0.7-1.5-1.7-1.7c-8.8-2.9-17.4-5.8-26.1-8.8c-3.2-1.1-6.3-2.2-9.4-3.3
		c-0.5-1-0.2-1.9,0.3-2.8c0.2-0.2,0.4-0.3,0.7-0.5c1.2-0.1,2.2,0.6,3.3,1c10.4,3.4,20.5,7,30.9,10.4c0.5,0.2,0.9,0.3,1.5,0.6
		C61,114.9,61.2,116.6,61.4,118.4z"/>
	<path class="st24" d="M161.1,134.8c6.6,5.1,13.3,10.3,19.9,15.3c1.7,1.2,3.4,2.4,5,3.8c0.9,0.7,1.5,0.5,1.9-0.2
		c0.7-1.4,1.9-1.4,3.1-1.2c-0.5,1.2-1.2,2.3-2.2,3.3c-1.6-0.6-2.6,0.3-3.7,1.3c-0.2,0.1-0.4,0.1-0.5,0.1c-2.3-1-4.1-2.9-6.1-4.3
		c-6.2-4.7-12.4-9.4-18.5-14.2c-0.7-0.5-1.5-0.9-1.5-1.8C159.3,136.1,160.2,135.5,161.1,134.8z"/>
	<path class="st25" d="M60.9,104.6c-0.4-1.1-1.5-1-2.2-1.3c-9.5-3.4-19.1-6.6-28.7-9.9c-0.6-0.2-1.1-0.3-1.7-0.2
		c-0.3-0.3-0.2-0.7-0.1-1c0.4-0.9,0.7-1.7,1.6-2.2c0.8-0.3,1.4,0,2.1,0.2c9.6,3.2,19.1,6.5,28.7,9.8c0.5,0.2,0.8,0.3,1.2,0.7
		C61.4,101.9,61.1,103.3,60.9,104.6z"/>
	<path class="st26" d="M23.1,108.9c4.3,1,8.5,2.7,12.7,4.1c7.9,2.6,15.7,5.5,23.5,8.1c0.8,0.3,1.7,0.4,2.6,0.6
		c0.4,1.1,0.8,2.3,0.8,3.5c-1.6-0.1-3.1-0.9-4.6-1.3c-11.6-4-23.3-8-35-11.8c-0.3-0.1-0.6-0.2-0.9-0.4c0-0.5,0.1-1.2,0.2-1.7
		C22.7,109.5,22.4,108.9,23.1,108.9z"/>
	<path class="st3" d="M144.2,172.9c-0.1,0-0.3,0.1-0.4,0.1c-2.3,0.4-4.6,0.7-6.7-0.6c0.4-0.9-0.4-1.1-0.8-1.5
		c-5.5-4.3-11.1-8.5-16.7-12.7c-0.5-0.3-1.2-0.7-0.6-1.5c2.9,0.6,5.8,1.2,8.7,1.8c5.6,4.2,11,8.5,16.6,12.6
		C144.9,171.5,145.8,172.3,144.2,172.9z"/>
	<path class="st27" d="M140.3,67.3c1.6-0.1,2-1.6,2.9-2.5c3-3.6,5-7.8,6-12.3c1.6-6.7,0.5-13.1-2.5-19.3c-1.3-2.7-3.1-5-5.1-7.2
		c-0.4-0.5-0.6-1-0.8-1.5c1.9,0.7,3.8,1.7,5.5,2.9c3.8,4.7,5.6,10,6.2,15.9c0.8,8.4-1.2,16-6.5,22.7
		C144.1,66.4,142.3,67.2,140.3,67.3z"/>
	<path class="st28" d="M191.8,149c-0.3,0.4-0.7,0.8-1,1.3c-0.6,1-1.2,1-2.2,0.4c-7.8-6-15.5-11.8-23.3-17.8c-0.4-0.3-0.6-0.6-0.9-1
		c0.8-0.8,1.7-1.6,2.5-2.4c4.9,3.3,9.5,7.2,14.3,10.8c3.2,2.4,6.4,4.7,9.5,7.3C191.3,147.9,192.1,148.1,191.8,149z"/>
	<path class="st29" d="M38.8,78.4c2.9,1.8,6.3,2.5,9.5,3.6c5.4,2,10.9,3.8,16.4,5.6c0.7,0.3,1.5,0.4,2.3,0.3
		c-0.6,1.1-1.2,2.3-1.8,3.4c-0.8,0.5-1.5,0-2.2-0.2c-8.1-2.9-16.3-5.5-24.5-8.4c-0.9-0.3-1.9-0.5-2.5-1.3c-0.1-0.4,0-0.7,0.2-1.1
		C36.8,79.5,37.4,78.3,38.8,78.4z"/>
	<path class="st30" d="M26.8,96.6c10.2,3.5,20.4,6.9,30.7,10.4c1.1,0.4,2.1,0.6,3.1,0.9c0,0.9,0,2-0.1,3c-0.7,0.5-1.4,0.2-2,0
		c-10.9-3.8-22-7.3-32.8-11.3c-0.6-0.8,0.1-1.4,0.3-2.1C26.2,97.1,26.3,96.6,26.8,96.6z"/>
	<path class="st15" d="M166.3,177.7c-1.5-1.8-4.1-1.6-6-2.6c-0.8-0.4-1.7-0.6-2.6-0.8c-2.1-0.4-3.3-2.1-4.8-3.3
		c-4.4-3.6-9-7-13.5-10.5c-0.4-0.3-0.8-0.7-1.2-1c1.9-0.1,3.7-0.2,5.6-0.2c4.8,3.9,9.8,7.6,14.7,11.4c1.5,1.2,3.5,1.5,5.3,2.1
		c1.3,0.5,2.7,0.9,4,1.4c0.7,0.3,1.5,0.4,1.7,1.3C168.4,176.2,167.4,177,166.3,177.7z"/>
	<path class="st18" d="M75.1,16.6c0.8-0.3,1.5-0.4,2.2-0.6c0.9-0.2,1.1,0.3,1,1c-0.2,0.5-0.4,0.9-0.7,1.4
		c-3.5,6.1-5.7,12.5-6.8,19.4c-0.2,0.8-0.2,1.7-1.1,2.1c-0.3,0.1-0.6,0.2-0.8,0.2c-0.9,0-1.7,0-2.5,0.1c-0.4,0-0.8-0.1-1-0.5
		c0.8-6.9,2.8-13.3,5.4-19.8C71.7,18,72.7,16.7,75.1,16.6z"/>
	<path class="st31" d="M91.4,14.1c-4.6,4.8-8.2,10.4-10.4,16.8c-1,2.8-1.6,5.7-2.1,8.6c-0.8,0.9-1.9,0.4-2.8,0.6
		c-0.4,0-0.8-0.1-1-0.4c0-4.5,1.4-8.7,3.1-12.7c1.7-3.9,3.6-7.7,6.3-11c0.4-0.6,0.8-1.3,1.8-1.3C88,14,89.7,14,91.4,14.1z"/>
	<path class="st32" d="M72.8,79.8c-0.5,0.8-1,1.6-1.8,2.2c-0.7,0.8-1.6,0.4-2.4,0.2c-7.3-2.4-14.5-5.1-21.9-7.4
		c-0.9-0.3-1.8-0.7-2.4-1.5c-1.7-4.4-2.7-9-3.3-13.6c-0.1-0.7-0.1-1.5,0.4-2c1.7-0.3,1.7,1.3,2.5,2.1c0.1,3.6,1.5,7,2.2,10.5
		c0.4,1.9,1.5,1.3,2.6,0.8c0.3-0.1,0.6-0.1,0.8-0.1c1.1,1.3,2.7,1.7,4.1,2.2c6.2,1.9,12.4,4,18.5,6.1C72.3,79.5,72.7,79.5,72.8,79.8
		z"/>
	<path class="st33" d="M195.6,105.3c-1.5-0.4-2.6-1.5-3.7-2.4c-6-4.5-12-9.2-18-13.7c-0.4-0.4-0.8-0.8-1.5-0.8
		c0.3-1.5,0.5-2.8,0.8-4.3c3,1.7,5.7,4,8.5,6.2c0,0.1,0.2,0.3,0.2,0.3c1.2,0.5,2.3,1.3,3.3,2.2c3.7,3,7.8,5.7,11.3,8.9
		C196.6,102.9,196,104.1,195.6,105.3z"/>
	<path class="st34" d="M22.4,111.5c2.7,0.1,5,1.3,7.3,2.1c8.6,2.8,17.2,5.7,25.7,8.8c2.5,0.9,5.1,1.4,7.4,2.8
		c0.2,0.6,0.4,1.1,0.5,1.8c-0.8,1.1-1.8,0.4-2.6,0c-8.5-2.8-16.9-5.8-25.3-8.6c-3.8-1.3-7.5-2.7-11.3-4c-0.7-0.2-1.4-0.3-1.9-1
		C22.1,112.9,22.3,112.2,22.4,111.5z"/>
	<path class="st35" d="M120.5,17c-0.8,1.5-2.3,1-3.4,1.1c-5.1,0.7-9.4,3.2-13,6.6c-7.7,7.1-10.4,16-9.1,26.2
		c1,7.1,4.8,12.9,10.2,17.6c0.6,0.5,1.5,0.9,1.8,1.7c-0.6,0.3-1.4,0.2-2.1,0.1c-4-2.4-6.6-5.9-8.6-9.9c-4.7-9-4.8-18.3-0.6-27.4
		c3.2-7.1,8.6-12.1,16-15c2-0.8,4-1.7,6.1-1.5C118.8,16.4,119.7,16.6,120.5,17z"/>
	<path class="st36" d="M64.1,93.3c-0.4,1-0.8,1.8-1.2,2.8c-0.7,0.5-1.3,0.2-2-0.1c-8.7-3-17.3-5.9-26-8.9c-0.9-0.4-1.9-0.4-2.5-1.3
		c-0.3-1.1,0.6-1.7,1.2-2.5c0.3-0.3,0.6-0.5,1-0.5c9.4,3.4,18.8,6.4,28.1,9.7C63.2,92.8,63.8,92.9,64.1,93.3z"/>
	<path class="st12" d="M177.9,168.3c-0.8,1.3-2.2,2.3-3.5,3.2c-3.1-0.8-6.1-1.7-9.2-2.6c-2.7-0.8-4.5-3.1-6.7-4.7
		c-1.8-1.2-3.5-2.6-5.1-4c-0.6-0.5-1.6-1-1.4-2c0.2-0.9,1.2-0.7,1.9-1c0.3-0.1,0.5-0.2,0.7,0c0.5-0.2,0.9-0.3,1.4-0.5
		c2.5,1.5,4.7,3.4,7,5.2c1.6,1.3,3.1,2.4,4.8,3.6c1.1,0.8,2.1,1.1,3.6,0.9C173.8,166.1,175.9,167,177.9,168.3z"/>
	<path class="st35" d="M154.5,157.2c-0.2,0.1-0.4,0.1-0.6,0.2c-0.6,0.3-1.5,0.1-1.8,0.9c-0.2,0.9,0.8,1.1,1.2,1.5
		c3.4,2.7,6.8,5.2,10.2,7.8c1.1,0.9,2.4,1.2,3.7,1.4c2.5,0.4,4.9,1,7,2.4c-0.8,1-1.9,1.7-2.9,2.4c-4.3-1.3-8.8-2.2-12.5-5.3
		c-3.2-2.6-6.6-5.1-9.9-7.7c-0.7-0.6-1.7-1-1.4-2.3C150,158.2,152.3,157.7,154.5,157.2z"/>
	<path class="st37" d="M191.8,149c-3.1-2.4-6.4-5-9.5-7.4c-4.8-3.7-9.7-7.4-14.5-11.1c-0.3-0.3-0.5-0.7-0.8-1.1
		c0.6-0.6,1.2-1.2,1.8-1.9c1.1,0.1,1.7,0.9,2.4,1.5c2.3,1.8,4.5,3.6,7,5.2c4.3,3.8,9.2,7.1,13.8,10.7c0.7,0.6,1.6,1,2.3,0
		c0.3-0.4,0.8-0.7,1.4-0.3c-0.4,1.3-1,2.3-1.8,3.4C193,147.9,192.3,148.2,191.8,149z"/>
	<path class="st38" d="M91,147.6c1,0.2,1.8,0.8,2.7,1.4c4.5,3.5,9.1,7,13.6,10.5c2.9,2.2,5.8,4.4,8.7,6.7c0.4,0.4,1.2,0.5,0.8,1.5
		c-1.9-0.6-3.8-1.3-5.6-1.8c-1.5-1.5-3.6-2.1-5.5-3.1c-5.5-3.3-10.4-7.3-13.8-12.9C91.6,149,91.3,148.4,91,147.6z"/>
	<path class="st39" d="M117.8,16.4c-6.3,1.8-12.2,4.2-16.6,9.3c-4.4,4.9-7.1,10.8-7.7,17.5c-0.4,4.6,0.1,8.8,1.6,13.1
		c1.8,5.1,4.9,9.3,8.9,12.9c0.4,0.3,0.7,0.7,1,1.1c-0.9,0-1.6,0.1-2.5-0.1c-0.9-1.9-2.7-3.2-3.9-4.9c-6.7-9.3-8-19.2-4.4-29.9
		c2.6-7.6,7.8-13.1,14.6-16.9c1.7-1,3.5-1.4,5.1-2.5C115.3,15.5,116.5,16,117.8,16.4z"/>
	<path class="st40" d="M61.6,100.6c-3-0.4-5.7-1.7-8.6-2.6c-7.1-2.4-14.2-4.9-21.4-7.3c-0.6-0.2-1.4-0.6-2-0.4
		c-0.1-0.1-0.2-0.2-0.2-0.3c0-0.1-0.1-0.2-0.1-0.2c0.3-0.8,0.8-1.4,1.6-2c0.7-0.3,1.5-0.2,2.2,0c9.7,3.4,19.4,6.5,29.1,10
		C62.3,98.9,61.9,99.7,61.6,100.6z"/>
	<path class="st41" d="M25.7,99.4c2.9,0.4,5.5,1.7,8.2,2.6c6.1,2,12.2,4.2,18.4,6.2c2.7,0.9,5.3,2.1,8.2,2.6
		c0.1,0.8,0.1,1.5,0.2,2.4c-2.7-0.1-5.1-1.4-7.6-2.1c-8.4-2.8-16.8-5.7-25.3-8.6c-0.9-0.3-1.8-0.7-2.7-1.1
		C24.7,100.4,25.1,99.9,25.7,99.4z"/>
	<path class="st42" d="M185.2,160.7c-0.9,1.4-2.1,2.7-3.3,3.8c-1.8-0.7-3.5-1.7-5.6-0.6c-0.8,0.5-1.5-0.2-2.2-0.7
		c-2.9-2-5.5-4.2-8.3-6.3c-1.4-1.1-2.8-2.1-4.7-1.3c-0.3,0.1-0.5,0-0.7-0.2c2.4-1,4.8-2.1,7.2-3.1c2.4,1.2,4.4,3,6.4,4.5
		c1.1,0.9,2.4,1.7,3.4,2.8c1.2,1.1,2.2,1.4,3.7,0.3C182.6,158.6,184.1,159.1,185.2,160.7z"/>
	<path class="st43" d="M146,65.7c-0.2-1.3,0.9-2.1,1.5-3c5.7-9.4,6-19.1,2.1-29.2c-0.8-2.2-2.6-4-3.2-6.3c1.6,0.8,3.3,1.7,4.6,3.1
		c4,8.8,5.2,17.9,1.9,27.2c-0.6,1.5-1.3,2.8-1.9,4.2c-0.3,0.7-0.7,1.4-0.1,2.1C149.4,65,147.6,65.2,146,65.7z"/>
	<path class="st44" d="M185.8,83.7c0.7-2,1.4-4,2-6c2,1,3.7,2.5,5.5,3.9c1.7,1.2,3.3,2.7,5.1,3.8c0.2,2.4,0.1,4.7-0.3,7.1
		c-0.8,0.6-1.4,0-1.9-0.3c-3.5-2.5-6.8-5.1-10.3-7.8C185.9,84.1,185.8,83.9,185.8,83.7z"/>
	<path class="st45" d="M171.3,93.3c0.5,0.2,1,0.3,1.5,0.6c4.1,3.1,8,6.2,12.1,9.3c0.3,1.2,0.1,2.2-1.4,2.5c-0.5,0.5-0.9,0.9-1.3,1.4
		c-0.7,0.5-1.2,0.1-1.8-0.3c-3.4-2.3-6.4-5-9.7-7.3c-0.4-0.4-0.8-0.8-0.7-1.5C170.5,96.3,170.9,94.8,171.3,93.3z"/>
	<path class="st46" d="M150.8,63.9c-1.7,0.5-1.4-0.4-0.9-1.3c1.9-3.4,3.3-7,3.9-10.9c0.7-5.1,0.6-10.2-1.1-15.2
		c-0.7-2-1.7-4-1.8-6.3c1.4,1,3,1.7,4.1,3.1c0.5,3.5,1.9,6.7,2.1,10.4c0.3,5.9-0.7,11.7-3,17.1c-0.4,0.9-0.7,1.8-1.7,2.3
		C151.9,63.4,151.3,63.7,150.8,63.9z"/>
	<path class="st47" d="M77.8,74.9c-1,1-2.1,2-3.2,3.1c-6.5-2.2-13-4.4-19.6-6.7c-0.7-0.3-2-0.3-1.4-1.7c0.4-0.4,0.9-0.6,1.3-0.8
		c0.8-0.3,1.6-0.5,2.4-0.8c1.1-0.1,2.2-0.5,3.3-0.2c0.6,0.9,1.5,1.1,2.5,1.4c4.1,1.4,8.4,2.8,12.6,4.3C76.4,73.8,77.4,74,77.8,74.9z
		"/>
	<path class="st15" d="M115.6,70.1c-1.9-1.6-4.3-2.3-6.3-3.6c-4.6-3.1-7.9-7.4-9.5-12.5c-3.6-11.5,0.4-23.6,11.4-29.7
		s24.5-1.8,30.8,8.1c7.6,11.9,4,27.5-7.5,34.6c-0.9,0.5-1.5,1.5-2.6,1.7c-0.7,0.2-1.3,0.4-2,0.2c3-1.8,6.3-3.3,8.7-5.9
		c5.7-6.1,7.9-13.3,6.4-21.5c-2-10.1-8.2-16.5-17.9-18.9c-7.2-1.7-13.9,0.1-19.6,5c-6.9,6.1-9.6,14-7.9,22.9
		c1.6,8.3,6.5,14.5,14.6,17.8c1.5,0.6,3,0.6,4.2,1.7C117.5,70.2,116.5,70.4,115.6,70.1z"/>
	<path class="st48" d="M152.5,63.2c4.2-8.7,5.6-17.6,2.4-27c-0.3-0.9-0.5-1.8,0-2.8c1.4,0.8,2.3,2.3,3.4,3.4c0.9,1.2,0.8,2.7,1,4
		c0.9,5.9,0.4,11.8-1.5,17.5c-0.3,0.8-0.4,1.6-1,2.2C155.6,61.6,154.1,62.4,152.5,63.2z"/>
	<path class="st5" d="M147.7,158.8c0.3,1.2,1.4,1.6,2.2,2.3c3,2.4,6.2,4.6,9.2,7.1c2.9,2.4,6.4,3.5,9.8,4.5c0.9,0.3,1.8,0.7,2.6,1.2
		c-0.7,0.5-1.4,1-1.9,1.5c-2.7-1.5-5.8-2.2-8.6-3.2c-2-0.6-3.5-1.9-5-3.1c-3.6-2.6-7.2-5.4-10.7-8.2c-0.7-0.5-1.2-1-1.3-1.8
		C145.2,159.1,146.5,158.9,147.7,158.8z"/>
	<path class="st48" d="M22.2,113.6c4.6,1.1,8.9,3,13.3,4.5c8.8,2.9,17.6,6,26.3,9c0.5,0.2,1,0.2,1.5,0c0.3,0.8,0.5,1.4,0.7,2.2
		c-2.6,0-5-1.3-7.3-2.1c-9.2-3.1-18.5-6.2-27.6-9.3c-2.4-0.8-4.7-1.6-7.1-2.4C21.8,114.8,22,114.2,22.2,113.6z"/>
	<path class="st49" d="M185.8,83.7c3.6,2.2,6.6,5,10,7.4c0.7,0.5,1.4,1.1,2.3,1.2c0,2-0.3,3.9-0.7,5.8c-0.7,0.3-1.2-0.2-1.7-0.6
		c-3.8-2.6-7.1-5.6-11-8.3c-0.4-0.3-1-0.6-0.8-1.3C184.6,86.5,185.2,85.1,185.8,83.7z"/>
	<path class="st3" d="M24.6,136.9c-0.3-0.9-0.9-1.9,1-1.2c15.6,5.4,31.2,10.6,46.7,15.8c2.3,0.8,4.6,1.5,7,2.2
		c0.7,0.2,1.4,0.4,2.1,0.2c0.9,0.5,2,1.1,2.6,2c-1.1,0.6-2.1,0.2-3-0.2c-12.4-4.2-24.7-8.4-36.9-12.7c-5.3-1.8-10.8-3.7-16.2-5.5
		C26.8,137.4,25.7,137.2,24.6,136.9z"/>
	<path class="st50" d="M64.1,93.3c-3-0.4-5.6-1.7-8.4-2.6c-6.1-2-12.1-4.1-18.3-6.2c-1.1-0.4-2.1-0.8-2.9-1.5
		c-0.2-1.1,0.3-1.8,1.4-1.7c9.6,3.3,19.4,6.7,29,10C64.7,92,64.4,92.6,64.1,93.3z"/>
	<path class="st51" d="M62.3,97.9c-2.6,0.1-4.8-1.2-7.1-2c-7.3-2.4-14.5-5-21.7-7.5c-0.7-0.3-1.6-0.6-2.4-0.3
		c-0.5-0.8,0.1-1.4,0.5-2c0.3-0.3,0.6-0.7,1.2-0.6c4.5,1.7,9.2,3.3,13.7,4.9c5.1,1.8,10.2,3.5,15.3,5.3c0.5,0.2,0.9,0.1,1.3,0.2
		C63.1,96.8,62.5,97.3,62.3,97.9z"/>
	<path class="st52" d="M69.6,39.6c1.4-1.5,1-3.6,1.5-5.4c1.3-5.8,3.5-11.3,6.5-16.5c0.3-0.6,1.2-1.2-0.2-1.7c1.6-0.4,3-0.8,4.6-0.8
		c0.9,0.9,0.1,1.5-0.3,2.2C78,23,75.5,29,74.1,35.5c-0.3,1.5-0.1,3-1.1,4.3c-0.3,0.2-0.5,0.3-0.8,0.4c-0.7,0.1-1.3,0.2-2.1,0.2
		C69.9,40.1,69.6,40,69.6,39.6z"/>
	<path class="st53" d="M172.3,52.9c0.3,1.6,1.2,2.7,2.6,3.7c2.1,1.4,4.1,3.1,6.1,4.7c0.6,0.4,1.1,1,1.7,0.2c0.7,2.8,1.1,5.6,1.2,8.5
		c-0.7,0.3-1.3,0-1.8-0.4c-2.7-2.1-5.5-4-8.1-6.2C173.5,59.9,173,56.4,172.3,52.9z"/>
	<path class="st54" d="M53.5,69.9c1.2,1.5,3,1.4,4.7,2c5.1,1.9,10.3,3.5,15.4,5.3c0.5,0.2,0.8,0.4,0.9,0.9c-0.4,0.8-1,1.4-1.7,1.8
		c-3.2-0.4-6-2-9.2-2.9c-4.1-1.3-8.2-2.7-12.2-4.1c-0.8-0.3-2-0.4-1.8-1.8C50.8,69.8,52,69.4,53.5,69.9z"/>
	<path class="st55" d="M44.8,73.5c8.1,2.8,16.1,5.5,24.2,8.3c0.6,0.2,1.3,0.3,1.9,0.2c-0.4,0.9-1,1.6-1.7,2.2
		c-3.4-0.4-6.5-1.9-9.7-2.9c-5.4-1.8-10.8-3.7-16.2-5.6c-0.5-0.2-1-0.2-1.5,0.1c-0.3-0.6,0.3-0.8,0.6-1.1
		C43.3,74.1,43.9,73.5,44.8,73.5z"/>
	<path class="st56" d="M167.7,150.5c-0.9,0.3-1.7,0.7-2.6,0.5c-3.8-2.5-7.2-5.5-10.8-8.1c-0.7-0.5-1.6-1-2.2-1.6
		c1.2-0.9,2.4-1.7,3.7-2.4c1-0.8,1.7,0,2.4,0.5c3.6,2.7,7.3,5.4,10.7,8.3c0.6,0.5,1.7,0.9,1.4,1.8c-0.2,0.7-1.3,0.6-2,0.9
		C168.1,150.5,167.9,150.5,167.7,150.5z"/>
	<path class="st57" d="M75.1,16.6c-2.2,0.2-3.2,1.9-3.9,3.8c-1.9,5-3.7,10-4.7,15.2c-0.3,1.4,0.4,3-1,4.1c-0.8,0.8-1.6,0.5-2.5,0.2
		c-0.7-1.5-0.2-3,0.1-4.6c0.9-4.7,2-9.4,4-13.8c0.3-0.5,0.5-1.1,0.5-1.6c-0.8-0.4-1.4,0.2-2,0.2c-0.3,0-0.5,0-0.8-0.2
		c0.7-1,1.9-0.8,2.9-1.4C70.2,18.1,72.4,16.7,75.1,16.6z"/>
	<path class="st31" d="M185.2,160.7c-1.5-1.2-3-1.7-4.6-0.1c-0.6,0.7-1.5,0.7-2.1,0.2c-3.6-2.9-7.5-5.5-10.9-8.6
		c0.9-0.5,1.7-1.1,2.8-1.4c1.1-0.9,1.9-0.3,2.7,0.3c2.5,1.9,5.1,3.8,7.6,5.8c0.9,0.7,1.6,1.4,2.7,0.6c0.3-0.2,0.8-0.5,1.2-0.4
		c0.1,0,0.3-0.1,0.4-0.1c1-0.4,1.8-0.4,2.3,0.8C186.4,158.6,186.2,159.9,185.2,160.7z"/>
	<path class="st58" d="M201.2,131.7c-0.4,1.6-1.1,3.2-1.7,4.7c-0.5,0.7-1,0.3-1.5,0c-3.4-2.3-6.6-5-9.8-7.5
		c-0.3-0.2-0.4-0.5-0.3-0.9c1.4-1.3,2.8-2.5,4-3.8C194.9,126.7,198.4,128.7,201.2,131.7z"/>
	<path class="st59" d="M160.3,155.3c2.2-1.3,3.9-0.3,5.7,1.1c2.7,2.3,5.7,4.3,8.5,6.6c0.7,0.6,1.5,0.9,2.2,0.4c2-1.2,3.6-0.2,5,1.2
		c-0.5,0.8-1.1,1.4-1.9,1.9c-1.1,1-2.1,0-3.1-0.1c-0.1-0.1-0.3-0.1-0.5-0.2c-0.5-0.3-1.1-0.4-1.7-0.3c-0.5,0.1-1,0-1.6,0
		c-1.8-0.4-2.9-1.8-4.4-2.8c-2.6-1.9-5-4-7.6-5.9c-0.5-0.3-1.2-0.8-1-1.7C160.1,155.3,160.2,155.2,160.3,155.3z"/>
	<path class="st60" d="M72.8,39.4c0.8-3,1.2-6.2,2.1-9.1c1.6-4.8,3.8-9.3,6.5-13.5c0.3-0.5,0.8-0.9,0.5-1.5c1.4-0.5,2.8-0.6,4.3-0.6
		c-1.9,1.9-3.4,4.2-4.7,6.5c-3.4,5.7-5.2,11.9-6.3,18.4c-0.1,0.3-0.4,0.4-0.7,0.5C73.9,40,73.2,40.3,72.8,39.4z"/>
	<path class="st20" d="M144.2,172.9c1.2-0.8,0-1.2-0.4-1.6c-4.8-3.8-9.7-7.4-14.5-11.1c-0.7-0.5-1.5-0.9-1.6-1.8
		c1.8,0.3,3.4,0.5,5.2,0.7c4.7,4.1,9.9,7.7,14.8,11.6c0.2,0.2,0.4,0.3,0.6,0.4c0.3,0.4,1.4,0.6,1,1.5c-0.3,0.7-1,0.3-1.6,0.3
		C146.6,172.9,145.4,173.4,144.2,172.9z"/>
	<path class="st60" d="M184.7,157.1c-0.3,0.2-0.7,0.5-1,0.8c-1.3-0.2-2.1-1.2-3.1-1.9c-2.7-2.2-5.5-4.2-8.4-6.2
		c-1.6-0.4-3,1.1-4.6,0.8c0.8-0.3,1.6-0.5,2.5-0.8c-0.6-1.2-1.6-1.6-2.3-2.2c-3.4-2.7-6.9-5.3-10.3-8c-0.5-0.3-0.9-0.9-1.7-0.6
		c0.9-0.7,1.8-1.3,2.7-2c7,5.4,14,10.9,21,16.2C181.2,154.4,183,155.8,184.7,157.1z"/>
	<path class="st42" d="M152,141.3c1.5-0.3,2.1,1,3.1,1.7c3,2.2,6,4.4,8.9,6.6c0.4,0.4,0.9,0.8,1.1,1.3c-2.1,0.5-4.2,0.7-6.4,0.4
		c-3.2-2.1-6.2-4.5-9.2-7c-0.4-0.3-0.8-0.7-0.9-1.2C149.6,142.4,150.8,141.8,152,141.3z"/>
	<path class="st61" d="M156.9,60.5c0.7-3.4,1.9-6.6,2.2-10.1c0.5-4.6-0.3-9.1-0.7-13.6c1.7,1.7,3.2,3.7,4,6.1
		c0.8,2.5,0.2,4.9,0.1,7.3c-0.1,1.8-0.5,3.7-0.7,5.5C160.6,57.7,158.9,59.3,156.9,60.5z"/>
	<path class="st62" d="M183.9,88c3.5,2.7,7.1,5.6,10.6,8.3c0.9,0.8,1.9,1.3,2.9,2c-0.1,1.2-0.4,2.4-0.7,3.5c-1.9-0.5-3.1-2-4.5-3.1
		c-3.4-2.6-6.9-5.1-10.1-7.9C183.2,90.1,183.1,88.8,183.9,88z"/>
	<path class="st63" d="M183.5,105.6c0.9-0.6,1.1-1.5,1.4-2.5c2.7,2.1,5.4,4.1,8,6.2c0.4,0.3,0.7,0.6,1.1,0.6c-0.4,1.7-1.1,3.3-2,4.8
		c-0.6,0.5-1.1,0.2-1.5-0.2c-2.4-1.8-4.9-3.6-7.2-5.4c-0.3-0.3-0.6-0.6-0.6-1.2C183,107.1,183.7,106.5,183.5,105.6z"/>
	<path class="st58" d="M176.1,118.7c0.9-1.4,1.8-2.7,2.8-4c0.3,0,0.5-0.1,0.8,0.1c2.9,2,5.7,4.1,8.3,6.4c0.2,0.2,0.3,0.4,0.2,0.7
		c-0.8,1.5-1.7,2.9-2.9,4.1c-0.3,0.2-0.6,0.1-0.9-0.1c-2.6-1.9-5.3-3.8-7.7-5.9C176.3,119.6,176,119.1,176.1,118.7z"/>
	<path class="st58" d="M164.7,110.2c0.8-1.6,1.7-3.3,2.5-4.9c1.6,0.5,2.8,1.8,4.1,2.9c1.9,1.5,3.8,2.9,5.7,4.2
		c-1.4,1.5-3.1,2.7-4.9,3.6c-0.1,0-0.2,0.2-0.2,0.2c-2.8-1.3-5.2-3.1-7.2-5.5C164.6,110.5,164.8,110.3,164.7,110.2z"/>
	<path class="st44" d="M174.3,74c0-2.1,0-4.1,0-6.2c1.1-0.4,1.8,0.4,2.6,1.1c2.4,1.7,4.5,3.8,7.2,5.2c0.1,2.1,0,4.2-0.4,6.2
		c-0.4,0.6-1,0.2-1.3-0.1C179.7,78.1,177,76.2,174.3,74z"/>
	<path class="st20" d="M137.1,172.4c2.2,0.5,4.5,0.3,6.7,0.6c0.4,0.9,1.2,1.1,2,1.3c5.2,1.8,10.3,3.5,15.5,5.2
		c0.4,0.2,0.6,0.3,0.9,0.8c-0.9,0.5-1.7,1.2-2.8,1.4c-2.6-1.8-5.6-2.4-8.5-3.3c-5.1-1.8-10.2-3.5-15.3-5.2c-0.5-0.2-0.8-0.4-1-0.8
		C135.6,172.4,136.3,172.4,137.1,172.4z"/>
	<path class="st36" d="M181.1,132.6c0.9-0.6,1.8-1.1,2.7-1.7c3.6,3.5,7.8,6.1,11.5,9.1c0.7,0.6,1.5,0.3,2.1,0.4
		c-0.1,0.8-0.4,1.4-0.9,2c-1.4,2.1-1.7,2.1-3.8,0.7c-3.7-2.7-7.4-5.6-11-8.4C181.2,134.3,180.2,133.8,181.1,132.6z"/>
	<path class="st21" d="M77.8,74.9c-4.1-1.9-8.5-3-12.6-4.5c-1.3-0.4-2.6-0.8-3.8-1.3c-0.5-0.2-0.9-0.4-0.5-1
		c0.1-0.3,0.3-0.5,0.6-0.6c0.9-0.4,2-0.4,3-0.5c1.2,0,2.3-0.3,3.5,0.2c2.6,1.5,5.4,2.1,8.3,3.1c1.1,0.4,2,0.7,3,1.1
		c0.6,0.2,1.3,0.4,1.1,1.3C79.5,73.7,78.6,74.4,77.8,74.9z"/>
	<path class="st51" d="M181.1,132.6c-0.3,0.7,0.2,1.2,0.8,1.6c3.7,2.8,7.4,5.6,11,8.4c1.5,1.2,2.6,1.5,3.8-0.1
		c-0.2,0.7-0.5,1.4-1,1.9c-0.2,0.1-0.5,0.1-0.6,0.2c-1.5,2.3-2.9,1.1-4.3,0c-3.7-3-7.5-5.8-11.3-8.7c-0.6-0.4-1.1-0.9-1.5-1.5
		c0.1-0.4,0.2-0.7,0.6-0.6C179.5,133.3,180.3,133,181.1,132.6z"/>
	<path class="st48" d="M173.1,165.4c0.5-0.1,1,0,1.5-0.1c0.6,0.2,1.2,0.4,1.8,0.7c0.8,0.2,1.4,0.6,2.1,0.8c0.6,0.1,0.4,0.5,0.1,0.8
		c-0.3,0.3-0.4,0.8-0.9,0.8c-1.4-0.4-2.7-0.8-4.1-1.3c-0.3-0.1-0.8-0.4-1.1-0.3c-3.7,1.1-6-1.5-8.5-3.3c-2.2-1.7-4.5-3.5-6.8-5.1
		c-0.6-0.4-1.1-0.9-1.5-1.5c0.9-0.3,2-0.7,2.9-1c2.9,1.8,5.4,4,8.2,6c1.4,1,2.9,2,4.1,3.2C171.8,165.5,172.5,165.9,173.1,165.4z"/>
	<path class="st64" d="M189.8,68.9c0.5-3.3,0.9-6.7,1.4-10.6c3,5.1,4.8,10.1,5.9,15.5c-0.4,0.6-0.9,0.4-1.3,0.1
		c-2.1-1.2-3.9-2.7-5.7-4.2C189.8,69.5,189.7,69.2,189.8,68.9z"/>
	<path class="st65" d="M177,112.4c-0.3,0-0.7,0-0.9-0.1c-3.1-2.1-6.1-4.4-8.9-6.9c0.5-1.2,1.1-2.6,1.6-3.8c2.1,0.7,3.5,2.3,5.2,3.6
		c2.1,1.4,4.2,2.8,5.8,4.7C178.9,110.8,178.1,111.7,177,112.4z"/>
	<path class="st53" d="M189.8,68.9c2.3,1.9,4.3,4.1,7.3,5c0.6,2.3,0.9,4.7,1.1,7c-0.6,0.3-1.1,0.1-1.6-0.3c-2.7-1.7-5-3.8-7.6-5.7
		c-0.2-0.2-0.3-0.4-0.3-0.6C189.1,72.4,189.4,70.6,189.8,68.9z"/>
	<path class="st66" d="M179.7,109.8c-3.8-2.5-7.4-5.3-11-8.3c0.4-1.2,0.9-2.4,1.2-3.7c0.5,1.1,1.5,1.5,2.4,2.2
		c2.7,2.2,5.5,4.2,8.2,6.3c0.4,0.4,0.9,0.6,1.5,0.8C181.5,108.1,180.7,108.9,179.7,109.8z"/>
	<path class="st65" d="M188.2,121.7c-3.1-2.3-6.2-4.8-9.3-7.1c0.7-1.3,1.6-2.5,2.3-3.8c3.2,2.3,6.4,4.5,9.1,7.3
		C189.8,119.4,189.1,120.7,188.2,121.7z"/>
	<path class="st67" d="M201.2,131.7c-3.2-2.3-6.8-4.3-9.3-7.5c1-0.9,1.8-2,2.7-2.9c2.8,1.9,5.7,3.7,8,6.2
		C202.3,128.9,201.8,130.3,201.2,131.7z"/>
	<path class="st68" d="M188.7,74.1c2.5,1.9,5,3.8,7.7,5.7c0.6,0.4,1.2,0.7,1.8,1c0.1,1.5,0.1,3,0.2,4.5c-0.3-0.1-0.9,0-1.1-0.2
		c-3.3-2.3-6.5-4.7-9.5-7.4C188.1,76.5,188.5,75.3,188.7,74.1z"/>
	<path class="st69" d="M80.2,72.8c-1.3-1.5-3.4-1.6-5.1-2.3c-2.1-0.8-4.2-1.5-6.3-2.1c-0.5-0.2-0.8-0.4-0.9-0.9
		c0.5-0.5,1-0.3,1.6-0.4c1.7,0.1,3.4-0.1,5.1-0.1c1.2,0.1,2.4,0.2,3.6,0.3c0.8,0.2,1.6,0.1,2.5,0.1c1.3,0.3,2.8,0.1,3.9,1
		c0.4,0.1,0.9,0.2,1.4,0.3C83.9,70.3,82,71.5,80.2,72.8z"/>
	<path class="st70" d="M197.6,140.5c-0.7,0.7-1.4,0.8-2.3,0c-3.5-2.7-7.1-5.5-10.6-8.2c-0.5-0.3-1.2-0.7-0.8-1.5
		c0.7-0.5,1.4-1,1.9-1.5c3,2.2,6,4.3,8.8,6.7c1.1,0.9,2.3,1.8,3.6,2.6C198.3,139.5,198.1,140.1,197.6,140.5z"/>
	<path class="st49" d="M173.8,80.7c0.1-1.5,0.3-3.2,0.5-4.7c1.5,0.4,2.5,1.5,3.7,2.4c1.8,1.3,3.5,2.7,5.4,4.1
		c0.2,1.5-0.3,2.9-0.7,4.3c-0.4,0.6-0.9,0.3-1.4,0c-2.5-1.8-5-3.5-7.3-5.6C173.8,81.1,173.8,80.9,173.8,80.7z"/>
	<path class="st68" d="M184.1,74c-1.3,0.4-1.9-0.6-2.8-1.2c-2.4-1.5-4.3-3.7-6.9-5c-0.1-1.5-0.2-2.9-0.3-4.3
		c2.7,0.9,4.5,3.1,6.9,4.7c1,0.6,1.8,1.6,3.1,1.9C184.1,71.3,184.1,72.6,184.1,74z"/>
	<path class="st71" d="M148.7,143.2c3.1,2.3,6.1,4.6,9.2,7c0.4,0.3,0.7,0.7,0.9,1.2c-2.5,0.2-4.9-0.1-7.2-0.8
		c-1.6-1.4-3.3-2.6-4.9-3.9c-0.6-0.5-1.5-0.9-1.1-2C146.5,144.1,147.5,143.6,148.7,143.2z"/>
	<path class="st72" d="M198.3,138.7c-0.6,0.2-1,0-1.5-0.3c-3.5-2.7-7-5.4-10.6-8.1c-0.3-0.1-0.3-0.5-0.5-0.8
		c0.7-0.5,1.3-1.1,1.9-1.5c3.5,2.7,7.1,5.5,10.6,8.2c0.3,0.2,0.7,0.3,1.1,0.2C199.3,137.2,198.7,138,198.3,138.7z"/>
	<path class="st66" d="M190.4,118.2c-3.1-1.8-5.7-4.4-8.7-6.5c-0.3-0.1-0.3-0.5-0.4-0.8c0.5-0.9,1-1.9,1.6-2.8c3,2.4,5.9,5,9.3,6.8
		C191.7,116,191.1,117.1,190.4,118.2z"/>
	<path class="st63" d="M196.9,118.7c1.2-1.5,2.3-2.9,3.5-4.3c1.7,0.6,2.7,2.4,4.6,2.7c-0.1,2.2-0.6,4.4-1.2,6.5
		c-0.4,0.6-0.9,0.3-1.4,0c-1.8-1.3-3.6-2.6-5.3-4.2C196.9,119.2,196.8,118.9,196.9,118.7z"/>
	<path class="st73" d="M173.8,80.7c2.4,1.7,4.8,3.6,7.1,5.3c0.5,0.3,0.9,1,1.6,0.7c-0.1,1.2-0.5,2.4-0.9,3.6c-0.1,0-0.3,0.1-0.4,0
		c-2.7-1.9-5.7-3.7-8-6.2C173.4,83,173.7,81.9,173.8,80.7z"/>
	<path class="st70" d="M184,127.5c-0.6,1.1-1.6,1.9-2.4,2.8c-3.2-1.8-5.8-4.3-8.7-6.4c-0.3-0.2-0.3-0.5-0.2-0.9
		c0.7-0.9,1.3-1.7,1.9-2.4c2.5,1.4,4.5,3.4,6.8,4.9C182.3,126.2,183.4,126.7,184,127.5z"/>
	<path class="st74" d="M172.7,123.2c2.3,1.8,4.6,3.6,6.8,5.4c0.7,0.6,1.7,0.9,2.1,1.8c-0.4,0.8-1,1.4-1.7,1.8
		c-0.6,0.4-1.1,0.2-1.5-0.2c-2.6-1.7-5-3.7-7.4-5.6c-0.3-0.2-0.4-0.5-0.2-0.9C171.3,124.7,172,123.9,172.7,123.2z"/>
	<path class="st75" d="M196.9,118.7c1.8,1.4,3.7,2.8,5.4,4.3c0.4,0.3,0.8,0.7,1.3,0.5c-0.4,1.4-0.7,2.7-1.1,4
		c-2.8-1.9-5.7-3.7-8-6.2C195.3,120.5,196.1,119.5,196.9,118.7z"/>
	<path class="st76" d="M168.9,117.9c-2,1.3-4.2,2.2-6.4,2.9c-0.9-0.6-2.1-1.1-2.5-2.4c1.1-1.7,2.1-3.4,3.2-5.2
		C165.5,114.3,167.6,115.7,168.9,117.9z"/>
	<path class="st51" d="M170.6,125.5c3.1,2.3,5.7,5.1,9.2,6.6c-0.2,0.7-1.1,0.8-1.2,1.5c-0.3,0.2-0.4,0.4-0.6,0.6
		c-3.5-1.7-6.3-4.3-9.2-6.9C169.4,126.9,170,126.2,170.6,125.5z"/>
	<path class="st77" d="M204.9,117c-0.3,0.2-0.6,0.7-1.2,0.3c-1.2-1-2.6-1.7-3.4-3c1.7-2.5,3.4-4.9,5-7.4
		C205.7,110.4,205.6,113.7,204.9,117z"/>
	<path class="st78" d="M184,127.5c-3.6-1.7-6.5-4.2-9.3-6.9c0.5-0.7,0.9-1.4,1.5-2c2.9,2.6,6.1,4.8,9.2,7.2
		C185.2,126.5,184.6,127,184,127.5z"/>
	<path class="st79" d="M168.9,117.9c-1.9-1.6-3.8-3.2-5.7-4.8c0.5-1,1-1.9,1.5-2.9c2.1,2.3,4.8,4,7.3,5.8
		C171.2,116.8,170.2,117.5,168.9,117.9z"/>
	<path class="st80" d="M145.6,144.8c0.9,1.8,2.8,2.5,4.2,3.8c0.6,0.6,1.7,1,1.9,2.1c-3.9-0.5-7.3-1.9-11.2-3.8
		C142.3,146.1,143.9,145.4,145.6,144.8z"/>
	<path class="st81" d="M183.4,82.5c-0.4,0.1-0.7,0-1.1-0.2c-2.7-2.1-5.3-4.2-8-6.2c-0.1-0.7-0.1-1.3,0.2-2.1c2.9,1.1,5,3.5,7.4,5.2
		c0.6,0.4,1,1.1,1.9,1C183.8,81.1,183.6,81.8,183.4,82.5z"/>
	<path class="st82" d="M172.4,149.7c0.5-0.1,0.9-0.1,1.2,0.2c3.4,2.6,6.9,5.1,10.1,7.9c-1,1.3-1.9,0.5-2.8-0.1
		c-2.8-2-5.5-4.2-8.2-6.3c-0.7-0.6-1.4-0.9-2.3-0.5C170.9,150.2,171.6,150,172.4,149.7z"/>
	<path class="st83" d="M161.9,55.7c-0.8-2.4,0.5-4.7,0.4-7c0-2,0.2-4,0.3-5.9C164.6,47.2,164.7,51.5,161.9,55.7z"/>
	<path class="st84" d="M173.1,165.4c-0.7,0.9-1.1,0.9-1.9,0.3c-3.8-3-7.6-5.9-11.5-8.9c-0.3-0.3-0.5-0.7-0.9-1
		c0.4-0.1,0.8-0.3,1.1-0.4c0.4,1,1.4,1.4,2.2,2c3.1,2.3,6.1,4.7,9.2,7.1C172,164.9,172.5,165.3,173.1,165.4z"/>
	<path class="st85" d="M160,118.3c0.8,0.8,2.1,1.2,2.5,2.4c-1.6,0.6-3.1,1-5,1.2C158.2,120.5,159.2,119.4,160,118.3z"/>
	<path class="st82" d="M187.4,157.7c-0.6-0.6-1.5-0.7-2.3-0.8c1.7-2.2,2-2.3,3.7-1.1C188.3,156.5,187.9,157.1,187.4,157.7z"/>
	<path class="st84" d="M178.8,167.5c-0.2-1.3-1.7-0.8-2.2-1.7c1.2-0.3,2.2,1,3.4,0.5C179.7,166.9,179.4,167.3,178.8,167.5z"/>
	<path class="st86" d="M30.7,154.9c0-0.3,0-0.5,0-0.9c0.8,0.5,0.8,1.4,1.1,2.2C31.5,155.8,31,155.3,30.7,154.9z"/>
	<path class="st38" d="M90,145.5c0.8,0.5,0.7,1.5,1,2.1C90.4,147.1,90.2,146.3,90,145.5z"/>
	<path class="st14" d="M66,133.9c-0.7-0.5-0.7-1.5-1-2.2C65.5,132.2,65.7,133,66,133.9z"/>
	<path class="st47" d="M42.9,74.9c-0.4,0.1-0.9,0.2-1,0.8c-1,0.8-1.9,1.5-2.9,2.2c-1.1-0.6-1.5-1.7-1.9-2.9
		c-1.8-6.9-3.5-13.8-4.1-21c-0.3-3.5-0.2-6.9-0.5-10.4c1.4-1.9,3-3.7,4.8-5.3c1.4,0,1.2,1.1,1.2,1.9c0,2.5-0.1,5-0.1,7.5
		c0.1,7.4,1.2,14.8,3.3,21.9C42.2,71.5,42.9,73.2,42.9,74.9z"/>
	<path class="st21" d="M32.6,43.7c0.8,0.3,0.7,0.9,0.6,1.6c0,7.3,0.7,14.4,2.4,21.4c0.9,3.8,1.6,7.6,3.4,11.1
		c-0.1,0.1-0.2,0.4-0.3,0.5c-0.8,0.7-1.7,1.4-2.6,2.1c-1.2-0.4-1.4-1.4-1.8-2.3C32.2,72.3,31,66.2,30,60c-0.5-3.8-0.9-7.7-1.3-11.5
		C29.8,46.7,31.2,45.2,32.6,43.7z"/>
	<path class="st66" d="M42.9,74.9c-1.9-2.5-1.9-5.7-2.7-8.6c-1.3-4.8-2-9.9-2.2-15c-0.2-3.7-0.2-7.4,0-11.2c0.1-0.8,0.3-1.5-0.7-1.8
		c1.3-1.7,2.9-3.2,4.7-4.4c0.9,0.5,0.6,1.5,0.5,2.2c-0.3,3.7-0.7,7.4-0.3,11.2c0,0.5-0.4,1.2-0.6,1.6c-1.3,2.3-1.6,4.7-0.2,7.1
		c0.2,0.3,0.4,0.8,0.1,1.3c-0.5,2.5,0.3,5,0.9,7.4c0.8,2.9,1.1,5.9,2.3,8.7C44.3,74,43.6,74.5,42.9,74.9z"/>
	<path class="st87" d="M26.8,96.6c-0.2,0.3-0.3,0.6-0.5,0.9c-1.1-0.1-1.5-0.9-1.9-1.7c-2.6-5.7-5.3-11.3-6.7-17.5
		c-0.3-1.7-1.2-3.2-1.3-4.8c0.6-2.4,1.4-4.8,2.5-7c1.6,0.1,1.5,1.5,1.8,2.6c1,3.9,1.8,7.7,3.1,11.5c1.2,3.5,2.6,6.8,4.1,10.2
		c0.3,0.5,0.5,1.1,0.4,1.6c0,0.2-0.1,0.6-0.2,0.8C27.7,94.4,27.3,95.5,26.8,96.6z"/>
	<path class="st49" d="M31.7,86.5c-0.2,0.6-0.4,1.2-0.7,1.8c-0.4,0.6-1,1.2-1.4,1.7c-0.8-0.1-1.1-0.6-1.4-1.2
		c-2.3-5-4-10.3-5.4-15.7c-0.8-3.4-1.6-7-2.3-10.4c0.8-1.8,1.6-3.7,2.8-5.3c1.5,0.1,1.3,1.4,1.5,2.2c0.7,3.6,1.3,7.1,2,10.6
		c1.1,4.9,2.9,9.5,4.4,14.2C31.4,85.1,31.9,85.7,31.7,86.5z"/>
	<path class="st33" d="M28.8,48.5c0.7,0.2,0.8,0.8,0.9,1.4c0.1,5.7,0.9,11.2,2.1,16.7c1,4.7,1.9,9.6,4.4,13.8c0,0.3-0.1,0.6-0.1,0.9
		c-0.7,0.3-1.1,1.1-1.4,1.7c-0.3,0.2-0.4,0.3-0.6,0.6c-0.9-0.4-1.3-1-1.5-1.8c-3.4-9.4-5.6-19.1-6.2-29.1
		C26.8,51.2,27.6,49.8,28.8,48.5z"/>
	<path class="st88" d="M26.2,52.7c1.2,2,0.7,4.5,1.2,6.6c0.7,3.7,1.3,7.4,2.2,11.1c0.7,2.7,1.5,5.4,2.3,8.1c0.6,1.8,1.1,3.5,2.1,5.1
		c-0.4,0.7-1.2,1.2-1.3,2.1c-0.3,0.2-0.7,0.5-0.9,0.7c-0.6-0.9-1-1.9-1.4-2.9c-2.9-8-5.2-16.1-6.1-24.5c-0.1-0.6-0.1-1.3-0.8-1.6
		C24.1,55.8,24.8,54.1,26.2,52.7z"/>
	<path class="st89" d="M16.4,73.6c1.3,1.6,1.8,3.4,2,5.3c0.6,4.1,2.9,7.6,4,11.5c0.5,1.7,1.6,3.2,2.2,4.8c0.4,0.9,0.9,1.7,1.6,2.3
		c-0.2,0.6-0.3,1.3-0.5,1.9c-0.2,0.6-0.4,1.2-0.6,1.9c-0.1,0.1-0.2,0.3-0.3,0.4c-1.5-0.4-1.7-1.6-2.3-2.7c-3.1-6-5.5-12.4-7.6-18.9
		c-0.1-0.3-0.2-0.5-0.3-0.7C15.1,77.4,15.6,75.4,16.4,73.6z"/>
	<path class="st90" d="M14.7,79.4c1,0.2,1.1,1.2,1.4,1.9c2,6.7,4.8,13.2,8.1,19.4c0.2,0.3,0.4,0.6,0.6,1c-0.6,0.8-0.3,1.9-0.7,2.7
		c-0.2,0.4-0.3,0.6-0.5,1c-1.2,0.3-1.5-0.6-1.9-1.3c-2.7-4.9-5.1-10-7.1-15.2c-0.4-1-0.9-2-1.3-3C13.7,83.7,14,81.5,14.7,79.4z"/>
	<path class="st91" d="M13.4,85.8c0.7,0.3,1.1,0.8,1.3,1.5c1.9,5.9,4.9,11.2,7.5,16.8c0.3,0.6,0.7,1.1,1.3,1.4
		c-0.3,1.1-0.4,2.2-0.6,3.5c-0.1,0.3-0.3,0.6-0.4,0.9c-2.6-2.7-3.8-6.2-5.5-9.3c-1.2-2.3-2.4-4.7-3.2-7.2c-0.2-0.7-0.7-1.1-1.3-1.4
		C12.7,89.9,12.8,87.8,13.4,85.8z"/>
	<path class="st92" d="M20.6,62.7c1.7,1.6,1.3,3.8,1.8,5.7c1.5,6,2.9,12.1,5.5,17.8c0.6,1.3,0.6,2.8,1.7,3.9c0,0.1,0.1,0.2,0.1,0.4
		c-0.4,0.7-0.9,1.5-1.3,2.1c-2-1.8-2.3-4.4-3.3-6.7c-1.6-3.6-2.6-7.3-3.7-11.1c-0.8-2.7-0.6-5.7-2.5-8.1
		C19.4,65.2,19.7,63.9,20.6,62.7z"/>
	<path class="st55" d="M42,47.4c-0.9-2.8-0.1-5.5-0.1-8.4c0-1.7,0.6-3.4,0.2-5.1c1.2-1.4,2.7-2.5,4.2-3.4c1,0.5,1.1,0.5,1,1.7
		c-0.3,2.1-0.5,4.2-0.7,6.4c-0.2,1.5-0.3,3-0.2,4.6C45.2,44.9,44.1,46.7,42,47.4z"/>
	<path class="st36" d="M58,23.1c0.9-0.9,2.1-1,3.2-1.5c1.2-0.2,1.4,0,1,1.2c-0.5,2.1-1.3,4-1.8,6.1c-0.7,3.2-1.6,6.3-1.8,9.6
		c0,0.5-0.1,1-0.5,1.4c-1.4,0.7-2.7,0.9-4,0.2c1-3.8,1.1-7.7,2.2-11.5C56.9,26.7,57.3,24.8,58,23.1z"/>
	<path class="st93" d="M46,43.4c-0.7-2.8,0.3-5.6,0.3-8.3c0-1,0.3-2,0.4-3c0-0.5,0.3-1.1-0.5-1.4c1.3-1.3,2.6-2.3,4.3-3
		c1.3-0.2,1.5,0,1.2,1.5c-0.5,2.8-1.1,5.5-1.3,8.3c-0.1,1-0.1,2-0.1,3.1C49.1,41.8,47.9,43.1,46,43.4z"/>
	<path class="st51" d="M58.3,39.8c0-5.5,1.6-10.5,3.1-15.7c0.2-0.7,0.5-1.3,0.6-2c0.1-0.6-0.4-0.5-0.8-0.5c0.9-1,2.4-1,3.6-1.6
		c0.3-0.1,0.5-0.2,0.8-0.3c0.7,0.5,0.4,1.1,0.2,1.7c-2.1,5.3-3.5,11-4.3,16.7c-0.1,0.7-0.2,1.3-0.7,1.7C59.8,40.4,59,40.7,58.3,39.8
		z"/>
	<path class="st50" d="M58,23.1c0.2,2.2-0.9,4.2-1.3,6.2c-0.6,3-1.2,6.1-1.5,9c-0.1,0.8-0.2,1.2-1,1.4c-0.9,0.9-1.8,0.9-2.8,0.4
		c1-4.1,1.2-8.4,2.3-12.5c0.2-0.9,0.4-1.9,0.9-2.7C55.6,24,57,23.8,58,23.1z"/>
	<path class="st94" d="M54.6,24.9c0.2,2.1-0.7,3.9-1,5.8c-0.5,2.4-0.8,4.8-1.1,7.2c0,0.9-0.2,1.5-1.1,1.8c-0.3,0.4-0.7,0.5-1.2,0.3
		c-0.8-0.5-0.4-1.2-0.4-1.9c0.2-3.2,0.8-6.5,1.5-9.7c0.2-0.8,0.2-1.3-0.8-1.2C51.6,26.4,53.2,25.7,54.6,24.9z"/>
	<path class="st31" d="M84.5,68.6c-1.3-0.2-2.6-0.4-3.9-0.7c-2.3-2.9-3.2-6.4-4.1-9.9c-0.3-0.9-0.4-1.8-1.1-2.4
		c-0.3-0.2-0.4-0.5-0.2-0.8c1.3-0.8,2.1-2,2.1-3.4c0.3-0.8,0.1-1.7,0.8-2.3c0.9,0.4,0.9,1.3,1,2c0.6,5.7,2.1,11,4.9,16.1
		C84.3,67.5,84.3,68,84.5,68.6z"/>
	<path class="st95" d="M78.1,49.1c-0.2,0.7,0,1.5-0.5,2.2c-0.9-0.5-1.1-1.4-1.1-2.4c-0.1-3.1-0.3-6.3-0.3-9.5c0.9,0,1.9-0.1,2.8-0.1
		C79.3,42.7,78.4,45.9,78.1,49.1z"/>
	<path class="st10" d="M115.6,24.8c11.1-3.9,23.6,2.6,27.3,14.2c3.7,11.5-2.3,24.8-14.4,28.4c-11.6,3.4-23-2.7-26.7-14.2
		C97.7,41.4,103.7,29,115.6,24.8z"/>
	<path class="st96" d="M63.1,39.7c0.9,0,1.7,0,2.4,0c0.3,0.2,0.6,0.2,0.9,0.1c0.7,0.5,0.5,1.3,0.6,1.9c0.2,4.7,0.3,9.4,0.6,14.1
		c0,1,0.1,2.1-0.7,2.9C65.8,59.6,64.5,60,63,60c-0.9-0.4-0.8-1.1-0.8-1.8c-0.2-5.3-0.4-10.7-0.6-16c-0.1-0.8-0.2-1.7,0.5-2.4
		C62.5,39.6,62.8,39.5,63.1,39.7z"/>
	<path class="st97" d="M66.9,58.5c0.5-4.3-0.3-8.5-0.2-12.9c0-1.9-0.1-3.9-0.2-5.7c0.9-0.3,1.6-0.3,2.4,0c0.4,0.2,0.5,0.6,0.5,1
		c0.2,5.4,0.5,10.8,0.5,16.2c-0.2,0.5-0.6,0.8-1,1.1c-0.5,0.4-1.1,0.6-1.7,0.5C67.1,58.5,67,58.5,66.9,58.5z"/>
	<path class="st98" d="M69.7,57.2c-0.6-5.8-0.4-11.5-0.8-17.3c0.3-0.1,0.5-0.2,0.8-0.3c0.1,0.1,0.4,0.2,0.5,0.3
		c0.5,0.3,0.6,1,0.7,1.5c0.1,4.6,0.4,9.2,0.5,13.9c0,0.6,0,1.2-0.4,1.7C70.5,57.2,70.2,57.3,69.7,57.2z"/>
	<path class="st99" d="M76.1,39.6c1,1.2,0.4,2.8,0.7,4.2c0.4,2.5-0.3,5.2,0.8,7.5c0.1,1.6,0,3.2-2.1,3.5c-0.6-0.3-0.7-0.9-0.7-1.5
		c-0.2-4.4-0.5-8.7-0.5-12.9c0-0.2,0.1-0.4,0.2-0.7c0.3-0.1,0.5-0.2,0.8-0.3C75.5,39.6,75.8,39.6,76.1,39.6z"/>
	<path class="st0" d="M50.2,40.3c0.4-0.1,0.8-0.3,1.2-0.3c0.9,0.2,1.8,0.1,2.8-0.1c1.4,0.4,2.8,0,4.1-0.1c0.8,0.3,1.6,0.2,2.4,0
		c0.2,0.2,0.3,0.3,0.4,0.5c0.5,6.4,0.5,12.7,0.8,19.1c0.1,0.5,0,1-0.3,1.5c-0.5,0.6-1.3,0.9-2,1.1c-0.2,0.1-0.4,0.1-0.6,0.2
		c-1.1,0.4-2.3,0.7-3.2,1.4c-1.6,0.7-3.3,1.3-4.9,1.6c-1.7,0-2.7-1.3-3.9-2.1c-1.3-1-2.3-2-3.2-3.3c-0.7-0.7-1.4-1.6-1.9-2.3
		c-2.4-3.4-1.9-6.7,0.4-9.9c1.3-1.4,2.7-2.8,3.9-4C47.4,42.3,48.9,41.3,50.2,40.3z"/>
	<path class="st22" d="M47,62.7c1.1,0.7,2.1,1.4,3.1,2.1c2.4-0.4,2.4-0.4,3.3,2.1c0.3,0.9,1.1,1.5,1.4,2.5c-0.5,0.2-0.9,0.3-1.4,0.5
		c-1.2,0.4-2.5,0.8-3.7,1.2c-0.3,0.1-0.5,0.2-0.8,0.3C47.2,69.3,46,64.6,47,62.7z"/>
	<path class="st55" d="M47,62.7c-0.2,3.1,1.4,5.8,2.1,8.7c-0.4,0.3-0.9,0.5-1.3,0.8c-0.8,0.5-1.6,0.4-1.9-0.5
		c-0.9-3.4-1.7-6.8-2.4-10.3c-0.2-0.5,0.1-1,0.1-1.5C44.9,60.5,45.9,61.6,47,62.7z"/>
	<path class="st100" d="M55,69.4c-1.5,0-1.6-1.1-2-2.2c-0.4-1.6-0.9-2.8-2.9-2.3c1.8-0.6,3.7-1.2,5.5-1.8c0.2-0.2,0.3-0.2,0.6-0.1
		c0.8,1.7,1.5,3.6,1.2,5.6C56.7,68.8,55.8,69.1,55,69.4z"/>
	<path class="st101" d="M57.5,68.5c-0.7-1.8-1.2-3.7-1.4-5.6c0.8-0.8,2-0.6,2.8-1.4c0.1,0,0.3-0.1,0.4-0.1c1.7,1.9,2,4.2,2.2,6.6
		c-0.3,0.1-0.5,0.2-0.8,0.3C59.7,67.9,58.6,68.6,57.5,68.5z"/>
	<path class="st102" d="M74.5,39.6c0.6,3,0.3,5.9,0.5,8.9c0.2,2.1,0,4.2,0.4,6.3c-0.1,0.1-0.2,0.4-0.3,0.5c-0.1,0.3-0.3,0.5-0.6,0.6
		c-0.6,0.3-1.2,0.5-1.9,0.3c-0.5-0.5-0.4-1-0.5-1.6c-0.2-4.5-0.3-9-0.5-13.4c0-0.6,0-1.2,0.4-1.6c0.3-0.1,0.5-0.2,0.8-0.3
		C73.4,39.5,74,39.5,74.5,39.6z"/>
	<path class="st103" d="M72.1,39.6c0.1,5.5,0.4,11,0.5,16.6c-0.4,0.8-1,1-1.8,0.6c-0.2-5.6-0.4-11.2-0.6-17
		C70.7,39.6,71.4,39.4,72.1,39.6z"/>
	<path class="st37" d="M60.8,40.1c0-0.1-0.1-0.2-0.1-0.4c0.8-6.6,2.2-12.9,4.8-19.1c0.1-0.3,0-0.6,0-0.9c0.9-0.2,2-1.2,2.6-0.7
		c0.9,0.7-0.3,1.8-0.6,2.5c-1.8,4.4-3,8.9-3.9,13.4c-0.3,1.6-0.3,3-0.6,4.6c-0.3,0.1-0.5,0.2-0.8,0.3C61.9,39.8,61.3,40.5,60.8,40.1
		z"/>
	<path class="st84" d="M176.6,165.9c-0.8,0.3-1.3-0.1-1.8-0.7C175.5,165,176.1,165.3,176.6,165.9z"/>
	<path class="st25" d="M62.9,59.8c1.3-0.4,2.7-0.9,4.1-1.3l0,0.1c0.2,0.2,0.4,0.2,0.4,0.4c1.3,2.7,2,5.5,2.1,8.6
		c-0.6,0.2-1.1,0.3-1.5,0.1c-1.1-0.1-2.2-0.1-3.3-0.2c-1.8-1.9-2-4.5-2.5-6.9C62,60,62.2,59.6,62.9,59.8z"/>
	<path class="st51" d="M62.2,60.5c0.8,2.4,1.5,4.7,2.3,7c-1,0.2-2.1,0.4-3.1,0.6c-0.7-2.2-1.4-4.4-2.2-6.6c0.8-0.3,1.5-0.6,2.2-0.8
		C61.7,60.3,61.9,60.3,62.2,60.5z"/>
	<path class="st104" d="M69.4,67.5c-1.3-2.8-1.4-6.1-2.5-9c0.6-0.2,1.2-0.4,1.8-0.6c0.1-0.1,0.2-0.2,0.2-0.3c2.9-1.2,3-1.2,4.1,1.8
		c0.7,1.8,1.3,3.6,1.8,5.4c0.3,0.9,0.6,1.7-0.2,2.5C72.9,67.6,71.2,67.8,69.4,67.5z"/>
	<path class="st105" d="M74.7,67.4c-0.2-3.5-2-6.6-2.9-9.9c-0.2-0.5-0.6-0.3-1-0.2c-0.7,0.2-1.3,0.4-2,0.7c0.2-0.5,0.5-0.6,1-0.8
		c0.4-0.1,0.8-0.3,1.1-0.4c0.6-0.2,1.2-0.4,1.8-0.6s1.2-0.4,1.8-0.6c0.9,1,0.9,2.2,1.3,3.4c0.8,2.2,1.4,4.3,2.1,6.5
		c0.3,0.8,0.6,1.6,0.2,2.5C77,67.5,75.8,67.9,74.7,67.4z"/>
	<path class="st106" d="M78.1,67.7c-1-3-2-6.1-3-9.1c-0.3-1-0.6-2.1-0.6-3.2c0.3-0.1,0.5-0.2,0.8-0.3c0.8-0.4,1.4,0,1.5,0.9
		c0.5,4.1,2.5,7.8,3.9,11.7C79.7,67.8,78.9,67.8,78.1,67.7z"/>
	<path class="st20" d="M104.2,40.8c-0.6-0.5-0.3-1.1-0.1-1.5c4.7-12.7,18.7-16.8,28.9-9.7c10,6.9,11.3,20.2,4.3,29.1
		c-8.4,10.9-25,9.4-31.8-2.6c-2.2-3.9-3-8-2.6-12.3c0.1-0.7-0.1-1.5,0.8-1.6c0.1,0.1,0.3,0.2,0.3,0.3c0.1,0.7,0.2,1.3,0.8,1.8
		c0.5,0.6,1.1,1,1.1,1.8C106,57,116.2,65.1,126.7,62.2c8.2-2.2,13.6-12.1,11.2-20.4c-2.4-8.6-9.8-13.4-18.5-12.1
		c-4.4,0.6-7.7,3.2-10.2,6.6c-0.4,0.6-0.8,1.2-1.1,1.8C106.6,38.9,105.3,39.8,104.2,40.8z"/>
	<path class="st107" d="M104.2,40.8c0.5-1.9,2.1-2.4,3.7-2.9c1.4-0.6,2.5,0,3.6,0.8c2.6,2.5,1.7,6.7-2.1,8.2c-1.2,0.1-2.5,0.2-3.4-1
		c-0.5-0.6-0.9-1.1-1.4-1.6c-0.3-0.5-0.6-1.2-0.6-1.8c0-0.1-0.1-0.3,0-0.4C104,41.7,104,41.3,104.2,40.8z"/>
	<path class="st38" d="M62.2,60.5c-0.3,0.1-0.5,0.2-0.8,0.2c-0.2-5.7-0.5-11.4-0.7-17.1c-0.1-1.1-0.4-2.3,0-3.4
		c0.5-0.1,1-0.4,1.5-0.1c-0.4,4.2,0.2,8.6,0.2,12.8c0,2.3,0.2,4.7,0.2,7.1C62.5,59.9,62.3,60.1,62.2,60.5z"/>
	<path class="st51" d="M58.9,61.5c-0.7,1-1.9,0.8-2.8,1.4c-0.1,0-0.3,0.1-0.4,0.1C56.5,62,57.8,62,58.9,61.5z"/>
	<path class="st3" d="M111.1,39c-0.9-0.9-2.1-0.8-3.3-1c1-3.3,3.6-5.3,6.4-6.8c5.7-3.2,11.4-3,16.8,0.5c5.6,3.6,8.3,8.9,7.9,15.7
		c-0.4,7.6-5.3,13.4-11.8,15.4c-8.4,2.4-17.7-2.2-20.3-10.4c-0.7-2-1.9-4-0.9-6.3c1,0.3,2.1,0.8,3.1,0.5c0.8,0.5,0.9,1.2,1.1,2
		c1.3,6.7,7.6,11.2,14.3,10.2c6-0.8,11-7.4,10.2-14c-1.2-9.5-9.9-13.3-16.4-10.9c-2.1,0.8-3.8,2.1-5.3,3.7
		C112.4,38.2,112,39,111.1,39z"/>
	<path class="st10" d="M103.9,42.6c0.2,0.6,0.4,1.2,0.6,1.8C104,43.9,103.7,43.3,103.9,42.6z"/>
	<path class="st1" d="M111.1,39c2-2.5,4.3-4.8,7.6-5.8c6.2-1.9,13.5,1.7,15.6,7.9c2.1,6.3,0.7,11.4-3.9,15.3
		c-6.2,5.4-15.4,2.9-19.2-3.7c-1.2-2-1.3-4.3-2.1-6.4C112.9,44.7,113.5,42.3,111.1,39z"/>
	<path class="st4" d="M117.2,47.8c-0.9-2.8,0.7-6.1,3.5-7c2.7-0.9,6,0.9,6.9,3.5c0.9,2.8-0.9,6.4-3.6,7.3
		C121.3,52.3,118.1,50.5,117.2,47.8z"/>
	<path class="st108" d="M123,48.5c-1.4,0.5-2.5,0.1-3.1-1.4c-0.6-1.6,0.1-3,1.7-3.5c1.3-0.4,2.9,0.3,3.3,1.5
		C125.3,46.4,124.3,48.1,123,48.5z"/>
</g>
</svg>
