<?xml version="1.0" encoding="utf-8"?>
<!-- Generator: Adobe Illustrator 21.1.0, SVG Export Plug-In . SVG Version: 6.00 Build 0)  -->
<svg version="1.1" id="Layer_1" xmlns="http://www.w3.org/2000/svg" xmlns:xlink="http://www.w3.org/1999/xlink" x="0px" y="0px"
	 viewBox="0 0 260 260" style="enable-background:new 0 0 260 260;" xml:space="preserve">
<style type="text/css">
	.st0{fill:#EC168E;}
	.st1{fill:#EB0B8D;}
	.st2{fill:#512C86;}
	.st3{fill:#E60A8D;}
	.st4{fill:#EB0F8E;}
	.st5{fill:#D5128C;}
	.st6{fill:#C9148C;}
	.st7{fill:#BE198C;}
	.st8{fill:#CC128C;}
	.st9{fill:#DB108C;}
	.st10{fill:#DF0E8C;}
	.st11{fill:#D8118C;}
	.st12{fill:#CC138C;}
	.st13{fill:#C3168C;}
	.st14{fill:#D2128C;}
	.st15{fill:#D9108C;}
	.st16{fill:#BD1A8C;}
	.st17{fill:#512C87;}
	.st18{fill:#AA218D;}
	.st19{fill:#A9218D;}
	.st20{fill:#E30C8C;}
	.st21{fill:#762A8A;}
	.st22{fill:#8B288C;}
	.st23{fill:#B91B8C;}
	.st24{fill:#B01F8D;}
	.st25{fill:#A5228D;}
	.st26{fill:#C1178C;}
	.st27{fill:#D0138C;}
	.st28{fill:#A6228D;}
	.st29{fill:#91278C;}
	.st30{fill:#AF1F8D;}
	.st31{fill:#BA1B8C;}
	.st32{fill:#83298B;}
	.st33{fill:#722B89;}
	.st34{fill:#C5168C;}
	.st35{fill:#D1138C;}
	.st36{fill:#99258C;}
	.st37{fill:#A2238D;}
	.st38{fill:#EB108E;}
	.st39{fill:#D1138D;}
	.st40{fill:#A1238D;}
	.st41{fill:#B41D8C;}
	.st42{fill:#BE198D;}
	.st43{fill:#CD138C;}
	.st44{fill:#612C89;}
	.st45{fill:#7C2A8A;}
	.st46{fill:#CA138C;}
	.st47{fill:#7B2A8A;}
	.st48{fill:#C8148C;}
	.st49{fill:#692C89;}
	.st50{fill:#95268C;}
	.st51{fill:#9D248D;}
	.st52{fill:#B01E8D;}
	.st53{fill:#572D89;}
	.st54{fill:#7F2A8B;}
	.st55{fill:#87288B;}
	.st56{fill:#BA1B8D;}
	.st57{fill:#A6228E;}
	.st58{fill:#8C288C;}
	.st59{fill:#C4168D;}
	.st60{fill:#B51D8D;}
	.st61{fill:#C3178D;}
	.st62{fill:#6E2B8A;}
	.st63{fill:#7C2A8B;}
	.st64{fill:#532D87;}
	.st65{fill:#86298B;}
	.st66{fill:#81298B;}
	.st67{fill:#87298B;}
	.st68{fill:#5D2D89;}
	.st69{fill:#732B89;}
	.st70{fill:#95268D;}
	.st71{fill:#C4178D;}
	.st72{fill:#92278D;}
	.st73{fill:#6E2C8A;}
	.st74{fill:#99258D;}
	.st75{fill:#82298B;}
	.st76{fill:#97268D;}
	.st77{fill:#762C8A;}
	.st78{fill:#91278D;}
	.st79{fill:#92288D;}
	.st80{fill:#C9168D;}
	.st81{fill:#662D89;}
	.st82{fill:#B61D8D;}
	.st83{fill:#C01B8E;}
	.st84{fill:#C8168C;}
	.st85{fill:#9F288F;}
	.st86{fill:#63388F;}
	.st87{fill:#612C88;}
	.st88{fill:#6E2B89;}
	.st89{fill:#5C2D88;}
	.st90{fill:#582D88;}
	.st91{fill:#552D88;}
	.st92{fill:#652C88;}
	.st93{fill:#8D288C;}
	.st94{fill:#90278C;}
	.st95{fill:#C7178C;}
	.st96{fill:#EB0C8D;}
	.st97{fill:#E40D8D;}
	.st98{fill:#DF108D;}
	.st99{fill:#CB178C;}
	.st100{fill:#93268C;}
	.st101{fill:#98258C;}
	.st102{fill:#D2148C;}
	.st103{fill:#DA138D;}
	.st104{fill:#AB208D;}
	.st105{fill:#B31D8D;}
	.st106{fill:#B71C8C;}
	.st107{fill:#212430;}
	.st108{fill:#EC148E;}
</style>
<g>
	<path class="st0" d="M167,214.7c-10.5,3.2-21.3,4.3-32.3,3.7c-29.7-1.7-54.8-13-74.6-35.5c-0.5-0.5-0.9-1.1-1.3-1.7
		c-0.5-0.6-0.7-1.5-1.4-2.1c-0.4-0.5-0.6-1.1-0.6-1.7c0.8-1,1.8-0.3,2.6,0c8.1,2.6,16.1,5.4,24.2,8.2c20.4,6.9,40.8,13.9,61.1,20.9
		c6.3,2.1,12.6,4.3,18.9,6.4C164.9,213.4,166.2,213.6,167,214.7z"/>
	<path class="st0" d="M54.4,176.6c-4.2-2.2-8.3-4.6-11.9-7.9c-3.7-3.3-5.4-7.2-3.4-12.2c2.2-5.2,0.3-10-2.8-14.3
		c-2-2.9-4.2-5.7-6-8.7c-2.4-4-2.6-8-0.9-12.2c1.3-3.1,2.6-6,4.6-8.7c3.1-4.3,3.1-8.8,1.7-13.6c-0.9-3-2-5.9-2.6-8.9
		c-1-5.3,0.8-9.5,4.8-12.9c2.3-1.9,4.9-3.4,7.7-4.4c6.2-2.3,9.9-6.8,12.2-12.7c1-2.2,1.9-4.3,2.8-6.6c2.7-7.2,8.2-10.9,15.4-12.4
		c6.5-1.4,12.8-0.4,18.8,2.6c-0.6,1.1-1.9,0.9-2.7,1.7c-1.1,0.7-2.5,0.8-3.5,1.6c-1,0.5-2.2,0.8-3.1,1.5c-1.1,0.8-2.3,1.2-3.5,1.9
		c-1.3,0.9-2.7,1.6-4.1,2.5c-1.5,0.8-2.8,2-4.3,3c-1.4,1.1-2.9,2.2-4.2,3.4c-1.7,1.3-3.2,2.8-4.7,4.4c-1.7,1.6-3.2,3.4-4.7,5.2
		c-1.3,1.6-2.6,3.2-3.8,4.8c-1,1.3-1.8,2.7-2.7,4.2c-1.1,1.5-1.8,3.1-2.9,4.6c-0.9,1.8-1.9,3.6-2.7,5.4c-0.8,1.2-0.9,2.6-1.6,3.8
		c-1,2.2-1.8,4.6-2.5,7c-0.6,2-1.1,3.9-1.6,5.9c-0.4,2.1-1,4.2-1.3,6.4c-0.4,2-0.8,4-0.9,6.2c-0.9,9.8-0.2,19.4,1.6,29.1
		c1.9,9.7,5.6,18.6,11.2,26.7C53.6,174.1,54.9,174.9,54.4,176.6z"/>
	<path class="st1" d="M182.3,208.9c-3.6,1.9-7.3,3.4-11.2,4.4c-5.2-1.4-10.2-3.3-15.2-5c-11.8-4-23.5-7.9-35.1-12
		c-20.7-7.1-41.4-14.1-62.1-21.2c-1.2-0.4-2.4-0.5-3.4-1.2c-1.8-2.8-2.4-6-3.3-9c0.2-1.5,1.3-0.9,2.1-0.7c6.1,2.1,12.1,4.1,18.1,6.1
		c11.9,4.1,23.9,8.1,35.7,12.2c24.2,8.2,48.3,16.5,72.5,24.7C181.1,207.6,182.3,207.5,182.3,208.9z"/>
	<path class="st2" d="M52.1,164.2c1,3.4,1.8,6.8,3.5,9.8c1.1,0.8,1.3,2,1.5,3.2c0.2,0.6,0.4,1.2,0.6,1.8c0.3,0.3,0.5,0.7,0,0.9
		c-1.2-1-1.9-2.5-3.3-3.3c-1-2.5-2.8-4.4-4.2-6.6c-7-11.5-10-24-10.9-37.3c-0.4-5.3-0.4-10.5,0.3-15.8c1.4-0.2,1.7,0.9,2.1,1.8
		c2.4,5.3,4.9,10.7,8.1,15.6c0.3,0.6,0.2,1.4,0.2,2.1c-0.1,0.8-0.3,1.5-0.3,2.2c-0.1,0.7-0.1,1.2-0.1,1.8c-0.1,1.8-0.2,3.8,0,5.6
		c0.1,1.1,0,2.3,0.2,3.5c0.1,1.3,0.2,2.7,0.6,3.9c0.2,1.5,0.5,3.1,0.8,4.7c0.5,1.4,0.4,3,1,4.4C52.1,163.1,52.3,163.7,52.1,164.2z"
		/>
	<path class="st3" d="M52.1,164.2c-0.2-0.5-0.3-1-0.5-1.5c0.1-0.3-0.3-0.8,0.2-1c1.1-0.3,2.1,0.2,3,0.5c17.8,6,35.6,12.1,53.4,18.2
		c0.9,0.3,1.9,0.4,2.8,0.6c2.4,1.4,4.6,3,7.1,4.2c6.4,3.1,13.1,5,20.2,5.6c1.4-0.6,2.4,0.4,3.6,0.7c0.7,0.2,1.4,0.5,2.1,0.8
		c5,1.8,10.1,3.2,15.4,4c0.9,0.1,1.8,0.3,2.5,0.9c1,0.9,2.4,1.2,3.7,1.6c6.3,2.2,12.8,4.2,19,6.5c0.7,0.3,1.9,0.1,1.9,1.5
		c-1.2,1-2.7,1.6-4.1,2.2c-1.1-1.4-2.9-1.5-4.5-2c-14.2-4.9-28.2-9.6-42.5-14.4c-7.9-2.6-15.8-5.3-23.7-8.1
		C96.8,179.2,82,174.1,67,169C62,167.5,57.1,165.9,52.1,164.2z"/>
	<path class="st4" d="M57.1,177.3c-0.9-0.9-1-2.1-1.5-3.2c3,0.3,5.6,1.6,8.4,2.6c11,3.6,22,7.4,33.1,11.2c16,5.5,32.1,11,48.1,16.4
		c7.9,2.6,15.8,5.3,23.7,8.1c0.7,0.3,1.7,0.3,2.1,1.1c-1.3,0.4-2.8,0.9-4.1,1.3c-14.6-5-29.1-10.1-43.7-15
		c-10.2-3.5-20.4-6.9-30.6-10.4c-11.2-3.8-22.2-7.6-33.3-11.3C58.6,177.6,57.8,177.5,57.1,177.3z"/>
	<path class="st5" d="M147.5,42c7,1.6,13.9,4.1,20.3,7.3c10.8,10.1,13.2,27.1,3.4,39.9c-1,1.3-1.7,3.2-3.8,3.1
		c-1.1,0.4-2.2,0.8-3.4,0.7c-0.5-1.1,0.4-1.5,1-2c7.3-6.7,10.4-14.9,8.6-24.7C171,52.7,159,44,146.2,45.9
		c-17.6,2.5-24.5,19.8-20.5,32.4c2.1,6.5,5.6,11.7,11.5,15.1c0.7,0.4,1.5,0.8,1.4,1.9c-1.5,0.2-3,0.1-4.6-0.1
		c-4.5-2.6-7.5-6.6-9.9-11.1c-6.9-13.8-1.9-32.3,14.2-39.9C141.3,42.9,144.5,42.6,147.5,42z"/>
	<path class="st1" d="M161.7,197.4c-3.9-1.3-8.2-1.4-12.1-2.8c-1.9-0.6-3.9-1.2-5.8-1.9c-2.2-2.2-4.8-3.9-7.2-5.8
		c-5.9-4.5-11.7-9.1-17.7-13.5c-0.3-0.2-0.5-0.6-0.9-0.8l0,0c-0.6-0.5-0.5-1.5-1-2.1c-0.5-1.2,0.4-0.6,0.6-0.4
		c2.6,2.1,5.7,3.1,8.6,4.4c6.3,3.1,13,5.2,19.6,7.2c0.1,0.6,0.7,0.9,1.1,1.2c5.2,4.1,10.6,8.2,15.9,12.2c0.7,0.5,2.2,1,1.2,2.4
		C163.3,198.1,162.5,197.8,161.7,197.4z"/>
	<path class="st6" d="M125.3,94.8c-1.9,0.1-3.6-0.1-5.4-0.4c-2-2.1-3.3-4.6-4.5-7.2c-5-11-4.6-22.1,0.2-32.9c2.5-6,6.9-10.7,12-14.6
		c0.5-0.4,1-0.8,1.8-0.6c1.9-0.1,3.7,0.1,5.5,0.5c0.5,1.3-0.7,1.7-1.4,2.1c-3.3,2-6.5,4.5-9,7.6c-6.7,8.7-9.1,18.4-6.9,29.4
		c1.1,5.1,3.5,9.5,6.5,13.6C124.7,93,125.6,93.6,125.3,94.8z"/>
	<path class="st7" d="M115.7,94c-0.9,0-1.9-0.1-2.9-0.1c-0.6,0-1.3,0.1-1.8-0.6c-3.1-5.1-4.7-10.7-5.5-16.5
		c-0.1-0.8-0.2-1.6-0.6-2.4c-0.4-0.9-0.2-1.8-0.1-2.8c0.4-2.4,0.8-4.8,0.6-7.2c1.4-9,4.9-17,10.8-23.9c0.5-0.6,1-1.6,2-1.5
		c1.8-0.3,3.5-0.4,5.3-0.2c0.1,0.9-0.4,1.5-0.9,2c-6.4,6.3-10.6,14.1-12.2,23c-1,6.1-0.7,12.2,1.1,18.2c0.9,3.2,2.1,6.3,3.7,9.1
		C115.7,92.1,116.5,93,115.7,94z"/>
	<path class="st8" d="M48.9,146.1c-0.2-1.9-0.2-3.8,0.1-5.7c0.6-0.4,1.2-0.1,1.8,0c13.3,4.6,26.6,9,39.9,13.6
		c0.1,0.1,0.3,0.1,0.4,0.2c0.3,0.9,0.6,1.7,0.8,2.5c0.6,0.6,0.5,1.5,1,2.2c0.2,0.5,0.4,0.9,0.6,1.5c-1.2,0.7-2.2,0-3.3-0.4
		c-12.6-4.3-25.2-8.5-37.8-12.9C51.3,146.6,50.1,146.3,48.9,146.1z"/>
	<path class="st9" d="M156.9,94.1c-3.7,0.8-7.6,0.9-11.5,1c-6.4-1.2-11.3-4.4-15.1-9.6c-5-7-6.1-14.7-3.4-22.8
		c2.9-8.4,8.9-14,17.7-15.6c10.1-2,18.3,1.8,24.1,10.2C177.3,69.6,172.5,88.5,156.9,94.1C157,94.1,157,94.1,156.9,94.1z"/>
	<path class="st10" d="M50.5,158.2c-0.3-1.6-0.9-3-0.8-4.6c0.9-0.9,1.8-0.3,2.7,0.1c11.8,4,23.7,8,35.5,12.1
		c3.7,1.3,7.5,2.4,11.2,3.8c1.8,1.9,3.5,4,5.3,5.9c-1,0.9-1.9,0.2-2.9-0.1c-6-2-12.1-4.1-18.1-6.1c-10-3.4-19.9-6.8-29.9-10.2
		C52.5,158.8,51.4,158.5,50.5,158.2z"/>
	<path class="st11" d="M138.6,95.2c-0.9-1.4-2.5-1.8-3.6-2.7c-4.4-3.3-7.4-7.5-9.3-12.7c-2.1-6-2.3-11.9-0.1-17.8
		c2.7-7.2,7.4-12.4,14.9-15.2c7.4-2.8,14.4-2.2,21.2,1.6c5.3,2.9,8.8,7.3,11,12.9c1.9,4.8,2.5,9.9,1.4,15.1
		c-1.4,6-4.2,11.1-8.9,15.2c-0.5,0.4-1.1,0.7-1.2,1.5c-1.6,0.5-3.3,0.8-5.1,0.8c0.6-0.9,1.6-1.4,2.6-2c14.3-8.8,15.7-30.5,0.9-40.9
		c-11-7.7-24.6-4.8-32,5.6c-8.9,12.5-4.5,29.7,9.5,36.6c1,0.5,2.6,0.2,2.8,1.9C141.3,95.3,139.9,95.4,138.6,95.2z"/>
	<path class="st12" d="M125.3,94.8c-1.6-2.3-3.3-4.6-4.7-7c-3.7-6.1-4.8-12.7-4.2-19.6c1.1-11.4,6.3-20.3,16.1-26.5
		c0.9-0.5,2.2-0.7,2.4-2c2,0.4,4,0.7,6,1.1c0.1,1-0.8,1.1-1.3,1.4c-2.8,1.4-5.5,2.7-8.1,4.6c-9.9,7.5-14.3,21.6-10.5,33.5
		c1.6,4.7,4.1,8.9,7.4,12.5c0.5,0.7,1.5,1.2,1.1,2.3C128.1,95.1,126.8,95.1,125.3,94.8z"/>
	<path class="st13" d="M115.7,94c-0.1-1.9-1.3-3.2-2-4.7c-3.3-6.9-4.6-14.3-4.1-21.9c0.3-4.3,1.3-8.4,3-12.4
		c2.3-5.3,5.3-10.2,9.5-14.1c0.6-0.6,1.1-1.4,1.7-2.1c1.9-0.2,3.9-0.1,5.8,0.2c-4.4,2.8-7.9,6.6-10.9,11c-2.8,4.2-4.5,9-5.4,13.9
		c-1,5.3-0.8,10.6,0.3,15.8c1.1,4.8,3,9.2,5.9,13.2c0.3,0.4,0.4,0.9,0.6,1.4C118.5,94.2,117.1,94.2,115.7,94z"/>
	<path class="st14" d="M48.9,146.1c0.5-0.6,1.1-0.4,1.7-0.2c9.3,3.2,18.5,6.2,27.7,9.4c4.1,1.4,8.2,2.9,12.4,4.3
		c0.9,0.3,1.8,0.4,2.8,0.6c1,1.7,1.9,3.5,2.9,5.2c-1,0.2-1.9-0.2-2.8-0.5c-14.4-4.8-28.7-9.8-43.1-14.6c-0.5-0.2-1-0.3-1.4-0.7
		C48.9,148.5,48.9,147.3,48.9,146.1z"/>
	<path class="st15" d="M49.2,149.7c3,0.4,5.7,1.7,8.6,2.6c12.1,4.1,24.2,8.2,36.3,12.4c0.8,0.3,1.6,0.2,2.4,0.8
		c0.9,1.4,1.7,2.7,2.6,4.1c-2.6,0-5-1.3-7.3-2.1c-9.3-3-18.5-6.2-27.7-9.4c-4-1.4-8.1-2.8-12.1-4.2c-0.7-0.2-1.3-0.4-2.1-0.3
		C49.2,152.3,49.2,150.9,49.2,149.7z"/>
	<path class="st16" d="M88.4,143.4c0.4,1.1,0.6,2.2,0.7,3.4c-0.8,0.6-1.5,0.2-2.2,0c-12.1-4.2-24.2-8.3-36.3-12.4
		c-0.2,0-0.4-0.2-0.5-0.3c-0.6-1.3,0.2-2.4,0.4-3.5c0.2-0.5,0.4-0.9,0.8-1.1c1.5-0.1,3,0.7,4.4,1.2c10.2,3.5,20.4,6.9,30.5,10.5
		C87.4,141.3,88.5,141.7,88.4,143.4z"/>
	<path class="st17" d="M199.3,77.9c-1.8-5.8-3.8-11.5-7.4-16.5c-1-1.4-2-2.7-3.6-4.1c8.7,2.9,18.6,14.7,21.4,29.1
		c-0.3,1.3-1.1,0.9-1.7,0.5c-2.6-1.9-5.1-3.9-7.6-5.9C199.6,80.3,199.4,79.1,199.3,77.9z"/>
	<path class="st18" d="M220.9,172.9c-0.8,1.6-1.7,3.2-2.8,4.6c-1.1,0.6-2.3,0.9-3.3,1.8c-0.7,0.8-1.5,0.2-2.3-0.3
		c-1.9-1.4-3.8-2.8-5.6-4.2c-5.8-4.4-11.5-8.8-17.4-13.3c-0.7-0.5-1.5-0.9-1.6-1.9c1.1-1,2.3-2,3.5-2.9c0.9,0,1.5,0.8,2.1,1.3
		c7,5.4,14.1,10.8,21.2,16.2c2,1.5,2,1.5,3.6-0.6C219.1,172.9,219.7,172.1,220.9,172.9z"/>
	<path class="st10" d="M159.8,184.2c1.8,0.1,3.6,0.2,5.4,0.3c0.8,0.2,1.5,0.6,2.1,1.1c3.9,3.2,8.1,6.2,12,9.3
		c0.9,0.7,1.8,1.3,2.3,2.3c0.3,0.7,1.2,1,2,1.1c2.7,0.9,5.3,1.8,8,2.8c0.7,0.3,1.9,0.3,1.8,1.6c-1.3,0.9-2.7,1.7-4,2.5
		c-5.7-1.7-11.3-3.9-16.9-5.7c-0.7-0.2-1.5-0.5-1.5-1.5c0.1-0.1,0.2-0.3,0.4-0.3c1.4-0.2,2.8-0.1,4.4-0.4c-1.3-1.5-2.7-2.4-4-3.3
		c-3.4-2.4-6.6-5.2-10-7.6C160.7,185.8,159.8,185.4,159.8,184.2z"/>
	<path class="st19" d="M87.9,129.6c-0.1,1.1-0.1,2.1-0.3,3.3c-0.9,0.6-1.6,0.1-2.4-0.2c-10.1-3.4-20.3-6.8-30.4-10.3
		c-0.5-0.2-0.9-0.4-1.2-0.7c-0.2-1.4,0.5-2.5,1.3-3.6c0.7-0.3,1.5-0.2,2.2,0.1c9.5,3.3,19,6.6,28.6,9.7
		C86.7,128.2,88,128.2,87.9,129.6z"/>
	<path class="st20" d="M50.5,158.2c0.7-0.8,1.5-0.1,2.1,0.1c14.9,5.1,29.9,10.1,44.7,15.2c2.3,0.8,4.4,1.9,7,2
		c1.3,1.1,2.7,2.4,4,3.5c-0.9,1-2,0.3-2.8,0.1c-5.2-1.7-10.3-3.4-15.4-5.1c-12.1-4.2-24.4-8.4-36.6-12.5c-0.7-0.2-1.5-0.7-2,0.4
		c0,0.2,0,0.5-0.1,0.8C50.9,161.3,50.9,159.7,50.5,158.2z"/>
	<path class="st21" d="M198.3,118.3c0.4-1.6,0.7-3.3,1.1-4.9c0.6-0.5,1.1-0.1,1.5,0.2c7.1,5.3,14.1,10.8,21.2,16.2
		c0.2,0.2,0.3,0.3,0.3,0.4c-0.3,1.6-0.8,3.2-1.6,4.6c-0.7,0.4-1.2-0.1-1.7-0.5c-2.6-2.1-5.3-3.8-7.8-6
		C207.2,125,202.7,121.8,198.3,118.3z"/>
	<path class="st22" d="M96.4,109.2c-0.8,1.2-1.6,2.4-2.4,3.6c-0.7,0.8-1.6,0.4-2.4,0.2c-8.1-2.8-16.1-5.4-24.1-8.4
		c-0.7-0.3-1.5-0.4-1.8-1.3c-0.1-0.3,0-0.5,0.3-0.8c0.9-0.9,1.8-1.8,2.9-2.3c0.6-0.3,1.3-0.2,1.9,0c8.4,2.9,16.8,5.8,25.3,8.6
		C96,108.9,96.2,109.1,96.4,109.2z"/>
	<path class="st23" d="M88.4,143.4c-0.2-1-0.7-1.5-1.7-1.7c-8.8-2.9-17.4-5.8-26.1-8.8c-3.2-1.1-6.3-2.2-9.4-3.3
		c-0.5-1-0.2-1.9,0.3-2.8c0.2-0.2,0.4-0.3,0.7-0.5c1.2-0.1,2.2,0.6,3.3,1c10.4,3.4,20.5,7,30.9,10.4c0.5,0.2,0.9,0.3,1.5,0.6
		C88,139.9,88.2,141.6,88.4,143.4z"/>
	<path class="st24" d="M188.1,159.8c6.6,5.1,13.3,10.3,19.9,15.3c1.7,1.2,3.4,2.4,5,3.8c0.9,0.7,1.5,0.5,1.9-0.2
		c0.7-1.4,1.9-1.4,3.1-1.2c-0.5,1.2-1.2,2.3-2.2,3.3c-1.6-0.6-2.6,0.3-3.7,1.3c-0.2,0.1-0.4,0.1-0.5,0.1c-2.3-1-4.1-2.9-6.1-4.3
		c-6.2-4.7-12.4-9.4-18.5-14.2c-0.7-0.5-1.5-0.9-1.5-1.8C186.3,161.1,187.2,160.5,188.1,159.8z"/>
	<path class="st25" d="M87.9,129.6c-0.4-1.1-1.5-1-2.2-1.3c-9.5-3.4-19.1-6.6-28.7-9.9c-0.6-0.2-1.1-0.3-1.7-0.2
		c-0.3-0.3-0.2-0.7-0.1-1c0.4-0.9,0.7-1.7,1.6-2.2c0.8-0.3,1.4,0,2.1,0.2c9.6,3.2,19.1,6.5,28.7,9.8c0.5,0.2,0.8,0.3,1.2,0.7
		C88.4,126.9,88.1,128.3,87.9,129.6z"/>
	<path class="st26" d="M50.1,133.9c4.3,1,8.5,2.7,12.7,4.1c7.9,2.6,15.7,5.5,23.5,8.1c0.8,0.3,1.7,0.4,2.6,0.6
		c0.4,1.1,0.8,2.3,0.8,3.5c-1.6-0.1-3.1-0.9-4.6-1.3c-11.6-4-23.3-8-35-11.8c-0.3-0.1-0.6-0.2-0.9-0.4c0-0.5,0.1-1.2,0.2-1.7
		C49.7,134.5,49.4,133.9,50.1,133.9z"/>
	<path class="st3" d="M171.2,197.9c-0.1,0-0.3,0.1-0.4,0.1c-2.3,0.4-4.6,0.7-6.7-0.6c0.4-0.9-0.4-1.1-0.8-1.5
		c-5.5-4.3-11.1-8.5-16.7-12.7c-0.5-0.3-1.2-0.7-0.6-1.5c2.9,0.6,5.8,1.2,8.7,1.8c5.6,4.2,11,8.5,16.6,12.6
		C171.9,196.5,172.8,197.3,171.2,197.9z"/>
	<path class="st27" d="M167.3,92.3c1.6-0.1,2-1.6,2.9-2.5c3-3.6,5-7.8,6-12.3c1.6-6.7,0.5-13.1-2.5-19.3c-1.3-2.7-3.1-5-5.1-7.2
		c-0.4-0.5-0.6-1-0.8-1.5c1.9,0.7,3.8,1.7,5.5,2.9c3.8,4.7,5.6,10,6.2,15.9c0.8,8.4-1.2,16-6.5,22.7
		C171.1,91.4,169.3,92.2,167.3,92.3z"/>
	<path class="st28" d="M218.8,174c-0.3,0.4-0.7,0.8-1,1.3c-0.6,1-1.2,1-2.2,0.4c-7.8-6-15.5-11.8-23.3-17.8c-0.4-0.3-0.6-0.6-0.9-1
		c0.8-0.8,1.7-1.6,2.5-2.4c4.9,3.3,9.5,7.2,14.3,10.8c3.2,2.4,6.4,4.7,9.5,7.3C218.3,172.9,219.1,173.1,218.8,174z"/>
	<path class="st29" d="M65.8,103.4c2.9,1.8,6.3,2.5,9.5,3.6c5.4,2,10.9,3.8,16.4,5.6c0.7,0.3,1.5,0.4,2.3,0.3
		c-0.6,1.1-1.2,2.3-1.8,3.4c-0.8,0.5-1.5,0-2.2-0.2c-8.1-2.9-16.3-5.5-24.5-8.4c-0.9-0.3-1.9-0.5-2.5-1.3c-0.1-0.4,0-0.7,0.2-1.1
		C63.8,104.5,64.4,103.3,65.8,103.4z"/>
	<path class="st30" d="M53.8,121.6c10.2,3.5,20.4,6.9,30.7,10.4c1.1,0.4,2.1,0.6,3.1,0.9c0,0.9,0,2-0.1,3c-0.7,0.5-1.4,0.2-2,0
		c-10.9-3.8-22-7.3-32.8-11.3c-0.6-0.8,0.1-1.4,0.3-2.1C53.2,122.1,53.3,121.6,53.8,121.6z"/>
	<path class="st15" d="M193.3,202.7c-1.5-1.8-4.1-1.6-6-2.6c-0.8-0.4-1.7-0.6-2.6-0.8c-2.1-0.4-3.3-2.1-4.8-3.3
		c-4.4-3.6-9-7-13.5-10.5c-0.4-0.3-0.8-0.7-1.2-1c1.9-0.1,3.7-0.2,5.6-0.2c4.8,3.9,9.8,7.6,14.7,11.4c1.5,1.2,3.5,1.5,5.3,2.1
		c1.3,0.5,2.7,0.9,4,1.4c0.7,0.3,1.5,0.4,1.7,1.3C195.4,201.2,194.4,202,193.3,202.7z"/>
	<path class="st18" d="M102.1,41.6c0.8-0.3,1.5-0.4,2.2-0.6c0.9-0.2,1.1,0.3,1,1c-0.2,0.5-0.4,0.9-0.7,1.4
		c-3.5,6.1-5.7,12.5-6.8,19.4c-0.2,0.8-0.2,1.7-1.1,2.1c-0.3,0.1-0.6,0.2-0.8,0.2c-0.9,0-1.7,0-2.5,0.1c-0.4,0-0.8-0.1-1-0.5
		c0.8-6.9,2.8-13.3,5.4-19.8C98.7,43,99.7,41.7,102.1,41.6z"/>
	<path class="st31" d="M118.4,39.1c-4.6,4.8-8.2,10.4-10.4,16.8c-1,2.8-1.6,5.7-2.1,8.6c-0.8,0.9-1.9,0.4-2.8,0.6
		c-0.4,0-0.8-0.1-1-0.4c0-4.5,1.4-8.7,3.1-12.7c1.7-3.9,3.6-7.7,6.3-11c0.4-0.6,0.8-1.3,1.8-1.3C115,39,116.7,39,118.4,39.1z"/>
	<path class="st32" d="M99.8,104.8c-0.5,0.8-1,1.6-1.8,2.2c-0.7,0.8-1.6,0.4-2.4,0.2c-7.3-2.4-14.5-5.1-21.9-7.4
		c-0.9-0.3-1.8-0.7-2.4-1.5c-1.7-4.4-2.7-9-3.3-13.6c-0.1-0.7-0.1-1.5,0.4-2c1.7-0.3,1.7,1.3,2.5,2.1c0.1,3.6,1.5,7,2.2,10.5
		c0.4,1.9,1.5,1.3,2.6,0.8C76,96,76.3,96,76.5,96c1.1,1.3,2.7,1.7,4.1,2.2c6.2,1.9,12.4,4,18.5,6.1
		C99.3,104.5,99.7,104.5,99.8,104.8z"/>
	<path class="st33" d="M222.6,130.3c-1.5-0.4-2.6-1.5-3.7-2.4c-6-4.5-12-9.2-18-13.7c-0.4-0.4-0.8-0.8-1.5-0.8
		c0.3-1.5,0.5-2.8,0.8-4.3c3,1.7,5.7,4,8.5,6.2c0,0.1,0.2,0.3,0.2,0.3c1.2,0.5,2.3,1.3,3.3,2.2c3.7,3,7.8,5.7,11.3,8.9
		C223.6,127.9,223,129.1,222.6,130.3z"/>
	<path class="st34" d="M49.4,136.5c2.7,0.1,5,1.3,7.3,2.1c8.6,2.8,17.2,5.7,25.7,8.8c2.5,0.9,5.1,1.4,7.4,2.8
		c0.2,0.6,0.4,1.1,0.5,1.8c-0.8,1.1-1.8,0.4-2.6,0c-8.5-2.8-16.9-5.8-25.3-8.6c-3.8-1.3-7.5-2.7-11.3-4c-0.7-0.2-1.4-0.3-1.9-1
		C49.1,137.9,49.3,137.2,49.4,136.5z"/>
	<path class="st35" d="M147.5,42c-0.8,1.5-2.3,1-3.4,1.1c-5.1,0.7-9.4,3.2-13,6.6c-7.7,7.1-10.4,16-9.1,26.2
		c1,7.1,4.8,12.9,10.2,17.6c0.6,0.5,1.5,0.9,1.8,1.7c-0.6,0.3-1.4,0.2-2.1,0.1c-4-2.4-6.6-5.9-8.6-9.9c-4.7-9-4.8-18.3-0.6-27.4
		c3.2-7.1,8.6-12.1,16-15c2-0.8,4-1.7,6.1-1.5C145.8,41.4,146.7,41.6,147.5,42z"/>
	<path class="st36" d="M91.1,118.3c-0.4,1-0.8,1.8-1.2,2.8c-0.7,0.5-1.3,0.2-2-0.1c-8.7-3-17.3-5.9-26-8.9c-0.9-0.4-1.9-0.4-2.5-1.3
		c-0.3-1.1,0.6-1.7,1.2-2.5c0.3-0.3,0.6-0.5,1-0.5c9.4,3.4,18.8,6.4,28.1,9.7C90.2,117.8,90.8,117.9,91.1,118.3z"/>
	<path class="st12" d="M204.9,193.3c-0.8,1.3-2.2,2.3-3.5,3.2c-3.1-0.8-6.1-1.7-9.2-2.6c-2.7-0.8-4.5-3.1-6.7-4.7
		c-1.8-1.2-3.5-2.6-5.1-4c-0.6-0.5-1.6-1-1.4-2c0.2-0.9,1.2-0.7,1.9-1c0.3-0.1,0.5-0.2,0.7,0c0.5-0.2,0.9-0.3,1.4-0.5
		c2.5,1.5,4.7,3.4,7,5.2c1.6,1.3,3.1,2.4,4.8,3.6c1.1,0.8,2.1,1.1,3.6,0.9C200.8,191.1,202.9,192,204.9,193.3z"/>
	<path class="st35" d="M181.5,182.2c-0.2,0.1-0.4,0.1-0.6,0.2c-0.6,0.3-1.5,0.1-1.8,0.9c-0.2,0.9,0.8,1.1,1.2,1.5
		c3.4,2.7,6.8,5.2,10.2,7.8c1.1,0.9,2.4,1.2,3.7,1.4c2.5,0.4,4.9,1,7,2.4c-0.8,1-1.9,1.7-2.9,2.4c-4.3-1.3-8.8-2.2-12.5-5.3
		c-3.2-2.6-6.6-5.1-9.9-7.7c-0.7-0.6-1.7-1-1.4-2.3C177,183.2,179.3,182.7,181.5,182.2z"/>
	<path class="st37" d="M218.8,174c-3.1-2.4-6.4-5-9.5-7.4c-4.8-3.7-9.7-7.4-14.5-11.1c-0.3-0.3-0.5-0.7-0.8-1.1
		c0.6-0.6,1.2-1.2,1.8-1.9c1.1,0.1,1.7,0.9,2.4,1.5c2.3,1.8,4.5,3.6,7,5.2c4.3,3.8,9.2,7.1,13.8,10.7c0.7,0.6,1.6,1,2.3,0
		c0.3-0.4,0.8-0.7,1.4-0.3c-0.4,1.3-1,2.3-1.8,3.4C220,172.9,219.3,173.2,218.8,174z"/>
	<path class="st38" d="M118,172.6c1,0.2,1.8,0.8,2.7,1.4c4.5,3.5,9.1,7,13.6,10.5c2.9,2.2,5.8,4.4,8.7,6.7c0.4,0.4,1.2,0.5,0.8,1.5
		c-1.9-0.6-3.8-1.3-5.6-1.8c-1.5-1.5-3.6-2.1-5.5-3.1c-5.5-3.3-10.4-7.3-13.8-12.9C118.6,174,118.3,173.4,118,172.6z"/>
	<path class="st39" d="M144.8,41.4c-6.3,1.8-12.2,4.2-16.6,9.3c-4.4,4.9-7.1,10.8-7.7,17.5c-0.4,4.6,0.1,8.8,1.6,13.1
		c1.8,5.1,4.9,9.3,8.9,12.9c0.4,0.3,0.7,0.7,1,1.1c-0.9,0-1.6,0.1-2.5-0.1c-0.9-1.9-2.7-3.2-3.9-4.9c-6.7-9.3-8-19.2-4.4-29.9
		c2.6-7.6,7.8-13.1,14.6-16.9c1.7-1,3.5-1.4,5.1-2.5C142.3,40.5,143.5,41,144.8,41.4z"/>
	<path class="st40" d="M88.6,125.6c-3-0.4-5.7-1.7-8.6-2.6c-7.1-2.4-14.2-4.9-21.4-7.3c-0.6-0.2-1.4-0.6-2-0.4
		c-0.1-0.1-0.2-0.2-0.2-0.3c0-0.1-0.1-0.2-0.1-0.2c0.3-0.8,0.8-1.4,1.6-2c0.7-0.3,1.5-0.2,2.2,0c9.7,3.4,19.4,6.5,29.1,10
		C89.3,123.9,88.9,124.7,88.6,125.6z"/>
	<path class="st41" d="M52.7,124.4c2.9,0.4,5.5,1.7,8.2,2.6c6.1,2,12.2,4.2,18.4,6.2c2.7,0.9,5.3,2.1,8.2,2.6
		c0.1,0.8,0.1,1.5,0.2,2.4c-2.7-0.1-5.1-1.4-7.6-2.1c-8.4-2.8-16.8-5.7-25.3-8.6c-0.9-0.3-1.8-0.7-2.7-1.1
		C51.7,125.4,52.1,124.9,52.7,124.4z"/>
	<path class="st42" d="M212.2,185.7c-0.9,1.4-2.1,2.7-3.3,3.8c-1.8-0.7-3.5-1.7-5.6-0.6c-0.8,0.5-1.5-0.2-2.2-0.7
		c-2.9-2-5.5-4.2-8.3-6.3c-1.4-1.1-2.8-2.1-4.7-1.3c-0.3,0.1-0.5,0-0.7-0.2c2.4-1,4.8-2.1,7.2-3.1c2.4,1.2,4.4,3,6.4,4.5
		c1.1,0.9,2.4,1.7,3.4,2.8c1.2,1.1,2.2,1.4,3.7,0.3C209.6,183.6,211.1,184.1,212.2,185.7z"/>
	<path class="st43" d="M173,90.7c-0.2-1.3,0.9-2.1,1.5-3c5.7-9.4,6-19.1,2.1-29.2c-0.8-2.2-2.6-4-3.2-6.3c1.6,0.8,3.3,1.7,4.6,3.1
		c4,8.8,5.2,17.9,1.9,27.2c-0.6,1.5-1.3,2.8-1.9,4.2c-0.3,0.7-0.7,1.4-0.1,2.1C176.4,90,174.6,90.2,173,90.7z"/>
	<path class="st44" d="M212.8,108.7c0.7-2,1.4-4,2-6c2,1,3.7,2.5,5.5,3.9c1.7,1.2,3.3,2.7,5.1,3.8c0.2,2.4,0.1,4.7-0.3,7.1
		c-0.8,0.6-1.4,0-1.9-0.3c-3.5-2.5-6.8-5.1-10.3-7.8C212.9,109.1,212.8,108.9,212.8,108.7z"/>
	<path class="st45" d="M198.3,118.3c0.5,0.2,1,0.3,1.5,0.6c4.1,3.1,8,6.2,12.1,9.3c0.3,1.2,0.1,2.2-1.4,2.5
		c-0.5,0.5-0.9,0.9-1.3,1.4c-0.7,0.5-1.2,0.1-1.8-0.3c-3.4-2.3-6.4-5-9.7-7.3c-0.4-0.4-0.8-0.8-0.7-1.5
		C197.5,121.3,197.9,119.8,198.3,118.3z"/>
	<path class="st46" d="M177.8,88.9c-1.7,0.5-1.4-0.4-0.9-1.3c1.9-3.4,3.3-7,3.9-10.9c0.7-5.1,0.6-10.2-1.1-15.2
		c-0.7-2-1.7-4-1.8-6.3c1.4,1,3,1.7,4.1,3.1c0.5,3.5,1.9,6.7,2.1,10.4c0.3,5.9-0.7,11.7-3,17.1c-0.4,0.9-0.7,1.8-1.7,2.3
		C178.9,88.4,178.3,88.7,177.8,88.9z"/>
	<path class="st47" d="M104.8,99.9c-1,1-2.1,2-3.2,3.1c-6.5-2.2-13-4.4-19.6-6.7c-0.7-0.3-2-0.3-1.4-1.7c0.4-0.4,0.9-0.6,1.3-0.8
		c0.8-0.3,1.6-0.5,2.4-0.8c1.1-0.1,2.2-0.5,3.3-0.2c0.6,0.9,1.5,1.1,2.5,1.4c4.1,1.4,8.4,2.8,12.6,4.3
		C103.4,98.8,104.4,99,104.8,99.9z"/>
	<path class="st15" d="M142.6,95.1c-1.9-1.6-4.3-2.3-6.3-3.6c-4.6-3.1-7.9-7.4-9.5-12.5c-3.6-11.5,0.4-23.6,11.4-29.7
		s24.5-1.8,30.8,8.1c7.6,11.9,4,27.5-7.5,34.6c-0.9,0.5-1.5,1.5-2.6,1.7c-0.7,0.2-1.3,0.4-2,0.2c3-1.8,6.3-3.3,8.7-5.9
		c5.7-6.1,7.9-13.3,6.4-21.5c-2-10.1-8.2-16.5-17.9-18.9c-7.2-1.7-13.9,0.1-19.6,5c-6.9,6.1-9.6,14-7.9,22.9
		c1.6,8.3,6.5,14.5,14.6,17.8c1.5,0.6,3,0.6,4.2,1.7C144.5,95.2,143.5,95.4,142.6,95.1z"/>
	<path class="st48" d="M179.5,88.2c4.2-8.7,5.6-17.6,2.4-27c-0.3-0.9-0.5-1.8,0-2.8c1.4,0.8,2.3,2.3,3.4,3.4c0.9,1.2,0.8,2.7,1,4
		c0.9,5.9,0.4,11.8-1.5,17.5c-0.3,0.8-0.4,1.6-1,2.2C182.6,86.6,181.1,87.4,179.5,88.2z"/>
	<path class="st5" d="M174.7,183.8c0.3,1.2,1.4,1.6,2.2,2.3c3,2.4,6.2,4.6,9.2,7.1c2.9,2.4,6.4,3.5,9.8,4.5c0.9,0.3,1.8,0.7,2.6,1.2
		c-0.7,0.5-1.4,1-1.9,1.5c-2.7-1.5-5.8-2.2-8.6-3.2c-2-0.6-3.5-1.9-5-3.1c-3.6-2.6-7.2-5.4-10.7-8.2c-0.7-0.5-1.2-1-1.3-1.8
		C172.2,184.1,173.5,183.9,174.7,183.8z"/>
	<path class="st48" d="M49.2,138.6c4.6,1.1,8.9,3,13.3,4.5c8.8,2.9,17.6,6,26.3,9c0.5,0.2,1,0.2,1.5,0c0.3,0.8,0.5,1.4,0.7,2.2
		c-2.6,0-5-1.3-7.3-2.1c-9.2-3.1-18.5-6.2-27.6-9.3c-2.4-0.8-4.7-1.6-7.1-2.4C48.8,139.8,49,139.2,49.2,138.6z"/>
	<path class="st49" d="M212.8,108.7c3.6,2.2,6.6,5,10,7.4c0.7,0.5,1.4,1.1,2.3,1.2c0,2-0.3,3.9-0.7,5.8c-0.7,0.3-1.2-0.2-1.7-0.6
		c-3.8-2.6-7.1-5.6-11-8.3c-0.4-0.3-1-0.6-0.8-1.3C211.6,111.5,212.2,110.1,212.8,108.7z"/>
	<path class="st3" d="M51.6,161.9c-0.3-0.9-0.9-1.9,1-1.2c15.6,5.4,31.2,10.6,46.7,15.8c2.3,0.8,4.6,1.5,7,2.2
		c0.7,0.2,1.4,0.4,2.1,0.2c0.9,0.5,2,1.1,2.6,2c-1.1,0.6-2.1,0.2-3-0.2c-12.4-4.2-24.7-8.4-36.9-12.7c-5.3-1.8-10.8-3.7-16.2-5.5
		C53.8,162.4,52.7,162.2,51.6,161.9z"/>
	<path class="st50" d="M91.1,118.3c-3-0.4-5.6-1.7-8.4-2.6c-6.1-2-12.1-4.1-18.3-6.2c-1.1-0.4-2.1-0.8-2.9-1.5
		c-0.2-1.1,0.3-1.8,1.4-1.7c9.6,3.3,19.4,6.7,29,10C91.7,117,91.4,117.6,91.1,118.3z"/>
	<path class="st51" d="M89.3,122.9c-2.6,0.1-4.8-1.2-7.1-2c-7.3-2.4-14.5-5-21.7-7.5c-0.7-0.3-1.6-0.6-2.4-0.3
		c-0.5-0.8,0.1-1.4,0.5-2c0.3-0.3,0.6-0.7,1.2-0.6c4.5,1.7,9.2,3.3,13.7,4.9c5.1,1.8,10.2,3.5,15.3,5.3c0.5,0.2,0.9,0.1,1.3,0.2
		C90.1,121.8,89.5,122.3,89.3,122.9z"/>
	<path class="st52" d="M96.6,64.6c1.4-1.5,1-3.6,1.5-5.4c1.3-5.8,3.5-11.3,6.5-16.5c0.3-0.6,1.2-1.2-0.2-1.7c1.6-0.4,3-0.8,4.6-0.8
		c0.9,0.9,0.1,1.5-0.3,2.2c-3.7,5.6-6.2,11.6-7.6,18.1c-0.3,1.5-0.1,3-1.1,4.3c-0.3,0.2-0.5,0.3-0.8,0.4c-0.7,0.1-1.3,0.2-2.1,0.2
		C96.9,65.1,96.6,65,96.6,64.6z"/>
	<path class="st53" d="M199.3,77.9c0.3,1.6,1.2,2.7,2.6,3.7c2.1,1.4,4.1,3.1,6.1,4.7c0.6,0.4,1.1,1,1.7,0.2c0.7,2.8,1.1,5.6,1.2,8.5
		c-0.7,0.3-1.3,0-1.8-0.4c-2.7-2.1-5.5-4-8.1-6.2C200.5,84.9,200,81.4,199.3,77.9z"/>
	<path class="st54" d="M80.5,94.9c1.2,1.5,3,1.4,4.7,2c5.1,1.9,10.3,3.5,15.4,5.3c0.5,0.2,0.8,0.4,0.9,0.9c-0.4,0.8-1,1.4-1.7,1.8
		c-3.2-0.4-6-2-9.2-2.9c-4.1-1.3-8.2-2.7-12.2-4.1c-0.8-0.3-2-0.4-1.8-1.8C77.8,94.8,79,94.4,80.5,94.9z"/>
	<path class="st55" d="M71.8,98.5c8.1,2.8,16.1,5.5,24.2,8.3c0.6,0.2,1.3,0.3,1.9,0.2c-0.4,0.9-1,1.6-1.7,2.2
		c-3.4-0.4-6.5-1.9-9.7-2.9c-5.4-1.8-10.8-3.7-16.2-5.6c-0.5-0.2-1-0.2-1.5,0.1c-0.3-0.6,0.3-0.8,0.6-1.1
		C70.3,99.1,70.9,98.5,71.8,98.5z"/>
	<path class="st56" d="M194.7,175.5c-0.9,0.3-1.7,0.7-2.6,0.5c-3.8-2.5-7.2-5.5-10.8-8.1c-0.7-0.5-1.6-1-2.2-1.6
		c1.2-0.9,2.4-1.7,3.7-2.4c1-0.8,1.7,0,2.4,0.5c3.6,2.7,7.3,5.4,10.7,8.3c0.6,0.5,1.7,0.9,1.4,1.8c-0.2,0.7-1.3,0.6-2,0.9
		C195.1,175.5,194.9,175.5,194.7,175.5z"/>
	<path class="st57" d="M102.1,41.6c-2.2,0.2-3.2,1.9-3.9,3.8c-1.9,5-3.7,10-4.7,15.2c-0.3,1.4,0.4,3-1,4.1c-0.8,0.8-1.6,0.5-2.5,0.2
		c-0.7-1.5-0.2-3,0.1-4.6c0.9-4.7,2-9.4,4-13.8c0.3-0.5,0.5-1.1,0.5-1.6c-0.8-0.4-1.4,0.2-2,0.2c-0.3,0-0.5,0-0.8-0.2
		c0.7-1,1.9-0.8,2.9-1.4C97.2,43.1,99.4,41.7,102.1,41.6z"/>
	<path class="st31" d="M212.2,185.7c-1.5-1.2-3-1.7-4.6-0.1c-0.6,0.7-1.5,0.7-2.1,0.2c-3.6-2.9-7.5-5.5-10.9-8.6
		c0.9-0.5,1.7-1.1,2.8-1.4c1.1-0.9,1.9-0.3,2.7,0.3c2.5,1.9,5.1,3.8,7.6,5.8c0.9,0.7,1.6,1.4,2.7,0.6c0.3-0.2,0.8-0.5,1.2-0.4
		c0.1,0,0.3-0.1,0.4-0.1c1-0.4,1.8-0.4,2.3,0.8C213.4,183.6,213.2,184.9,212.2,185.7z"/>
	<path class="st58" d="M228.2,156.7c-0.4,1.6-1.1,3.2-1.7,4.7c-0.5,0.7-1,0.3-1.5,0c-3.4-2.3-6.6-5-9.8-7.5
		c-0.3-0.2-0.4-0.5-0.3-0.9c1.4-1.3,2.8-2.5,4-3.8C221.9,151.7,225.4,153.7,228.2,156.7z"/>
	<path class="st59" d="M187.3,180.3c2.2-1.3,3.9-0.3,5.7,1.1c2.7,2.3,5.7,4.3,8.5,6.6c0.7,0.6,1.5,0.9,2.2,0.4c2-1.2,3.6-0.2,5,1.2
		c-0.5,0.8-1.1,1.4-1.9,1.9c-1.1,1-2.1,0-3.1-0.1c-0.1-0.1-0.3-0.1-0.5-0.2c-0.5-0.3-1.1-0.4-1.7-0.3c-0.5,0.1-1,0-1.6,0
		c-1.8-0.4-2.9-1.8-4.4-2.8c-2.6-1.9-5-4-7.6-5.9c-0.5-0.3-1.2-0.8-1-1.7C187.1,180.3,187.2,180.2,187.3,180.3z"/>
	<path class="st60" d="M99.8,64.4c0.8-3,1.2-6.2,2.1-9.1c1.6-4.8,3.8-9.3,6.5-13.5c0.3-0.5,0.8-0.9,0.5-1.5c1.4-0.5,2.8-0.6,4.3-0.6
		c-1.9,1.9-3.4,4.2-4.7,6.5c-3.4,5.7-5.2,11.9-6.3,18.4c-0.1,0.3-0.4,0.4-0.7,0.5C100.9,65,100.2,65.3,99.8,64.4z"/>
	<path class="st20" d="M171.2,197.9c1.2-0.8,0-1.2-0.4-1.6c-4.8-3.8-9.7-7.4-14.5-11.1c-0.7-0.5-1.5-0.9-1.6-1.8
		c1.8,0.3,3.4,0.5,5.2,0.7c4.7,4.1,9.9,7.7,14.8,11.6c0.2,0.2,0.4,0.3,0.6,0.4c0.3,0.4,1.4,0.6,1,1.5c-0.3,0.7-1,0.3-1.6,0.3
		C173.6,197.9,172.4,198.4,171.2,197.9z"/>
	<path class="st60" d="M211.7,182.1c-0.3,0.2-0.7,0.5-1,0.8c-1.3-0.2-2.1-1.2-3.1-1.9c-2.7-2.2-5.5-4.2-8.4-6.2
		c-1.6-0.4-3,1.1-4.6,0.8c0.8-0.3,1.6-0.5,2.5-0.8c-0.6-1.2-1.6-1.6-2.3-2.2c-3.4-2.7-6.9-5.3-10.3-8c-0.5-0.3-0.9-0.9-1.7-0.6
		c0.9-0.7,1.8-1.3,2.7-2c7,5.4,14,10.9,21,16.2C208.2,179.4,210,180.8,211.7,182.1z"/>
	<path class="st42" d="M179,166.3c1.5-0.3,2.1,1,3.1,1.7c3,2.2,6,4.4,8.9,6.6c0.4,0.4,0.9,0.8,1.1,1.3c-2.1,0.5-4.2,0.7-6.4,0.4
		c-3.2-2.1-6.2-4.5-9.2-7c-0.4-0.3-0.8-0.7-0.9-1.2C176.6,167.4,177.8,166.8,179,166.3z"/>
	<path class="st61" d="M183.9,85.5c0.7-3.4,1.9-6.6,2.2-10.1c0.5-4.6-0.3-9.1-0.7-13.6c1.7,1.7,3.2,3.7,4,6.1
		c0.8,2.5,0.2,4.9,0.1,7.3c-0.1,1.8-0.5,3.7-0.7,5.5C187.6,82.7,185.9,84.3,183.9,85.5z"/>
	<path class="st62" d="M210.9,113c3.5,2.7,7.1,5.6,10.6,8.3c0.9,0.8,1.9,1.3,2.9,2c-0.1,1.2-0.4,2.4-0.7,3.5c-1.9-0.5-3.1-2-4.5-3.1
		c-3.4-2.6-6.9-5.1-10.1-7.9C210.2,115.1,210.1,113.8,210.9,113z"/>
	<path class="st63" d="M210.5,130.6c0.9-0.6,1.1-1.5,1.4-2.5c2.7,2.1,5.4,4.1,8,6.2c0.4,0.3,0.7,0.6,1.1,0.6c-0.4,1.7-1.1,3.3-2,4.8
		c-0.6,0.5-1.1,0.2-1.5-0.2c-2.4-1.8-4.9-3.6-7.2-5.4c-0.3-0.3-0.6-0.6-0.6-1.2C210,132.1,210.7,131.5,210.5,130.6z"/>
	<path class="st58" d="M203.1,143.7c0.9-1.4,1.8-2.7,2.8-4c0.3,0,0.5-0.1,0.8,0.1c2.9,2,5.7,4.1,8.3,6.4c0.2,0.2,0.3,0.4,0.2,0.7
		c-0.8,1.5-1.7,2.9-2.9,4.1c-0.3,0.2-0.6,0.1-0.9-0.1c-2.6-1.9-5.3-3.8-7.7-5.9C203.3,144.6,203,144.1,203.1,143.7z"/>
	<path class="st58" d="M191.7,135.2c0.8-1.6,1.7-3.3,2.5-4.9c1.6,0.5,2.8,1.8,4.1,2.9c1.9,1.5,3.8,2.9,5.7,4.2
		c-1.4,1.5-3.1,2.7-4.9,3.6c-0.1,0-0.2,0.2-0.2,0.2c-2.8-1.3-5.2-3.1-7.2-5.5C191.6,135.5,191.8,135.3,191.7,135.2z"/>
	<path class="st44" d="M201.3,99c0-2.1,0-4.1,0-6.2c1.1-0.4,1.8,0.4,2.6,1.1c2.4,1.7,4.5,3.8,7.2,5.2c0.1,2.1,0,4.2-0.4,6.2
		c-0.4,0.6-1,0.2-1.3-0.1C206.7,103.1,204,101.2,201.3,99z"/>
	<path class="st20" d="M164.1,197.4c2.2,0.5,4.5,0.3,6.7,0.6c0.4,0.9,1.2,1.1,2,1.3c5.2,1.8,10.3,3.5,15.5,5.2
		c0.4,0.2,0.6,0.3,0.9,0.8c-0.9,0.5-1.7,1.2-2.8,1.4c-2.6-1.8-5.6-2.4-8.5-3.3c-5.1-1.8-10.2-3.5-15.3-5.2c-0.5-0.2-0.8-0.4-1-0.8
		C162.6,197.4,163.3,197.4,164.1,197.4z"/>
	<path class="st36" d="M208.1,157.6c0.9-0.6,1.8-1.1,2.7-1.7c3.6,3.5,7.8,6.1,11.5,9.1c0.7,0.6,1.5,0.3,2.1,0.4
		c-0.1,0.8-0.4,1.4-0.9,2c-1.4,2.1-1.7,2.1-3.8,0.7c-3.7-2.7-7.4-5.6-11-8.4C208.2,159.3,207.2,158.8,208.1,157.6z"/>
	<path class="st21" d="M104.8,99.9c-4.1-1.9-8.5-3-12.6-4.5c-1.3-0.4-2.6-0.8-3.8-1.3c-0.5-0.2-0.9-0.4-0.5-1
		c0.1-0.3,0.3-0.5,0.6-0.6c0.9-0.4,2-0.4,3-0.5c1.2,0,2.3-0.3,3.5,0.2c2.6,1.5,5.4,2.1,8.3,3.1c1.1,0.4,2,0.7,3,1.1
		c0.6,0.2,1.3,0.4,1.1,1.3C106.5,98.7,105.6,99.4,104.8,99.9z"/>
	<path class="st51" d="M208.1,157.6c-0.3,0.7,0.2,1.2,0.8,1.6c3.7,2.8,7.4,5.6,11,8.4c1.5,1.2,2.6,1.5,3.8-0.1
		c-0.2,0.7-0.5,1.4-1,1.9c-0.2,0.1-0.5,0.1-0.6,0.2c-1.5,2.3-2.9,1.1-4.3,0c-3.7-3-7.5-5.8-11.3-8.7c-0.6-0.4-1.1-0.9-1.5-1.5
		c0.1-0.4,0.2-0.7,0.6-0.6C206.5,158.3,207.3,158,208.1,157.6z"/>
	<path class="st48" d="M200.1,190.4c0.5-0.1,1,0,1.5-0.1c0.6,0.2,1.2,0.4,1.8,0.7c0.8,0.2,1.4,0.6,2.1,0.8c0.6,0.1,0.4,0.5,0.1,0.8
		c-0.3,0.3-0.4,0.8-0.9,0.8c-1.4-0.4-2.7-0.8-4.1-1.3c-0.3-0.1-0.8-0.4-1.1-0.3c-3.7,1.1-6-1.5-8.5-3.3c-2.2-1.7-4.5-3.5-6.8-5.1
		c-0.6-0.4-1.1-0.9-1.5-1.5c0.9-0.3,2-0.7,2.9-1c2.9,1.8,5.4,4,8.2,6c1.4,1,2.9,2,4.1,3.2C198.8,190.5,199.5,190.9,200.1,190.4z"/>
	<path class="st64" d="M216.8,93.9c0.5-3.3,0.9-6.7,1.4-10.6c3,5.1,4.8,10.1,5.9,15.5c-0.4,0.6-0.9,0.4-1.3,0.1
		c-2.1-1.2-3.9-2.7-5.7-4.2C216.8,94.5,216.7,94.2,216.8,93.9z"/>
	<path class="st65" d="M204,137.4c-0.3,0-0.7,0-0.9-0.1c-3.1-2.1-6.1-4.4-8.9-6.9c0.5-1.2,1.1-2.6,1.6-3.8c2.1,0.7,3.5,2.3,5.2,3.6
		c2.1,1.4,4.2,2.8,5.8,4.7C205.9,135.8,205.1,136.7,204,137.4z"/>
	<path class="st53" d="M216.8,93.9c2.3,1.9,4.3,4.1,7.3,5c0.6,2.3,0.9,4.7,1.1,7c-0.6,0.3-1.1,0.1-1.6-0.3c-2.7-1.7-5-3.8-7.6-5.7
		c-0.2-0.2-0.3-0.4-0.3-0.6C216.1,97.4,216.4,95.6,216.8,93.9z"/>
	<path class="st66" d="M206.7,134.8c-3.8-2.5-7.4-5.3-11-8.3c0.4-1.2,0.9-2.4,1.2-3.7c0.5,1.1,1.5,1.5,2.4,2.2
		c2.7,2.2,5.5,4.2,8.2,6.3c0.4,0.4,0.9,0.6,1.5,0.8C208.5,133.1,207.7,133.9,206.7,134.8z"/>
	<path class="st65" d="M215.2,146.7c-3.1-2.3-6.2-4.8-9.3-7.1c0.7-1.3,1.6-2.5,2.3-3.8c3.2,2.3,6.4,4.5,9.1,7.3
		C216.8,144.4,216.1,145.7,215.2,146.7z"/>
	<path class="st67" d="M228.2,156.7c-3.2-2.3-6.8-4.3-9.3-7.5c1-0.9,1.8-2,2.7-2.9c2.8,1.9,5.7,3.7,8,6.2
		C229.3,153.9,228.8,155.3,228.2,156.7z"/>
	<path class="st68" d="M215.7,99.1c2.5,1.9,5,3.8,7.7,5.7c0.6,0.4,1.2,0.7,1.8,1c0.1,1.5,0.1,3,0.2,4.5c-0.3-0.1-0.9,0-1.1-0.2
		c-3.3-2.3-6.5-4.7-9.5-7.4C215.1,101.5,215.5,100.3,215.7,99.1z"/>
	<path class="st69" d="M107.2,97.8c-1.3-1.5-3.4-1.6-5.1-2.3c-2.1-0.8-4.2-1.5-6.3-2.1c-0.5-0.2-0.8-0.4-0.9-0.9
		c0.5-0.5,1-0.3,1.6-0.4c1.7,0.1,3.4-0.1,5.1-0.1c1.2,0.1,2.4,0.2,3.6,0.3c0.8,0.2,1.6,0.1,2.5,0.1c1.3,0.3,2.8,0.1,3.9,1
		c0.4,0.1,0.9,0.2,1.4,0.3C110.9,95.3,109,96.5,107.2,97.8z"/>
	<path class="st70" d="M224.6,165.5c-0.7,0.7-1.4,0.8-2.3,0c-3.5-2.7-7.1-5.5-10.6-8.2c-0.5-0.3-1.2-0.7-0.8-1.5
		c0.7-0.5,1.4-1,1.9-1.5c3,2.2,6,4.3,8.8,6.7c1.1,0.9,2.3,1.8,3.6,2.6C225.3,164.5,225.1,165.1,224.6,165.5z"/>
	<path class="st49" d="M200.8,105.7c0.1-1.5,0.3-3.2,0.5-4.7c1.5,0.4,2.5,1.5,3.7,2.4c1.8,1.3,3.5,2.7,5.4,4.1
		c0.2,1.5-0.3,2.9-0.7,4.3c-0.4,0.6-0.9,0.3-1.4,0c-2.5-1.8-5-3.5-7.3-5.6C200.8,106.1,200.8,105.9,200.8,105.7z"/>
	<path class="st68" d="M211.1,99c-1.3,0.4-1.9-0.6-2.8-1.2c-2.4-1.5-4.3-3.7-6.9-5c-0.1-1.5-0.2-2.9-0.3-4.3
		c2.7,0.9,4.5,3.1,6.9,4.7c1,0.6,1.8,1.6,3.1,1.9C211.1,96.3,211.1,97.6,211.1,99z"/>
	<path class="st71" d="M175.7,168.2c3.1,2.3,6.1,4.6,9.2,7c0.4,0.3,0.7,0.7,0.9,1.2c-2.5,0.2-4.9-0.1-7.2-0.8
		c-1.6-1.4-3.3-2.6-4.9-3.9c-0.6-0.5-1.5-0.9-1.1-2C173.5,169.1,174.5,168.6,175.7,168.2z"/>
	<path class="st72" d="M225.3,163.7c-0.6,0.2-1,0-1.5-0.3c-3.5-2.7-7-5.4-10.6-8.1c-0.3-0.1-0.3-0.5-0.5-0.8
		c0.7-0.5,1.3-1.1,1.9-1.5c3.5,2.7,7.1,5.5,10.6,8.2c0.3,0.2,0.7,0.3,1.1,0.2C226.3,162.2,225.7,163,225.3,163.7z"/>
	<path class="st66" d="M217.4,143.2c-3.1-1.8-5.7-4.4-8.7-6.5c-0.3-0.1-0.3-0.5-0.4-0.8c0.5-0.9,1-1.9,1.6-2.8c3,2.4,5.9,5,9.3,6.8
		C218.7,141,218.1,142.1,217.4,143.2z"/>
	<path class="st63" d="M223.9,143.7c1.2-1.5,2.3-2.9,3.5-4.3c1.7,0.6,2.7,2.4,4.6,2.7c-0.1,2.2-0.6,4.4-1.2,6.5
		c-0.4,0.6-0.9,0.3-1.4,0c-1.8-1.3-3.6-2.6-5.3-4.2C223.9,144.2,223.8,143.9,223.9,143.7z"/>
	<path class="st73" d="M200.8,105.7c2.4,1.7,4.8,3.6,7.1,5.3c0.5,0.3,0.9,1,1.6,0.7c-0.1,1.2-0.5,2.4-0.9,3.6c-0.1,0-0.3,0.1-0.4,0
		c-2.7-1.9-5.7-3.7-8-6.2C200.4,108,200.7,106.9,200.8,105.7z"/>
	<path class="st70" d="M211,152.5c-0.6,1.1-1.6,1.9-2.4,2.8c-3.2-1.8-5.8-4.3-8.7-6.4c-0.3-0.2-0.3-0.5-0.2-0.9
		c0.7-0.9,1.3-1.7,1.9-2.4c2.5,1.4,4.5,3.4,6.8,4.9C209.3,151.2,210.4,151.7,211,152.5z"/>
	<path class="st74" d="M199.7,148.2c2.3,1.8,4.6,3.6,6.8,5.4c0.7,0.6,1.7,0.9,2.1,1.8c-0.4,0.8-1,1.4-1.7,1.8
		c-0.6,0.4-1.1,0.2-1.5-0.2c-2.6-1.7-5-3.7-7.4-5.6c-0.3-0.2-0.4-0.5-0.2-0.9C198.3,149.7,199,148.9,199.7,148.2z"/>
	<path class="st75" d="M223.9,143.7c1.8,1.4,3.7,2.8,5.4,4.3c0.4,0.3,0.8,0.7,1.3,0.5c-0.4,1.4-0.7,2.7-1.1,4
		c-2.8-1.9-5.7-3.7-8-6.2C222.3,145.5,223.1,144.5,223.9,143.7z"/>
	<path class="st76" d="M195.9,142.9c-2,1.3-4.2,2.2-6.4,2.9c-0.9-0.6-2.1-1.1-2.5-2.4c1.1-1.7,2.1-3.4,3.2-5.2
		C192.5,139.3,194.6,140.7,195.9,142.9z"/>
	<path class="st51" d="M197.6,150.5c3.1,2.3,5.7,5.1,9.2,6.6c-0.2,0.7-1.1,0.8-1.2,1.5c-0.3,0.2-0.4,0.4-0.6,0.6
		c-3.5-1.7-6.3-4.3-9.2-6.9C196.4,151.9,197,151.2,197.6,150.5z"/>
	<path class="st77" d="M231.9,142c-0.3,0.2-0.6,0.7-1.2,0.3c-1.2-1-2.6-1.7-3.4-3c1.7-2.5,3.4-4.9,5-7.4
		C232.7,135.4,232.6,138.7,231.9,142z"/>
	<path class="st78" d="M211,152.5c-3.6-1.7-6.5-4.2-9.3-6.9c0.5-0.7,0.9-1.4,1.5-2c2.9,2.6,6.1,4.8,9.2,7.2
		C212.2,151.5,211.6,152,211,152.5z"/>
	<path class="st79" d="M195.9,142.9c-1.9-1.6-3.8-3.2-5.7-4.8c0.5-1,1-1.9,1.5-2.9c2.1,2.3,4.8,4,7.3,5.8
		C198.2,141.8,197.2,142.5,195.9,142.9z"/>
	<path class="st80" d="M172.6,169.8c0.9,1.8,2.8,2.5,4.2,3.8c0.6,0.6,1.7,1,1.9,2.1c-3.9-0.5-7.3-1.9-11.2-3.8
		C169.3,171.1,170.9,170.4,172.6,169.8z"/>
	<path class="st81" d="M210.4,107.5c-0.4,0.1-0.7,0-1.1-0.2c-2.7-2.1-5.3-4.2-8-6.2c-0.1-0.7-0.1-1.3,0.2-2.1c2.9,1.1,5,3.5,7.4,5.2
		c0.6,0.4,1,1.1,1.9,1C210.8,106.1,210.6,106.8,210.4,107.5z"/>
	<path class="st82" d="M199.4,174.7c0.5-0.1,0.9-0.1,1.2,0.2c3.4,2.6,6.9,5.1,10.1,7.9c-1,1.3-1.9,0.5-2.8-0.1
		c-2.8-2-5.5-4.2-8.2-6.3c-0.7-0.6-1.4-0.9-2.3-0.5C197.9,175.2,198.6,175,199.4,174.7z"/>
	<path class="st83" d="M188.9,80.7c-0.8-2.4,0.5-4.7,0.4-7c0-2,0.2-4,0.3-5.9C191.6,72.2,191.7,76.5,188.9,80.7z"/>
	<path class="st84" d="M200.1,190.4c-0.7,0.9-1.1,0.9-1.9,0.3c-3.8-3-7.6-5.9-11.5-8.9c-0.3-0.3-0.5-0.7-0.9-1
		c0.4-0.1,0.8-0.3,1.1-0.4c0.4,1,1.4,1.4,2.2,2c3.1,2.3,6.1,4.7,9.2,7.1C199,189.9,199.5,190.3,200.1,190.4z"/>
	<path class="st85" d="M187,143.3c0.8,0.8,2.1,1.2,2.5,2.4c-1.6,0.6-3.1,1-5,1.2C185.2,145.5,186.2,144.4,187,143.3z"/>
	<path class="st82" d="M214.4,182.7c-0.6-0.6-1.5-0.7-2.3-0.8c1.7-2.2,2-2.3,3.7-1.1C215.3,181.5,214.9,182.1,214.4,182.7z"/>
	<path class="st84" d="M205.8,192.5c-0.2-1.3-1.7-0.8-2.2-1.7c1.2-0.3,2.2,1,3.4,0.5C206.7,191.9,206.4,192.3,205.8,192.5z"/>
	<path class="st86" d="M57.7,179.9c0-0.3,0-0.5,0-0.9c0.8,0.5,0.8,1.4,1.1,2.2C58.5,180.8,58,180.3,57.7,179.9z"/>
	<path class="st38" d="M117,170.5c0.8,0.5,0.7,1.5,1,2.1C117.4,172.1,117.2,171.3,117,170.5z"/>
	<path class="st14" d="M93,158.9c-0.7-0.5-0.7-1.5-1-2.2C92.5,157.2,92.7,158,93,158.9z"/>
	<path class="st47" d="M69.9,99.9c-0.4,0.1-0.9,0.2-1,0.8c-1,0.8-1.9,1.5-2.9,2.2c-1.1-0.6-1.5-1.7-1.9-2.9
		c-1.8-6.9-3.5-13.8-4.1-21c-0.3-3.5-0.2-6.9-0.5-10.4c1.4-1.9,3-3.7,4.8-5.3c1.4,0,1.2,1.1,1.2,1.9c0,2.5-0.1,5-0.1,7.5
		c0.1,7.4,1.2,14.8,3.3,21.9C69.2,96.5,69.9,98.2,69.9,99.9z"/>
	<path class="st21" d="M59.6,68.7c0.8,0.3,0.7,0.9,0.6,1.6c0,7.3,0.7,14.4,2.4,21.4c0.9,3.8,1.6,7.6,3.4,11.1
		c-0.1,0.1-0.2,0.4-0.3,0.5c-0.8,0.7-1.7,1.4-2.6,2.1c-1.2-0.4-1.4-1.4-1.8-2.3C59.2,97.3,58,91.2,57,85c-0.5-3.8-0.9-7.7-1.3-11.5
		C56.8,71.7,58.2,70.2,59.6,68.7z"/>
	<path class="st66" d="M69.9,99.9c-1.9-2.5-1.9-5.7-2.7-8.6c-1.3-4.8-2-9.9-2.2-15c-0.2-3.7-0.2-7.4,0-11.2c0.1-0.8,0.3-1.5-0.7-1.8
		c1.3-1.7,2.9-3.2,4.7-4.4c0.9,0.5,0.6,1.5,0.5,2.2c-0.3,3.7-0.7,7.4-0.3,11.2c0,0.5-0.4,1.2-0.6,1.6c-1.3,2.3-1.6,4.7-0.2,7.1
		c0.2,0.3,0.4,0.8,0.1,1.3c-0.5,2.5,0.3,5,0.9,7.4c0.8,2.9,1.1,5.9,2.3,8.7C71.3,99,70.6,99.5,69.9,99.9z"/>
	<path class="st87" d="M53.8,121.6c-0.2,0.3-0.3,0.6-0.5,0.9c-1.1-0.1-1.5-0.9-1.9-1.7c-2.6-5.7-5.3-11.3-6.7-17.5
		c-0.3-1.7-1.2-3.2-1.3-4.8c0.6-2.4,1.4-4.8,2.5-7c1.6,0.1,1.5,1.5,1.8,2.6c1,3.9,1.8,7.7,3.1,11.5c1.2,3.5,2.6,6.8,4.1,10.2
		c0.3,0.5,0.5,1.1,0.4,1.6c0,0.2-0.1,0.6-0.2,0.8C54.7,119.4,54.3,120.5,53.8,121.6z"/>
	<path class="st49" d="M58.7,111.5c-0.2,0.6-0.4,1.2-0.7,1.8c-0.4,0.6-1,1.2-1.4,1.7c-0.8-0.1-1.1-0.6-1.4-1.2
		c-2.3-5-4-10.3-5.4-15.7c-0.8-3.4-1.6-7-2.3-10.4c0.8-1.8,1.6-3.7,2.8-5.3c1.5,0.1,1.3,1.4,1.5,2.2c0.7,3.6,1.3,7.1,2,10.6
		c1.1,4.9,2.9,9.5,4.4,14.2C58.4,110.1,58.9,110.7,58.7,111.5z"/>
	<path class="st33" d="M55.8,73.5c0.7,0.2,0.8,0.8,0.9,1.4c0.1,5.7,0.9,11.2,2.1,16.7c1,4.7,1.9,9.6,4.4,13.8c0,0.3-0.1,0.6-0.1,0.9
		c-0.7,0.3-1.1,1.1-1.4,1.7c-0.3,0.2-0.4,0.3-0.6,0.6c-0.9-0.4-1.3-1-1.5-1.8c-3.4-9.4-5.6-19.1-6.2-29.1
		C53.8,76.2,54.6,74.8,55.8,73.5z"/>
	<path class="st88" d="M53.2,77.7c1.2,2,0.7,4.5,1.2,6.6c0.7,3.7,1.3,7.4,2.2,11.1c0.7,2.7,1.5,5.4,2.3,8.1c0.6,1.8,1.1,3.5,2.1,5.1
		c-0.4,0.7-1.2,1.2-1.3,2.1c-0.3,0.2-0.7,0.5-0.9,0.7c-0.6-0.9-1-1.9-1.4-2.9c-2.9-8-5.2-16.1-6.1-24.5c-0.1-0.6-0.1-1.3-0.8-1.6
		C51.1,80.8,51.8,79.1,53.2,77.7z"/>
	<path class="st89" d="M43.4,98.6c1.3,1.6,1.8,3.4,2,5.3c0.6,4.1,2.9,7.6,4,11.5c0.5,1.7,1.6,3.2,2.2,4.8c0.4,0.9,0.9,1.7,1.6,2.3
		c-0.2,0.6-0.3,1.3-0.5,1.9s-0.4,1.2-0.6,1.9c-0.1,0.1-0.2,0.3-0.3,0.4c-1.5-0.4-1.7-1.6-2.3-2.7c-3.1-6-5.5-12.4-7.6-18.9
		c-0.1-0.3-0.2-0.5-0.3-0.7C42.1,102.4,42.6,100.4,43.4,98.6z"/>
	<path class="st90" d="M41.7,104.4c1,0.2,1.1,1.2,1.4,1.9c2,6.7,4.8,13.2,8.1,19.4c0.2,0.3,0.4,0.6,0.6,1c-0.6,0.8-0.3,1.9-0.7,2.7
		c-0.2,0.4-0.3,0.6-0.5,1c-1.2,0.3-1.5-0.6-1.9-1.3c-2.7-4.9-5.1-10-7.1-15.2c-0.4-1-0.9-2-1.3-3C40.7,108.7,41,106.5,41.7,104.4z"
		/>
	<path class="st91" d="M40.4,110.8c0.7,0.3,1.1,0.8,1.3,1.5c1.9,5.9,4.9,11.2,7.5,16.8c0.3,0.6,0.7,1.1,1.3,1.4
		c-0.3,1.1-0.4,2.2-0.6,3.5c-0.1,0.3-0.3,0.6-0.4,0.9c-2.6-2.7-3.8-6.2-5.5-9.3c-1.2-2.3-2.4-4.7-3.2-7.2c-0.2-0.7-0.7-1.1-1.3-1.4
		C39.7,114.9,39.8,112.8,40.4,110.8z"/>
	<path class="st92" d="M47.6,87.7c1.7,1.6,1.3,3.8,1.8,5.7c1.5,6,2.9,12.1,5.5,17.8c0.6,1.3,0.6,2.8,1.7,3.9c0,0.1,0.1,0.2,0.1,0.4
		c-0.4,0.7-0.9,1.5-1.3,2.1c-2-1.8-2.3-4.4-3.3-6.7c-1.6-3.6-2.6-7.3-3.7-11.1c-0.8-2.7-0.6-5.7-2.5-8.1
		C46.4,90.2,46.7,88.9,47.6,87.7z"/>
	<path class="st55" d="M69,72.4c-0.9-2.8-0.1-5.5-0.1-8.4c0-1.7,0.6-3.4,0.2-5.1c1.2-1.4,2.7-2.5,4.2-3.4c1,0.5,1.1,0.5,1,1.7
		c-0.3,2.1-0.5,4.2-0.7,6.4c-0.2,1.5-0.3,3-0.2,4.6C72.2,69.9,71.1,71.7,69,72.4z"/>
	<path class="st36" d="M85,48.1c0.9-0.9,2.1-1,3.2-1.5c1.2-0.2,1.4,0,1,1.2c-0.5,2.1-1.3,4-1.8,6.1c-0.7,3.2-1.6,6.3-1.8,9.6
		c0,0.5-0.1,1-0.5,1.4c-1.4,0.7-2.7,0.9-4,0.2c1-3.8,1.1-7.7,2.2-11.5C83.9,51.7,84.3,49.8,85,48.1z"/>
	<path class="st93" d="M73,68.4c-0.7-2.8,0.3-5.6,0.3-8.3c0-1,0.3-2,0.4-3c0-0.5,0.3-1.1-0.5-1.4c1.3-1.3,2.6-2.3,4.3-3
		c1.3-0.2,1.5,0,1.2,1.5c-0.5,2.8-1.1,5.5-1.3,8.3c-0.1,1-0.1,2-0.1,3.1C76.1,66.8,74.9,68.1,73,68.4z"/>
	<path class="st51" d="M85.3,64.8c0-5.5,1.6-10.5,3.1-15.7c0.2-0.7,0.5-1.3,0.6-2c0.1-0.6-0.4-0.5-0.8-0.5c0.9-1,2.4-1,3.6-1.6
		c0.3-0.1,0.5-0.2,0.8-0.3c0.7,0.5,0.4,1.1,0.2,1.7c-2.1,5.3-3.5,11-4.3,16.7c-0.1,0.7-0.2,1.3-0.7,1.7C86.8,65.4,86,65.7,85.3,64.8
		z"/>
	<path class="st50" d="M85,48.1c0.2,2.2-0.9,4.2-1.3,6.2c-0.6,3-1.2,6.1-1.5,9c-0.1,0.8-0.2,1.2-1,1.4c-0.9,0.9-1.8,0.9-2.8,0.4
		c1-4.1,1.2-8.4,2.3-12.5c0.2-0.9,0.4-1.9,0.9-2.7C82.6,49,84,48.8,85,48.1z"/>
	<path class="st94" d="M81.6,49.9c0.2,2.1-0.7,3.9-1,5.8c-0.5,2.4-0.8,4.8-1.1,7.2c0,0.9-0.2,1.5-1.1,1.8c-0.3,0.4-0.7,0.5-1.2,0.3
		c-0.8-0.5-0.4-1.2-0.4-1.9c0.2-3.2,0.8-6.5,1.5-9.7c0.2-0.8,0.2-1.3-0.8-1.2C78.6,51.4,80.2,50.7,81.6,49.9z"/>
	<path class="st31" d="M111.5,93.6c-1.3-0.2-2.6-0.4-3.9-0.7c-2.3-2.9-3.2-6.4-4.1-9.9c-0.3-0.9-0.4-1.8-1.1-2.4
		c-0.3-0.2-0.4-0.5-0.2-0.8c1.3-0.8,2.1-2,2.1-3.4c0.3-0.8,0.1-1.7,0.8-2.3c0.9,0.4,0.9,1.3,1,2c0.6,5.7,2.1,11,4.9,16.1
		C111.3,92.5,111.3,93,111.5,93.6z"/>
	<path class="st95" d="M105.1,74.1c-0.2,0.7,0,1.5-0.5,2.2c-0.9-0.5-1.1-1.4-1.1-2.4c-0.1-3.1-0.3-6.3-0.3-9.5
		c0.9,0,1.9-0.1,2.8-0.1C106.3,67.7,105.4,70.9,105.1,74.1z"/>
	<path class="st10" d="M142.6,49.8c11.1-3.9,23.6,2.6,27.3,14.2c3.7,11.5-2.3,24.8-14.4,28.4c-11.6,3.4-23-2.7-26.7-14.2
		C124.7,66.4,130.7,54,142.6,49.8z"/>
	<path class="st96" d="M90.1,64.7c0.9,0,1.7,0,2.4,0c0.3,0.2,0.6,0.2,0.9,0.1c0.7,0.5,0.5,1.3,0.6,1.9c0.2,4.7,0.3,9.4,0.6,14.1
		c0,1,0.1,2.1-0.7,2.9C92.8,84.6,91.5,85,90,85c-0.9-0.4-0.8-1.1-0.8-1.8c-0.2-5.3-0.4-10.7-0.6-16c-0.1-0.8-0.2-1.7,0.5-2.4
		C89.5,64.6,89.8,64.5,90.1,64.7z"/>
	<path class="st97" d="M93.9,83.5c0.5-4.3-0.3-8.5-0.2-12.9c0-1.9-0.1-3.9-0.2-5.7c0.9-0.3,1.6-0.3,2.4,0c0.4,0.2,0.5,0.6,0.5,1
		c0.2,5.4,0.5,10.8,0.5,16.2c-0.2,0.5-0.6,0.8-1,1.1c-0.5,0.4-1.1,0.6-1.7,0.5C94.1,83.5,94,83.5,93.9,83.5z"/>
	<path class="st98" d="M96.7,82.2c-0.6-5.8-0.4-11.5-0.8-17.3c0.3-0.1,0.5-0.2,0.8-0.3c0.1,0.1,0.4,0.2,0.5,0.3
		c0.5,0.3,0.6,1,0.7,1.5c0.1,4.6,0.4,9.2,0.5,13.9c0,0.6,0,1.2-0.4,1.7C97.5,82.2,97.2,82.3,96.7,82.2z"/>
	<path class="st99" d="M103.1,64.6c1,1.2,0.4,2.8,0.7,4.2c0.4,2.5-0.3,5.2,0.8,7.5c0.1,1.6,0,3.2-2.1,3.5c-0.6-0.3-0.7-0.9-0.7-1.5
		c-0.2-4.4-0.5-8.7-0.5-12.9c0-0.2,0.1-0.4,0.2-0.7c0.3-0.1,0.5-0.2,0.8-0.3C102.5,64.6,102.8,64.6,103.1,64.6z"/>
	<path class="st0" d="M77.2,65.3c0.4-0.1,0.8-0.3,1.2-0.3c0.9,0.2,1.8,0.1,2.8-0.1c1.4,0.4,2.8,0,4.1-0.1c0.8,0.3,1.6,0.2,2.4,0
		c0.2,0.2,0.3,0.3,0.4,0.5c0.5,6.4,0.5,12.7,0.8,19.1c0.1,0.5,0,1-0.3,1.5c-0.5,0.6-1.3,0.9-2,1.1c-0.2,0.1-0.4,0.1-0.6,0.2
		c-1.1,0.4-2.3,0.7-3.2,1.4c-1.6,0.7-3.3,1.3-4.9,1.6c-1.7,0-2.7-1.3-3.9-2.1c-1.3-1-2.3-2-3.2-3.3c-0.7-0.7-1.4-1.6-1.9-2.3
		c-2.4-3.4-1.9-6.7,0.4-9.9c1.3-1.4,2.7-2.8,3.9-4C74.4,67.3,75.9,66.3,77.2,65.3z"/>
	<path class="st22" d="M74,87.7c1.1,0.7,2.1,1.4,3.1,2.1c2.4-0.4,2.4-0.4,3.3,2.1c0.3,0.9,1.1,1.5,1.4,2.5c-0.5,0.2-0.9,0.3-1.4,0.5
		c-1.2,0.4-2.5,0.8-3.7,1.2c-0.3,0.1-0.5,0.2-0.8,0.3C74.2,94.3,73,89.6,74,87.7z"/>
	<path class="st55" d="M74,87.7c-0.2,3.1,1.4,5.8,2.1,8.7c-0.4,0.3-0.9,0.5-1.3,0.8c-0.8,0.5-1.6,0.4-1.9-0.5
		c-0.9-3.4-1.7-6.8-2.4-10.3c-0.2-0.5,0.1-1,0.1-1.5C71.9,85.5,72.9,86.6,74,87.7z"/>
	<path class="st100" d="M82,94.4c-1.5,0-1.6-1.1-2-2.2c-0.4-1.6-0.9-2.8-2.9-2.3c1.8-0.6,3.7-1.2,5.5-1.8c0.2-0.2,0.3-0.2,0.6-0.1
		c0.8,1.7,1.5,3.6,1.2,5.6C83.7,93.8,82.8,94.1,82,94.4z"/>
	<path class="st101" d="M84.5,93.5c-0.7-1.8-1.2-3.7-1.4-5.6c0.8-0.8,2-0.6,2.8-1.4c0.1,0,0.3-0.1,0.4-0.1c1.7,1.9,2,4.2,2.2,6.6
		c-0.3,0.1-0.5,0.2-0.8,0.3C86.7,92.9,85.6,93.6,84.5,93.5z"/>
	<path class="st102" d="M101.5,64.6c0.6,3,0.3,5.9,0.5,8.9c0.2,2.1,0,4.2,0.4,6.3c-0.1,0.1-0.2,0.4-0.3,0.5
		c-0.1,0.3-0.3,0.5-0.6,0.6c-0.6,0.3-1.2,0.5-1.9,0.3c-0.5-0.5-0.4-1-0.5-1.6c-0.2-4.5-0.3-9-0.5-13.4c0-0.6,0-1.2,0.4-1.6
		c0.3-0.1,0.5-0.2,0.8-0.3C100.4,64.5,101,64.5,101.5,64.6z"/>
	<path class="st103" d="M99.1,64.6c0.1,5.5,0.4,11,0.5,16.6c-0.4,0.8-1,1-1.8,0.6c-0.2-5.6-0.4-11.2-0.6-17
		C97.7,64.6,98.4,64.4,99.1,64.6z"/>
	<path class="st37" d="M87.8,65.1c0-0.1-0.1-0.2-0.1-0.4c0.8-6.6,2.2-12.9,4.8-19.1c0.1-0.3,0-0.6,0-0.9c0.9-0.2,2-1.2,2.6-0.7
		c0.9,0.7-0.3,1.8-0.6,2.5c-1.8,4.4-3,8.9-3.9,13.4c-0.3,1.6-0.3,3-0.6,4.6c-0.3,0.1-0.5,0.2-0.8,0.3C88.9,64.8,88.3,65.5,87.8,65.1
		z"/>
	<path class="st84" d="M203.6,190.9c-0.8,0.3-1.3-0.1-1.8-0.7C202.5,190,203.1,190.3,203.6,190.9z"/>
	<path class="st25" d="M89.9,84.8c1.3-0.4,2.7-0.9,4.1-1.3v0.1c0.2,0.2,0.4,0.2,0.4,0.4c1.3,2.7,2,5.5,2.1,8.6
		c-0.6,0.2-1.1,0.3-1.5,0.1c-1.1-0.1-2.2-0.1-3.3-0.2c-1.8-1.9-2-4.5-2.5-6.9C89,85,89.2,84.6,89.9,84.8z"/>
	<path class="st51" d="M89.2,85.5c0.8,2.4,1.5,4.7,2.3,7c-1,0.2-2.1,0.4-3.1,0.6c-0.7-2.2-1.4-4.4-2.2-6.6c0.8-0.3,1.5-0.6,2.2-0.8
		C88.7,85.3,88.9,85.3,89.2,85.5z"/>
	<path class="st104" d="M96.4,92.5c-1.3-2.8-1.4-6.1-2.5-9c0.6-0.2,1.2-0.4,1.8-0.6c0.1-0.1,0.2-0.2,0.2-0.3c2.9-1.2,3-1.2,4.1,1.8
		c0.7,1.8,1.3,3.6,1.8,5.4c0.3,0.9,0.6,1.7-0.2,2.5C99.9,92.6,98.2,92.8,96.4,92.5z"/>
	<path class="st105" d="M101.7,92.4c-0.2-3.5-2-6.6-2.9-9.9c-0.2-0.5-0.6-0.3-1-0.2c-0.7,0.2-1.3,0.4-2,0.7c0.2-0.5,0.5-0.6,1-0.8
		c0.4-0.1,0.8-0.3,1.1-0.4c0.6-0.2,1.2-0.4,1.8-0.6s1.2-0.4,1.8-0.6c0.9,1,0.9,2.2,1.3,3.4c0.8,2.2,1.4,4.3,2.1,6.5
		c0.3,0.8,0.6,1.6,0.2,2.5C104,92.5,102.8,92.9,101.7,92.4z"/>
	<path class="st106" d="M105.1,92.7c-1-3-2-6.1-3-9.1c-0.3-1-0.6-2.1-0.6-3.2c0.3-0.1,0.5-0.2,0.8-0.3c0.8-0.4,1.4,0,1.5,0.9
		c0.5,4.1,2.5,7.8,3.9,11.7C106.7,92.8,105.9,92.8,105.1,92.7z"/>
	<path class="st20" d="M131.2,65.8c-0.6-0.5-0.3-1.1-0.1-1.5c4.7-12.7,18.7-16.8,28.9-9.7c10,6.9,11.3,20.2,4.3,29.1
		c-8.4,10.9-25,9.4-31.8-2.6c-2.2-3.9-3-8-2.6-12.3c0.1-0.7-0.1-1.5,0.8-1.6c0.1,0.1,0.3,0.2,0.3,0.3c0.1,0.7,0.2,1.3,0.8,1.8
		c0.5,0.6,1.1,1,1.1,1.8c0.1,10.9,10.3,19,20.8,16.1c8.2-2.2,13.6-12.1,11.2-20.4c-2.4-8.6-9.8-13.4-18.5-12.1
		c-4.4,0.6-7.7,3.2-10.2,6.6c-0.4,0.6-0.8,1.2-1.1,1.8C133.6,63.9,132.3,64.8,131.2,65.8z"/>
	<path class="st107" d="M131.2,65.8c0.5-1.9,2.1-2.4,3.7-2.9c1.4-0.6,2.5,0,3.6,0.8c2.6,2.5,1.7,6.7-2.1,8.2c-1.2,0.1-2.5,0.2-3.4-1
		c-0.5-0.6-0.9-1.1-1.4-1.6c-0.3-0.5-0.6-1.2-0.6-1.8c0-0.1-0.1-0.3,0-0.4C131,66.7,131,66.3,131.2,65.8z"/>
	<path class="st38" d="M89.2,85.5c-0.3,0.1-0.5,0.2-0.8,0.2c-0.2-5.7-0.5-11.4-0.7-17.1c-0.1-1.1-0.4-2.3,0-3.4
		c0.5-0.1,1-0.4,1.5-0.1c-0.4,4.2,0.2,8.6,0.2,12.8c0,2.3,0.2,4.7,0.2,7.1C89.5,84.9,89.3,85.1,89.2,85.5z"/>
	<path class="st51" d="M85.9,86.5c-0.7,1-1.9,0.8-2.8,1.4c-0.1,0-0.3,0.1-0.4,0.1C83.5,87,84.8,87,85.9,86.5z"/>
	<path class="st3" d="M138.1,64c-0.9-0.9-2.1-0.8-3.3-1c1-3.3,3.6-5.3,6.4-6.8c5.7-3.2,11.4-3,16.8,0.5c5.6,3.6,8.3,8.9,7.9,15.7
		c-0.4,7.6-5.3,13.4-11.8,15.4c-8.4,2.4-17.7-2.2-20.3-10.4c-0.7-2-1.9-4-0.9-6.3c1,0.3,2.1,0.8,3.1,0.5c0.8,0.5,0.9,1.2,1.1,2
		c1.3,6.7,7.6,11.2,14.3,10.2c6-0.8,11-7.4,10.2-14c-1.2-9.5-9.9-13.3-16.4-10.9c-2.1,0.8-3.8,2.1-5.3,3.7
		C139.4,63.2,139,64,138.1,64z"/>
	<path class="st10" d="M130.9,67.6c0.2,0.6,0.4,1.2,0.6,1.8C131,68.9,130.7,68.3,130.9,67.6z"/>
	<path class="st1" d="M138.1,64c2-2.5,4.3-4.8,7.6-5.8c6.2-1.9,13.5,1.7,15.6,7.9c2.1,6.3,0.7,11.4-3.9,15.3
		c-6.2,5.4-15.4,2.9-19.2-3.7c-1.2-2-1.3-4.3-2.1-6.4C139.9,69.7,140.5,67.3,138.1,64z"/>
	<path class="st4" d="M144.2,72.8c-0.9-2.8,0.7-6.1,3.5-7c2.7-0.9,6,0.9,6.9,3.5c0.9,2.8-0.9,6.4-3.6,7.3
		C148.3,77.3,145.1,75.5,144.2,72.8z"/>
	<path class="st108" d="M150,73.5c-1.4,0.5-2.5,0.1-3.1-1.4c-0.6-1.6,0.1-3,1.7-3.5c1.3-0.4,2.9,0.3,3.3,1.5
		C152.3,71.4,151.3,73.1,150,73.5z"/>
</g>
</svg>
