<?xml version="1.0" encoding="utf-8"?>
<!-- Generator: Adobe Illustrator 21.1.0, SVG Export Plug-In . SVG Version: 6.00 Build 0)  -->
<svg version="1.1" id="Layer_1" xmlns="http://www.w3.org/2000/svg" xmlns:xlink="http://www.w3.org/1999/xlink" x="0px" y="0px"
	 viewBox="0 0 206.4 206.4" style="enable-background:new 0 0 206.4 206.4;" xml:space="preserve">
<style type="text/css">
	.st0{fill:#DD0031;}
	.st1{fill:#C3002F;}
	.st2{fill:#FFFFFF;}
</style>
<g>
	<polygon class="st0" points="102.2,0 102.2,0 102.2,0 0.2,36.4 15.8,171.1 102.2,219 102.2,219 102.2,219 188.6,171.1 204.1,36.4 	
		"/>
	<polygon class="st1" points="102.2,0 102.2,24.3 102.2,24.2 102.2,135.1 102.2,135.1 102.2,219 102.2,219 188.6,171.1 204.1,36.4 	
		"/>
	<path class="st2" d="M102.2,24.2L38.4,167.1l0,0h23.8l0,0l12.8-32h54.1l12.8,32l0,0h23.8l0,0L102.2,24.2L102.2,24.2L102.2,24.2
		L102.2,24.2L102.2,24.2z M120.8,115.4H83.5l18.6-44.8L120.8,115.4z"/>
</g>
</svg>
