<?xml version="1.0" encoding="utf-8"?>
<!-- Generator: Adobe Illustrator 21.1.0, SVG Export Plug-In . SVG Version: 6.00 Build 0)  -->
<svg version="1.1" id="Layer_1" xmlns="http://www.w3.org/2000/svg" xmlns:xlink="http://www.w3.org/1999/xlink" x="0px" y="0px"
	 viewBox="0 0 206.4 206.4" style="enable-background:new 0 0 206.4 206.4;" xml:space="preserve">
<style type="text/css">
	.st0{fill:#2D3E53;}
	.st1{fill:#2E3E52;}
	.st2{fill:#97CBDC;}
	.st3{fill:#6DC2DD;}
	.st4{fill:#96CADC;}
	.st5{opacity:0.5;fill:#BCD4DB;enable-background:new    ;}
	.st6{fill:#F5283F;}
	.st7{fill:#96CADB;}
	.st8{fill:#6EBFDA;}
	.st9{fill:#ED2940;}
</style>
<g id="_x37_l3eZF.tif">
	<g>
		<path class="st0" d="M65.4,127.2c0-1.7-0.3-3.7-0.3-5.4c0-38.2,0-76.5,0-114.7c0-4.7,1.4-6.4,6.1-6.1c7.4,0.3,14.5,0.3,22,0
			c4.1-0.3,6.4,1.4,8.5,4.7c8.8,13.2,17.9,26.4,26.7,39.6c2.4,3.7,3.4,3.4,5.8,0C142.9,32.2,152,19,160.5,5.8c2-3.4,4.4-4.7,8.5-4.4
			c7.8,0.3,15.6,0,23.3,0c2.7,0,4.7,0.3,4.7,3.7c0,39.9,0,80.2,0,120.1c0,0.7-0.7,1.4-0.7,2.4c-12.9,0-26.1,0-38.9,0l-0.3-0.3
			c0-14.2,0-28.4,0-42.3c-8.5,9.8-15.2,19.6-22,29.8c-2.7,4.4-4.4,5.1-7.8,0c-6.8-10.5-13.9-20.3-21.3-31.1c-0.3,1.4-0.7,2-0.7,2.7
			c0,9.5,0,18.6,0,28.1c0,4.4-0.3,8.8-0.3,13.2C91.8,127.2,78.6,127.2,65.4,127.2z M171.3,27.4c0.3,0,0.7,0.3,1.4,0.3
			c0,2,0,4.1,0,6.1c0,24.4,0,48.7,0,73.1c0,1.7-1,4.4,2.4,4.7c2.7,0.3,2.7-2,2.7-3.7c0-29.1,0-58.5,0-87.6c0-1.4,0.3-3-1.7-3.4
			c-1.4-0.3-3-0.3-4.1,1c-1,1.4-2,2.7-2.7,4.1c-11.8,17.3-23.3,34.5-34.8,51.8c-2.7,4.1-4.1,4.1-6.8,0c-11.8-17.9-24-35.5-36.2-53.1
			c-1.4-2-2.7-4.4-5.8-3.4S84,21,84,23c0,27.7,0,55.1,0,82.9c0,1.4,0,2.4,0,3.7c0,1.4,0.7,2.4,2,2.4c1.7,0,2.7-1,2.7-2.7
			c0-1.7,0-3.4,0-4.7c0-23.3,0-47,0-70.4c0-2,0.3-3.7,0.3-7.1c13.2,19.3,25.7,37.2,37.9,55.1c3,4.4,4.4,4.4,7.4,0
			C146.6,63.6,159.1,45.7,171.3,27.4z"/>
		<path class="st1" d="M10.2,127.2c-0.3-1.7-0.7-3.7-0.7-5.4c0-38.2,0-76.5,0-114.7c0-5.1,1.4-6.1,6.1-6.1c10.8,0.3,21.7,0,32.5,0
			c2.4,0,4.4,0.3,4.4,3.4c-0.3,40.9-0.3,81.9-0.3,122.5C38,127.2,24.1,127.2,10.2,127.2z M28.9,64.3c0,14.2,0,28.4,0,43
			c0,1.7-1,4.7,2,4.7c3.7,0.3,2.7-2.7,2.7-4.7c0-28.4,0-56.5,0-84.9c0-2,1-5.1-2.4-5.1c-3.7,0-2.4,3.4-2.4,5.1
			C28.9,36.2,28.9,50.1,28.9,64.3z"/>
		<path class="st2" d="M10.6,189.8c-2.4-10.5-1-21.3-0.7-32.1c14.2,0,28.1,0,42.3,0c0,10.5,0,21.3,0,31.8
			C38.3,189.8,24.5,189.8,10.6,189.8z"/>
		<path class="st3" d="M52.2,158c-14.2,0-28.1,0-42.3,0c-0.3-10.1-0.7-20.3,0.3-30.4c13.9,0,27.7,0,42,0
			C52.2,137.4,52.2,147.5,52.2,158z"/>
		<path class="st4" d="M64.7,189.8c0-10.5,0-21.3,0.3-31.8c13.2,0,26.7,0,39.9,0c0,6.1,0,12.5,0.3,18.6c0,4.4,0,8.8-0.3,13.2
			C91.8,189.8,78.2,189.8,64.7,189.8z"/>
		<path class="st4" d="M196,158c0,10.5,0,21.3,0,31.8c-13.2,0-26.1,0-39.2,0c0-3.7,0-7.4,0-10.8c0-7.1,0-13.9,0-21
			C169.9,158,182.8,158,196,158z"/>
		<path class="st3" d="M105,158c-13.2,0-26.7,0-39.9,0c0-10.1-0.7-20.3,0.3-30.4c13.2,0,26.4,0,39.6,0c0,6.1,0.3,12.5,0.3,18.6
			C105.3,149.9,105,154,105,158z"/>
		<path class="st3" d="M196,158c-13.2,0-26.1,0-39.2,0c0-3.7,0-7.4,0-10.8c0-6.4,0.3-13.2,0.3-19.6c12.9,0,26.1,0,38.9,0
			C196,137.7,196,147.9,196,158z"/>
		<path class="st5" d="M10.6,189.8c13.9,0,27.7,0,41.6,0c0,5.4,0,10.5,0,15.9c-13.9,0-27.7,0-41.6,0
			C10.6,200.3,10.6,195.2,10.6,189.8z"/>
		<path class="st5" d="M64.7,189.8c13.5,0,26.7,0,40.3,0c0,5.4,0,10.5,0,15.9c-13.5,0-27.1,0-40.3,0
			C64.7,200.3,64.7,194.9,64.7,189.8z"/>
		<path class="st5" d="M156.7,189.8c13.2,0,26.1,0,39.2,0c0,5.4,0,10.5,0,15.9c-13.2,0-26.1,0-39.2,0
			C156.7,200.3,156.7,195.2,156.7,189.8z"/>
		<path class="st5" d="M156.4,147.2c0,3.7,0,7.4,0,10.8c0,7.1,0,13.9,0,21c-1.7,0-2.7,0.7-3.7,2c-5.4,8.5-11.5,15.9-15.9,24.7
			c-4.1,0-8.1,0-12.2,0c-5.4-10.5-12.9-19.6-19.6-29.1c0-6.1,0-12.5-0.3-18.6c0-4.1,0-8.1,0-12.2c2,1,2.7,3,3.7,4.7
			c6.1,8.8,12.2,17.6,18.3,26.7c2.7,3.7,4.4,4.4,7.1,0c5.4-8.8,11.5-17.3,17.3-25.7C153,149.6,153.7,146.9,156.4,147.2z"/>
		<path class="st6" d="M171.3,27.4c-12.2,17.9-24.7,35.9-36.9,54.1c-3,4.4-4.4,4.4-7.4,0c-12.2-18.3-24.7-35.9-37.9-55.1
			c-0.3,3.4-0.3,5.1-0.3,7.1c0,23.3,0,47,0,70.4c0,1.7,0,3.4,0,4.7c0,1.7-1,2.7-2.7,2.7c-1.7,0-2-1-2-2.4c0-1.4,0-2.4,0-3.7
			c0-27.7,0-55.1,0-82.9c0-2-1.4-4.7,1.7-5.8c3-1,4.4,1.4,5.8,3.4c12.2,17.6,24.4,35.5,36.2,53.1c2.7,4.1,4.1,4.1,6.8,0
			c11.5-17.3,23.3-34.5,34.8-51.8c1-1.4,1.7-2.7,2.7-4.1c1-1.4,2.4-1.4,4.1-1c2,0.3,1.7,2,1.7,3.4c0,29.1,0,58.5,0,87.6
			c0,1.7,0.3,4.1-2.7,3.7c-3.4-0.3-2.4-3-2.4-4.7c0-24.4,0-48.7,0-73.1c0-2,0-4.1,0-6.1C172.3,27.8,171.6,27.8,171.3,27.4z"/>
		<path class="st7" d="M156.4,147.2c-2.7,0-3.4,2.4-4.7,4.1c-5.8,8.5-11.8,16.9-17.3,25.7c-2.7,4.4-4.4,4.1-7.1,0
			c-6.1-8.8-12.2-17.9-18.3-26.7c-1-1.7-1.7-3.7-3.7-4.7c0-6.1-0.3-12.5-0.3-18.6c0-4.4,0.3-8.8,0.3-13.2
			c5.4,7.4,10.8,15.2,16.2,22.7c9.5,13.9,9.5,13.9,18.9-0.3c4.4-6.8,9.1-13.5,13.9-21c2,4.4-0.3,8.5,2,11.5l0.3,0.3
			C156.7,134,156.7,140.4,156.4,147.2z"/>
		<path class="st8" d="M156.4,126.9c-2.4-3.4,0-7.1-2-11.5c-4.7,7.1-9.5,13.9-13.9,21c-9.5,14.5-9.5,14.2-18.9,0.3
			c-5.4-7.8-10.8-15.2-16.2-22.7c0-9.5,0-18.6,0-28.1c0-0.7,0.3-1,0.7-2.7c7.4,10.8,14.5,20.6,21.3,31.1c3,5.1,4.7,4.4,7.8,0
			c6.4-10.1,13.5-20,22-29.8C156.4,98.5,156.4,112.7,156.4,126.9z"/>
		<path class="st9" d="M28.9,64.3c0-14.2,0-28.1,0-42.3c0-2-1.4-5.1,2.4-5.1s2.4,3,2.4,5.1c0,28.4,0,56.5,0,84.9c0,2,1,5.1-2.7,4.7
			c-3-0.3-2-3-2-4.7C28.9,92.7,28.9,78.5,28.9,64.3z"/>
	</g>
</g>
</svg>
