<?xml version="1.0" encoding="utf-8"?>
<!-- Generator: Adobe Illustrator 21.1.0, SVG Export Plug-In . SVG Version: 6.00 Build 0)  -->
<svg version="1.1" id="Layer_1" xmlns="http://www.w3.org/2000/svg" xmlns:xlink="http://www.w3.org/1999/xlink" x="0px" y="0px"
	 viewBox="0 0 206.4 206.4" style="enable-background:new 0 0 206.4 206.4;" xml:space="preserve">
<style type="text/css">
	.st0{fill:#EFD641;}
</style>
<path class="st0" d="M86.3,135.1c0,18-11.8,31.9-29.7,35.1c-21.2,4.3-41-2.1-52-18.5c-3.8-5.9-3.8-5.9,2.1-9.6
	c5.9-3.8,11.3-7,17.4-10.7c1.6,2.7,3.2,4.8,4.8,7.5c3.2,4.8,8.6,7.5,14.7,7c8.6,0,13.4-4.8,13.4-13.4c0-8,0-16.3,0-24.4
	c0-23.3,0-46.6,0-69.7c0-7,0-5.9,5.9-5.9c6.4,0,12.9,0,19.6,0c2.7,0,3.2,0.5,3.2,3.2C86.8,68.3,86.8,102.1,86.3,135.1z M198.3,153.3
	c-8,11.8-20.6,16.9-34,18c-2.1,0-4.3,0-7,0.5c-20.1-0.5-37.2-7-48.8-24.9c-2.7-3.8-2.7-3.8,1.6-6.4c5.4-3.2,10.7-5.9,15.8-9.1
	c2.7-1.6,4.3-1.6,5.9,1.6c7,10.7,17.4,15.3,30.3,13.4c5.9-0.5,11.3-3.8,12.9-9.6c1.6-5.4,0-10.7-4.3-13.4c-3.8-2.7-8-4.8-11.8-7
	c-9.1-4.3-19-8-27.6-13.9c-16.9-11.3-21.7-33.5-11.8-51.4c6.4-11.3,17.4-18,30.3-19c7-0.5,14.7,0,21.7,1.6c10.7,2.1,19,9.6,24.4,19
	c0.5,0.5,0.5,2.1,0,2.7l-0.5,0.5c-5.9,3.8-11.8,7.5-18.5,11.8c-2.1,1.6-3.2,0-3.8-1.6c-4.3-6.4-10.2-9.6-18.5-9.1
	c-4.8,0.5-8.6,2.7-10.2,7.5c-2.1,4.3-0.5,9.6,2.7,12.9c2.1,2.1,4.3,3.8,7.5,4.8c7.5,3.8,15.3,7,23.3,10.7c3.2,1.6,5.9,3.2,8.6,4.8
	C205,109.6,210.9,135.1,198.3,153.3z"/>
</svg>
