<?xml version="1.0" encoding="utf-8"?>
<!-- Generator: Adobe Illustrator 21.1.0, SVG Export Plug-In . SVG Version: 6.00 Build 0)  -->
<svg version="1.1" id="Layer_1" xmlns="http://www.w3.org/2000/svg" xmlns:xlink="http://www.w3.org/1999/xlink" x="0px" y="0px"
	 viewBox="0 0 206.4 206.4" style="enable-background:new 0 0 206.4 206.4;" xml:space="preserve">
<style type="text/css">
	.st0{fill:#61DAFB;}
</style>
<g>
	<path class="st0" d="M205.4,102.5c0-13.5-16.9-26.4-42.9-34.3c6-26.5,3.3-47.6-8.4-54.3c-2.7-1.6-5.9-2.3-9.3-2.3v9.3
		c1.9,0,3.5,0.4,4.7,1.1c5.7,3.2,8.1,15.6,6.2,31.5c-0.5,3.9-1.2,8-2.1,12.2c-8.2-2-17.1-3.5-26.4-4.5c-5.6-7.7-11.5-14.7-17.3-20.8
		c13.6-12.6,26.3-19.5,35-19.5v-9.3l0,0c-11.5,0-26.4,8.2-41.6,22.3C88,19.7,73,11.7,61.5,11.7v9.3c8.6,0,21.4,6.9,35,19.4
		c-5.8,6.1-11.7,13.1-17.2,20.8c-9.4,1-18.3,2.5-26.5,4.6c-1-4.2-1.7-8.2-2.2-12.1c-2-15.9,0.5-28.3,6.1-31.6
		c1.2-0.7,2.9-1.1,4.8-1.1v-9.3l0,0c-3.5,0-6.7,0.7-9.4,2.3c-11.7,6.7-14.3,27.8-8.3,54.2C17.9,76.2,1.1,89,1.1,102.5
		C1.1,116,18,128.8,44,136.8c-6,26.5-3.3,47.6,8.4,54.3c2.7,1.6,5.9,2.3,9.4,2.3c11.5,0,26.4-8.2,41.6-22.3
		c15.2,14.1,30.1,22.2,41.6,22.2c3.5,0,6.7-0.7,9.4-2.3c11.7-6.7,14.3-27.8,8.3-54.2C188.5,128.8,205.4,116,205.4,102.5z
		 M151.1,74.7c-1.5,5.4-3.5,10.9-5.6,16.4c-1.7-3.3-3.5-6.7-5.5-10c-1.9-3.3-4-6.6-6-9.7C140,72.3,145.7,73.4,151.1,74.7z
		 M132.1,119c-3.2,5.6-6.6,11-10,15.9c-6.2,0.5-12.5,0.8-18.8,0.8c-6.3,0-12.6-0.3-18.7-0.8c-3.5-5-6.8-10.2-10.1-15.8
		c-3.2-5.5-6-11-8.7-16.6c2.6-5.6,5.5-11.2,8.6-16.6c3.2-5.6,6.6-11,10-15.9c6.2-0.5,12.5-0.8,18.8-0.8c6.3,0,12.6,0.3,18.7,0.8
		c3.5,5,6.8,10.2,10.1,15.8c3.2,5.5,6,11,8.7,16.6C138.1,108,135.2,113.6,132.1,119z M145.5,113.6c2.2,5.6,4.2,11.2,5.7,16.6
		c-5.5,1.3-11.2,2.5-17.2,3.3c2-3.2,4.1-6.5,6-9.9C142,120.3,143.8,117,145.5,113.6z M103.3,158.1c-3.9-4-7.7-8.5-11.6-13.3
		c3.7,0.2,7.6,0.3,11.5,0.3c3.9,0,7.8-0.1,11.6-0.3C111,149.6,107.1,154.1,103.3,158.1z M72.3,133.5c-5.9-0.9-11.6-2-17.1-3.3
		c1.5-5.4,3.5-10.9,5.6-16.4c1.7,3.3,3.5,6.7,5.5,10S70.3,130.4,72.3,133.5z M103.1,46.9c3.9,4,7.7,8.5,11.6,13.3
		c-3.7-0.2-7.6-0.3-11.5-0.3c-3.9,0-7.8,0.1-11.6,0.3C95.4,55.3,99.3,50.9,103.1,46.9z M72.3,71.4c-2,3.2-4.1,6.5-6,9.9
		c-1.9,3.3-3.7,6.7-5.4,10c-2.2-5.6-4.2-11.2-5.7-16.6C60.6,73.4,66.3,72.3,72.3,71.4z M34.6,123.5c-14.7-6.3-24.3-14.5-24.3-21.1
		c0-6.5,9.5-14.8,24.3-21.1c3.6-1.5,7.5-2.9,11.5-4.2c2.4,8.2,5.5,16.7,9.4,25.4c-3.8,8.7-6.9,17.1-9.2,25.2
		C42.1,126.5,38.2,125.1,34.6,123.5z M57,183c-5.7-3.2-8.1-15.6-6.2-31.5c0.5-3.9,1.2-8,2.1-12.2c8.2,2,17.1,3.5,26.4,4.5
		c5.6,7.7,11.5,14.7,17.3,20.8c-13.6,12.6-26.3,19.5-35,19.5C59.8,184.1,58.2,183.8,57,183z M155.8,151.3c2,15.9-0.5,28.3-6.1,31.6
		c-1.2,0.7-2.9,1.1-4.8,1.1c-8.6,0-21.4-6.9-35-19.4c5.8-6.1,11.7-13.1,17.2-20.8c9.4-1,18.3-2.5,26.5-4.6
		C154.6,143.4,155.3,147.4,155.8,151.3z M171.8,123.5c-3.6,1.5-7.5,2.9-11.5,4.2c-2.4-8.2-5.5-16.7-9.4-25.4
		c3.8-8.7,6.9-17.1,9.2-25.2c4.1,1.3,8,2.7,11.7,4.2c14.7,6.3,24.3,14.5,24.3,21.1C196.1,109,186.5,117.3,171.8,123.5z"/>
	<path class="st0" d="M61.5,11.7L61.5,11.7L61.5,11.7z"/>
	<circle class="st0" cx="103.2" cy="102.5" r="19"/>
	<path class="st0" d="M144.6,11.5L144.6,11.5L144.6,11.5z"/>
</g>
</svg>
