<?xml version="1.0" encoding="utf-8"?>
<!-- Generator: Adobe Illustrator 21.1.0, SVG Export Plug-In . SVG Version: 6.00 Build 0)  -->
<svg version="1.1" id="Layer_1" xmlns="http://www.w3.org/2000/svg" xmlns:xlink="http://www.w3.org/1999/xlink" x="0px" y="0px"
	 viewBox="0 0 206.4 206.4" style="enable-background:new 0 0 206.4 206.4;" xml:space="preserve">
<style type="text/css">
	.st0{fill:#764ABC;}
</style>
<g>
	<path class="st0" d="M142.4,140.2c7.5-0.8,13.2-7.2,12.9-15s-6.7-13.9-14.5-13.9h-0.5c-8,0.3-14.2,7-13.9,15
		c0.3,3.9,1.8,7.2,4.1,9.5c-8.8,17.3-22.2,29.9-42.3,40.5c-13.7,7.2-27.9,9.8-42.1,8c-11.6-1.5-20.6-6.7-26.3-15.2
		c-8.3-12.6-9-26.3-2.1-40c4.9-9.8,12.6-17,17.5-20.6c-1-3.4-2.6-9-3.4-13.2c-37.4,27.1-33.5,63.7-22.2,81
		c8.5,12.9,25.8,20.9,44.9,20.9c5.2,0,10.3-0.5,15.5-1.8C103.2,189,128.2,169.4,142.4,140.2z"/>
	<path class="st0" d="M187.8,108.2c-19.6-23-48.5-35.6-81.5-35.6h-4.1c-2.3-4.6-7.2-7.7-12.6-7.7H89c-8,0.3-14.2,7-13.9,15
		c0.3,7.7,6.7,13.9,14.5,13.9H90c5.7-0.3,10.6-3.9,12.6-8.8h4.6c19.6,0,38.2,5.7,55,16.8c12.9,8.5,22.2,19.6,27.4,33
		c4.4,10.8,4.1,21.4-0.5,30.4c-7.2,13.7-19.4,21.2-35.4,21.2c-10.3,0-20.1-3.1-25.3-5.4c-2.8,2.6-8,6.7-11.6,9.3
		c11.1,5.2,22.4,8,33.3,8c24.8,0,43.1-13.7,50.1-27.4C207.7,156,207.1,130.2,187.8,108.2z"/>
	<path class="st0" d="M56.7,144.6c0.3,7.7,6.7,13.9,14.5,13.9h0.5c8-0.3,14.2-7,13.9-15c-0.3-7.7-6.7-13.9-14.5-13.9h-0.5
		c-0.5,0-1.3,0-1.8,0.3c-10.6-17.5-15-36.6-13.4-57.3c1-15.5,6.2-28.9,15.2-40c7.5-9.5,21.9-14.2,31.7-14.5
		c27.4-0.5,39,33.5,39.7,47.2c3.4,0.8,9,2.6,12.9,3.9c-3.1-41.8-28.9-63.5-53.7-63.5c-23.2,0-44.6,16.8-53.2,41.5
		c-11.9,33-4.1,64.8,10.3,89.8C57.2,138.9,56.5,141.8,56.7,144.6z"/>
</g>
</svg>
