<svg id="Capa_3" data-name="Capa 3" xmlns="http://www.w3.org/2000/svg" viewBox="0 0 22 22"><title>Mesa de trabajo 1</title><path d="M19.17,6.35a9.06,9.06,0,0,0-3.5-3.5,9.12,9.12,0,0,0-4.8-1.3,8.65,8.65,0,0,0-4.8,1.3,9.06,9.06,0,0,0-3.5,3.5,9.12,9.12,0,0,0-1.3,4.8,9.65,9.65,0,0,0,1.8,5.7,9.43,9.43,0,0,0,4.8,3.5.75.75,0,0,0,.5-.1.52.52,0,0,0,.2-.4V18l-.4.1h-.7a2.77,2.77,0,0,1-.9-.1,2,2,0,0,1-.8-.4,2.41,2.41,0,0,1-.6-.8l-.1-.3a2.09,2.09,0,0,0-.4-.6l-.5-.5-.1-.1c-.1,0-.1-.1-.2-.2-.1.2-.1.1-.1,0V15c.1,0,.2-.1.4-.1h.3a.86.86,0,0,1,.6.3c.2.2.5.4.6.7a2.7,2.7,0,0,0,.7.8,1.33,1.33,0,0,0,.8.3,1.48,1.48,0,0,0,.7-.1,1.42,1.42,0,0,0,.6-.2,2.26,2.26,0,0,1,.6-1.3c-.5-.1-.9-.1-1.3-.2a6.12,6.12,0,0,1-1.2-.5,3.92,3.92,0,0,1-1-.8,4,4,0,0,1-.7-1.3,5.41,5.41,0,0,1-.3-1.9,3.54,3.54,0,0,1,1-2.6,4,4,0,0,1,.2-2.6,1.68,1.68,0,0,1,1.1.2,8.92,8.92,0,0,1,1,.5,2.19,2.19,0,0,1,.5.3,9.75,9.75,0,0,1,4.8,0l.6-.3a6.66,6.66,0,0,1,1.2-.6,1.23,1.23,0,0,1,1-.1,3.37,3.37,0,0,1,.1,2.6,3.54,3.54,0,0,1,1,2.6,5.82,5.82,0,0,1-.3,1.9,4,4,0,0,1-.7,1.3,3.92,3.92,0,0,1-1,.8,6.12,6.12,0,0,1-1.2.5,5.07,5.07,0,0,1-1.3.2,2.48,2.48,0,0,1,.7,1.8V20a.52.52,0,0,0,.2.4.75.75,0,0,0,.5.1,9.55,9.55,0,0,0,6.6-9.2A10.32,10.32,0,0,0,19.17,6.35Z"/></svg>