<?xml version="1.0" encoding="utf-8"?>
<!-- Generator: Adobe Illustrator 21.1.0, SVG Export Plug-In . SVG Version: 6.00 Build 0)  -->
<svg version="1.1" id="Capa_3" xmlns="http://www.w3.org/2000/svg" xmlns:xlink="http://www.w3.org/1999/xlink" x="0px" y="0px"
	 viewBox="0 0 22 22" style="enable-background:new 0 0 22 22;" xml:space="preserve">
<g>
	<path d="M19.4,6.2c-0.9-1.5-2-2.7-3.5-3.5c-1.5-0.9-3.1-1.3-4.8-1.3c-1.8,0-3.4,0.4-4.8,1.3c-1.5,0.9-2.7,2-3.5,3.5
		c-0.9,1.5-1.3,3.1-1.3,4.8c0,2.1,0.6,4,1.8,5.7c1.2,1.7,2.8,2.8,4.8,3.5c0.2,0,0.4,0,0.5-0.1c0.1-0.1,0.2-0.2,0.2-0.4
		c0,0,0-0.3,0-0.7c0-0.4,0-0.8,0-1.1L8.4,18c-0.2,0-0.4,0-0.7,0c-0.3,0-0.6,0-0.9-0.1c-0.3-0.1-0.6-0.2-0.8-0.4
		c-0.3-0.2-0.4-0.5-0.6-0.8l-0.1-0.3c-0.1-0.2-0.2-0.4-0.4-0.6c-0.2-0.2-0.4-0.4-0.5-0.5l-0.1-0.1c-0.1,0-0.1-0.1-0.2-0.2
		C4,15.2,4,15.1,4,15C4,15,4,14.9,4,14.9c0.1,0,0.2-0.1,0.4-0.1l0.3,0c0.2,0,0.4,0.1,0.6,0.3c0.2,0.2,0.5,0.4,0.6,0.7
		c0.2,0.3,0.4,0.6,0.7,0.8c0.3,0.2,0.5,0.3,0.8,0.3s0.5,0,0.7-0.1c0.2,0,0.4-0.1,0.6-0.2c0.1-0.6,0.3-1,0.6-1.3
		c-0.5-0.1-0.9-0.1-1.3-0.2c-0.4-0.1-0.8-0.3-1.2-0.5c-0.4-0.2-0.7-0.5-1-0.8c-0.3-0.3-0.5-0.8-0.7-1.3c-0.2-0.5-0.3-1.2-0.3-1.9
		c0-1,0.3-1.9,1-2.6C5.6,7.2,5.6,6.4,6,5.4c0.2-0.1,0.6,0,1.1,0.2c0.5,0.2,0.8,0.4,1,0.5c0.2,0.1,0.4,0.2,0.5,0.3
		c0.8-0.2,1.6-0.3,2.4-0.3s1.6,0.1,2.4,0.3L14,6.1c0.3-0.2,0.7-0.4,1.2-0.6c0.4-0.2,0.8-0.2,1-0.1c0.4,0.9,0.4,1.8,0.1,2.6
		c0.7,0.7,1,1.6,1,2.6c0,0.7-0.1,1.3-0.3,1.9c-0.2,0.5-0.4,1-0.7,1.3c-0.3,0.3-0.6,0.6-1,0.8c-0.4,0.2-0.8,0.4-1.2,0.5
		c-0.4,0.1-0.8,0.2-1.3,0.2c0.4,0.4,0.7,1,0.7,1.8v2.7c0,0.2,0.1,0.3,0.2,0.4c0.1,0.1,0.3,0.1,0.5,0.1c1.9-0.6,3.5-1.8,4.8-3.5
		c1.2-1.7,1.8-3.6,1.8-5.7C20.7,9.3,20.3,7.7,19.4,6.2z"/>
</g>
</svg>
