<?xml version="1.0" encoding="utf-8"?>
<svg version="1.1" id="Capa_3" xmlns="http://www.w3.org/2000/svg" xmlns:xlink="http://www.w3.org/1999/xlink" x="0px" y="0px"
	 viewBox="0 0 50 50" style="enable-background:new 0 0 50 50;" xml:space="preserve">
<g>
	<path id="LinkedIn" d="M48.7,28.7v17.5H38.6V29.9c0-4.1-1.5-6.9-5.1-6.9c-2.8,0-4.5,1.9-5.2,3.7c-0.3,0.7-0.3,1.6-0.3,2.5v17.1
		H17.7c0,0,0.1-27.7,0-30.6h10.2V20c0,0,0,0.1-0.1,0.1h0.1V20c1.4-2.1,3.8-5.1,9.2-5.1C43.7,15,48.7,19.3,48.7,28.7z M7.1,0.9
		c-3.5,0-5.8,2.3-5.8,5.3c0,2.9,2.2,5.3,5.6,5.3H7c3.5,0,5.8-2.4,5.8-5.3C12.7,3.2,10.5,0.9,7.1,0.9z M1.9,46.3h10.2V15.7H1.9V46.3z
		"/>
</g>
</svg>
