<?xml version="1.0" encoding="utf-8"?>
<!-- Generator: Adobe Illustrator 21.1.0, SVG Export Plug-In . SVG Version: 6.00 Build 0)  -->
<svg version="1.1" id="Capa_3" xmlns="http://www.w3.org/2000/svg" xmlns:xlink="http://www.w3.org/1999/xlink" x="0px" y="0px"
	 viewBox="0 0 22 22" style="enable-background:new 0 0 22 22;" xml:space="preserve">
<g>
	<path d="M20.4,6.1c-0.7,0.3-1.4,0.5-2.2,0.6c0.8-0.5,1.4-1.2,1.7-2.2c-0.8,0.5-1.6,0.8-2.5,0.9c-0.7-0.8-1.7-1.2-2.8-1.2
		c-2.2,0-3.9,1.7-3.9,3.9c0,0.3,0,0.6,0.1,0.9C7.6,8.8,4.8,7.3,2.8,5c-0.3,0.6-0.5,1.2-0.5,2C2.3,8.3,3,9.5,4,10.2
		c-0.6,0-1.2-0.2-1.8-0.5v0c0,1.9,1.3,3.4,3.1,3.8c-0.3,0.1-0.7,0.2-1,0.2c-0.3,0-0.5,0-0.7-0.1c0.5,1.6,1.9,2.7,3.6,2.7
		c-1.3,1.1-3,1.7-4.8,1.7c-0.3,0-0.6,0-0.9,0c1.7,1.1,3.7,1.7,5.9,1.7c7.2,0,11.1-5.9,11.1-11.1c0-0.2,0-0.3,0-0.5
		C19.3,7.5,19.9,6.8,20.4,6.1z"/>
</g>
</svg>
