<?xml version="1.0" standalone="no"?>
<!DOCTYPE svg PUBLIC "-//W3C//DTD SVG 1.1//EN" "http://www.w3.org/Graphics/SVG/1.1/DTD/svg11.dtd" >
<svg xmlns="http://www.w3.org/2000/svg">
    <defs>
        <font id="BebasNeue-Thin">
            <font-face font-family="Bebas Neue"
                       units-per-em="1000"
                       ascent="750"
                       descent="-250"
                       bbox="-48 -179 795 872"
                    />
            <missing-glyph horiz-adv-x="0" />
            
            <glyph glyph-name="0" unicode="&#x30;" horiz-adv-x="333" d=" M40,528 Q40,564 48,596.5 Q56,629 73.5,653 Q91,677 119,691 Q147,705 187,705 Q227,705 254.5,691 Q282,677 299.5,653 Q317,629 325,596.5 Q333,564 333,528 L333,173 Q333,137 325,104.5 Q317,72 299.5,47.5 Q282,23 254.5,9 Q227,-5 187,-5 Q147,-5 119,9 Q91,23 73.5,47.5 Q56,72 48,104.5 Q40,137 40,173 M50,173 Q50,139 57,108.5 Q64,78 80.5,55 Q97,32 123,18.5 Q149,5 187,5 Q225,5 251,18.5 Q277,32 293,55 Q309,78 316,108.5 Q323,139 323,173 L323,528 Q323,562 316,592.5 Q309,623 293,646 Q277,669 251,682.5 Q225,696 187,696 Q149,696 123,682.5 Q97,669 80.5,646 Q64,623 57,592.5 Q50,562 50,528"/> 
            <glyph glyph-name="1" unicode="&#x31;" horiz-adv-x="171" d=" M161,683 Q144,644 113.5,618.5 Q83,593 40,588 L40,598 Q85,603 114,631 Q143,659 157,701 L171,701 L171,0 L161,0"/> 
            <glyph glyph-name="2" unicode="&#x32;" horiz-adv-x="327" d=" M183,705 Q225,705 252.5,690.5 Q280,676 296.5,651.5 Q313,627 320,594 Q327,561 327,525 Q327,477 307,438.5 Q287,400 256.5,364.5 Q226,329 190.5,294 Q155,259 124,218 Q93,177 72,127 Q51,77 50,13 L50,10 L324,10 L324,0 L40,0 L40,5 Q40,72 60.5,124 Q81,176 112,218.5 Q143,261 178.5,296.5 Q214,332 245,367.5 Q276,403 296.5,440.5 Q317,478 317,525 Q317,559 311,590 Q305,621 289.5,644.5 Q274,668 248,682 Q222,696 183,696 Q145,696 119.5,681.5 Q94,667 78.5,643 Q63,619 56.5,587.5 Q50,556 50,523 L50,490 L40,490 L40,523 Q40,559 47,591.5 Q54,624 71,649.5 Q88,675 115,690 Q142,705 183,705"/> 
            <glyph glyph-name="3" unicode="&#x33;" horiz-adv-x="328" d=" M184,705 Q224,705 251.5,691 Q279,677 296,652.5 Q313,628 320.5,596 Q328,564 328,528 L328,511 Q328,486 321,463 Q314,440 300.5,421 Q287,402 268,387.5 Q249,373 225,366 Q276,353 302,315 Q328,277 328,226 L328,173 Q328,137 320.5,104.5 Q313,72 296,48 Q279,24 251.5,9.5 Q224,-5 184,-5 Q144,-5 116.5,9.5 Q89,24 72,48 Q55,72 47.5,104.5 Q40,137 40,173 L40,202 L50,202 L50,173 Q50,139 56.5,108.5 Q63,78 79,55 Q95,32 120.5,18.5 Q146,5 184,5 Q222,5 247.5,18.5 Q273,32 289,55 Q305,78 311.5,108.5 Q318,139 318,173 L318,226 Q318,284 286.5,320.5 Q255,357 196,361 L143,361 L143,370 L196,370 Q224,372 246.5,384 Q269,396 285,415 Q301,434 309.5,459 Q318,484 318,511 L318,528 Q318,562 311.5,592.5 Q305,623 289,646 Q273,669 247.5,682.5 Q222,696 184,696 Q146,696 120.5,682.5 Q95,669 79,646 Q63,623 56.5,592.5 Q50,562 50,528 L50,510 L40,510 L40,528 Q40,564 47.5,596 Q55,628 72,652.5 Q89,677 116.5,691 Q144,705 184,705"/> 
            <glyph glyph-name="4" unicode="&#x34;" horiz-adv-x="367" d=" M304,170 L304,0 L294,0 L294,170 L40,170 L40,181 L290,701 L304,701 L304,180 L367,180 L367,170 M50,180 L294,180 L294,686"/> 
            <glyph glyph-name="5" unicode="&#x35;" horiz-adv-x="328" d=" M62,377 Q99,449 184,449 Q224,449 251.5,434.5 Q279,420 296,395.5 Q313,371 320.5,339 Q328,307 328,272 L328,173 Q328,137 320.5,105 Q313,73 296,48.5 Q279,24 251.5,9.5 Q224,-5 184,-5 Q144,-5 116.5,9.5 Q89,24 72,48.5 Q55,73 47.5,105 Q40,137 40,173 L40,199 L50,199 L50,173 Q50,140 57,109.5 Q64,79 79.5,55.5 Q95,32 120.5,18.5 Q146,5 184,5 Q221,5 247,18.5 Q273,32 288.5,55.5 Q304,79 311,109.5 Q318,140 318,173 L318,272 Q318,305 311,335.5 Q304,366 288.5,389 Q273,412 247,425.5 Q221,439 184,439 Q139,439 107.5,416 Q76,393 60,352 L60,346 L50,346 L68,701 L315,701 L315,691 L77,691"/> 
            <glyph glyph-name="6" unicode="&#x36;" horiz-adv-x="334" d=" M187,705 Q227,705 254.5,691.5 Q282,678 299,654.5 Q316,631 323.5,599.5 Q331,568 331,532 L331,529 L321,529 L321,532 Q321,566 314.5,595.5 Q308,625 292,647.5 Q276,670 250.5,683 Q225,696 187,696 Q149,696 123,682.5 Q97,669 80.5,646 Q64,623 57,592.5 Q50,562 50,528 L50,311 Q65,360 99.5,386 Q134,412 187,412 Q227,412 255,398 Q283,384 300.5,359.5 Q318,335 326,303 Q334,271 334,235 L334,173 Q334,137 326,104.5 Q318,72 300.5,47.5 Q283,23 255,9 Q227,-5 187,-5 Q147,-5 119,9 Q91,23 73.5,47.5 Q56,72 48,104.5 Q40,137 40,173 L40,528 Q40,564 48,596.5 Q56,629 73.5,653 Q91,677 119,691 Q147,705 187,705 M187,402 Q149,402 123,388.5 Q97,375 80.5,352 Q64,329 57,299 Q50,269 50,235 L50,173 Q50,139 57,108.5 Q64,78 80.5,55 Q97,32 123,18.5 Q149,5 187,5 Q225,5 251,18.5 Q277,32 293.5,55 Q310,78 317,108.5 Q324,139 324,173 L324,235 Q324,269 317,299 Q310,329 293.5,352 Q277,375 251,388.5 Q225,402 187,402"/> 
            <glyph glyph-name="7" unicode="&#x37;" horiz-adv-x="328" d=" M317,691 L40,691 L40,701 L328,701 L328,690 L112,0 L101,0"/> 
            <glyph glyph-name="8" unicode="&#x38;" horiz-adv-x="343" d=" M191,705 Q230,705 258.5,693 Q287,681 305.5,659 Q324,637 333.5,606.5 Q343,576 343,539 L343,516 Q343,460 319,418.5 Q295,377 237,366 Q296,354 319.5,312.5 Q343,271 343,213 L343,167 Q343,130 334,98.5 Q325,67 306.5,44 Q288,21 259.5,8 Q231,-5 191,-5 Q152,-5 123.5,8 Q95,21 76.5,44 Q58,67 49,98.5 Q40,130 40,167 L40,213 Q40,273 63.5,313 Q87,353 148,366 Q89,377 64.5,418 Q40,459 40,516 L40,539 Q40,613 77,659 Q114,705 191,705 M191,696 Q119,696 84.5,652 Q50,608 50,539 L50,516 Q50,446 84.5,408 Q119,370 191,370 Q263,370 298,408 Q333,446 333,516 L333,539 Q333,608 298.5,652 Q264,696 191,696 M191,360 Q118,360 84,322.5 Q50,285 50,213 L50,167 Q50,132 58,102.5 Q66,73 83.5,51 Q101,29 127.5,17 Q154,5 191,5 Q228,5 255,17 Q282,29 299.5,51 Q317,73 325,102.5 Q333,132 333,167 L333,213 Q333,285 299,322.5 Q265,360 191,360"/> 
            <glyph glyph-name="9" unicode="&#x39;" horiz-adv-x="334" d=" M187,706 Q227,706 255,692 Q283,678 300.5,653.5 Q318,629 326,596.5 Q334,564 334,528 L334,173 Q334,137 326,104.5 Q318,72 300.5,47.5 Q283,23 255,9 Q227,-5 187,-5 Q147,-5 119,8.5 Q91,22 73.5,46 Q56,70 48,102 Q40,134 40,170 L40,174 L50,174 L50,170 Q50,136 57.5,106 Q65,76 81,53.5 Q97,31 123,18 Q149,5 187,5 Q225,5 251,18.5 Q277,32 293.5,55 Q310,78 317,108.5 Q324,139 324,173 L324,390 Q309,341 274.5,315 Q240,289 187,289 Q147,289 119,303 Q91,317 73.5,341.5 Q56,366 48,398 Q40,430 40,466 L40,528 Q40,564 48,596.5 Q56,629 73.5,653.5 Q91,678 119,692 Q147,706 187,706 M187,696 Q149,696 123,682.5 Q97,669 80.5,646 Q64,623 57,592.5 Q50,562 50,528 L50,466 Q50,432 57,402 Q64,372 80.5,349 Q97,326 123,312.5 Q149,299 187,299 Q225,299 251,312.5 Q277,326 293.5,349 Q310,372 317,402 Q324,432 324,466 L324,528 Q324,562 317,592.5 Q310,623 293.5,646 Q277,669 251,682.5 Q225,696 187,696"/> 
            <glyph glyph-name="ȷ" unicode="&#x237;" horiz-adv-x="212" d=" M40,10 Q51,9 61.5,9.5 Q72,10 82,11 Q145,17 173.5,54.5 Q202,92 202,171 L202,700 L212,700 L212,171 Q212,86 179.5,46 Q147,6 82,1 Q72,0 61.5,-0.5 Q51,-1 40,0"/> 
            <glyph glyph-name="ʼ" unicode="&#x2BC;" horiz-adv-x="65" d=" M47,560 L40,560 L56,622 L55,622 L55,700 L65,700 L65,622"/> 
            <glyph glyph-name="Ё" unicode="&#x401;" horiz-adv-x="302" d=" M144,828 L144,750 L134,750 L134,828 M210,828 L210,750 L200,750 L200,828 M263,360 L263,350 L50,350 L50,10 L302,10 L302,0 L40,0 L40,700 L302,700 L302,690 L50,690 L50,360"/> 
            <glyph glyph-name="А" unicode="&#x410;" horiz-adv-x="412" d=" M93,170 L50,0 L40,0 L217,701 L231,701 L412,0 L402,0 L358,170 M96,180 L355,180 L224,688"/> 
            <glyph glyph-name="Б" unicode="&#x411;" horiz-adv-x="331" d=" M170,391 Q250,391 290.5,360 Q331,329 331,245 L331,163 Q331,86 297,43 Q263,0 182,0 L40,0 L40,700 L308,700 L308,690 L50,690 L50,391 M182,10 Q259,10 290,50.5 Q321,91 321,163 L321,245 Q321,285 311.5,311.5 Q302,338 283.5,353.5 Q265,369 236.5,375 Q208,381 170,381 L50,381 L50,10"/> 
            <glyph glyph-name="В" unicode="&#x412;" horiz-adv-x="322" d=" M177,700 Q252,700 280,663 Q308,626 308,557 L308,509 Q308,450 287,415 Q266,380 204,373 Q269,365 295.5,325 Q322,285 322,223 L322,160 Q322,86 289,43 Q256,0 177,0 L40,0 L40,700 M147,378 Q186,378 214.5,383.5 Q243,389 261.5,403 Q280,417 289,442.5 Q298,468 298,509 L298,557 Q298,590 292.5,614.5 Q287,639 273,656 Q259,673 235.5,681.5 Q212,690 177,690 L50,690 L50,378 M177,10 Q251,10 281.5,50 Q312,90 312,160 L312,223 Q312,303 273.5,335.5 Q235,368 158,368 L50,368 L50,10"/> 
            <glyph glyph-name="Г" unicode="&#x413;" horiz-adv-x="296" d=" M50,690 L50,0 L40,0 L40,700 L296,700 L296,690"/> 
            <glyph glyph-name="Д" unicode="&#x414;" horiz-adv-x="450" d=" M440,-99 L440,0 L50,0 L50,-99 L40,-99 L40,10 L91,10 Q116,35 121.5,67 Q127,99 129,134 L159,700 L386,700 L386,10 L450,10 L450,-99 M139,133 Q137,99 132.5,67.5 Q128,36 105,10 L376,10 L376,690 L169,690"/> 
            <glyph glyph-name="Е" unicode="&#x415;" horiz-adv-x="302" d=" M263,360 L263,350 L50,350 L50,10 L302,10 L302,0 L40,0 L40,700 L302,700 L302,690 L50,690 L50,360"/> 
            <glyph glyph-name="Ж" unicode="&#x416;" horiz-adv-x="593" d=" M379,372 L321,278 L321,0 L311,0 L311,279 L254,372 L51,0 L40,0 L248,381 L52,700 L63,700 L311,296 L311,700 L321,700 L321,296 L569,700 L581,700 L385,381 L593,0 L582,0"/> 
            <glyph glyph-name="З" unicode="&#x417;" horiz-adv-x="328" d=" M184,705 Q224,705 251.5,690.5 Q279,676 296,652 Q313,628 320.5,596 Q328,564 328,528 L328,510 Q328,460 300,419.5 Q272,379 222,365 Q275,354 301.5,315.5 Q328,277 328,226 L328,172 Q328,136 320.5,104 Q313,72 296,48 Q279,24 251.5,9.5 Q224,-5 184,-5 Q144,-5 116.5,9.5 Q89,24 72,48 Q55,72 47.5,104 Q40,136 40,172 L40,220 L50,220 L50,172 Q50,139 56.5,108.5 Q63,78 79,55 Q95,32 120.5,18.5 Q146,5 184,5 Q222,5 247.5,18.5 Q273,32 289,55 Q305,78 311.5,108.5 Q318,139 318,172 L318,226 Q318,254 309,278.5 Q300,303 283.5,321 Q267,339 243,349.5 Q219,360 190,360 L143,360 L143,370 L190,370 Q218,370 241.5,382 Q265,394 282,413.5 Q299,433 308.5,458 Q318,483 318,510 L318,528 Q318,562 311.5,592 Q305,622 289,645 Q273,668 247.5,681.5 Q222,695 184,695 Q146,695 120.5,681.5 Q95,668 79,645 Q63,622 56.5,592 Q50,562 50,528 L50,501 L40,501 L40,528 Q40,564 47.5,596 Q55,628 72,652 Q89,676 116.5,690.5 Q144,705 184,705"/> 
            <glyph glyph-name="И" unicode="&#x418;" horiz-adv-x="331" d=" M183,333 L55,0 L40,0 L40,700 L50,700 L50,13 L188,373 L314,700 L331,700 L331,0 L321,0 L321,690"/> 
            <glyph glyph-name="Й" unicode="&#x419;" horiz-adv-x="331" d=" M285,819 Q283,785 255.5,767 Q228,749 193,749 Q158,749 130,766.5 Q102,784 101,819 L112,819 Q113,788 137.5,773 Q162,758 193,758 Q223,758 247.5,773 Q272,788 274,819 M55,0 L40,0 L40,700 L50,700 L50,13 L314,700 L331,700 L331,0 L321,0 L321,690"/> 
            <glyph glyph-name="К" unicode="&#x41A;" horiz-adv-x="359" d=" M106,357 L50,275 L50,0 L40,0 L40,700 L50,700 L50,293 L326,700 L338,700 L112,366 L359,0 L347,0"/> 
            <glyph glyph-name="Л" unicode="&#x41B;" horiz-adv-x="392" d=" M169,690 L147,168 Q145,139 143,109.5 Q141,80 131.5,56 Q122,32 102,16 Q82,0 45,-1 L40,-1 L40,9 Q76,9 95.5,24 Q115,39 124,62 Q133,85 134.5,113.5 Q136,142 137,169 L159,700 L392,700 L392,0 L382,0 L382,690"/> 
            <glyph glyph-name="М" unicode="&#x41C;" horiz-adv-x="445" d=" M249,2 L235,2 L50,690 L50,0 L40,0 L40,700 L58,700 L242,13 L428,700 L445,700 L445,0 L435,0 L435,690"/> 
            <glyph glyph-name="Н" unicode="&#x41D;" horiz-adv-x="330" d=" M50,345 L50,0 L40,0 L40,700 L50,700 L50,355 L320,355 L320,700 L330,700 L330,0 L320,0 L320,345"/> 
            <glyph glyph-name="О" unicode="&#x41E;" horiz-adv-x="333" d=" M40,528 Q40,564 48,596 Q56,628 73.5,652.5 Q91,677 118.5,691 Q146,705 186,705 Q226,705 254,691 Q282,677 299.5,652.5 Q317,628 325,596 Q333,564 333,528 L333,172 Q333,136 325,104 Q317,72 299.5,47.5 Q282,23 254,9 Q226,-5 186,-5 Q146,-5 118.5,9 Q91,23 73.5,47.5 Q56,72 48,104 Q40,136 40,172 M50,172 Q50,138 57,107.5 Q64,77 80,54.5 Q96,32 122,18.5 Q148,5 186,5 Q224,5 250,18.5 Q276,32 292.5,54.5 Q309,77 316,107.5 Q323,138 323,172 L323,528 Q323,562 316,592 Q309,622 292.5,645 Q276,668 250,681.5 Q224,695 186,695 Q148,695 122,681.5 Q96,668 80,645 Q64,622 57,592 Q50,562 50,528"/> 
            <glyph glyph-name="П" unicode="&#x41F;" horiz-adv-x="330" d=" M50,690 L50,0 L40,0 L40,700 L330,700 L330,0 L320,0 L320,690"/> 
            <glyph glyph-name="Р" unicode="&#x420;" horiz-adv-x="317" d=" M175,700 Q215,700 242.5,687 Q270,674 286.5,651.5 Q303,629 310,598.5 Q317,568 317,532 L317,464 Q317,381 279,341.5 Q241,302 156,302 L50,302 L50,0 L40,0 L40,700 M156,312 Q237,312 272,348.5 Q307,385 307,464 L307,532 Q307,566 300.5,595 Q294,624 279,645 Q264,666 238.5,678 Q213,690 175,690 L50,690 L50,312"/> 
            <glyph glyph-name="С" unicode="&#x421;" horiz-adv-x="328" d=" M184,705 Q224,705 251.5,690.5 Q279,676 296,651.5 Q313,627 320.5,595 Q328,563 328,528 L328,475 L318,475 L318,528 Q318,561 311,591.5 Q304,622 288.5,645 Q273,668 247,681.5 Q221,695 184,695 Q146,695 120.5,681.5 Q95,668 79.5,645 Q64,622 57,591.5 Q50,561 50,528 L50,172 Q50,139 57,108.5 Q64,78 79.5,55 Q95,32 120.5,18.5 Q146,5 184,5 Q221,5 247,18.5 Q273,32 288.5,55 Q304,78 311,108.5 Q318,139 318,172 L318,246 L328,246 L328,172 Q328,137 320.5,105 Q313,73 296,48.5 Q279,24 251.5,9.5 Q224,-5 184,-5 Q144,-5 116.5,9.5 Q89,24 72,48.5 Q55,73 47.5,105 Q40,137 40,172 L40,528 Q40,563 47.5,595 Q55,627 72,651.5 Q89,676 116.5,690.5 Q144,705 184,705"/> 
            <glyph glyph-name="Т" unicode="&#x422;" horiz-adv-x="366" d=" M198,0 L198,690 L40,690 L40,700 L366,700 L366,690 L208,690 L208,0"/> 
            <glyph glyph-name="У" unicode="&#x423;" horiz-adv-x="396" d=" M180,103 Q172,80 163,61 Q154,42 141,28.5 Q128,15 109.5,7.5 Q91,0 64,0 L64,10 Q89,10 106,17 Q123,24 135,36.5 Q147,49 155,67 Q163,85 171,106 L217,235 L40,700 L51,700 L146,449 L222,249 L385,700 L396,700"/> 
            <glyph glyph-name="Ф" unicode="&#x424;" horiz-adv-x="501" d=" M341,621 Q385,621 415.5,608.5 Q446,596 465,573 Q484,550 492.5,517 Q501,484 501,443 L501,252 Q501,211 492.5,178 Q484,145 465,122 Q446,99 415.5,86.5 Q385,74 341,74 L275,74 L275,0 L265,0 L265,74 L199,74 Q155,74 124.5,86.5 Q94,99 75.5,122 Q57,145 48.5,178 Q40,211 40,252 L40,443 Q40,484 48.5,517 Q57,550 75.5,573 Q94,596 124.5,608.5 Q155,621 199,621 L265,621 L265,700 L275,700 L275,621 M199,611 Q116,611 83,566 Q50,521 50,443 L50,252 Q50,174 83,129 Q116,84 199,84 L265,84 L265,611 M341,84 Q424,84 457.5,129 Q491,174 491,252 L491,443 Q491,521 458,566 Q425,611 341,611 L275,611 L275,84"/> 
            <glyph glyph-name="Х" unicode="&#x425;" horiz-adv-x="406" d=" M223,353 L52,0 L40,0 L218,364 L52,700 L63,700 L223,375 L383,700 L394,700 L229,364 L406,0 L395,0"/> 
            <glyph glyph-name="ж" unicode="&#x436;" horiz-adv-x="593" d=" M379,372 L321,278 L321,0 L311,0 L311,279 L254,372 L51,0 L40,0 L248,381 L52,700 L63,700 L311,296 L311,700 L321,700 L321,296 L569,700 L581,700 L385,381 L593,0 L582,0"/> 
            <glyph glyph-name="з" unicode="&#x437;" horiz-adv-x="328" d=" M184,705 Q224,705 251.5,690.5 Q279,676 296,652 Q313,628 320.5,596 Q328,564 328,528 L328,510 Q328,460 300,419.5 Q272,379 222,365 Q275,354 301.5,315.5 Q328,277 328,226 L328,172 Q328,136 320.5,104 Q313,72 296,48 Q279,24 251.5,9.5 Q224,-5 184,-5 Q144,-5 116.5,9.5 Q89,24 72,48 Q55,72 47.5,104 Q40,136 40,172 L40,220 L50,220 L50,172 Q50,139 56.5,108.5 Q63,78 79,55 Q95,32 120.5,18.5 Q146,5 184,5 Q222,5 247.5,18.5 Q273,32 289,55 Q305,78 311.5,108.5 Q318,139 318,172 L318,226 Q318,254 309,278.5 Q300,303 283.5,321 Q267,339 243,349.5 Q219,360 190,360 L143,360 L143,370 L190,370 Q218,370 241.5,382 Q265,394 282,413.5 Q299,433 308.5,458 Q318,483 318,510 L318,528 Q318,562 311.5,592 Q305,622 289,645 Q273,668 247.5,681.5 Q222,695 184,695 Q146,695 120.5,681.5 Q95,668 79,645 Q63,622 56.5,592 Q50,562 50,528 L50,501 L40,501 L40,528 Q40,564 47.5,596 Q55,628 72,652 Q89,676 116.5,690.5 Q144,705 184,705"/> 
            <glyph glyph-name="и" unicode="&#x438;" horiz-adv-x="331" d=" M55,0 L40,0 L40,700 L50,700 L50,13 L155,287 L314,700 L331,700 L331,0 L321,0 L321,690"/> 
            <glyph glyph-name="й" unicode="&#x439;" horiz-adv-x="331" d=" M285,815 Q283,781 255.5,763 Q228,745 193,745 Q158,745 130,762.5 Q102,780 101,815 L112,815 Q113,784 137.5,769 Q162,754 193,754 Q223,754 247.5,769 Q272,784 274,815 M198,370 L55,0 L40,0 L40,700 L50,700 L50,13 L166,316 L314,700 L331,700 L331,0 L321,0 L321,690"/> 
            <glyph glyph-name="к" unicode="&#x43A;" horiz-adv-x="359" d=" M106,357 L50,275 L50,0 L40,0 L40,700 L50,700 L50,293 L326,700 L338,700 L112,366 L359,0 L347,0"/> 
            <glyph glyph-name="л" unicode="&#x43B;" horiz-adv-x="392" d=" M169,690 L147,168 Q145,139 143,109.5 Q141,80 131.5,56 Q122,32 102,16 Q82,0 45,-1 L40,-1 L40,9 Q76,9 95.5,24 Q115,39 124,62 Q133,85 134.5,113.5 Q136,142 137,169 L159,700 L392,700 L392,0 L382,0 L382,690"/> 
            <glyph glyph-name="м" unicode="&#x43C;" horiz-adv-x="445" d=" M249,2 L235,2 L50,690 L50,0 L40,0 L40,700 L58,700 L242,13 L428,700 L445,700 L445,0 L435,0 L435,690"/> 
            <glyph glyph-name="н" unicode="&#x43D;" horiz-adv-x="330" d=" M50,345 L50,0 L40,0 L40,700 L50,700 L50,355 L320,355 L320,700 L330,700 L330,0 L320,0 L320,345"/> 
            <glyph glyph-name="о" unicode="&#x43E;" horiz-adv-x="333" d=" M40,528 Q40,564 48,596 Q56,628 73.5,652.5 Q91,677 118.5,691 Q146,705 186,705 Q226,705 254,691 Q282,677 299.5,652.5 Q317,628 325,596 Q333,564 333,528 L333,172 Q333,136 325,104 Q317,72 299.5,47.5 Q282,23 254,9 Q226,-5 186,-5 Q146,-5 118.5,9 Q91,23 73.5,47.5 Q56,72 48,104 Q40,136 40,172 M50,172 Q50,138 57,107.5 Q64,77 80,54.5 Q96,32 122,18.5 Q148,5 186,5 Q224,5 250,18.5 Q276,32 292.5,54.5 Q309,77 316,107.5 Q323,138 323,172 L323,528 Q323,562 316,592 Q309,622 292.5,645 Q276,668 250,681.5 Q224,695 186,695 Q148,695 122,681.5 Q96,668 80,645 Q64,622 57,592 Q50,562 50,528"/> 
            <glyph glyph-name="п" unicode="&#x43F;" horiz-adv-x="330" d=" M50,690 L50,0 L40,0 L40,700 L330,700 L330,0 L320,0 L320,690"/> 
            <glyph glyph-name="р" unicode="&#x440;" horiz-adv-x="317" d=" M175,700 Q215,700 242.5,687 Q270,674 286.5,651.5 Q303,629 310,598.5 Q317,568 317,532 L317,464 Q317,381 279,341.5 Q241,302 156,302 L50,302 L50,0 L40,0 L40,700 M156,312 Q237,312 272,348.5 Q307,385 307,464 L307,532 Q307,566 300.5,595 Q294,624 279,645 Q264,666 238.5,678 Q213,690 175,690 L50,690 L50,312"/> 
            <glyph glyph-name="с" unicode="&#x441;" horiz-adv-x="328" d=" M184,705 Q224,705 251.5,690.5 Q279,676 296,651.5 Q313,627 320.5,595 Q328,563 328,528 L328,475 L318,475 L318,528 Q318,561 311,591.5 Q304,622 288.5,645 Q273,668 247,681.5 Q221,695 184,695 Q146,695 120.5,681.5 Q95,668 79.5,645 Q64,622 57,591.5 Q50,561 50,528 L50,172 Q50,139 57,108.5 Q64,78 79.5,55 Q95,32 120.5,18.5 Q146,5 184,5 Q221,5 247,18.5 Q273,32 288.5,55 Q304,78 311,108.5 Q318,139 318,172 L318,246 L328,246 L328,172 Q328,137 320.5,105 Q313,73 296,48.5 Q279,24 251.5,9.5 Q224,-5 184,-5 Q144,-5 116.5,9.5 Q89,24 72,48.5 Q55,73 47.5,105 Q40,137 40,172 L40,528 Q40,563 47.5,595 Q55,627 72,651.5 Q89,676 116.5,690.5 Q144,705 184,705"/> 
            <glyph glyph-name="т" unicode="&#x442;" horiz-adv-x="366" d=" M198,0 L198,690 L40,690 L40,700 L366,700 L366,690 L208,690 L208,0"/> 
            <glyph glyph-name="у" unicode="&#x443;" horiz-adv-x="396" d=" M180,103 Q172,80 163,61 Q154,42 141,28.5 Q128,15 109.5,7.5 Q91,0 64,0 L64,10 Q89,10 106,17 Q123,24 135,36.5 Q147,49 155,67 Q163,85 171,106 L217,235 L40,700 L51,700 L146,449 L222,249 L385,700 L396,700"/> 
            <glyph glyph-name="ф" unicode="&#x444;" horiz-adv-x="501" d=" M341,621 Q385,621 415.5,608.5 Q446,596 465,573 Q484,550 492.5,517 Q501,484 501,443 L501,252 Q501,211 492.5,178 Q484,145 465,122 Q446,99 415.5,86.5 Q385,74 341,74 L275,74 L275,0 L265,0 L265,74 L199,74 Q155,74 124.5,86.5 Q94,99 75.5,122 Q57,145 48.5,178 Q40,211 40,252 L40,443 Q40,484 48.5,517 Q57,550 75.5,573 Q94,596 124.5,608.5 Q155,621 199,621 L265,621 L265,700 L275,700 L275,621 M199,611 Q116,611 83,566 Q50,521 50,443 L50,252 Q50,174 83,129 Q116,84 199,84 L265,84 L265,611 M341,84 Q424,84 457.5,129 Q491,174 491,252 L491,443 Q491,521 458,566 Q425,611 341,611 L275,611 L275,84"/> 
            <glyph glyph-name="х" unicode="&#x445;" horiz-adv-x="406" d=" M223,353 L52,0 L40,0 L218,364 L52,700 L63,700 L223,375 L383,700 L394,700 L229,364 L406,0 L395,0"/> 
            <glyph glyph-name="ё" unicode="&#x451;" horiz-adv-x="302" d=" M144,828 L144,750 L134,750 L134,828 M210,828 L210,750 L200,750 L200,828 M263,360 L263,350 L50,350 L50,10 L302,10 L302,0 L40,0 L40,700 L302,700 L302,690 L50,690 L50,360"/> 
            <glyph glyph-name="‘" unicode="&#x2018;" horiz-adv-x="65" d=" M58,700 L65,700 L49,638 L50,638 L50,560 L40,560 L40,638"/> 
            <glyph glyph-name="’" unicode="&#x2019;" horiz-adv-x="65" d=" M47,560 L40,560 L56,622 L55,622 L55,700 L65,700 L65,622"/> 
            <glyph glyph-name="‚" unicode="&#x201A;" horiz-adv-x="65" d=" M47,-62 L40,-62 L56,0 L55,0 L55,78 L65,78 L65,0"/> 
            <glyph glyph-name="…" unicode="&#x2026;" horiz-adv-x="134" d=" M50,78 L50,0 L40,0 L40,78 M91,78 L91,0 L81,0 L81,78 M134,78 L134,0 L124,0 L124,78"/> 
            <glyph glyph-name="‰" unicode="&#x2030;" horiz-adv-x="795" d=" M128,701 Q153,701 170,691 Q187,681 197,665 Q207,649 211.5,628.5 Q216,608 216,586 L216,383 Q216,361 211.5,340.5 Q207,320 197,304 Q187,288 170,278.5 Q153,269 128,269 Q103,269 86,278.5 Q69,288 59,304 Q49,320 44.5,340.5 Q40,361 40,383 L40,586 Q40,608 44.5,628.5 Q49,649 59,665 Q69,681 86,691 Q103,701 128,701 M439,701 L163,0 L152,0 L428,701 M128,691 Q105,691 90,682 Q75,673 66,658 Q57,643 53.5,624 Q50,605 50,586 L50,383 Q50,363 53.5,344.5 Q57,326 66,311.5 Q75,297 90,288 Q105,279 128,279 Q151,279 166,288 Q181,297 190,311.5 Q199,326 202.5,344.5 Q206,363 206,383 L206,586 Q206,605 202.5,624 Q199,643 190,658 Q181,673 166,682 Q151,691 128,691 M465,428 Q490,428 507,418.5 Q524,409 534.5,393 Q545,377 549,356.5 Q553,336 553,314 L553,115 Q553,93 549,72.5 Q545,52 534.5,36 Q524,20 507,10 Q490,0 465,0 Q440,0 423,10 Q406,20 396,36 Q386,52 381.5,72.5 Q377,93 377,115 L377,314 Q377,336 381.5,356.5 Q386,377 396,393 Q406,409 423,418.5 Q440,428 465,428 M707,428 Q732,428 749,418.5 Q766,409 776.5,393 Q787,377 791,356.5 Q795,336 795,314 L795,115 Q795,93 791,72.5 Q787,52 776.5,36 Q766,20 749,10 Q732,0 707,0 Q682,0 665,10 Q648,20 638,36 Q628,52 623.5,72.5 Q619,93 619,115 L619,314 Q619,336 623.5,356.5 Q628,377 638,393 Q648,409 665,418.5 Q682,428 707,428 M465,418 Q442,418 427,409 Q412,400 403,385.5 Q394,371 390.5,352 Q387,333 387,314 L387,115 Q387,95 390.5,76.5 Q394,58 403,43 Q412,28 427,19 Q442,10 465,10 Q488,10 503,19 Q518,28 527,43 Q536,58 539.5,76.5 Q543,95 543,115 L543,314 Q543,333 539.5,352 Q536,371 527,385.5 Q518,400 503,409 Q488,418 465,418 M707,418 Q684,418 669,409 Q654,400 645,385.5 Q636,371 632.5,352 Q629,333 629,314 L629,115 Q629,95 632.5,76.5 Q636,58 645,43 Q654,28 669,19 Q684,10 707,10 Q730,10 745,19 Q760,28 769,43 Q778,58 781.5,76.5 Q785,95 785,115 L785,314 Q785,333 781.5,352 Q778,371 769,385.5 Q760,400 745,409 Q730,418 707,418"/> 
            <glyph glyph-name="‹" unicode="&#x2039;" horiz-adv-x="117" d=" M40,350 L107,588 L117,588 L50,350 L117,113 L107,113"/> 
            <glyph glyph-name="›" unicode="&#x203A;" horiz-adv-x="117" d=" M107,351 L40,589 L50,589 L117,351 L50,114 L40,114"/> 
            <glyph glyph-name="⁄" unicode="&#x2044;" horiz-adv-x="326" d=" M326,700 L50,0 L40,0 L316,700"/> 
            <glyph glyph-name="⁰" unicode="&#x2070;" horiz-adv-x="230" d=" M40,686 Q40,709 45,730 Q50,751 61.5,766.5 Q73,782 91,791 Q109,800 135,800 Q161,800 179,791 Q197,782 208.5,766.5 Q220,751 225,730 Q230,709 230,686 L230,460 Q230,437 225,416 Q220,395 208.5,379.5 Q197,364 179,355 Q161,346 135,346 Q109,346 91,355 Q73,364 61.5,379.5 Q50,395 45,416 Q40,437 40,460 M50,460 Q50,418 69,387 Q88,356 135,356 Q182,356 201,387 Q220,418 220,460 L220,686 Q220,728 201,759 Q182,790 135,790 Q88,790 69,759 Q50,728 50,686"/> 
            <glyph glyph-name="⁴" unicode="&#x2074;" horiz-adv-x="250" d=" M212,456 L212,351 L202,351 L202,456 L40,456 L40,466 L199,795 L212,795 L212,466 L250,466 L250,456 M51,466 L202,466 L202,778"/> 
            <glyph glyph-name="⁵" unicode="&#x2075;" horiz-adv-x="226" d=" M50,458 Q50,437 54,418.5 Q58,400 68,385.5 Q78,371 94,362.5 Q110,354 133,354 Q157,354 172.5,362.5 Q188,371 198,385.5 Q208,400 212,418.5 Q216,437 216,458 L216,521 Q216,542 212,560.5 Q208,579 198,593.5 Q188,608 172.5,616.5 Q157,625 133,625 Q109,625 86,610.5 Q63,596 57,572 L57,568 L47,568 L58,795 L216,795 L216,785 L67,785 L58,595 Q71,615 90.5,625 Q110,635 133,635 Q158,635 176,626 Q194,617 205,601 Q216,585 221,564.5 Q226,544 226,521 L226,458 Q226,435 221,414.5 Q216,394 205,378 Q194,362 176,353 Q158,344 133,344 Q107,344 89.5,353 Q72,362 61,378 Q50,394 45,414.5 Q40,435 40,458 L40,475 L50,475"/> 
            <glyph glyph-name="⁶" unicode="&#x2076;" horiz-adv-x="230" d=" M135,800 Q161,800 178.5,791 Q196,782 207,767 Q218,752 223,731.5 Q228,711 228,688 L228,686 L218,686 L218,688 Q218,730 200,760 Q182,790 135,790 Q88,790 69,759 Q50,728 50,686 L50,558 Q73,614 135,614 Q161,614 179,604.5 Q197,595 208.5,579.5 Q220,564 225,543 Q230,522 230,499 L230,460 Q230,437 225,416 Q220,395 208.5,379.5 Q197,364 179,355 Q161,346 135,346 Q109,346 91,355 Q73,364 61.5,379.5 Q50,395 45,416 Q40,437 40,460 L40,686 Q40,709 45,730 Q50,751 61.5,766.5 Q73,782 91,791 Q109,800 135,800 M135,604 Q88,604 69,573 Q50,542 50,499 L50,460 Q50,418 69,387 Q88,356 135,356 Q182,356 201,387 Q220,418 220,460 L220,499 Q220,542 201,573 Q182,604 135,604"/> 
            <glyph glyph-name="⁷" unicode="&#x2077;" horiz-adv-x="225" d=" M214,785 L40,785 L40,795 L225,795 L225,786 L88,351 L77,351"/> 
            <glyph glyph-name="⁸" unicode="&#x2078;" horiz-adv-x="236" d=" M138,800 Q188,800 212,770 Q236,740 236,693 L236,678 Q236,645 222.5,619 Q209,593 176,582 Q210,572 223,545.5 Q236,519 236,486 L236,456 Q236,408 212.5,377 Q189,346 138,346 Q87,346 63.5,377 Q40,408 40,456 L40,486 Q40,519 53,545.5 Q66,572 100,582 Q67,593 53.5,619 Q40,645 40,678 L40,693 Q40,740 64,770 Q88,800 138,800 M138,790 Q93,790 71.5,763 Q50,736 50,693 L50,678 Q50,634 71.5,610.5 Q93,587 138,587 Q183,587 204.5,610.5 Q226,634 226,678 L226,693 Q226,736 204.5,763 Q183,790 138,790 M138,577 Q92,577 71,554 Q50,531 50,486 L50,456 Q50,412 70.5,384 Q91,356 138,356 Q185,356 205.5,384 Q226,412 226,456 L226,486 Q226,531 205,554 Q184,577 138,577"/> 
            <glyph glyph-name="⁹" unicode="&#x2079;" horiz-adv-x="230" d=" M135,800 Q161,800 179,791 Q197,782 208.5,766.5 Q220,751 225,730 Q230,709 230,686 L230,460 Q230,437 225,416 Q220,395 208.5,379.5 Q197,364 179,355 Q161,346 135,346 Q84,346 62,378.5 Q40,411 40,458 L40,461 L50,461 L50,458 Q50,416 69,386 Q88,356 135,356 Q182,356 201,387 Q220,418 220,460 L220,587 Q209,559 187,545.5 Q165,532 135,532 Q109,532 91,541 Q73,550 61.5,565.5 Q50,581 45,602 Q40,623 40,646 L40,686 Q40,709 45,730 Q50,751 61.5,766.5 Q73,782 91,791 Q109,800 135,800 M135,790 Q88,790 69,759 Q50,728 50,686 L50,646 Q50,604 69,573 Q88,542 135,542 Q182,542 201,573 Q220,604 220,646 L220,686 Q220,728 201,759 Q182,790 135,790"/> 
            <glyph glyph-name="₀" unicode="&#x2080;" horiz-adv-x="230" d=" M40,270 Q40,293 45,314 Q50,335 61.5,350.5 Q73,366 91,375 Q109,384 135,384 Q161,384 179,375 Q197,366 208.5,350.5 Q220,335 225,314 Q230,293 230,270 L230,44 Q230,21 225,0 Q220,-21 208.5,-36.5 Q197,-52 179,-61 Q161,-70 135,-70 Q109,-70 91,-61 Q73,-52 61.5,-36.5 Q50,-21 45,0 Q40,21 40,44 M50,44 Q50,2 69,-29 Q88,-60 135,-60 Q182,-60 201,-29 Q220,2 220,44 L220,270 Q220,312 201,343 Q182,374 135,374 Q88,374 69,343 Q50,312 50,270"/> 
            <glyph glyph-name="₁" unicode="&#x2081;" horiz-adv-x="125" d=" M115,359 Q104,337 85,323 Q66,309 41,306 L40,316 Q67,319 85.5,336 Q104,353 112,379 L125,379 L125,-65 L115,-65"/> 
            <glyph glyph-name="₂" unicode="&#x2082;" horiz-adv-x="226" d=" M133,384 Q160,384 177.5,374.5 Q195,365 206,349 Q217,333 221.5,312 Q226,291 226,268 Q226,237 213.5,213 Q201,189 181.5,166.5 Q162,144 139.5,122 Q117,100 97.5,74.5 Q78,49 64.5,18 Q51,-13 50,-53 L50,-55 L222,-55 L222,-65 L40,-65 L40,-60 Q40,-17 53,15.5 Q66,48 85.5,74.5 Q105,101 128,123.5 Q151,146 170.5,168.5 Q190,191 203,214.5 Q216,238 216,268 Q216,289 212,308 Q208,327 198.5,342 Q189,357 173,365.5 Q157,374 133,374 Q109,374 93,365 Q77,356 67.5,341 Q58,326 54,306.5 Q50,287 50,266 L50,245 L40,245 L40,266 Q40,289 44.5,310.5 Q49,332 60,348.5 Q71,365 89,374.5 Q107,384 133,384"/> 
            <glyph glyph-name="₃" unicode="&#x2083;" horiz-adv-x="226" d=" M133,384 Q158,384 176,375 Q194,366 205,350 Q216,334 221,313.5 Q226,293 226,270 L226,259 Q226,229 210.5,203 Q195,177 166,166 Q195,158 210.5,133.5 Q226,109 226,78 L226,44 Q226,21 221,0.5 Q216,-20 205,-36 Q194,-52 176,-61 Q158,-70 133,-70 Q107,-70 89.5,-61 Q72,-52 61,-36 Q50,-20 45,0.5 Q40,21 40,44 L40,63 L50,63 L50,44 Q50,23 54,4 Q58,-15 68,-29 Q78,-43 93.5,-51.5 Q109,-60 133,-60 Q157,-60 172.5,-51.5 Q188,-43 198,-29 Q208,-15 212,4 Q216,23 216,44 L216,78 Q216,112 196,136.5 Q176,161 140,161 L107,161 L107,171 L140,171 Q157,171 171.5,178.5 Q186,186 196,198.5 Q206,211 211,227 Q216,243 216,259 L216,270 Q216,291 212,309.5 Q208,328 198,342.5 Q188,357 172.5,365.5 Q157,374 133,374 Q109,374 93.5,365.5 Q78,357 68,342.5 Q58,328 54,309.5 Q50,291 50,270 L50,258 L40,258 L40,270 Q40,293 45,313.5 Q50,334 61,350 Q72,366 89.5,375 Q107,384 133,384"/> 
            <glyph glyph-name="₄" unicode="&#x2084;" horiz-adv-x="250" d=" M212,35 L212,-70 L202,-70 L202,35 L40,35 L40,45 L199,374 L212,374 L212,45 L250,45 L250,35 M51,45 L202,45 L202,357"/> 
            <glyph glyph-name="₅" unicode="&#x2085;" horiz-adv-x="226" d=" M50,47 Q50,26 54,7.5 Q58,-11 68,-25.5 Q78,-40 94,-48.5 Q110,-57 133,-57 Q157,-57 172.5,-48.5 Q188,-40 198,-25.5 Q208,-11 212,7.5 Q216,26 216,47 L216,110 Q216,131 212,149.5 Q208,168 198,182.5 Q188,197 172.5,205.5 Q157,214 133,214 Q109,214 86,199.5 Q63,185 57,161 L57,157 L47,157 L58,384 L216,384 L216,374 L67,374 L58,184 Q71,204 90.5,214 Q110,224 133,224 Q158,224 176,215 Q194,206 205,190 Q216,174 221,153.5 Q226,133 226,110 L226,47 Q226,24 221,3.5 Q216,-17 205,-33 Q194,-49 176,-58 Q158,-67 133,-67 Q107,-67 89.5,-58 Q72,-49 61,-33 Q50,-17 45,3.5 Q40,24 40,47 L40,64 L50,64"/> 
            <glyph glyph-name="₆" unicode="&#x2086;" horiz-adv-x="230" d=" M135,384 Q161,384 178.5,375 Q196,366 207,351 Q218,336 223,315.5 Q228,295 228,272 L228,270 L218,270 L218,272 Q218,314 200,344 Q182,374 135,374 Q88,374 69,343 Q50,312 50,270 L50,142 Q73,198 135,198 Q161,198 179,188.5 Q197,179 208.5,163.5 Q220,148 225,127 Q230,106 230,83 L230,44 Q230,21 225,0 Q220,-21 208.5,-36.5 Q197,-52 179,-61 Q161,-70 135,-70 Q109,-70 91,-61 Q73,-52 61.5,-36.5 Q50,-21 45,0 Q40,21 40,44 L40,270 Q40,293 45,314 Q50,335 61.5,350.5 Q73,366 91,375 Q109,384 135,384 M135,188 Q88,188 69,157 Q50,126 50,83 L50,44 Q50,2 69,-29 Q88,-60 135,-60 Q182,-60 201,-29 Q220,2 220,44 L220,83 Q220,126 201,157 Q182,188 135,188"/> 
            <glyph glyph-name="₇" unicode="&#x2087;" horiz-adv-x="225" d=" M214,374 L40,374 L40,384 L225,384 L225,375 L88,-60 L77,-60"/> 
            <glyph glyph-name="₈" unicode="&#x2088;" horiz-adv-x="236" d=" M138,384 Q188,384 212,354 Q236,324 236,277 L236,262 Q236,229 222.5,203 Q209,177 176,166 Q210,156 223,129.5 Q236,103 236,70 L236,40 Q236,-8 212.5,-39 Q189,-70 138,-70 Q87,-70 63.5,-39 Q40,-8 40,40 L40,70 Q40,103 53,129.5 Q66,156 100,166 Q67,177 53.5,203 Q40,229 40,262 L40,277 Q40,324 64,354 Q88,384 138,384 M138,374 Q93,374 71.5,347 Q50,320 50,277 L50,262 Q50,218 71.5,194.5 Q93,171 138,171 Q183,171 204.5,194.5 Q226,218 226,262 L226,277 Q226,320 204.5,347 Q183,374 138,374 M138,161 Q92,161 71,138 Q50,115 50,70 L50,40 Q50,-4 70.5,-32 Q91,-60 138,-60 Q185,-60 205.5,-32 Q226,-4 226,40 L226,70 Q226,115 205,138 Q184,161 138,161"/> 
            <glyph glyph-name="₉" unicode="&#x2089;" horiz-adv-x="230" d=" M135,384 Q161,384 179,375 Q197,366 208.5,350.5 Q220,335 225,314 Q230,293 230,270 L230,44 Q230,21 225,0 Q220,-21 208.5,-36.5 Q197,-52 179,-61 Q161,-70 135,-70 Q84,-70 62,-37.5 Q40,-5 40,42 L40,45 L50,45 L50,42 Q50,0 69,-30 Q88,-60 135,-60 Q182,-60 201,-29 Q220,2 220,44 L220,171 Q209,143 187,129.5 Q165,116 135,116 Q109,116 91,125 Q73,134 61.5,149.5 Q50,165 45,186 Q40,207 40,230 L40,270 Q40,293 45,314 Q50,335 61.5,350.5 Q73,366 91,375 Q109,384 135,384 M135,374 Q88,374 69,343 Q50,312 50,270 L50,230 Q50,188 69,157 Q88,126 135,126 Q182,126 201,157 Q220,188 220,230 L220,270 Q220,312 201,343 Q182,374 135,374"/> 
            <glyph glyph-name="€" unicode="&#x20AC;" horiz-adv-x="358" d=" M77,528 Q77,563 84.5,595 Q92,627 108.5,651.5 Q125,676 152,690.5 Q179,705 218,705 Q257,705 283.5,690.5 Q310,676 326.5,651.5 Q343,627 350.5,595 Q358,563 358,528 L358,497 L348,497 L348,528 Q348,561 341.5,591 Q335,621 320,644 Q305,667 280,681 Q255,695 218,695 Q181,695 156,681 Q131,667 115.5,644 Q100,621 93.5,591 Q87,561 87,528 L87,411 L301,411 L301,401 L87,401 L87,303 L301,303 L301,293 L87,293 L87,172 Q87,139 93.5,109 Q100,79 115,56 Q130,33 155,19 Q180,5 218,5 Q255,5 280,19 Q305,33 320,56 Q335,79 341.5,109 Q348,139 348,172 L348,209 L358,209 L358,172 Q358,137 350.5,105.5 Q343,74 326.5,49 Q310,24 283.5,9.5 Q257,-5 218,-5 Q179,-5 152,9.5 Q125,24 108.5,49 Q92,74 84.5,105.5 Q77,137 77,172 L77,293 L30,293 L30,303 L77,303 L77,401 L30,401 L30,411 L77,411"/> 
            <glyph glyph-name="₹" unicode="&#x20B9;" horiz-adv-x="331" d=" M160,690 Q188,680 208.5,661.5 Q229,643 241.5,619 Q254,595 260,567 Q266,539 266,511 L331,511 L331,501 L266,501 Q265,468 255,439 Q245,410 225,388.5 Q205,367 173.5,355 Q142,343 97,343 L54,343 L314,0 L301,0 L40,345 L40,353 L97,353 Q139,353 168.5,364.5 Q198,376 217,396 Q236,416 245.5,443 Q255,470 256,501 L44,501 L44,511 L256,511 Q256,549 246,581.5 Q236,614 216.5,638 Q197,662 167,676 Q137,690 97,690 L44,690 L44,700 L331,700 L331,690"/> 
            <glyph glyph-name="℗" unicode="&#x2117;" horiz-adv-x="714" d=" M377,697 Q451,697 513,670.5 Q575,644 619.5,597.5 Q664,551 689,487.5 Q714,424 714,351 Q714,278 689,214.5 Q664,151 619.5,104.5 Q575,58 513,31.5 Q451,5 377,5 Q303,5 241,31.5 Q179,58 134.5,104.5 Q90,151 65,214.5 Q40,278 40,351 Q40,424 65,487.5 Q90,551 134.5,597.5 Q179,644 241,670.5 Q303,697 377,697 M377,687 Q305,687 245,661 Q185,635 141.5,590 Q98,545 74,483.5 Q50,422 50,351 Q50,280 74,218.5 Q98,157 141.5,111.5 Q185,66 245,40 Q305,14 377,14 Q449,14 509,40 Q569,66 612.5,111.5 Q656,157 680,218.5 Q704,280 704,351 Q704,422 680,483.5 Q656,545 612.5,590 Q569,635 509,661 Q449,687 377,687 M397,556 Q425,556 444,547 Q463,538 474.5,522.5 Q486,507 491,485.5 Q496,464 496,439 L496,415 Q496,357 469.5,329 Q443,301 384,301 L312,301 L312,128 L302,128 L302,556 M384,311 Q438,311 462,336 Q486,361 486,415 L486,439 Q486,462 482,481.5 Q478,501 467.5,515.5 Q457,530 440,538 Q423,546 397,546 L312,546 L312,311"/> 
            <glyph glyph-name="™" unicode="&#x2122;" horiz-adv-x="536" d=" M116,344 L116,690 L17,690 L17,700 L224,700 L224,690 L126,690 L126,344 M411,351 L399,351 L285,682 L285,344 L275,344 L275,700 L289,700 L405,365 L522,700 L536,700 L536,344 L526,344 L526,682"/> 
            <glyph glyph-name="⅓" unicode="&#x2153;" horiz-adv-x="492" d=" M115,680 Q104,658 85,644 Q66,630 41,627 L40,637 Q67,640 85.5,657 Q104,674 112,700 L125,700 L125,256 L115,256 M372,700 L96,0 L86,0 L362,700 M399,449 Q424,449 442,440 Q460,431 471,415 Q482,399 487,378.5 Q492,358 492,335 L492,324 Q492,294 476.5,268.5 Q461,243 432,232 Q463,222 477.5,198 Q492,174 492,143 L492,109 Q492,86 487,65.5 Q482,45 471,29 Q460,13 442,4 Q424,-5 399,-5 Q373,-5 355.5,4 Q338,13 327,29 Q316,45 311,65.5 Q306,86 306,109 L306,128 L316,128 L316,109 Q316,88 320,69 Q324,50 334,36 Q344,22 359.5,13.5 Q375,5 399,5 Q423,5 438.5,13.5 Q454,22 464,36 Q474,50 478,69 Q482,88 482,109 L482,143 Q482,177 462,201.5 Q442,226 406,226 L373,226 L373,236 L406,236 Q423,236 437.5,243.5 Q452,251 462,263.5 Q472,276 477,292 Q482,308 482,324 L482,335 Q482,356 478,374.5 Q474,393 464,407.5 Q454,422 438.5,430.5 Q423,439 399,439 Q375,439 359.5,430.5 Q344,422 334,407.5 Q324,393 320,374.5 Q316,356 316,335 L316,323 L306,323 L306,335 Q306,358 311,378.5 Q316,399 327,415 Q338,431 355.5,440 Q373,449 399,449"/> 
            <glyph glyph-name="⅔" unicode="&#x2154;" horiz-adv-x="560" d=" M133,705 Q160,705 177.5,695.5 Q195,686 206,670 Q217,654 221.5,633 Q226,612 226,589 Q226,558 213.5,534 Q201,510 181.5,487.5 Q162,465 139.5,443 Q117,421 97.5,395.5 Q78,370 64.5,339 Q51,308 50,268 L50,266 L222,266 L222,256 L40,256 L40,261 Q40,304 53,336.5 Q66,369 85.5,395.5 Q105,422 128,444.5 Q151,467 170.5,489.5 Q190,512 203,535.5 Q216,559 216,589 Q216,610 212,629 Q208,648 198.5,663 Q189,678 173,686.5 Q157,695 133,695 Q109,695 93,686 Q77,677 67.5,662 Q58,647 54,627.5 Q50,608 50,587 L50,566 L40,566 L40,587 Q40,610 44.5,631.5 Q49,653 60,669.5 Q71,686 89,695.5 Q107,705 133,705 M164,0 L154,0 L430,700 L440,700 M467,449 Q492,449 510,440 Q528,431 539,415 Q550,399 555,378.5 Q560,358 560,335 L560,324 Q560,294 544.5,268.5 Q529,243 500,232 Q531,222 545.5,198 Q560,174 560,143 L560,109 Q560,86 555,65.5 Q550,45 539,29 Q528,13 510,4 Q492,-5 467,-5 Q441,-5 423.5,4 Q406,13 395,29 Q384,45 379,65.5 Q374,86 374,109 L374,128 L384,128 L384,109 Q384,88 388,69 Q392,50 402,36 Q412,22 427.5,13.5 Q443,5 467,5 Q491,5 506.5,13.5 Q522,22 532,36 Q542,50 546,69 Q550,88 550,109 L550,143 Q550,177 530,201.5 Q510,226 474,226 L441,226 L441,236 L474,236 Q491,236 505.5,243.5 Q520,251 530,263.5 Q540,276 545,292 Q550,308 550,324 L550,335 Q550,356 546,374.5 Q542,393 532,407.5 Q522,422 506.5,430.5 Q491,439 467,439 Q443,439 427.5,430.5 Q412,422 402,407.5 Q392,393 388,374.5 Q384,356 384,335 L384,323 L374,323 L374,335 Q374,358 379,378.5 Q384,399 395,415 Q406,431 423.5,440 Q441,449 467,449"/> 
            <glyph glyph-name="⅛" unicode="&#x215B;" horiz-adv-x="507" d=" M115,680 Q104,658 85,644 Q66,630 41,627 L40,637 Q67,640 85.5,657 Q104,674 112,700 L125,700 L125,256 L115,256 M86,0 L362,700 L372,700 L96,0 M409,449 Q459,449 483,419 Q507,389 507,342 L507,327 Q507,294 493.5,268 Q480,242 447,231 Q481,221 494,194.5 Q507,168 507,135 L507,105 Q507,57 483.5,26 Q460,-5 409,-5 Q358,-5 334.5,26 Q311,57 311,105 L311,135 Q311,168 324,194.5 Q337,221 371,231 Q338,242 324.5,268 Q311,294 311,327 L311,342 Q311,389 335,419 Q359,449 409,449 M409,439 Q364,439 342.5,412 Q321,385 321,342 L321,327 Q321,283 342.5,259.5 Q364,236 409,236 Q454,236 475.5,259.5 Q497,283 497,327 L497,342 Q497,385 475.5,412 Q454,439 409,439 M409,226 Q363,226 342,203 Q321,180 321,135 L321,105 Q321,61 341.5,33 Q362,5 409,5 Q456,5 476.5,33 Q497,61 497,105 L497,135 Q497,180 476,203 Q455,226 409,226"/> 
            <glyph glyph-name="⅜" unicode="&#x215C;" horiz-adv-x="585" d=" M133,705 Q158,705 176,696 Q194,687 205,671 Q216,655 221,634.5 Q226,614 226,591 L226,580 Q226,550 210.5,524.5 Q195,499 166,488 Q197,478 211.5,454 Q226,430 226,399 L226,365 Q226,342 221,321.5 Q216,301 205,285 Q194,269 176,260 Q158,251 133,251 Q107,251 89.5,260 Q72,269 61,285 Q50,301 45,321.5 Q40,342 40,365 L40,384 L50,384 L50,365 Q50,344 54,325 Q58,306 68,292 Q78,278 93.5,269.5 Q109,261 133,261 Q157,261 172.5,269.5 Q188,278 198,292 Q208,306 212,325 Q216,344 216,365 L216,399 Q216,433 196,457.5 Q176,482 140,482 L107,482 L107,492 L140,492 Q157,492 171.5,499.5 Q186,507 196,519.5 Q206,532 211,548 Q216,564 216,580 L216,591 Q216,612 212,630.5 Q208,649 198,663.5 Q188,678 172.5,686.5 Q157,695 133,695 Q109,695 93.5,686.5 Q78,678 68,663.5 Q58,649 54,630.5 Q50,612 50,591 L50,579 L40,579 L40,591 Q40,614 45,634.5 Q50,655 61,671 Q72,687 89.5,696 Q107,705 133,705 M450,700 L174,0 L164,0 L440,700 M487,449 Q537,449 561,419 Q585,389 585,342 L585,327 Q585,294 571.5,268 Q558,242 525,231 Q559,221 572,194.5 Q585,168 585,135 L585,105 Q585,57 561.5,26 Q538,-5 487,-5 Q436,-5 412.5,26 Q389,57 389,105 L389,135 Q389,168 402,194.5 Q415,221 449,231 Q416,242 402.5,268 Q389,294 389,327 L389,342 Q389,389 413,419 Q437,449 487,449 M487,439 Q442,439 420.5,412 Q399,385 399,342 L399,327 Q399,283 420.5,259.5 Q442,236 487,236 Q532,236 553.5,259.5 Q575,283 575,327 L575,342 Q575,385 553.5,412 Q532,439 487,439 M487,226 Q441,226 420,203 Q399,180 399,135 L399,105 Q399,61 419.5,33 Q440,5 487,5 Q534,5 554.5,33 Q575,61 575,105 L575,135 Q575,180 554,203 Q533,226 487,226"/> 
            <glyph glyph-name="⅝" unicode="&#x215D;" horiz-adv-x="583" d=" M58,500 Q71,520 90.5,530 Q110,540 133,540 Q158,540 176,531 Q194,522 205,506 Q216,490 221,469.5 Q226,449 226,426 L226,363 Q226,340 221,319.5 Q216,299 205,283 Q194,267 176,258 Q158,249 133,249 Q107,249 89.5,258 Q72,267 61,283 Q50,299 45,319.5 Q40,340 40,363 L40,380 L50,380 L50,363 Q50,342 54,323.5 Q58,305 68,290.5 Q78,276 94,267.5 Q110,259 133,259 Q157,259 172.5,267.5 Q188,276 198,290.5 Q208,305 212,323.5 Q216,342 216,363 L216,426 Q216,447 212,465.5 Q208,484 198,498.5 Q188,513 172.5,521.5 Q157,530 133,530 Q109,530 86,515.5 Q63,501 57,477 L57,473 L47,473 L58,700 L216,700 L216,690 L67,690 M438,700 L448,700 L172,0 L162,0 M485,449 Q535,449 559,419 Q583,389 583,342 L583,327 Q583,294 569.5,268 Q556,242 523,231 Q557,221 570,194.5 Q583,168 583,135 L583,105 Q583,57 559.5,26 Q536,-5 485,-5 Q434,-5 410.5,26 Q387,57 387,105 L387,135 Q387,168 400,194.5 Q413,221 447,231 Q414,242 400.5,268 Q387,294 387,327 L387,342 Q387,389 411,419 Q435,449 485,449 M485,439 Q440,439 418.5,412 Q397,385 397,342 L397,327 Q397,283 418.5,259.5 Q440,236 485,236 Q530,236 551.5,259.5 Q573,283 573,327 L573,342 Q573,385 551.5,412 Q530,439 485,439 M485,226 Q439,226 418,203 Q397,180 397,135 L397,105 Q397,61 417.5,33 Q438,5 485,5 Q532,5 552.5,33 Q573,61 573,105 L573,135 Q573,180 552,203 Q531,226 485,226"/> 
            <glyph glyph-name="⅞" unicode="&#x215E;" horiz-adv-x="484" d=" M214,690 L40,690 L40,700 L225,700 L225,691 L88,256 L77,256 M73,0 L63,0 L339,700 L349,700 M386,449 Q436,449 460,419 Q484,389 484,342 L484,327 Q484,294 470.5,268 Q457,242 424,231 Q458,221 471,194.5 Q484,168 484,135 L484,105 Q484,57 460.5,26 Q437,-5 386,-5 Q335,-5 311.5,26 Q288,57 288,105 L288,135 Q288,168 301,194.5 Q314,221 348,231 Q315,242 301.5,268 Q288,294 288,327 L288,342 Q288,389 312,419 Q336,449 386,449 M386,439 Q341,439 319.5,412 Q298,385 298,342 L298,327 Q298,283 319.5,259.5 Q341,236 386,236 Q431,236 452.5,259.5 Q474,283 474,327 L474,342 Q474,385 452.5,412 Q431,439 386,439 M386,226 Q340,226 319,203 Q298,180 298,135 L298,105 Q298,61 318.5,33 Q339,5 386,5 Q433,5 453.5,33 Q474,61 474,105 L474,135 Q474,180 453,203 Q432,226 386,226"/> 
            <glyph glyph-name="−" unicode="&#x2212;" horiz-adv-x="344" d=" M344,355 L344,345 L40,345 L40,355"/> 
            <glyph glyph-name="∞" unicode="&#x221E;" horiz-adv-x="507" d=" M392,480 Q443,480 475,454 Q507,428 507,375 Q507,321 475,295.5 Q443,270 392,270 L377,270 Q340,270 312,284.5 Q284,299 274,336 Q263,299 235,284.5 Q207,270 170,270 L155,270 Q104,270 72,295.5 Q40,321 40,375 Q40,428 72,454 Q104,480 155,480 L170,480 Q207,480 235,465 Q263,450 274,414 Q284,450 312,465 Q340,480 377,480 M155,470 Q108,470 79,447 Q50,424 50,375 Q50,326 79,303 Q108,280 155,280 L170,280 Q218,280 243.5,303.5 Q269,327 269,375 Q269,423 243.5,446.5 Q218,470 170,470 M377,470 Q329,470 303.5,446.5 Q278,423 278,375 Q278,327 303.5,303.5 Q329,280 377,280 L392,280 Q439,280 468,303 Q497,326 497,375 Q497,424 468,447 Q439,470 392,470"/> 
            <glyph glyph-name="≈" unicode="&#x2248;" horiz-adv-x="357" d=" M122,464 Q146,465 167,455 Q188,445 208,433 Q228,421 247.5,411 Q267,401 287,402 Q310,404 324.5,420 Q339,436 349,454 L357,450 Q346,429 330,411.5 Q314,394 288,392 Q266,391 245.5,401 Q225,411 205.5,423 Q186,435 165.5,445 Q145,455 123,454 Q97,453 79,437.5 Q61,422 49,402 L40,407 Q54,430 74,446.5 Q94,463 122,464 M122,306 Q146,306 167,296 Q188,286 208,274 Q228,262 247.5,252.5 Q267,243 287,244 Q310,245 324.5,261.5 Q339,278 349,296 L357,292 Q346,271 330,253.5 Q314,236 288,234 Q266,233 245.5,242.5 Q225,252 205.5,264 Q186,276 165.5,286 Q145,296 123,296 Q97,295 79,279.5 Q61,264 49,244 L40,249 Q54,272 74,288.5 Q94,305 122,306"/> 
            <glyph glyph-name="" unicode="&#xF6C3;" horiz-adv-x="65" d=" M47,-174 L40,-174 L56,-112 L55,-112 L55,-34 L65,-34 L65,-112"/> 
            <glyph glyph-name="" unicode="&#xD;" horiz-adv-x="412" d=" M153,737 L139,737 L220,815 L227,815 L309,737 L294,737 L224,805 M93,170 L50,0 L40,0 L217,701 L231,701 L412,0 L402,0 L358,170 M96,180 L355,180 L224,688"/> 
            <glyph glyph-name="0" unicode="&#x30;" horiz-adv-x="327" d=" M183,705 Q225,705 252.5,690.5 Q280,676 296.5,651.5 Q313,627 320,594 Q327,561 327,525 Q327,477 307,438.5 Q287,400 256.5,364.5 Q226,329 190.5,294 Q155,259 124,218 Q93,177 72,127 Q51,77 50,13 L50,10 L324,10 L324,0 L40,0 L40,5 Q40,72 60.5,124 Q81,176 112,218.5 Q143,261 178.5,296.5 Q214,332 245,367.5 Q276,403 296.5,440.5 Q317,478 317,525 Q317,559 311,590 Q305,621 289.5,644.5 Q274,668 248,682 Q222,696 183,696 Q145,696 119.5,681.5 Q94,667 78.5,643 Q63,619 56.5,587.5 Q50,556 50,523 L50,490 L40,490 L40,523 Q40,559 47,591.5 Q54,624 71,649.5 Q88,675 115,690 Q142,705 183,705"/> 
            <glyph glyph-name="1" unicode="&#x31;" horiz-adv-x="328" d=" M184,705 Q224,705 251.5,691 Q279,677 296,652.5 Q313,628 320.5,596 Q328,564 328,528 L328,511 Q328,486 321,463 Q314,440 300.5,421 Q287,402 268,387.5 Q249,373 225,366 Q276,353 302,315 Q328,277 328,226 L328,173 Q328,137 320.5,104.5 Q313,72 296,48 Q279,24 251.5,9.5 Q224,-5 184,-5 Q144,-5 116.5,9.5 Q89,24 72,48 Q55,72 47.5,104.5 Q40,137 40,173 L40,202 L50,202 L50,173 Q50,139 56.5,108.5 Q63,78 79,55 Q95,32 120.5,18.5 Q146,5 184,5 Q222,5 247.5,18.5 Q273,32 289,55 Q305,78 311.5,108.5 Q318,139 318,173 L318,226 Q318,284 286.5,320.5 Q255,357 196,361 L143,361 L143,370 L196,370 Q224,372 246.5,384 Q269,396 285,415 Q301,434 309.5,459 Q318,484 318,511 L318,528 Q318,562 311.5,592.5 Q305,623 289,646 Q273,669 247.5,682.5 Q222,696 184,696 Q146,696 120.5,682.5 Q95,669 79,646 Q63,623 56.5,592.5 Q50,562 50,528 L50,510 L40,510 L40,528 Q40,564 47.5,596 Q55,628 72,652.5 Q89,677 116.5,691 Q144,705 184,705"/> 
            <glyph glyph-name="2" unicode="&#x32;" horiz-adv-x="367" d=" M304,170 L304,0 L294,0 L294,170 L40,170 L40,181 L290,701 L304,701 L304,180 L367,180 L367,170 M50,180 L294,180 L294,686"/> 
            <glyph glyph-name="3" unicode="&#x33;" horiz-adv-x="328" d=" M62,377 Q99,449 184,449 Q224,449 251.5,434.5 Q279,420 296,395.5 Q313,371 320.5,339 Q328,307 328,272 L328,173 Q328,137 320.5,105 Q313,73 296,48.5 Q279,24 251.5,9.5 Q224,-5 184,-5 Q144,-5 116.5,9.5 Q89,24 72,48.5 Q55,73 47.5,105 Q40,137 40,173 L40,199 L50,199 L50,173 Q50,140 57,109.5 Q64,79 79.5,55.5 Q95,32 120.5,18.5 Q146,5 184,5 Q221,5 247,18.5 Q273,32 288.5,55.5 Q304,79 311,109.5 Q318,140 318,173 L318,272 Q318,305 311,335.5 Q304,366 288.5,389 Q273,412 247,425.5 Q221,439 184,439 Q139,439 107.5,416 Q76,393 60,352 L60,346 L50,346 L68,701 L315,701 L315,691 L77,691"/> 
            <glyph glyph-name="4" unicode="&#x34;" horiz-adv-x="334" d=" M187,705 Q227,705 254.5,691.5 Q282,678 299,654.5 Q316,631 323.5,599.5 Q331,568 331,532 L331,529 L321,529 L321,532 Q321,566 314.5,595.5 Q308,625 292,647.5 Q276,670 250.5,683 Q225,696 187,696 Q149,696 123,682.5 Q97,669 80.5,646 Q64,623 57,592.5 Q50,562 50,528 L50,311 Q65,360 99.5,386 Q134,412 187,412 Q227,412 255,398 Q283,384 300.5,359.5 Q318,335 326,303 Q334,271 334,235 L334,173 Q334,137 326,104.5 Q318,72 300.5,47.5 Q283,23 255,9 Q227,-5 187,-5 Q147,-5 119,9 Q91,23 73.5,47.5 Q56,72 48,104.5 Q40,137 40,173 L40,528 Q40,564 48,596.5 Q56,629 73.5,653 Q91,677 119,691 Q147,705 187,705 M187,402 Q149,402 123,388.5 Q97,375 80.5,352 Q64,329 57,299 Q50,269 50,235 L50,173 Q50,139 57,108.5 Q64,78 80.5,55 Q97,32 123,18.5 Q149,5 187,5 Q225,5 251,18.5 Q277,32 293.5,55 Q310,78 317,108.5 Q324,139 324,173 L324,235 Q324,269 317,299 Q310,329 293.5,352 Q277,375 251,388.5 Q225,402 187,402"/> 
            <glyph glyph-name="5" unicode="&#x35;" horiz-adv-x="328" d=" M317,691 L40,691 L40,701 L328,701 L328,690 L112,0 L101,0"/> 
            <glyph glyph-name="6" unicode="&#x36;" horiz-adv-x="343" d=" M191,705 Q230,705 258.5,693 Q287,681 305.5,659 Q324,637 333.5,606.5 Q343,576 343,539 L343,516 Q343,460 319,418.5 Q295,377 237,366 Q296,354 319.5,312.5 Q343,271 343,213 L343,167 Q343,130 334,98.5 Q325,67 306.5,44 Q288,21 259.5,8 Q231,-5 191,-5 Q152,-5 123.5,8 Q95,21 76.5,44 Q58,67 49,98.5 Q40,130 40,167 L40,213 Q40,273 63.5,313 Q87,353 148,366 Q89,377 64.5,418 Q40,459 40,516 L40,539 Q40,613 77,659 Q114,705 191,705 M191,696 Q119,696 84.5,652 Q50,608 50,539 L50,516 Q50,446 84.5,408 Q119,370 191,370 Q263,370 298,408 Q333,446 333,516 L333,539 Q333,608 298.5,652 Q264,696 191,696 M191,360 Q118,360 84,322.5 Q50,285 50,213 L50,167 Q50,132 58,102.5 Q66,73 83.5,51 Q101,29 127.5,17 Q154,5 191,5 Q228,5 255,17 Q282,29 299.5,51 Q317,73 325,102.5 Q333,132 333,167 L333,213 Q333,285 299,322.5 Q265,360 191,360"/> 
            <glyph glyph-name="7" unicode="&#x37;" horiz-adv-x="334" d=" M187,706 Q227,706 255,692 Q283,678 300.5,653.5 Q318,629 326,596.5 Q334,564 334,528 L334,173 Q334,137 326,104.5 Q318,72 300.5,47.5 Q283,23 255,9 Q227,-5 187,-5 Q147,-5 119,8.5 Q91,22 73.5,46 Q56,70 48,102 Q40,134 40,170 L40,174 L50,174 L50,170 Q50,136 57.5,106 Q65,76 81,53.5 Q97,31 123,18 Q149,5 187,5 Q225,5 251,18.5 Q277,32 293.5,55 Q310,78 317,108.5 Q324,139 324,173 L324,390 Q309,341 274.5,315 Q240,289 187,289 Q147,289 119,303 Q91,317 73.5,341.5 Q56,366 48,398 Q40,430 40,466 L40,528 Q40,564 48,596.5 Q56,629 73.5,653.5 Q91,678 119,692 Q147,706 187,706 M187,696 Q149,696 123,682.5 Q97,669 80.5,646 Q64,623 57,592.5 Q50,562 50,528 L50,466 Q50,432 57,402 Q64,372 80.5,349 Q97,326 123,312.5 Q149,299 187,299 Q225,299 251,312.5 Q277,326 293.5,349 Q310,372 317,402 Q324,432 324,466 L324,528 Q324,562 317,592.5 Q310,623 293.5,646 Q277,669 251,682.5 Q225,696 187,696"/> 
            <glyph glyph-name="8" unicode="&#x38;" horiz-adv-x="333" d=" M40,528 Q40,564 48,596.5 Q56,629 73.5,653 Q91,677 119,691 Q147,705 187,705 Q227,705 254.5,691 Q282,677 299.5,653 Q317,629 325,596.5 Q333,564 333,528 L333,173 Q333,137 325,104.5 Q317,72 299.5,47.5 Q282,23 254.5,9 Q227,-5 187,-5 Q147,-5 119,9 Q91,23 73.5,47.5 Q56,72 48,104.5 Q40,137 40,173 M50,173 Q50,139 57,108.5 Q64,78 80.5,55 Q97,32 123,18.5 Q149,5 187,5 Q225,5 251,18.5 Q277,32 293,55 Q309,78 316,108.5 Q323,139 323,173 L323,528 Q323,562 316,592.5 Q309,623 293,646 Q277,669 251,682.5 Q225,696 187,696 Q149,696 123,682.5 Q97,669 80.5,646 Q64,623 57,592.5 Q50,562 50,528"/> 
            <glyph glyph-name="9" unicode="&#x39;" horiz-adv-x="171" d=" M40,598 Q85,603 114,631 Q143,659 157,701 L171,701 L171,0 L161,0 L161,683 Q144,644 113.5,618.5 Q83,593 40,588"/> 
            <glyph glyph-name="ȷ" unicode="&#x237;" horiz-adv-x="359" d=" M106,357 L50,275 L50,0 L40,0 L40,700 L50,700 L50,293 L326,700 L338,700 L112,366 L359,0 L347,0"/> 
            <glyph glyph-name="Ё" unicode="&#x401;" horiz-adv-x="328" d=" M184,705 Q224,705 251.5,690.5 Q279,676 296,652 Q313,628 320.5,596 Q328,564 328,528 L328,510 Q328,460 300,419.5 Q272,379 222,365 Q275,354 301.5,315.5 Q328,277 328,226 L328,172 Q328,136 320.5,104 Q313,72 296,48 Q279,24 251.5,9.5 Q224,-5 184,-5 Q144,-5 116.5,9.5 Q89,24 72,48 Q55,72 47.5,104 Q40,136 40,172 L40,220 L50,220 L50,172 Q50,139 56.5,108.5 Q63,78 79,55 Q95,32 120.5,18.5 Q146,5 184,5 Q222,5 247.5,18.5 Q273,32 289,55 Q305,78 311.5,108.5 Q318,139 318,172 L318,226 Q318,254 309,278.5 Q300,303 283.5,321 Q267,339 243,349.5 Q219,360 190,360 L143,360 L143,370 L190,370 Q218,370 241.5,382 Q265,394 282,413.5 Q299,433 308.5,458 Q318,483 318,510 L318,528 Q318,562 311.5,592 Q305,622 289,645 Q273,668 247.5,681.5 Q222,695 184,695 Q146,695 120.5,681.5 Q95,668 79,645 Q63,622 56.5,592 Q50,562 50,528 L50,501 L40,501 L40,528 Q40,564 47.5,596 Q55,628 72,652 Q89,676 116.5,690.5 Q144,705 184,705"/> 
            <glyph glyph-name="А" unicode="&#x410;" horiz-adv-x="322" d=" M177,700 Q252,700 280,663 Q308,626 308,557 L308,509 Q308,450 287,415 Q266,380 204,373 Q269,365 295.5,325 Q322,285 322,223 L322,160 Q322,86 289,43 Q256,0 177,0 L40,0 L40,700 M147,378 Q186,378 214.5,383.5 Q243,389 261.5,403 Q280,417 289,442.5 Q298,468 298,509 L298,557 Q298,590 292.5,614.5 Q287,639 273,656 Q259,673 235.5,681.5 Q212,690 177,690 L50,690 L50,378 M177,10 Q251,10 281.5,50 Q312,90 312,160 L312,223 Q312,303 273.5,335.5 Q235,368 158,368 L50,368 L50,10"/> 
            <glyph glyph-name="Б" unicode="&#x411;" horiz-adv-x="296" d=" M50,690 L50,0 L40,0 L40,700 L296,700 L296,690"/> 
            <glyph glyph-name="В" unicode="&#x412;" horiz-adv-x="450" d=" M440,-99 L440,0 L50,0 L50,-99 L40,-99 L40,10 L91,10 Q116,35 121.5,67 Q127,99 129,134 L159,700 L386,700 L386,10 L450,10 L450,-99 M139,133 Q137,99 132.5,67.5 Q128,36 105,10 L376,10 L376,690 L169,690"/> 
            <glyph glyph-name="Г" unicode="&#x413;" horiz-adv-x="302" d=" M263,360 L263,350 L50,350 L50,10 L302,10 L302,0 L40,0 L40,700 L302,700 L302,690 L50,690 L50,360"/> 
            <glyph glyph-name="Д" unicode="&#x414;" horiz-adv-x="302" d=" M144,828 L144,750 L134,750 L134,828 M210,828 L210,750 L200,750 L200,828 M263,360 L263,350 L50,350 L50,10 L302,10 L302,0 L40,0 L40,700 L302,700 L302,690 L50,690 L50,360"/> 
            <glyph glyph-name="Е" unicode="&#x415;" horiz-adv-x="593" d=" M379,372 L321,278 L321,0 L311,0 L311,279 L254,372 L51,0 L40,0 L248,381 L52,700 L63,700 L311,296 L311,700 L321,700 L321,296 L569,700 L581,700 L385,381 L593,0 L582,0"/> 
            <glyph glyph-name="Ж" unicode="&#x416;" horiz-adv-x="331" d=" M183,333 L55,0 L40,0 L40,700 L50,700 L50,13 L188,373 L314,700 L331,700 L331,0 L321,0 L321,690"/> 
            <glyph glyph-name="З" unicode="&#x417;" horiz-adv-x="331" d=" M285,819 Q283,785 255.5,767 Q228,749 193,749 Q158,749 130,766.5 Q102,784 101,819 L112,819 Q113,788 137.5,773 Q162,758 193,758 Q223,758 247.5,773 Q272,788 274,819 M55,0 L40,0 L40,700 L50,700 L50,13 L314,700 L331,700 L331,0 L321,0 L321,690"/> 
            <glyph glyph-name="И" unicode="&#x418;" horiz-adv-x="359" d=" M106,357 L50,275 L50,0 L40,0 L40,700 L50,700 L50,293 L326,700 L338,700 L112,366 L359,0 L347,0"/> 
            <glyph glyph-name="Й" unicode="&#x419;" horiz-adv-x="392" d=" M169,690 L147,168 Q145,139 143,109.5 Q141,80 131.5,56 Q122,32 102,16 Q82,0 45,-1 L40,-1 L40,9 Q76,9 95.5,24 Q115,39 124,62 Q133,85 134.5,113.5 Q136,142 137,169 L159,700 L392,700 L392,0 L382,0 L382,690"/> 
            <glyph glyph-name="К" unicode="&#x41A;" horiz-adv-x="445" d=" M249,2 L235,2 L50,690 L50,0 L40,0 L40,700 L58,700 L242,13 L428,700 L445,700 L445,0 L435,0 L435,690"/> 
            <glyph glyph-name="Л" unicode="&#x41B;" horiz-adv-x="330" d=" M50,345 L50,0 L40,0 L40,700 L50,700 L50,355 L320,355 L320,700 L330,700 L330,0 L320,0 L320,345"/> 
            <glyph glyph-name="М" unicode="&#x41C;" horiz-adv-x="333" d=" M40,528 Q40,564 48,596 Q56,628 73.5,652.5 Q91,677 118.5,691 Q146,705 186,705 Q226,705 254,691 Q282,677 299.5,652.5 Q317,628 325,596 Q333,564 333,528 L333,172 Q333,136 325,104 Q317,72 299.5,47.5 Q282,23 254,9 Q226,-5 186,-5 Q146,-5 118.5,9 Q91,23 73.5,47.5 Q56,72 48,104 Q40,136 40,172 M50,172 Q50,138 57,107.5 Q64,77 80,54.5 Q96,32 122,18.5 Q148,5 186,5 Q224,5 250,18.5 Q276,32 292.5,54.5 Q309,77 316,107.5 Q323,138 323,172 L323,528 Q323,562 316,592 Q309,622 292.5,645 Q276,668 250,681.5 Q224,695 186,695 Q148,695 122,681.5 Q96,668 80,645 Q64,622 57,592 Q50,562 50,528"/> 
            <glyph glyph-name="Н" unicode="&#x41D;" horiz-adv-x="330" d=" M50,690 L50,0 L40,0 L40,700 L330,700 L330,0 L320,0 L320,690"/> 
            <glyph glyph-name="О" unicode="&#x41E;" horiz-adv-x="317" d=" M175,700 Q215,700 242.5,687 Q270,674 286.5,651.5 Q303,629 310,598.5 Q317,568 317,532 L317,464 Q317,381 279,341.5 Q241,302 156,302 L50,302 L50,0 L40,0 L40,700 M156,312 Q237,312 272,348.5 Q307,385 307,464 L307,532 Q307,566 300.5,595 Q294,624 279,645 Q264,666 238.5,678 Q213,690 175,690 L50,690 L50,312"/> 
            <glyph glyph-name="П" unicode="&#x41F;" horiz-adv-x="328" d=" M184,705 Q224,705 251.5,690.5 Q279,676 296,651.5 Q313,627 320.5,595 Q328,563 328,528 L328,475 L318,475 L318,528 Q318,561 311,591.5 Q304,622 288.5,645 Q273,668 247,681.5 Q221,695 184,695 Q146,695 120.5,681.5 Q95,668 79.5,645 Q64,622 57,591.5 Q50,561 50,528 L50,172 Q50,139 57,108.5 Q64,78 79.5,55 Q95,32 120.5,18.5 Q146,5 184,5 Q221,5 247,18.5 Q273,32 288.5,55 Q304,78 311,108.5 Q318,139 318,172 L318,246 L328,246 L328,172 Q328,137 320.5,105 Q313,73 296,48.5 Q279,24 251.5,9.5 Q224,-5 184,-5 Q144,-5 116.5,9.5 Q89,24 72,48.5 Q55,73 47.5,105 Q40,137 40,172 L40,528 Q40,563 47.5,595 Q55,627 72,651.5 Q89,676 116.5,690.5 Q144,705 184,705"/> 
            <glyph glyph-name="Р" unicode="&#x420;" horiz-adv-x="366" d=" M198,0 L198,690 L40,690 L40,700 L366,700 L366,690 L208,690 L208,0"/> 
            <glyph glyph-name="С" unicode="&#x421;" horiz-adv-x="396" d=" M180,103 Q172,80 163,61 Q154,42 141,28.5 Q128,15 109.5,7.5 Q91,0 64,0 L64,10 Q89,10 106,17 Q123,24 135,36.5 Q147,49 155,67 Q163,85 171,106 L217,235 L40,700 L51,700 L146,449 L222,249 L385,700 L396,700"/> 
            <glyph glyph-name="Т" unicode="&#x422;" horiz-adv-x="501" d=" M341,621 Q385,621 415.5,608.5 Q446,596 465,573 Q484,550 492.5,517 Q501,484 501,443 L501,252 Q501,211 492.5,178 Q484,145 465,122 Q446,99 415.5,86.5 Q385,74 341,74 L275,74 L275,0 L265,0 L265,74 L199,74 Q155,74 124.5,86.5 Q94,99 75.5,122 Q57,145 48.5,178 Q40,211 40,252 L40,443 Q40,484 48.5,517 Q57,550 75.5,573 Q94,596 124.5,608.5 Q155,621 199,621 L265,621 L265,700 L275,700 L275,621 M199,611 Q116,611 83,566 Q50,521 50,443 L50,252 Q50,174 83,129 Q116,84 199,84 L265,84 L265,611 M341,84 Q424,84 457.5,129 Q491,174 491,252 L491,443 Q491,521 458,566 Q425,611 341,611 L275,611 L275,84"/> 
            <glyph glyph-name="У" unicode="&#x423;" horiz-adv-x="406" d=" M223,353 L52,0 L40,0 L218,364 L52,700 L63,700 L223,375 L383,700 L394,700 L229,364 L406,0 L395,0"/> 
            <glyph glyph-name="Ф" unicode="&#x424;" horiz-adv-x="332" d=" M322,367 Q302,325 267.5,302.5 Q233,280 182,280 Q143,280 116,294.5 Q89,309 72,334 Q55,359 47.5,390.5 Q40,422 40,457 L40,700 L50,700 L50,457 Q50,425 57,394.5 Q64,364 79.5,341 Q95,318 120.5,304 Q146,290 182,290 Q236,290 270,316 Q304,342 322,391 L322,700 L332,700 L332,0 L322,0"/> 
            <glyph glyph-name="Х" unicode="&#x425;" horiz-adv-x="413" d=" M403,-94 L403,0 L60,0 L60,700 L69,700 L69,10 L339,10 L339,700 L349,700 L349,10 L413,10 L413,-94"/> 
            <glyph glyph-name="ж" unicode="&#x436;" horiz-adv-x="331" d=" M55,0 L40,0 L40,700 L50,700 L50,13 L155,287 L314,700 L331,700 L331,0 L321,0 L321,690"/> 
            <glyph glyph-name="з" unicode="&#x437;" horiz-adv-x="331" d=" M285,815 Q283,781 255.5,763 Q228,745 193,745 Q158,745 130,762.5 Q102,780 101,815 L112,815 Q113,784 137.5,769 Q162,754 193,754 Q223,754 247.5,769 Q272,784 274,815 M198,370 L55,0 L40,0 L40,700 L50,700 L50,13 L166,316 L314,700 L331,700 L331,0 L321,0 L321,690"/> 
            <glyph glyph-name="и" unicode="&#x438;" horiz-adv-x="359" d=" M106,357 L50,275 L50,0 L40,0 L40,700 L50,700 L50,293 L326,700 L338,700 L112,366 L359,0 L347,0"/> 
            <glyph glyph-name="й" unicode="&#x439;" horiz-adv-x="392" d=" M169,690 L147,168 Q145,139 143,109.5 Q141,80 131.5,56 Q122,32 102,16 Q82,0 45,-1 L40,-1 L40,9 Q76,9 95.5,24 Q115,39 124,62 Q133,85 134.5,113.5 Q136,142 137,169 L159,700 L392,700 L392,0 L382,0 L382,690"/> 
            <glyph glyph-name="к" unicode="&#x43A;" horiz-adv-x="445" d=" M249,2 L235,2 L50,690 L50,0 L40,0 L40,700 L58,700 L242,13 L428,700 L445,700 L445,0 L435,0 L435,690"/> 
            <glyph glyph-name="л" unicode="&#x43B;" horiz-adv-x="330" d=" M50,345 L50,0 L40,0 L40,700 L50,700 L50,355 L320,355 L320,700 L330,700 L330,0 L320,0 L320,345"/> 
            <glyph glyph-name="м" unicode="&#x43C;" horiz-adv-x="333" d=" M40,528 Q40,564 48,596 Q56,628 73.5,652.5 Q91,677 118.5,691 Q146,705 186,705 Q226,705 254,691 Q282,677 299.5,652.5 Q317,628 325,596 Q333,564 333,528 L333,172 Q333,136 325,104 Q317,72 299.5,47.5 Q282,23 254,9 Q226,-5 186,-5 Q146,-5 118.5,9 Q91,23 73.5,47.5 Q56,72 48,104 Q40,136 40,172 M50,172 Q50,138 57,107.5 Q64,77 80,54.5 Q96,32 122,18.5 Q148,5 186,5 Q224,5 250,18.5 Q276,32 292.5,54.5 Q309,77 316,107.5 Q323,138 323,172 L323,528 Q323,562 316,592 Q309,622 292.5,645 Q276,668 250,681.5 Q224,695 186,695 Q148,695 122,681.5 Q96,668 80,645 Q64,622 57,592 Q50,562 50,528"/> 
            <glyph glyph-name="н" unicode="&#x43D;" horiz-adv-x="330" d=" M50,690 L50,0 L40,0 L40,700 L330,700 L330,0 L320,0 L320,690"/> 
            <glyph glyph-name="о" unicode="&#x43E;" horiz-adv-x="317" d=" M175,700 Q215,700 242.5,687 Q270,674 286.5,651.5 Q303,629 310,598.5 Q317,568 317,532 L317,464 Q317,381 279,341.5 Q241,302 156,302 L50,302 L50,0 L40,0 L40,700 M156,312 Q237,312 272,348.5 Q307,385 307,464 L307,532 Q307,566 300.5,595 Q294,624 279,645 Q264,666 238.5,678 Q213,690 175,690 L50,690 L50,312"/> 
            <glyph glyph-name="п" unicode="&#x43F;" horiz-adv-x="328" d=" M184,705 Q224,705 251.5,690.5 Q279,676 296,651.5 Q313,627 320.5,595 Q328,563 328,528 L328,475 L318,475 L318,528 Q318,561 311,591.5 Q304,622 288.5,645 Q273,668 247,681.5 Q221,695 184,695 Q146,695 120.5,681.5 Q95,668 79.5,645 Q64,622 57,591.5 Q50,561 50,528 L50,172 Q50,139 57,108.5 Q64,78 79.5,55 Q95,32 120.5,18.5 Q146,5 184,5 Q221,5 247,18.5 Q273,32 288.5,55 Q304,78 311,108.5 Q318,139 318,172 L318,246 L328,246 L328,172 Q328,137 320.5,105 Q313,73 296,48.5 Q279,24 251.5,9.5 Q224,-5 184,-5 Q144,-5 116.5,9.5 Q89,24 72,48.5 Q55,73 47.5,105 Q40,137 40,172 L40,528 Q40,563 47.5,595 Q55,627 72,651.5 Q89,676 116.5,690.5 Q144,705 184,705"/> 
            <glyph glyph-name="р" unicode="&#x440;" horiz-adv-x="366" d=" M198,0 L198,690 L40,690 L40,700 L366,700 L366,690 L208,690 L208,0"/> 
            <glyph glyph-name="с" unicode="&#x441;" horiz-adv-x="396" d=" M180,103 Q172,80 163,61 Q154,42 141,28.5 Q128,15 109.5,7.5 Q91,0 64,0 L64,10 Q89,10 106,17 Q123,24 135,36.5 Q147,49 155,67 Q163,85 171,106 L217,235 L40,700 L51,700 L146,449 L222,249 L385,700 L396,700"/> 
            <glyph glyph-name="т" unicode="&#x442;" horiz-adv-x="501" d=" M341,621 Q385,621 415.5,608.5 Q446,596 465,573 Q484,550 492.5,517 Q501,484 501,443 L501,252 Q501,211 492.5,178 Q484,145 465,122 Q446,99 415.5,86.5 Q385,74 341,74 L275,74 L275,0 L265,0 L265,74 L199,74 Q155,74 124.5,86.5 Q94,99 75.5,122 Q57,145 48.5,178 Q40,211 40,252 L40,443 Q40,484 48.5,517 Q57,550 75.5,573 Q94,596 124.5,608.5 Q155,621 199,621 L265,621 L265,700 L275,700 L275,621 M199,611 Q116,611 83,566 Q50,521 50,443 L50,252 Q50,174 83,129 Q116,84 199,84 L265,84 L265,611 M341,84 Q424,84 457.5,129 Q491,174 491,252 L491,443 Q491,521 458,566 Q425,611 341,611 L275,611 L275,84"/> 
            <glyph glyph-name="у" unicode="&#x443;" horiz-adv-x="406" d=" M223,353 L52,0 L40,0 L218,364 L52,700 L63,700 L223,375 L383,700 L394,700 L229,364 L406,0 L395,0"/> 
            <glyph glyph-name="ф" unicode="&#x444;" horiz-adv-x="332" d=" M322,367 Q302,325 267.5,302.5 Q233,280 182,280 Q143,280 116,294.5 Q89,309 72,334 Q55,359 47.5,390.5 Q40,422 40,457 L40,700 L50,700 L50,457 Q50,425 57,394.5 Q64,364 79.5,341 Q95,318 120.5,304 Q146,290 182,290 Q236,290 270,316 Q304,342 322,391 L322,700 L332,700 L332,0 L322,0"/> 
            <glyph glyph-name="х" unicode="&#x445;" horiz-adv-x="413" d=" M403,-94 L403,0 L60,0 L60,700 L69,700 L69,10 L339,10 L339,700 L349,700 L349,10 L413,10 L413,-94"/> 
            <glyph glyph-name="ё" unicode="&#x451;" horiz-adv-x="328" d=" M184,705 Q224,705 251.5,690.5 Q279,676 296,652 Q313,628 320.5,596 Q328,564 328,528 L328,510 Q328,460 300,419.5 Q272,379 222,365 Q275,354 301.5,315.5 Q328,277 328,226 L328,172 Q328,136 320.5,104 Q313,72 296,48 Q279,24 251.5,9.5 Q224,-5 184,-5 Q144,-5 116.5,9.5 Q89,24 72,48 Q55,72 47.5,104 Q40,136 40,172 L40,220 L50,220 L50,172 Q50,139 56.5,108.5 Q63,78 79,55 Q95,32 120.5,18.5 Q146,5 184,5 Q222,5 247.5,18.5 Q273,32 289,55 Q305,78 311.5,108.5 Q318,139 318,172 L318,226 Q318,254 309,278.5 Q300,303 283.5,321 Q267,339 243,349.5 Q219,360 190,360 L143,360 L143,370 L190,370 Q218,370 241.5,382 Q265,394 282,413.5 Q299,433 308.5,458 Q318,483 318,510 L318,528 Q318,562 311.5,592 Q305,622 289,645 Q273,668 247.5,681.5 Q222,695 184,695 Q146,695 120.5,681.5 Q95,668 79,645 Q63,622 56.5,592 Q50,562 50,528 L50,501 L40,501 L40,528 Q40,564 47.5,596 Q55,628 72,652 Q89,676 116.5,690.5 Q144,705 184,705"/> 
            <glyph glyph-name="‘" unicode="&#x2018;" horiz-adv-x="65" d=" M47,-62 L40,-62 L56,0 L55,0 L55,78 L65,78 L65,0"/> 
            <glyph glyph-name="’" unicode="&#x2019;" horiz-adv-x="412" d=" M313,806 Q311,771 284.5,752 Q258,733 224,733 Q191,733 164,751.5 Q137,770 136,806 L146,806 Q147,774 171,758.5 Q195,743 224,743 Q253,743 277,758.5 Q301,774 303,806 M93,170 L50,0 L40,0 L217,701 L231,701 L412,0 L402,0 L358,170 M96,180 L355,180 L224,688"/> 
            <glyph glyph-name="…" unicode="&#x2026;" horiz-adv-x="50" d=" M50,701 L50,624 L40,624 L40,701 M40,345 L41,546 L49,546 L50,345 L50,0 L40,0"/> 
            <glyph glyph-name="‰" unicode="&#x2030;" horiz-adv-x="344" d=" M187,205 L187,345 L40,345 L40,355 L187,355 L187,503 L197,503 L197,355 L344,355 L344,345 L197,345 L197,205 L344,205 L344,195 L40,195 L40,205"/> 
            <glyph glyph-name="‹" unicode="&#x2039;" horiz-adv-x="113" d=" M47,-62 L40,-62 L56,0 L55,0 L55,78 L65,78 L65,0 M95,-62 L88,-62 L104,0 L103,0 L103,78 L113,78 L113,0"/> 
            <glyph glyph-name="›" unicode="&#x203A;" horiz-adv-x="105" d=" M58,700 L65,700 L49,638 L50,638 L50,560 L40,560 L40,638 M98,700 L105,700 L89,638 L90,638 L90,560 L80,560 L80,638"/> 
            <glyph glyph-name="⁄" unicode="&#x2044;" horiz-adv-x="492" d=" M115,680 Q104,658 85,644 Q66,630 41,627 L40,637 Q67,640 85.5,657 Q104,674 112,700 L125,700 L125,256 L115,256 M372,700 L96,0 L86,0 L362,700 M399,449 Q424,449 442,440 Q460,431 471,415 Q482,399 487,378.5 Q492,358 492,335 L492,324 Q492,294 476.5,268.5 Q461,243 432,232 Q463,222 477.5,198 Q492,174 492,143 L492,109 Q492,86 487,65.5 Q482,45 471,29 Q460,13 442,4 Q424,-5 399,-5 Q373,-5 355.5,4 Q338,13 327,29 Q316,45 311,65.5 Q306,86 306,109 L306,128 L316,128 L316,109 Q316,88 320,69 Q324,50 334,36 Q344,22 359.5,13.5 Q375,5 399,5 Q423,5 438.5,13.5 Q454,22 464,36 Q474,50 478,69 Q482,88 482,109 L482,143 Q482,177 462,201.5 Q442,226 406,226 L373,226 L373,236 L406,236 Q423,236 437.5,243.5 Q452,251 462,263.5 Q472,276 477,292 Q482,308 482,324 L482,335 Q482,356 478,374.5 Q474,393 464,407.5 Q454,422 438.5,430.5 Q423,439 399,439 Q375,439 359.5,430.5 Q344,422 334,407.5 Q324,393 320,374.5 Q316,356 316,335 L316,323 L306,323 L306,335 Q306,358 311,378.5 Q316,399 327,415 Q338,431 355.5,440 Q373,449 399,449"/> 
            <glyph glyph-name="⁰" unicode="&#x2070;" horiz-adv-x="226" d=" M133,800 Q160,800 177.5,790.5 Q195,781 206,765 Q217,749 221.5,728 Q226,707 226,684 Q226,653 213.5,629 Q201,605 181.5,582.5 Q162,560 139.5,538 Q117,516 97.5,490.5 Q78,465 64.5,434 Q51,403 50,363 L50,361 L222,361 L222,351 L40,351 L40,356 Q40,399 53,431.5 Q66,464 85.5,490.5 Q105,517 128,539.5 Q151,562 170.5,584.5 Q190,607 203,630.5 Q216,654 216,684 Q216,705 212,724 Q208,743 198.5,758 Q189,773 173,781.5 Q157,790 133,790 Q109,790 93,781 Q77,772 67.5,757 Q58,742 54,722.5 Q50,703 50,682 L50,661 L40,661 L40,682 Q40,705 44.5,726.5 Q49,748 60,764.5 Q71,781 89,790.5 Q107,800 133,800"/> 
            <glyph glyph-name="⁴" unicode="&#x2074;" horiz-adv-x="230" d=" M135,800 Q161,800 178.5,791 Q196,782 207,767 Q218,752 223,731.5 Q228,711 228,688 L228,686 L218,686 L218,688 Q218,730 200,760 Q182,790 135,790 Q88,790 69,759 Q50,728 50,686 L50,558 Q73,614 135,614 Q161,614 179,604.5 Q197,595 208.5,579.5 Q220,564 225,543 Q230,522 230,499 L230,460 Q230,437 225,416 Q220,395 208.5,379.5 Q197,364 179,355 Q161,346 135,346 Q109,346 91,355 Q73,364 61.5,379.5 Q50,395 45,416 Q40,437 40,460 L40,686 Q40,709 45,730 Q50,751 61.5,766.5 Q73,782 91,791 Q109,800 135,800 M135,604 Q88,604 69,573 Q50,542 50,499 L50,460 Q50,418 69,387 Q88,356 135,356 Q182,356 201,387 Q220,418 220,460 L220,499 Q220,542 201,573 Q182,604 135,604"/> 
            <glyph glyph-name="⁵" unicode="&#x2075;" horiz-adv-x="225" d=" M214,785 L40,785 L40,795 L225,795 L225,786 L88,351 L77,351"/> 
            <glyph glyph-name="⁶" unicode="&#x2076;" horiz-adv-x="236" d=" M138,800 Q188,800 212,770 Q236,740 236,693 L236,678 Q236,645 222.5,619 Q209,593 176,582 Q210,572 223,545.5 Q236,519 236,486 L236,456 Q236,408 212.5,377 Q189,346 138,346 Q87,346 63.5,377 Q40,408 40,456 L40,486 Q40,519 53,545.5 Q66,572 100,582 Q67,593 53.5,619 Q40,645 40,678 L40,693 Q40,740 64,770 Q88,800 138,800 M138,790 Q93,790 71.5,763 Q50,736 50,693 L50,678 Q50,634 71.5,610.5 Q93,587 138,587 Q183,587 204.5,610.5 Q226,634 226,678 L226,693 Q226,736 204.5,763 Q183,790 138,790 M138,577 Q92,577 71,554 Q50,531 50,486 L50,456 Q50,412 70.5,384 Q91,356 138,356 Q185,356 205.5,384 Q226,412 226,456 L226,486 Q226,531 205,554 Q184,577 138,577"/> 
            <glyph glyph-name="⁷" unicode="&#x2077;" horiz-adv-x="230" d=" M135,800 Q161,800 179,791 Q197,782 208.5,766.5 Q220,751 225,730 Q230,709 230,686 L230,460 Q230,437 225,416 Q220,395 208.5,379.5 Q197,364 179,355 Q161,346 135,346 Q84,346 62,378.5 Q40,411 40,458 L40,461 L50,461 L50,458 Q50,416 69,386 Q88,356 135,356 Q182,356 201,387 Q220,418 220,460 L220,587 Q209,559 187,545.5 Q165,532 135,532 Q109,532 91,541 Q73,550 61.5,565.5 Q50,581 45,602 Q40,623 40,646 L40,686 Q40,709 45,730 Q50,751 61.5,766.5 Q73,782 91,791 Q109,800 135,800 M135,790 Q88,790 69,759 Q50,728 50,686 L50,646 Q50,604 69,573 Q88,542 135,542 Q182,542 201,573 Q220,604 220,646 L220,686 Q220,728 201,759 Q182,790 135,790"/> 
            <glyph glyph-name="⁸" unicode="&#x2078;" horiz-adv-x="343" d=" M203,538 L286,419 L278,413 L196,532 L114,414 L106,419 L189,538 L50,577 L53,587 L191,546 L191,692 L201,692 L201,546 L340,584 L343,574"/> 
            <glyph glyph-name="⁹" unicode="&#x2079;" horiz-adv-x="326" d=" M50,700 L326,0 L316,0 L40,700"/> 
            <glyph glyph-name="₀" unicode="&#x2080;" horiz-adv-x="226" d=" M133,384 Q160,384 177.5,374.5 Q195,365 206,349 Q217,333 221.5,312 Q226,291 226,268 Q226,237 213.5,213 Q201,189 181.5,166.5 Q162,144 139.5,122 Q117,100 97.5,74.5 Q78,49 64.5,18 Q51,-13 50,-53 L50,-55 L222,-55 L222,-65 L40,-65 L40,-60 Q40,-17 53,15.5 Q66,48 85.5,74.5 Q105,101 128,123.5 Q151,146 170.5,168.5 Q190,191 203,214.5 Q216,238 216,268 Q216,289 212,308 Q208,327 198.5,342 Q189,357 173,365.5 Q157,374 133,374 Q109,374 93,365 Q77,356 67.5,341 Q58,326 54,306.5 Q50,287 50,266 L50,245 L40,245 L40,266 Q40,289 44.5,310.5 Q49,332 60,348.5 Q71,365 89,374.5 Q107,384 133,384"/> 
            <glyph glyph-name="₁" unicode="&#x2081;" horiz-adv-x="226" d=" M133,384 Q158,384 176,375 Q194,366 205,350 Q216,334 221,313.5 Q226,293 226,270 L226,259 Q226,229 210.5,203 Q195,177 166,166 Q195,158 210.5,133.5 Q226,109 226,78 L226,44 Q226,21 221,0.5 Q216,-20 205,-36 Q194,-52 176,-61 Q158,-70 133,-70 Q107,-70 89.5,-61 Q72,-52 61,-36 Q50,-20 45,0.5 Q40,21 40,44 L40,63 L50,63 L50,44 Q50,23 54,4 Q58,-15 68,-29 Q78,-43 93.5,-51.5 Q109,-60 133,-60 Q157,-60 172.5,-51.5 Q188,-43 198,-29 Q208,-15 212,4 Q216,23 216,44 L216,78 Q216,112 196,136.5 Q176,161 140,161 L107,161 L107,171 L140,171 Q157,171 171.5,178.5 Q186,186 196,198.5 Q206,211 211,227 Q216,243 216,259 L216,270 Q216,291 212,309.5 Q208,328 198,342.5 Q188,357 172.5,365.5 Q157,374 133,374 Q109,374 93.5,365.5 Q78,357 68,342.5 Q58,328 54,309.5 Q50,291 50,270 L50,258 L40,258 L40,270 Q40,293 45,313.5 Q50,334 61,350 Q72,366 89.5,375 Q107,384 133,384"/> 
            <glyph glyph-name="₂" unicode="&#x2082;" horiz-adv-x="250" d=" M212,35 L212,-70 L202,-70 L202,35 L40,35 L40,45 L199,374 L212,374 L212,45 L250,45 L250,35 M51,45 L202,45 L202,357"/> 
            <glyph glyph-name="₃" unicode="&#x2083;" horiz-adv-x="226" d=" M50,47 Q50,26 54,7.5 Q58,-11 68,-25.5 Q78,-40 94,-48.5 Q110,-57 133,-57 Q157,-57 172.5,-48.5 Q188,-40 198,-25.5 Q208,-11 212,7.5 Q216,26 216,47 L216,110 Q216,131 212,149.5 Q208,168 198,182.5 Q188,197 172.5,205.5 Q157,214 133,214 Q109,214 86,199.5 Q63,185 57,161 L57,157 L47,157 L58,384 L216,384 L216,374 L67,374 L58,184 Q71,204 90.5,214 Q110,224 133,224 Q158,224 176,215 Q194,206 205,190 Q216,174 221,153.5 Q226,133 226,110 L226,47 Q226,24 221,3.5 Q216,-17 205,-33 Q194,-49 176,-58 Q158,-67 133,-67 Q107,-67 89.5,-58 Q72,-49 61,-33 Q50,-17 45,3.5 Q40,24 40,47 L40,64 L50,64"/> 
            <glyph glyph-name="₄" unicode="&#x2084;" horiz-adv-x="230" d=" M135,384 Q161,384 178.5,375 Q196,366 207,351 Q218,336 223,315.5 Q228,295 228,272 L228,270 L218,270 L218,272 Q218,314 200,344 Q182,374 135,374 Q88,374 69,343 Q50,312 50,270 L50,142 Q73,198 135,198 Q161,198 179,188.5 Q197,179 208.5,163.5 Q220,148 225,127 Q230,106 230,83 L230,44 Q230,21 225,0 Q220,-21 208.5,-36.5 Q197,-52 179,-61 Q161,-70 135,-70 Q109,-70 91,-61 Q73,-52 61.5,-36.5 Q50,-21 45,0 Q40,21 40,44 L40,270 Q40,293 45,314 Q50,335 61.5,350.5 Q73,366 91,375 Q109,384 135,384 M135,188 Q88,188 69,157 Q50,126 50,83 L50,44 Q50,2 69,-29 Q88,-60 135,-60 Q182,-60 201,-29 Q220,2 220,44 L220,83 Q220,126 201,157 Q182,188 135,188"/> 
            <glyph glyph-name="₅" unicode="&#x2085;" horiz-adv-x="225" d=" M214,374 L40,374 L40,384 L225,384 L225,375 L88,-60 L77,-60"/> 
            <glyph glyph-name="₆" unicode="&#x2086;" horiz-adv-x="236" d=" M138,384 Q188,384 212,354 Q236,324 236,277 L236,262 Q236,229 222.5,203 Q209,177 176,166 Q210,156 223,129.5 Q236,103 236,70 L236,40 Q236,-8 212.5,-39 Q189,-70 138,-70 Q87,-70 63.5,-39 Q40,-8 40,40 L40,70 Q40,103 53,129.5 Q66,156 100,166 Q67,177 53.5,203 Q40,229 40,262 L40,277 Q40,324 64,354 Q88,384 138,384 M138,374 Q93,374 71.5,347 Q50,320 50,277 L50,262 Q50,218 71.5,194.5 Q93,171 138,171 Q183,171 204.5,194.5 Q226,218 226,262 L226,277 Q226,320 204.5,347 Q183,374 138,374 M138,161 Q92,161 71,138 Q50,115 50,70 L50,40 Q50,-4 70.5,-32 Q91,-60 138,-60 Q185,-60 205.5,-32 Q226,-4 226,40 L226,70 Q226,115 205,138 Q184,161 138,161"/> 
            <glyph glyph-name="₇" unicode="&#x2087;" horiz-adv-x="230" d=" M135,384 Q161,384 179,375 Q197,366 208.5,350.5 Q220,335 225,314 Q230,293 230,270 L230,44 Q230,21 225,0 Q220,-21 208.5,-36.5 Q197,-52 179,-61 Q161,-70 135,-70 Q84,-70 62,-37.5 Q40,-5 40,42 L40,45 L50,45 L50,42 Q50,0 69,-30 Q88,-60 135,-60 Q182,-60 201,-29 Q220,2 220,44 L220,171 Q209,143 187,129.5 Q165,116 135,116 Q109,116 91,125 Q73,134 61.5,149.5 Q50,165 45,186 Q40,207 40,230 L40,270 Q40,293 45,314 Q50,335 61.5,350.5 Q73,366 91,375 Q109,384 135,384 M135,374 Q88,374 69,343 Q50,312 50,270 L50,230 Q50,188 69,157 Q88,126 135,126 Q182,126 201,157 Q220,188 220,230 L220,270 Q220,312 201,343 Q182,374 135,374"/> 
            <glyph glyph-name="₈" unicode="&#x2088;" horiz-adv-x="230" d=" M40,686 Q40,709 45,730 Q50,751 61.5,766.5 Q73,782 91,791 Q109,800 135,800 Q161,800 179,791 Q197,782 208.5,766.5 Q220,751 225,730 Q230,709 230,686 L230,460 Q230,437 225,416 Q220,395 208.5,379.5 Q197,364 179,355 Q161,346 135,346 Q109,346 91,355 Q73,364 61.5,379.5 Q50,395 45,416 Q40,437 40,460 M50,460 Q50,418 69,387 Q88,356 135,356 Q182,356 201,387 Q220,418 220,460 L220,686 Q220,728 201,759 Q182,790 135,790 Q88,790 69,759 Q50,728 50,686"/> 
            <glyph glyph-name="₉" unicode="&#x2089;" horiz-adv-x="125" d=" M40,732 Q67,735 85.5,752 Q104,769 112,795 L125,795 L125,351 L115,351 L115,775 Q104,753 85,739 Q66,725 41,722"/> 
            <glyph glyph-name="€" unicode="&#x20AC;" horiz-adv-x="283" d=" M240,421 Q253,407 260.5,388.5 Q268,370 268,350 Q268,329 260.5,310.5 Q253,292 240,278 L283,236 L276,229 L233,271 Q203,244 161,244 Q120,244 90,271 L47,229 L40,236 L83,278 Q70,292 62.5,310.5 Q55,329 55,350 Q55,371 62.5,389 Q70,407 83,421 L40,464 L47,471 L90,428 Q120,456 161,456 Q203,456 233,428 L276,471 L283,464 M161,446 Q121,446 93,418 Q65,390 65,350 Q65,310 93,282 Q121,254 161,254 Q202,254 230,282 Q258,310 258,350 Q258,390 230,418 Q202,446 161,446"/> 
            <glyph glyph-name="₹" unicode="&#x20B9;" horiz-adv-x="357" d=" M122,464 Q146,465 167,455 Q188,445 208,433 Q228,421 247.5,411 Q267,401 287,402 Q310,404 324.5,420 Q339,436 349,454 L357,450 Q346,429 330,411.5 Q314,394 288,392 Q266,391 245.5,401 Q225,411 205.5,423 Q186,435 165.5,445 Q145,455 123,454 Q97,453 79,437.5 Q61,422 49,402 L40,407 Q54,430 74,446.5 Q94,463 122,464 M122,306 Q146,306 167,296 Q188,286 208,274 Q228,262 247.5,252.5 Q267,243 287,244 Q310,245 324.5,261.5 Q339,278 349,296 L357,292 Q346,271 330,253.5 Q314,236 288,234 Q266,233 245.5,242.5 Q225,252 205.5,264 Q186,276 165.5,286 Q145,296 123,296 Q97,295 79,279.5 Q61,264 49,244 L40,249 Q54,272 74,288.5 Q94,305 122,306"/> 
            <glyph glyph-name="℗" unicode="&#x2117;" horiz-adv-x="217" d=" M217,806 Q215,771 188.5,752 Q162,733 128,733 Q95,733 68,751.5 Q41,770 40,806 L50,806 Q51,774 75,758.5 Q99,743 128,743 Q157,743 181,758.5 Q205,774 207,806"/> 
            <glyph glyph-name="™" unicode="&#x2122;" horiz-adv-x="127" d=" M127,848 L53,762 L40,762 L113,848"/> 
            <glyph glyph-name="⅓" unicode="&#x2153;" horiz-adv-x="432" d=" M115,680 Q104,658 85,644 Q66,630 41,627 L40,637 Q67,640 85.5,657 Q104,674 112,700 L125,700 L125,256 L115,256 M96,0 L86,0 L362,700 L372,700 M394,0 L384,0 L384,105 L222,105 L222,115 L381,444 L394,444 L394,115 L432,115 L432,105 L394,105 M384,115 L384,427 L234,115"/> 
            <glyph glyph-name="⅔" unicode="&#x2154;" horiz-adv-x="510" d=" M133,705 Q158,705 176,696 Q194,687 205,671 Q216,655 221,634.5 Q226,614 226,591 L226,580 Q226,550 210.5,524.5 Q195,499 166,488 Q197,478 211.5,454 Q226,430 226,399 L226,365 Q226,342 221,321.5 Q216,301 205,285 Q194,269 176,260 Q158,251 133,251 Q107,251 89.5,260 Q72,269 61,285 Q50,301 45,321.5 Q40,342 40,365 L40,384 L50,384 L50,365 Q50,344 54,325 Q58,306 68,292 Q78,278 93.5,269.5 Q109,261 133,261 Q157,261 172.5,269.5 Q188,278 198,292 Q208,306 212,325 Q216,344 216,365 L216,399 Q216,433 196,457.5 Q176,482 140,482 L107,482 L107,492 L140,492 Q157,492 171.5,499.5 Q186,507 196,519.5 Q206,532 211,548 Q216,564 216,580 L216,591 Q216,612 212,630.5 Q208,649 198,663.5 Q188,678 172.5,686.5 Q157,695 133,695 Q109,695 93.5,686.5 Q78,678 68,663.5 Q58,649 54,630.5 Q50,612 50,591 L50,579 L40,579 L40,591 Q40,614 45,634.5 Q50,655 61,671 Q72,687 89.5,696 Q107,705 133,705 M440,700 L450,700 L174,0 L164,0 M462,105 L300,105 L300,115 L459,444 L472,444 L472,115 L510,115 L510,105 L472,105 L472,0 L462,0 M312,115 L462,115 L462,427"/> 
            <glyph glyph-name="⅛" unicode="&#x215B;" horiz-adv-x="583" d=" M58,500 Q71,520 90.5,530 Q110,540 133,540 Q158,540 176,531 Q194,522 205,506 Q216,490 221,469.5 Q226,449 226,426 L226,363 Q226,340 221,319.5 Q216,299 205,283 Q194,267 176,258 Q158,249 133,249 Q107,249 89.5,258 Q72,267 61,283 Q50,299 45,319.5 Q40,340 40,363 L40,380 L50,380 L50,363 Q50,342 54,323.5 Q58,305 68,290.5 Q78,276 94,267.5 Q110,259 133,259 Q157,259 172.5,267.5 Q188,276 198,290.5 Q208,305 212,323.5 Q216,342 216,363 L216,426 Q216,447 212,465.5 Q208,484 198,498.5 Q188,513 172.5,521.5 Q157,530 133,530 Q109,530 86,515.5 Q63,501 57,477 L57,473 L47,473 L58,700 L216,700 L216,690 L67,690 M438,700 L448,700 L172,0 L162,0 M485,449 Q535,449 559,419 Q583,389 583,342 L583,327 Q583,294 569.5,268 Q556,242 523,231 Q557,221 570,194.5 Q583,168 583,135 L583,105 Q583,57 559.5,26 Q536,-5 485,-5 Q434,-5 410.5,26 Q387,57 387,105 L387,135 Q387,168 400,194.5 Q413,221 447,231 Q414,242 400.5,268 Q387,294 387,327 L387,342 Q387,389 411,419 Q435,449 485,449 M485,439 Q440,439 418.5,412 Q397,385 397,342 L397,327 Q397,283 418.5,259.5 Q440,236 485,236 Q530,236 551.5,259.5 Q573,283 573,327 L573,342 Q573,385 551.5,412 Q530,439 485,439 M485,226 Q439,226 418,203 Q397,180 397,135 L397,105 Q397,61 417.5,33 Q438,5 485,5 Q532,5 552.5,33 Q573,61 573,105 L573,135 Q573,180 552,203 Q531,226 485,226"/> 
            <glyph glyph-name="⅜" unicode="&#x215C;" horiz-adv-x="484" d=" M214,690 L40,690 L40,700 L225,700 L225,691 L88,256 L77,256 M73,0 L63,0 L339,700 L349,700 M386,449 Q436,449 460,419 Q484,389 484,342 L484,327 Q484,294 470.5,268 Q457,242 424,231 Q458,221 471,194.5 Q484,168 484,135 L484,105 Q484,57 460.5,26 Q437,-5 386,-5 Q335,-5 311.5,26 Q288,57 288,105 L288,135 Q288,168 301,194.5 Q314,221 348,231 Q315,242 301.5,268 Q288,294 288,327 L288,342 Q288,389 312,419 Q336,449 386,449 M386,439 Q341,439 319.5,412 Q298,385 298,342 L298,327 Q298,283 319.5,259.5 Q341,236 386,236 Q431,236 452.5,259.5 Q474,283 474,327 L474,342 Q474,385 452.5,412 Q431,439 386,439 M386,226 Q340,226 319,203 Q298,180 298,135 L298,105 Q298,61 318.5,33 Q339,5 386,5 Q433,5 453.5,33 Q474,61 474,105 L474,135 Q474,180 453,203 Q432,226 386,226"/> 
            <glyph glyph-name="⅝" unicode="&#x215D;" horiz-adv-x="230" d=" M40,270 Q40,293 45,314 Q50,335 61.5,350.5 Q73,366 91,375 Q109,384 135,384 Q161,384 179,375 Q197,366 208.5,350.5 Q220,335 225,314 Q230,293 230,270 L230,44 Q230,21 225,0 Q220,-21 208.5,-36.5 Q197,-52 179,-61 Q161,-70 135,-70 Q109,-70 91,-61 Q73,-52 61.5,-36.5 Q50,-21 45,0 Q40,21 40,44 M50,44 Q50,2 69,-29 Q88,-60 135,-60 Q182,-60 201,-29 Q220,2 220,44 L220,270 Q220,312 201,343 Q182,374 135,374 Q88,374 69,343 Q50,312 50,270"/> 
            <glyph glyph-name="⅞" unicode="&#x215E;" horiz-adv-x="125" d=" M115,359 Q104,337 85,323 Q66,309 41,306 L40,316 Q67,319 85.5,336 Q104,353 112,379 L125,379 L125,-65 L115,-65"/> 
            <glyph glyph-name="−" unicode="&#x2212;" horiz-adv-x="553" d=" M128,701 Q153,701 170,691 Q187,681 197,665 Q207,649 211.5,628.5 Q216,608 216,586 L216,383 Q216,361 211.5,340.5 Q207,320 197,304 Q187,288 170,278.5 Q153,269 128,269 Q103,269 86,278.5 Q69,288 59,304 Q49,320 44.5,340.5 Q40,361 40,383 L40,586 Q40,608 44.5,628.5 Q49,649 59,665 Q69,681 86,691 Q103,701 128,701 M439,701 L163,0 L152,0 L428,701 M128,691 Q105,691 90,682 Q75,673 66,658 Q57,643 53.5,624 Q50,605 50,586 L50,383 Q50,363 53.5,344.5 Q57,326 66,311.5 Q75,297 90,288 Q105,279 128,279 Q151,279 166,288 Q181,297 190,311.5 Q199,326 202.5,344.5 Q206,363 206,383 L206,586 Q206,605 202.5,624 Q199,643 190,658 Q181,673 166,682 Q151,691 128,691 M465,428 Q490,428 507,418.5 Q524,409 534.5,393 Q545,377 549,356.5 Q553,336 553,314 L553,115 Q553,93 549,72.5 Q545,52 534.5,36 Q524,20 507,10 Q490,0 465,0 Q440,0 423,10 Q406,20 396,36 Q386,52 381.5,72.5 Q377,93 377,115 L377,314 Q377,336 381.5,356.5 Q386,377 396,393 Q406,409 423,418.5 Q440,428 465,428 M465,418 Q442,418 427,409 Q412,400 403,385.5 Q394,371 390.5,352 Q387,333 387,314 L387,115 Q387,95 390.5,76.5 Q394,58 403,43 Q412,28 427,19 Q442,10 465,10 Q488,10 503,19 Q518,28 527,43 Q536,58 539.5,76.5 Q543,95 543,115 L543,314 Q543,333 539.5,352 Q536,371 527,385.5 Q518,400 503,409 Q488,418 465,418"/> 
            <glyph glyph-name="∞" unicode="&#x221E;" horiz-adv-x="331" d=" M40,346 L40,355 L331,355 L331,213 L321,213 L321,346"/> 
            <glyph glyph-name="≈" unicode="&#x2248;" horiz-adv-x="214" d=" M131,468 L131,390 L121,390 L121,468 M214,355 L214,346 L40,346 L40,355 M131,311 L131,233 L121,233 L121,311"/> 
        </font>
</defs>
</svg>
