<?xml version="1.0" encoding="utf-8"?>
<!-- Generator: Adobe Illustrator 21.1.0, SVG Export Plug-In . SVG Version: 6.00 Build 0)  -->
<svg version="1.1" id="Capa_3" xmlns="http://www.w3.org/2000/svg" xmlns:xlink="http://www.w3.org/1999/xlink" x="0px" y="0px"
	 viewBox="0 0 22 22" style="enable-background:new 0 0 22 22;" xml:space="preserve">
<g>
	<path id="LinkedIn" d="M19.9,12.5V19h-3.8v-6.1c0-1.5-0.6-2.6-1.9-2.6c-1,0-1.7,0.7-1.9,1.4c-0.1,0.3-0.1,0.6-0.1,0.9v6.4H8.3
		c0,0,0-10.3,0-11.4h3.8v1.6c0,0,0,0,0,0h0v0c0.5-0.8,1.4-1.9,3.4-1.9C18,7.4,19.9,9,19.9,12.5z M4.3,2.1C3,2.1,2.2,3,2.2,4.1
		c0,1.1,0.8,2,2.1,2h0c1.3,0,2.2-0.9,2.2-2C6.4,3,5.6,2.1,4.3,2.1z M2.4,19.1h3.8V7.6H2.4V19.1z"/>
</g>
</svg>
