<svg xmlns="http://www.w3.org/2000/svg" width="1920" height="1080"><path d="M-170,-208L95,-218L487,-257Z" fill="#292d39" stroke="#292d39" stroke-width="1.51"/><path d="M447,1290L-6,1346L613,1284Z" fill="#353946" stroke="#353946" stroke-width="1.51"/><path d="M874,1281L613,1284L1205,1324Z" fill="#383d49" stroke="#383d49" stroke-width="1.51"/><path d="M613,1284L-6,1346L1205,1324Z" fill="#373c48" stroke="#373c48" stroke-width="1.51"/><path d="M1205,1324L-6,1346L1339,1339Z" fill="#383d49" stroke="#383d49" stroke-width="1.51"/><path d="M935,-240L1147,-216L1375,-210Z" fill="#2e323e" stroke="#2e323e" stroke-width="1.51"/><path d="M935,-240L1375,-210L1502,-211Z" fill="#2f333e" stroke="#2f333e" stroke-width="1.51"/><path d="M791,-261L935,-240L1502,-211Z" fill="#2e323d" stroke="#2e323d" stroke-width="1.51"/><path d="M791,-261L1502,-211L1951,-226Z" fill="#30343f" stroke="#30343f" stroke-width="1.51"/><path d="M1616,-175L1783,-165L1951,-226Z" fill="#323743" stroke="#323743" stroke-width="1.51"/><path d="M1502,-211L1616,-175L1951,-226Z" fill="#313642" stroke="#313642" stroke-width="1.51"/><path d="M1606,1299L1526,1316L1963,1286Z" fill="#3d434f" stroke="#3d434f" stroke-width="1.51"/><path d="M1796,1243L1606,1299L1963,1286Z" fill="#3e434f" stroke="#3e434f" stroke-width="1.51"/><path d="M1963,1286L1526,1316L2029,1287Z" fill="#3e4450" stroke="#3e4450" stroke-width="1.51"/><path d="M1526,1316L1339,1339L2029,1287Z" fill="#3d424e" stroke="#3d424e" stroke-width="1.51"/><path d="M1990,93L2088,137L2099,-71Z" fill="#343946" stroke="#343946" stroke-width="1.51"/><path d="M1942,-5L1990,93L2099,-71Z" fill="#343945" stroke="#343945" stroke-width="1.51"/><path d="M1945,681L1883,824L2103,860Z" fill="#3a3f4b" stroke="#3a3f4b" stroke-width="1.51"/><path d="M2103,860L1903,972L2106,992Z" fill="#3c414d" stroke="#3c414d" stroke-width="1.51"/><path d="M2106,992L1990,1093L2107,1101Z" fill="#3d434f" stroke="#3d434f" stroke-width="1.51"/><path d="M1990,1093L2029,1287L2107,1101Z" fill="#3e4450" stroke="#3e4450" stroke-width="1.51"/><path d="M1951,-226L2099,-71L2107,-191Z" fill="#343946" stroke="#343946" stroke-width="1.51"/><path d="M2088,137L2029,293L2111,437Z" fill="#373b47" stroke="#373b47" stroke-width="1.51"/><path d="M2029,293L1988,507L2111,437Z" fill="#373c48" stroke="#373c48" stroke-width="1.51"/><path d="M2099,-71L2088,137L2111,437Z" fill="#353a47" stroke="#353a47" stroke-width="1.51"/><path d="M2107,-191L2099,-71L2111,437Z" fill="#353a46" stroke="#353a46" stroke-width="1.51"/><path d="M2093,505L1988,507L2116,702Z" fill="#393e4a" stroke="#393e4a" stroke-width="1.51"/><path d="M1988,507L1945,681L2116,702Z" fill="#393e4a" stroke="#393e4a" stroke-width="1.51"/><path d="M1945,681L2103,860L2116,702Z" fill="#3a404b" stroke="#3a404b" stroke-width="1.51"/><path d="M2106,992L2107,1101L2116,702Z" fill="#3c424e" stroke="#3c424e" stroke-width="1.51"/><path d="M2111,437L2093,505L2116,702Z" fill="#393e4a" stroke="#393e4a" stroke-width="1.51"/><path d="M2103,860L2106,992L2116,702Z" fill="#3c414d" stroke="#3c414d" stroke-width="1.51"/><path d="M1988,507L2093,505L2111,437Z" fill="#383d49" stroke="#383d49" stroke-width="1.51"/><path d="M1951,-226L1942,-5L2099,-71Z" fill="#343945" stroke="#343945" stroke-width="1.51"/><path d="M1906,190L2029,293L2088,137Z" fill="#353a46" stroke="#353a46" stroke-width="1.51"/><path d="M1903,972L1990,1093L2106,992Z" fill="#3c424d" stroke="#3c424d" stroke-width="1.51"/><path d="M1990,93L1906,190L2088,137Z" fill="#343945" stroke="#343945" stroke-width="1.51"/><path d="M1883,824L1903,972L2103,860Z" fill="#3b404c" stroke="#3b404c" stroke-width="1.51"/><path d="M1891,443L1988,507L2029,293Z" fill="#373b47" stroke="#373b47" stroke-width="1.51"/><path d="M1990,1093L1963,1286L2029,1287Z" fill="#3f4450" stroke="#3f4450" stroke-width="1.51"/><path d="M1906,190L1812,282L2029,293Z" fill="#353945" stroke="#353945" stroke-width="1.51"/><path d="M1812,282L1891,443L2029,293Z" fill="#363a46" stroke="#363a46" stroke-width="1.51"/><path d="M1780,-102L1942,-5L1951,-226Z" fill="#333844" stroke="#333844" stroke-width="1.51"/><path d="M1783,-165L1780,-102L1951,-226Z" fill="#333743" stroke="#333743" stroke-width="1.51"/><path d="M1795,1153L1796,1243L1963,1286Z" fill="#3e434f" stroke="#3e434f" stroke-width="1.51"/><path d="M1803,500L1945,681L1988,507Z" fill="#383c48" stroke="#383c48" stroke-width="1.51"/><path d="M1891,443L1803,500L1988,507Z" fill="#373c47" stroke="#373c47" stroke-width="1.51"/><path d="M1942,-5L1906,190L1990,93Z" fill="#333844" stroke="#333844" stroke-width="1.51"/><path d="M1795,1153L1963,1286L1990,1093Z" fill="#3e434f" stroke="#3e434f" stroke-width="1.51"/><path d="M1903,972L1795,1153L1990,1093Z" fill="#3c414d" stroke="#3c414d" stroke-width="1.51"/><path d="M1812,282L1790,383L1891,443Z" fill="#353a45" stroke="#353a45" stroke-width="1.51"/><path d="M1739,100L1906,190L1942,-5Z" fill="#333844" stroke="#333844" stroke-width="1.51"/><path d="M1803,500L1729,667L1945,681Z" fill="#373c47" stroke="#373c47" stroke-width="1.51"/><path d="M1883,824L1805,937L1903,972Z" fill="#3a3f4b" stroke="#3a3f4b" stroke-width="1.51"/><path d="M1729,667L1883,824L1945,681Z" fill="#393d49" stroke="#393d49" stroke-width="1.51"/><path d="M1780,-102L1739,100L1942,-5Z" fill="#323743" stroke="#323743" stroke-width="1.51"/><path d="M487,-257L633,-250L791,-261Z" fill="#2b2f3a" stroke="#2b2f3a" stroke-width="1.51"/><path d="M1729,667L1772,837L1883,824Z" fill="#383d49" stroke="#383d49" stroke-width="1.51"/><path d="M1805,937L1795,1153L1903,972Z" fill="#3b404c" stroke="#3b404c" stroke-width="1.51"/><path d="M1739,100L1812,282L1906,190Z" fill="#333844" stroke="#333844" stroke-width="1.51"/><path d="M1772,837L1805,937L1883,824Z" fill="#393f4a" stroke="#393f4a" stroke-width="1.51"/><path d="M1790,383L1803,500L1891,443Z" fill="#363b46" stroke="#363b46" stroke-width="1.51"/><path d="M1668,1036L1795,1153L1805,937Z" fill="#3b404b" stroke="#3b404b" stroke-width="1.51"/><path d="M1729,667L1685,734L1772,837Z" fill="#383c48" stroke="#383c48" stroke-width="1.51"/><path d="M1617,49L1739,100L1780,-102Z" fill="#323642" stroke="#323642" stroke-width="1.51"/><path d="M1636,-104L1617,49L1780,-102Z" fill="#313642" stroke="#313642" stroke-width="1.51"/><path d="M1668,1036L1686,1176L1795,1153Z" fill="#3c404c" stroke="#3c404c" stroke-width="1.51"/><path d="M1795,1153L1686,1176L1796,1243Z" fill="#3c424d" stroke="#3c424d" stroke-width="1.51"/><path d="M1592,560L1729,667L1803,500Z" fill="#363b46" stroke="#363b46" stroke-width="1.51"/><path d="M1790,383L1635,345L1803,500Z" fill="#353945" stroke="#353945" stroke-width="1.51"/><path d="M1739,100L1661,224L1812,282Z" fill="#333743" stroke="#333743" stroke-width="1.51"/><path d="M1635,345L1790,383L1812,282Z" fill="#343944" stroke="#343944" stroke-width="1.51"/><path d="M1661,224L1635,345L1812,282Z" fill="#333843" stroke="#333843" stroke-width="1.51"/><path d="M1635,345L1592,560L1803,500Z" fill="#353944" stroke="#353944" stroke-width="1.51"/><path d="M1772,837L1668,1036L1805,937Z" fill="#393e4a" stroke="#393e4a" stroke-width="1.51"/><path d="M1635,801L1668,1036L1772,837Z" fill="#383d49" stroke="#383d49" stroke-width="1.51"/><path d="M1686,1176L1606,1299L1796,1243Z" fill="#3c424e" stroke="#3c424e" stroke-width="1.51"/><path d="M1636,-104L1780,-102L1783,-165Z" fill="#323642" stroke="#323642" stroke-width="1.51"/><path d="M1616,-175L1636,-104L1783,-165Z" fill="#313642" stroke="#313642" stroke-width="1.51"/><path d="M1685,734L1635,801L1772,837Z" fill="#383c48" stroke="#383c48" stroke-width="1.51"/><path d="M1635,801L1527,940L1668,1036Z" fill="#393d48" stroke="#393d48" stroke-width="1.51"/><path d="M1617,49L1661,224L1739,100Z" fill="#313641" stroke="#313641" stroke-width="1.51"/><path d="M1592,560L1685,734L1729,667Z" fill="#373b46" stroke="#373b46" stroke-width="1.51"/><path d="M1495,383L1592,560L1635,345Z" fill="#343843" stroke="#343843" stroke-width="1.51"/><path d="M1617,49L1521,100L1661,224Z" fill="#313541" stroke="#313541" stroke-width="1.51"/><path d="M1592,560L1529,693L1685,734Z" fill="#363b45" stroke="#363b45" stroke-width="1.51"/><path d="M1668,1036L1467,1138L1686,1176Z" fill="#3a3f4b" stroke="#3a3f4b" stroke-width="1.51"/><path d="M1467,1138L1606,1299L1686,1176Z" fill="#3b404c" stroke="#3b404c" stroke-width="1.51"/><path d="M1529,693L1635,801L1685,734Z" fill="#373b46" stroke="#373b46" stroke-width="1.51"/><path d="M1522,-98L1617,49L1636,-104Z" fill="#313541" stroke="#313541" stroke-width="1.51"/><path d="M1445,241L1635,345L1661,224Z" fill="#323641" stroke="#323641" stroke-width="1.51"/><path d="M1527,940L1467,1138L1668,1036Z" fill="#393e49" stroke="#393e49" stroke-width="1.51"/><path d="M1493,839L1527,940L1635,801Z" fill="#383c47" stroke="#383c47" stroke-width="1.51"/><path d="M1521,100L1445,241L1661,224Z" fill="#313541" stroke="#313541" stroke-width="1.51"/><path d="M1467,1138L1526,1316L1606,1299Z" fill="#3b414c" stroke="#3b414c" stroke-width="1.51"/><path d="M1529,693L1493,839L1635,801Z" fill="#363b46" stroke="#363b46" stroke-width="1.51"/><path d="M1445,241L1495,383L1635,345Z" fill="#323742" stroke="#323742" stroke-width="1.51"/><path d="M1616,-175L1522,-98L1636,-104Z" fill="#313541" stroke="#313541" stroke-width="1.51"/><path d="M1495,383L1454,566L1592,560Z" fill="#343843" stroke="#343843" stroke-width="1.51"/><path d="M1502,-211L1522,-98L1616,-175Z" fill="#303540" stroke="#303540" stroke-width="1.51"/><path d="M1522,-98L1521,100L1617,49Z" fill="#303540" stroke="#303540" stroke-width="1.51"/><path d="M1454,566L1529,693L1592,560Z" fill="#353a44" stroke="#353a44" stroke-width="1.51"/><path d="M1356,592L1348,732L1454,566Z" fill="#343944" stroke="#343944" stroke-width="1.51"/><path d="M1359,-53L1328,107L1521,100Z" fill="#2f343f" stroke="#2f343f" stroke-width="1.51"/><path d="M1502,-211L1375,-210L1522,-98Z" fill="#303440" stroke="#303440" stroke-width="1.51"/><path d="M1359,-53L1521,100L1522,-98Z" fill="#303440" stroke="#303440" stroke-width="1.51"/><path d="M1467,1138L1339,1339L1526,1316Z" fill="#3b404c" stroke="#3b404c" stroke-width="1.51"/><path d="M1373,1002L1467,1138L1527,940Z" fill="#383d48" stroke="#383d48" stroke-width="1.51"/><path d="M1493,839L1349,868L1527,940Z" fill="#373c47" stroke="#373c47" stroke-width="1.51"/><path d="M1348,732L1493,839L1529,693Z" fill="#363b45" stroke="#363b45" stroke-width="1.51"/><path d="M1454,566L1348,732L1529,693Z" fill="#353a44" stroke="#353a44" stroke-width="1.51"/><path d="M1328,107L1445,241L1521,100Z" fill="#30343f" stroke="#30343f" stroke-width="1.51"/><path d="M1349,868L1373,1002L1527,940Z" fill="#383c47" stroke="#383c47" stroke-width="1.51"/><path d="M1375,-210L1359,-53L1522,-98Z" fill="#30343f" stroke="#30343f" stroke-width="1.51"/><path d="M1281,391L1454,566L1495,383Z" fill="#333742" stroke="#333742" stroke-width="1.51"/><path d="M1445,241L1281,391L1495,383Z" fill="#323641" stroke="#323641" stroke-width="1.51"/><path d="M1281,391L1356,592L1454,566Z" fill="#333842" stroke="#333842" stroke-width="1.51"/><path d="M1348,732L1349,868L1493,839Z" fill="#363b45" stroke="#363b45" stroke-width="1.51"/><path d="M1313,207L1281,391L1445,241Z" fill="#313540" stroke="#313540" stroke-width="1.51"/><path d="M1328,107L1313,207L1445,241Z" fill="#30343f" stroke="#30343f" stroke-width="1.51"/><path d="M1373,1002L1324,1089L1467,1138Z" fill="#383d49" stroke="#383d49" stroke-width="1.51"/><path d="M1324,1089L1339,1339L1467,1138Z" fill="#3a3f4a" stroke="#3a3f4a" stroke-width="1.51"/><path d="M1324,1089L1209,1174L1339,1339Z" fill="#393f4a" stroke="#393f4a" stroke-width="1.51"/><path d="M1209,1174L1205,1324L1339,1339Z" fill="#3a3f4b" stroke="#3a3f4b" stroke-width="1.51"/><path d="M1194,882L1172,945L1349,868Z" fill="#363a45" stroke="#363a45" stroke-width="1.51"/><path d="M1281,391L1211,513L1356,592Z" fill="#333741" stroke="#333741" stroke-width="1.51"/><path d="M1203,646L1348,732L1356,592Z" fill="#353943" stroke="#353943" stroke-width="1.51"/><path d="M1147,-216L1139,-57L1359,-53Z" fill="#2f333e" stroke="#2f333e" stroke-width="1.51"/><path d="M1349,868L1172,945L1373,1002Z" fill="#363b46" stroke="#363b46" stroke-width="1.51"/><path d="M1147,-216L1359,-53L1375,-210Z" fill="#2f333e" stroke="#2f333e" stroke-width="1.51"/><path d="M1139,-57L1173,113L1328,107Z" fill="#2f333e" stroke="#2f333e" stroke-width="1.51"/><path d="M1139,-57L1328,107L1359,-53Z" fill="#2f333e" stroke="#2f333e" stroke-width="1.51"/><path d="M1172,945L1324,1089L1373,1002Z" fill="#373c47" stroke="#373c47" stroke-width="1.51"/><path d="M1348,732L1194,882L1349,868Z" fill="#363a45" stroke="#363a45" stroke-width="1.51"/><path d="M1211,513L1203,646L1356,592Z" fill="#343842" stroke="#343842" stroke-width="1.51"/><path d="M1139,244L1281,391L1313,207Z" fill="#303440" stroke="#303440" stroke-width="1.51"/><path d="M1203,646L1194,882L1348,732Z" fill="#353a44" stroke="#353a44" stroke-width="1.51"/><path d="M1139,244L1131,347L1281,391Z" fill="#30353f" stroke="#30353f" stroke-width="1.51"/><path d="M1172,945L1209,1174L1324,1089Z" fill="#383c48" stroke="#383c48" stroke-width="1.51"/><path d="M1173,113L1313,207L1328,107Z" fill="#2f333e" stroke="#2f333e" stroke-width="1.51"/><path d="M1173,113L1139,244L1313,207Z" fill="#2f333e" stroke="#2f333e" stroke-width="1.51"/><path d="M1041,1250L874,1281L1205,1324Z" fill="#393e49" stroke="#393e49" stroke-width="1.51"/><path d="M1131,347L1211,513L1281,391Z" fill="#313640" stroke="#313640" stroke-width="1.51"/><path d="M1139,-57L1065,-14L1173,113Z" fill="#2e323d" stroke="#2e323d" stroke-width="1.51"/><path d="M1035,826L1194,882L1203,646Z" fill="#353943" stroke="#353943" stroke-width="1.51"/><path d="M1030,682L1035,826L1203,646Z" fill="#343843" stroke="#343843" stroke-width="1.51"/><path d="M1172,945L1035,1023L1209,1174Z" fill="#373c46" stroke="#373c46" stroke-width="1.51"/><path d="M1035,1023L1027,1146L1209,1174Z" fill="#373c47" stroke="#373c47" stroke-width="1.51"/><path d="M1041,1250L1205,1324L1209,1174Z" fill="#393e4a" stroke="#393e4a" stroke-width="1.51"/><path d="M1069,551L1203,646L1211,513Z" fill="#333842" stroke="#333842" stroke-width="1.51"/><path d="M1131,347L1069,551L1211,513Z" fill="#323640" stroke="#323640" stroke-width="1.51"/><path d="M1027,1146L1041,1250L1209,1174Z" fill="#383d48" stroke="#383d48" stroke-width="1.51"/><path d="M1069,551L1030,682L1203,646Z" fill="#333842" stroke="#333842" stroke-width="1.51"/><path d="M1035,826L1172,945L1194,882Z" fill="#353a44" stroke="#353a44" stroke-width="1.51"/><path d="M998,372L1069,551L1131,347Z" fill="#31353f" stroke="#31353f" stroke-width="1.51"/><path d="M1015,-169L1139,-57L1147,-216Z" fill="#2e323d" stroke="#2e323d" stroke-width="1.51"/><path d="M1035,826L1035,1023L1172,945Z" fill="#353a45" stroke="#353a45" stroke-width="1.51"/><path d="M1065,-14L1007,51L1173,113Z" fill="#2e323d" stroke="#2e323d" stroke-width="1.51"/><path d="M1004,221L1139,244L1173,113Z" fill="#2e333e" stroke="#2e333e" stroke-width="1.51"/><path d="M1007,51L1004,221L1173,113Z" fill="#2e323d" stroke="#2e323d" stroke-width="1.51"/><path d="M1004,221L1131,347L1139,244Z" fill="#2f343e" stroke="#2f343e" stroke-width="1.51"/><path d="M1015,-169L1065,-14L1139,-57Z" fill="#2e323d" stroke="#2e323d" stroke-width="1.51"/><path d="M935,-240L1015,-169L1147,-216Z" fill="#2e323d" stroke="#2e323d" stroke-width="1.51"/><path d="M1004,221L998,372L1131,347Z" fill="#30343e" stroke="#30343e" stroke-width="1.51"/><path d="M938,374L863,518L998,372Z" fill="#30343f" stroke="#30343f" stroke-width="1.51"/><path d="M1035,826L940,968L1035,1023Z" fill="#353a44" stroke="#353a44" stroke-width="1.51"/><path d="M1015,-169L930,-45L1065,-14Z" fill="#2d323d" stroke="#2d323d" stroke-width="1.51"/><path d="M863,518L1030,682L1069,551Z" fill="#323640" stroke="#323640" stroke-width="1.51"/><path d="M998,372L863,518L1069,551Z" fill="#31353f" stroke="#31353f" stroke-width="1.51"/><path d="M930,-45L1007,51L1065,-14Z" fill="#2d313d" stroke="#2d313d" stroke-width="1.51"/><path d="M938,374L998,372L1004,221Z" fill="#2f333e" stroke="#2f333e" stroke-width="1.51"/><path d="M855,62L1004,221L1007,51Z" fill="#2d313c" stroke="#2d313c" stroke-width="1.51"/><path d="M863,518L868,717L1030,682Z" fill="#323641" stroke="#323641" stroke-width="1.51"/><path d="M840,832L940,968L1035,826Z" fill="#343943" stroke="#343943" stroke-width="1.51"/><path d="M1030,682L868,717L1035,826Z" fill="#333742" stroke="#333742" stroke-width="1.51"/><path d="M924,1117L1027,1146L1035,1023Z" fill="#363b46" stroke="#363b46" stroke-width="1.51"/><path d="M1027,1146L924,1117L1041,1250Z" fill="#373c47" stroke="#373c47" stroke-width="1.51"/><path d="M924,1117L874,1281L1041,1250Z" fill="#383d48" stroke="#383d48" stroke-width="1.51"/><path d="M868,717L840,832L1035,826Z" fill="#333742" stroke="#333742" stroke-width="1.51"/><path d="M940,968L924,1117L1035,1023Z" fill="#363a45" stroke="#363a45" stroke-width="1.51"/><path d="M846,293L938,374L1004,221Z" fill="#2f333e" stroke="#2f333e" stroke-width="1.51"/><path d="M935,-240L930,-45L1015,-169Z" fill="#2d313c" stroke="#2d313c" stroke-width="1.51"/><path d="M855,62L785,217L1004,221Z" fill="#2d313c" stroke="#2d313c" stroke-width="1.51"/><path d="M785,217L846,293L1004,221Z" fill="#2e323d" stroke="#2e323d" stroke-width="1.51"/><path d="M930,-45L855,62L1007,51Z" fill="#2d313c" stroke="#2d313c" stroke-width="1.51"/><path d="M683,1245L613,1284L874,1281Z" fill="#373b47" stroke="#373b47" stroke-width="1.51"/><path d="M770,1155L874,1281L924,1117Z" fill="#373b47" stroke="#373b47" stroke-width="1.51"/><path d="M768,938L770,1155L924,1117Z" fill="#353a45" stroke="#353a45" stroke-width="1.51"/><path d="M755,-87L930,-45L935,-240Z" fill="#2d313c" stroke="#2d313c" stroke-width="1.51"/><path d="M791,-261L755,-87L935,-240Z" fill="#2c303b" stroke="#2c303b" stroke-width="1.51"/><path d="M729,390L863,518L938,374Z" fill="#30343e" stroke="#30343e" stroke-width="1.51"/><path d="M846,293L729,390L938,374Z" fill="#2f333e" stroke="#2f333e" stroke-width="1.51"/><path d="M768,938L924,1117L940,968Z" fill="#353944" stroke="#353944" stroke-width="1.51"/><path d="M840,832L768,938L940,968Z" fill="#333843" stroke="#333843" stroke-width="1.51"/><path d="M863,518L735,648L868,717Z" fill="#313540" stroke="#313540" stroke-width="1.51"/><path d="M755,-87L855,62L930,-45Z" fill="#2c303c" stroke="#2c303c" stroke-width="1.51"/><path d="M704,126L785,217L855,62Z" fill="#2c303b" stroke="#2c303b" stroke-width="1.51"/><path d="M716,536L735,648L863,518Z" fill="#30343f" stroke="#30343f" stroke-width="1.51"/><path d="M729,390L716,536L863,518Z" fill="#30343f" stroke="#30343f" stroke-width="1.51"/><path d="M712,835L840,832L868,717Z" fill="#333741" stroke="#333741" stroke-width="1.51"/><path d="M770,1155L683,1245L874,1281Z" fill="#373b47" stroke="#373b47" stroke-width="1.51"/><path d="M735,648L712,835L868,717Z" fill="#323641" stroke="#323641" stroke-width="1.51"/><path d="M755,-87L704,126L855,62Z" fill="#2c303b" stroke="#2c303b" stroke-width="1.51"/><path d="M712,835L768,938L840,832Z" fill="#333742" stroke="#333742" stroke-width="1.51"/><path d="M785,217L729,390L846,293Z" fill="#2e323d" stroke="#2e323d" stroke-width="1.51"/><path d="M637,71L704,126L755,-87Z" fill="#2b2f3b" stroke="#2b2f3b" stroke-width="1.51"/><path d="M768,938L532,1014L770,1155Z" fill="#343844" stroke="#343844" stroke-width="1.51"/><path d="M532,1014L565,1166L770,1155Z" fill="#343944" stroke="#343944" stroke-width="1.51"/><path d="M600,277L729,390L785,217Z" fill="#2d313c" stroke="#2d313c" stroke-width="1.51"/><path d="M633,-250L755,-87L791,-261Z" fill="#2b2f3b" stroke="#2b2f3b" stroke-width="1.51"/><path d="M600,277L613,353L729,390Z" fill="#2d313c" stroke="#2d313c" stroke-width="1.51"/><path d="M704,126L600,277L785,217Z" fill="#2c303b" stroke="#2c303b" stroke-width="1.51"/><path d="M630,641L712,835L735,648Z" fill="#313540" stroke="#313540" stroke-width="1.51"/><path d="M593,-74L637,71L755,-87Z" fill="#2b2f3b" stroke="#2b2f3b" stroke-width="1.51"/><path d="M633,-250L593,-74L755,-87Z" fill="#2b2f3a" stroke="#2b2f3a" stroke-width="1.51"/><path d="M589,852L532,1014L768,938Z" fill="#323742" stroke="#323742" stroke-width="1.51"/><path d="M565,1166L683,1245L770,1155Z" fill="#363a46" stroke="#363a46" stroke-width="1.51"/><path d="M712,835L589,852L768,938Z" fill="#323741" stroke="#323741" stroke-width="1.51"/><path d="M611,505L716,536L729,390Z" fill="#2f333e" stroke="#2f333e" stroke-width="1.51"/><path d="M716,536L630,641L735,648Z" fill="#30343f" stroke="#30343f" stroke-width="1.51"/><path d="M630,641L589,852L712,835Z" fill="#313540" stroke="#313540" stroke-width="1.51"/><path d="M613,353L611,505L729,390Z" fill="#2e323d" stroke="#2e323d" stroke-width="1.51"/><path d="M611,505L630,641L716,536Z" fill="#2f333e" stroke="#2f333e" stroke-width="1.51"/><path d="M637,71L600,277L704,126Z" fill="#2b2f3b" stroke="#2b2f3b" stroke-width="1.51"/><path d="M470,677L589,852L630,641Z" fill="#30343f" stroke="#30343f" stroke-width="1.51"/><path d="M565,1166L613,1284L683,1245Z" fill="#363a46" stroke="#363a46" stroke-width="1.51"/><path d="M243,1240L-6,1346L447,1290Z" fill="#343946" stroke="#343946" stroke-width="1.51"/><path d="M478,937L532,1014L589,852Z" fill="#323641" stroke="#323641" stroke-width="1.51"/><path d="M464,419L611,505L613,353Z" fill="#2d313c" stroke="#2d313c" stroke-width="1.51"/><path d="M611,505L470,677L630,641Z" fill="#2f333e" stroke="#2f333e" stroke-width="1.51"/><path d="M487,-257L593,-74L633,-250Z" fill="#2a2e3a" stroke="#2a2e3a" stroke-width="1.51"/><path d="M593,-74L442,90L637,71Z" fill="#2a2e3a" stroke="#2a2e3a" stroke-width="1.51"/><path d="M441,211L600,277L637,71Z" fill="#2b2f3b" stroke="#2b2f3b" stroke-width="1.51"/><path d="M442,90L441,211L637,71Z" fill="#2a2e3a" stroke="#2a2e3a" stroke-width="1.51"/><path d="M399,555L470,677L611,505Z" fill="#2f333e" stroke="#2f333e" stroke-width="1.51"/><path d="M487,-257L417,-96L593,-74Z" fill="#2a2e3a" stroke="#2a2e3a" stroke-width="1.51"/><path d="M565,1166L447,1290L613,1284Z" fill="#353a46" stroke="#353a46" stroke-width="1.51"/><path d="M600,277L464,419L613,353Z" fill="#2d313c" stroke="#2d313c" stroke-width="1.51"/><path d="M417,-96L442,90L593,-74Z" fill="#2a2e3a" stroke="#2a2e3a" stroke-width="1.51"/><path d="M464,419L399,555L611,505Z" fill="#2e323d" stroke="#2e323d" stroke-width="1.51"/><path d="M470,677L402,875L589,852Z" fill="#30343f" stroke="#30343f" stroke-width="1.51"/><path d="M441,211L464,419L600,277Z" fill="#2c303c" stroke="#2c303c" stroke-width="1.51"/><path d="M532,1014L430,1141L565,1166Z" fill="#333844" stroke="#333844" stroke-width="1.51"/><path d="M402,875L478,937L589,852Z" fill="#313541" stroke="#313541" stroke-width="1.51"/><path d="M95,-218L315,-167L487,-257Z" fill="#292d39" stroke="#292d39" stroke-width="1.51"/><path d="M430,1141L447,1290L565,1166Z" fill="#343945" stroke="#343945" stroke-width="1.51"/><path d="M478,937L430,1141L532,1014Z" fill="#323742" stroke="#323742" stroke-width="1.51"/><path d="M417,-96L306,-11L442,90Z" fill="#292d39" stroke="#292d39" stroke-width="1.51"/><path d="M441,211L302,237L464,419Z" fill="#2b2f3a" stroke="#2b2f3a" stroke-width="1.51"/><path d="M302,237L336,432L464,419Z" fill="#2b2f3b" stroke="#2b2f3b" stroke-width="1.51"/><path d="M244,682L402,875L470,677Z" fill="#2f333e" stroke="#2f333e" stroke-width="1.51"/><path d="M335,933L430,1141L478,937Z" fill="#313642" stroke="#313642" stroke-width="1.51"/><path d="M315,-167L417,-96L487,-257Z" fill="#292d39" stroke="#292d39" stroke-width="1.51"/><path d="M244,682L267,857L402,875Z" fill="#2f333f" stroke="#2f333f" stroke-width="1.51"/><path d="M336,432L399,555L464,419Z" fill="#2d313c" stroke="#2d313c" stroke-width="1.51"/><path d="M402,875L335,933L478,937Z" fill="#303540" stroke="#303540" stroke-width="1.51"/><path d="M430,1141L298,1174L447,1290Z" fill="#333844" stroke="#333844" stroke-width="1.51"/><path d="M399,555L244,682L470,677Z" fill="#2e323d" stroke="#2e323d" stroke-width="1.51"/><path d="M335,933L298,1174L430,1141Z" fill="#323642" stroke="#323642" stroke-width="1.51"/><path d="M302,237L441,211L442,90Z" fill="#2a2e39" stroke="#2a2e39" stroke-width="1.51"/><path d="M239,140L302,237L442,90Z" fill="#2a2d39" stroke="#2a2d39" stroke-width="1.51"/><path d="M298,1174L243,1240L447,1290Z" fill="#343845" stroke="#343845" stroke-width="1.51"/><path d="M306,-11L239,140L442,90Z" fill="#292d39" stroke="#292d39" stroke-width="1.51"/><path d="M315,-167L306,-11L417,-96Z" fill="#292d39" stroke="#292d39" stroke-width="1.51"/><path d="M134,1240L-6,1346L243,1240Z" fill="#343945" stroke="#343945" stroke-width="1.51"/><path d="M336,432L238,521L399,555Z" fill="#2d313c" stroke="#2d313c" stroke-width="1.51"/><path d="M238,521L244,682L399,555Z" fill="#2e323d" stroke="#2e323d" stroke-width="1.51"/><path d="M267,857L335,933L402,875Z" fill="#303440" stroke="#303440" stroke-width="1.51"/><path d="M156,-73L306,-11L315,-167Z" fill="#292d39" stroke="#292d39" stroke-width="1.51"/><path d="M129,1009L298,1174L335,933Z" fill="#313642" stroke="#313642" stroke-width="1.51"/><path d="M267,857L129,1009L335,933Z" fill="#303540" stroke="#303540" stroke-width="1.51"/><path d="M302,237L137,417L336,432Z" fill="#2b2f3b" stroke="#2b2f3b" stroke-width="1.51"/><path d="M137,417L238,521L336,432Z" fill="#2c303c" stroke="#2c303c" stroke-width="1.51"/><path d="M129,1009L103,1139L298,1174Z" fill="#323743" stroke="#323743" stroke-width="1.51"/><path d="M106,54L239,140L306,-11Z" fill="#292d39" stroke="#292d39" stroke-width="1.51"/><path d="M95,-218L156,-73L315,-167Z" fill="#292d39" stroke="#292d39" stroke-width="1.51"/><path d="M87,187L137,417L302,237Z" fill="#2a2e3a" stroke="#2a2e3a" stroke-width="1.51"/><path d="M156,-73L106,54L306,-11Z" fill="#292d39" stroke="#292d39" stroke-width="1.51"/><path d="M239,140L87,187L302,237Z" fill="#292d39" stroke="#292d39" stroke-width="1.51"/><path d="M244,682L129,681L267,857Z" fill="#2f333e" stroke="#2f333e" stroke-width="1.51"/><path d="M103,1139L243,1240L298,1174Z" fill="#333844" stroke="#333844" stroke-width="1.51"/><path d="M132,521L129,681L238,521Z" fill="#2d323d" stroke="#2d323d" stroke-width="1.51"/><path d="M103,1139L134,1240L243,1240Z" fill="#333844" stroke="#333844" stroke-width="1.51"/><path d="M238,521L129,681L244,682Z" fill="#2e323d" stroke="#2e323d" stroke-width="1.51"/><path d="M80,843L129,1009L267,857Z" fill="#303440" stroke="#303440" stroke-width="1.51"/><path d="M129,681L80,843L267,857Z" fill="#2f333f" stroke="#2f333f" stroke-width="1.51"/><path d="M137,417L132,521L238,521Z" fill="#2d313c" stroke="#2d313c" stroke-width="1.51"/><path d="M106,54L87,187L239,140Z" fill="#292d39" stroke="#292d39" stroke-width="1.51"/><path d="M14,727L80,843L129,681Z" fill="#2f333e" stroke="#2f333e" stroke-width="1.51"/><path d="M80,843L35,1003L129,1009Z" fill="#303540" stroke="#303540" stroke-width="1.51"/><path d="M-11,543L129,681L132,521Z" fill="#2e323d" stroke="#2e323d" stroke-width="1.51"/><path d="M87,187L10,215L137,417Z" fill="#2a2e3a" stroke="#2a2e3a" stroke-width="1.51"/><path d="M10,215L-63,370L137,417Z" fill="#2b2f3a" stroke="#2b2f3a" stroke-width="1.51"/><path d="M95,-218L20,-169L156,-73Z" fill="#292d39" stroke="#292d39" stroke-width="1.51"/><path d="M-21,-56L106,54L156,-73Z" fill="#292d39" stroke="#292d39" stroke-width="1.51"/><path d="M20,-169L-21,-56L156,-73Z" fill="#292d39" stroke="#292d39" stroke-width="1.51"/><path d="M14,727L12,812L80,843Z" fill="#2f333f" stroke="#2f333f" stroke-width="1.51"/><path d="M-170,-208L20,-169L95,-218Z" fill="#292d39" stroke="#292d39" stroke-width="1.51"/><path d="M35,1003L6,1101L103,1139Z" fill="#323642" stroke="#323642" stroke-width="1.51"/><path d="M0,110L87,187L106,54Z" fill="#292d39" stroke="#292d39" stroke-width="1.51"/><path d="M-11,543L14,727L129,681Z" fill="#2e323d" stroke="#2e323d" stroke-width="1.51"/><path d="M35,1003L103,1139L129,1009Z" fill="#313642" stroke="#313642" stroke-width="1.51"/><path d="M-11,543L132,521L137,417Z" fill="#2d313c" stroke="#2d313c" stroke-width="1.51"/><path d="M-63,370L-11,543L137,417Z" fill="#2c303b" stroke="#2c303b" stroke-width="1.51"/><path d="M103,1139L6,1101L134,1240Z" fill="#333743" stroke="#333743" stroke-width="1.51"/><path d="M6,1101L-6,1346L134,1240Z" fill="#343845" stroke="#343845" stroke-width="1.51"/><path d="M12,812L35,1003L80,843Z" fill="#303440" stroke="#303440" stroke-width="1.51"/><path d="M-21,-56L0,110L106,54Z" fill="#292d39" stroke="#292d39" stroke-width="1.51"/><path d="M0,110L10,215L87,187Z" fill="#292d39" stroke="#292d39" stroke-width="1.51"/><path d="M-167,1278L-6,1346L6,1101Z" fill="#343945" stroke="#343945" stroke-width="1.51"/><path d="M-175,1144L-167,1278L6,1101Z" fill="#333844" stroke="#333844" stroke-width="1.51"/><path d="M-136,279L-63,370L10,215Z" fill="#2a2e3a" stroke="#2a2e3a" stroke-width="1.51"/><path d="M-173,808L-207,985L12,812Z" fill="#30343f" stroke="#30343f" stroke-width="1.51"/><path d="M-11,543L-129,743L14,727Z" fill="#2e323e" stroke="#2e323e" stroke-width="1.51"/><path d="M12,812L-207,985L35,1003Z" fill="#303540" stroke="#303540" stroke-width="1.51"/><path d="M-207,985L6,1101L35,1003Z" fill="#313641" stroke="#313641" stroke-width="1.51"/><path d="M-203,561L-129,743L-11,543Z" fill="#2e323d" stroke="#2e323d" stroke-width="1.51"/><path d="M-21,-56L-155,133L0,110Z" fill="#292d39" stroke="#292d39" stroke-width="1.51"/><path d="M0,110L-155,133L10,215Z" fill="#2a2d39" stroke="#2a2d39" stroke-width="1.51"/><path d="M-129,743L12,812L14,727Z" fill="#2f333e" stroke="#2f333e" stroke-width="1.51"/><path d="M-170,-208L-21,-56L20,-169Z" fill="#292d39" stroke="#292d39" stroke-width="1.51"/><path d="M-207,985L-175,1144L6,1101Z" fill="#323642" stroke="#323642" stroke-width="1.51"/><path d="M-129,743L-173,808L12,812Z" fill="#2f333f" stroke="#2f333f" stroke-width="1.51"/><path d="M-155,133L-136,279L10,215Z" fill="#2a2e3a" stroke="#2a2e3a" stroke-width="1.51"/><path d="M-207,-43L-155,133L-21,-56Z" fill="#292d39" stroke="#292d39" stroke-width="1.51"/><path d="M-63,370L-203,561L-11,543Z" fill="#2d313c" stroke="#2d313c" stroke-width="1.51"/><path d="M-194,388L-203,561L-63,370Z" fill="#2c303b" stroke="#2c303b" stroke-width="1.51"/><path d="M-170,-208L-207,-43L-21,-56Z" fill="#292d39" stroke="#292d39" stroke-width="1.51"/><path d="M-136,279L-194,388L-63,370Z" fill="#2b2f3b" stroke="#2b2f3b" stroke-width="1.51"/><path d="M-203,561L-173,808L-129,743Z" fill="#2e333e" stroke="#2e333e" stroke-width="1.51"/><path d="M-155,133L-194,388L-136,279Z" fill="#2a2e3a" stroke="#2a2e3a" stroke-width="1.51"/><path d="M-207,-43L-194,388L-155,133Z" fill="#292d39" stroke="#292d39" stroke-width="1.51"/><path d="M-175,1144L-207,985L-167,1278Z" fill="#323743" stroke="#323743" stroke-width="1.51"/><path d="M-203,561L-207,985L-173,808Z" fill="#2f333f" stroke="#2f333f" stroke-width="1.51"/><path d="M-207,-43L-203,561L-194,388Z" fill="#2b2f3a" stroke="#2b2f3a" stroke-width="1.51"/></svg>