<?xml version="1.0" encoding="utf-8"?>
<!-- Generator: Adobe Illustrator 21.1.0, SVG Export Plug-In . SVG Version: 6.00 Build 0)  -->
<svg version="1.1" id="Layer_1" xmlns="http://www.w3.org/2000/svg" xmlns:xlink="http://www.w3.org/1999/xlink" x="0px" y="0px"
	 viewBox="0 0 348.1 348.1" style="enable-background:new 0 0 348.1 348.1;" xml:space="preserve">
<style type="text/css">
	.st0{stroke:#000000;stroke-width:2;stroke-miterlimit:10;}
</style>
<g>
	<g>
		<g>
			<path class="st0" d="M197.6,164.6c1,2,3,3.1,5.1,3.1c0.9,0,1.8-0.2,2.6-0.6c0.3-0.2,34.2-17.4,50.9-22.6c3-1,4.7-4.2,3.7-7.2
				c-1-3-4.2-4.7-7.2-3.8c-17.6,5.6-51.2,22.6-52.6,23.4C197.3,158.3,196.2,161.8,197.6,164.6z"/>
			<path class="st0" d="M202.8,98.8c0.9,0,1.8-0.2,2.6-0.6c0.3-0.2,34.2-17.4,50.9-22.6c3-1,4.7-4.2,3.7-7.2c-1-3-4.2-4.7-7.2-3.8
				c-17.6,5.6-51.2,22.6-52.6,23.4c-2.8,1.4-4,4.9-2.5,7.7C198.6,97.6,200.7,98.8,202.8,98.8z"/>
			<path class="st0" d="M340.7,87.3c-3.2,0-5.7,2.6-5.7,5.7v224.2c0,9.5-7.7,17.2-17.2,17.2h-138v-13.2c8.4-2.9,30.2-9.8,51.7-9.8
				c50.1,0,84.1,11.1,84.4,11.2c1.7,0.6,3.7,0.3,5.2-0.8c1.5-1.1,2.4-2.8,2.4-4.7v-253c0-2.7-1.9-5-4.5-5.6c0,0-4.5-1-12.2-2.4
				c-3.1-0.6-6.1,1.5-6.7,4.6c-0.6,3.1,1.5,6.1,4.6,6.7c2.9,0.5,5.4,1,7.3,1.4v240.7c-13-3.4-42-9.6-80.5-9.6
				c-25.1,0-49.7,8.2-57.3,11c-6.8-3-27.2-11-52-11c-39.6,0-72.2,6.5-86.2,9.8V68.7c11.5-2.8,45.4-10.2,86.2-10.2
				c21,0,38.9,6.5,46,9.5v226.3c0,2.1,1.1,4,2.9,5c1.8,1,4,1,5.8-0.1c0.6-0.3,57.5-34.4,108.1-51.2c2.4-0.8,3.9-3,3.9-5.5V6.8
				c0-1.9-0.9-3.7-2.5-4.7C285,1,283,0.7,281.2,1.4c-46,17.3-92.6,46.2-93,46.5c-2.7,1.7-3.5,5.2-1.8,7.9c1.7,2.7,5.2,3.5,7.9,1.8
				c0.4-0.3,40.9-25.5,83.2-42.5v223.2c-39.2,13.6-80.2,35.9-97.7,45.9v-220c0-2.2-1.2-4.2-3.2-5.1c-1-0.5-24.6-12.1-54.3-12.1
				c-52,0-91.9,11.2-93.6,11.7c-2.5,0.7-4.2,3-4.2,5.5v253c0,1.8,0.9,3.5,2.3,4.6c1,0.8,2.2,1.2,3.5,1.2c0.5,0,1.1-0.1,1.6-0.2
				c0.4-0.1,40.2-11.3,90.4-11.3c21,0,39,6.5,46,9.5v13.5h-138c-9.5,0-17.2-7.7-17.2-17.2V93c0-3.2-2.6-5.7-5.7-5.7S1.5,89.8,1.5,93
				v224.2c0,15.9,12.9,28.8,28.8,28.8h287.5c15.9,0,28.8-12.9,28.8-28.8V93C346.5,89.8,343.9,87.3,340.7,87.3z"/>
			<path class="st0" d="M197.6,130.1c1,2,3,3.1,5.1,3.1c0.9,0,1.8-0.2,2.6-0.6c0.3-0.2,34.2-17.4,50.9-22.6c3-1,4.7-4.2,3.7-7.2
				c-1-3-4.2-4.7-7.2-3.8c-17.6,5.6-51.2,22.6-52.6,23.4C197.3,123.8,196.2,127.3,197.6,130.1z"/>
			<path class="st0" d="M197.6,199.1c1,2,3,3.1,5.1,3.1c0.9,0,1.8-0.2,2.6-0.6c0.3-0.2,34.2-17.4,50.9-22.6c3-1,4.7-4.2,3.7-7.2
				c-1-3-4.2-4.7-7.2-3.8c-17.6,5.6-51.2,22.6-52.6,23.4C197.3,192.8,196.2,196.3,197.6,199.1z"/>
			<path class="st0" d="M140.8,107.7c-35.5-8.3-75.9,2.3-77.5,2.7c-3.1,0.8-4.9,4-4.1,7c0.7,2.6,3,4.3,5.5,4.3c0.5,0,1-0.1,1.5-0.2
				c0.4-0.1,39.2-10.3,71.9-2.7c3.1,0.7,6.2-1.2,6.9-4.3C145.8,111.5,143.9,108.4,140.8,107.7z"/>
			<path class="st0" d="M140.8,142.2c-35.5-8.3-75.9,2.3-77.5,2.7c-3.1,0.8-4.9,4-4.1,7c0.7,2.6,3,4.3,5.5,4.3c0.5,0,1-0.1,1.5-0.2
				c0.4-0.1,39.2-10.3,71.9-2.7c3.1,0.7,6.2-1.2,6.9-4.3C145.8,146,143.9,142.9,140.8,142.2z"/>
			<path class="st0" d="M197.6,233.6c1,2,3,3.1,5.1,3.1c0.9,0,1.8-0.2,2.6-0.6c0.3-0.2,34.2-17.4,50.9-22.6c3-1,4.7-4.2,3.7-7.2
				c-1-3-4.2-4.7-7.2-3.8c-17.6,5.6-51.2,22.6-52.6,23.4C197.3,227.3,196.2,230.8,197.6,233.6z"/>
			<path class="st0" d="M140.8,176.7c-35.5-8.3-75.9,2.3-77.5,2.7c-3.1,0.8-4.9,4-4.1,7c0.7,2.6,3,4.3,5.5,4.3c0.5,0,1-0.1,1.5-0.2
				c0.4-0.1,39.2-10.3,71.9-2.7c3.1,0.7,6.2-1.2,6.9-4.3C145.8,180.5,143.9,177.4,140.8,176.7z"/>
			<path class="st0" d="M140.8,245.7c-35.5-8.3-75.9,2.3-77.5,2.7c-3.1,0.8-4.9,4-4.1,7c0.7,2.6,3,4.3,5.5,4.3c0.5,0,1-0.1,1.5-0.2
				c0.4-0.1,39.2-10.3,71.9-2.7c3.1,0.7,6.2-1.2,6.9-4.3C145.8,249.5,143.9,246.4,140.8,245.7z"/>
			<path class="st0" d="M140.8,211.2c-35.5-8.3-75.9,2.3-77.5,2.7c-3.1,0.8-4.9,4-4.1,7c0.7,2.6,3,4.3,5.5,4.3c0.5,0,1-0.1,1.5-0.2
				c0.4-0.1,39.2-10.3,71.9-2.7c3.1,0.7,6.2-1.2,6.9-4.3C145.8,215,143.9,211.9,140.8,211.2z"/>
		</g>
	</g>
</g>
</svg>
