<?xml version="1.0" encoding="utf-8"?>
<!-- Generator: Adobe Illustrator 23.0.1, SVG Export Plug-In . SVG Version: 6.00 Build 0)  -->
<svg version="1.1" id="Layer_1" xmlns="http://www.w3.org/2000/svg" xmlns:xlink="http://www.w3.org/1999/xlink" x="0px" y="0px"
	 viewBox="0 0 128 128" style="enable-background:new 0 0 128 128;" xml:space="preserve">
<g id="surface1">
	<path d="M39.9,100.1c0,7.7-6.2,13.9-13.9,13.9c-7.7,0-13.9-6.2-13.9-13.9c0-7.7,6.2-13.9,13.9-13.9C33.6,86.1,39.9,92.4,39.9,100.1
		z"/>
	<path d="M58.5,114h18.6c0-35.9-29.2-65.1-65.1-65.1v18.6C37.6,67.5,58.5,88.4,58.5,114z"/>
	<path d="M109.6,114c0-53.8-43.8-97.6-97.6-97.6V35c43.6,0,79,35.4,79,79H109.6z"/>
</g>
</svg>
