<?xml version="1.0" encoding="utf-8"?>
<!-- Generator: Adobe Illustrator 23.0.1, SVG Export Plug-In . SVG Version: 6.00 Build 0)  -->
<svg version="1.1" id="Layer_1" xmlns="http://www.w3.org/2000/svg" xmlns:xlink="http://www.w3.org/1999/xlink" x="0px" y="0px"
	 viewBox="0 0 128 128" style="enable-background:new 0 0 128 128;" xml:space="preserve">
<g id="surface1">
	<path d="M39.7,100.1c0,7.7-6.2,13.9-13.9,13.9c-7.7,0-13.9-6.2-13.9-13.9c0-7.7,6.2-13.9,13.9-13.9C33.5,86.3,39.7,92.5,39.7,100.1
		z"/>
	<path d="M58.2,114h18.5c0-35.7-29-64.7-64.7-64.7v18.5C37.5,67.8,58.2,88.5,58.2,114z"/>
	<path d="M109,114c0-53.5-43.5-97-97-97v18.5c43.3,0,78.5,35.2,78.5,78.5H109z"/>
</g>
</svg>
