<?xml version="1.0" standalone="no"?>
<!DOCTYPE svg PUBLIC "-//W3C//DTD SVG 20010904//EN"
 "http://www.w3.org/TR/2001/REC-SVG-20010904/DTD/svg10.dtd">
<svg version="1.0" xmlns="http://www.w3.org/2000/svg"
 width="700.000000pt" height="700.000000pt" viewBox="0 0 700.000000 700.000000"
 preserveAspectRatio="xMidYMid meet">
<metadata>
Created by potrace 1.11, written by Peter Selinger 2001-2013
</metadata>
<g transform="translate(0.000000,700.000000) scale(0.100000,-0.100000)"
fill="#000000" stroke="none">
<path d="M3550 6246 c-3 -2 -23 -7 -45 -10 -57 -9 -143 -51 -177 -86 -44 -46
-42 -66 13 -123 28 -29 55 -76 85 -147 69 -164 192 -473 196 -494 2 -16 -45
-51 -240 -177 -290 -188 -402 -268 -402 -285 0 -22 51 -41 150 -58 182 -30
328 -26 475 14 103 27 129 29 151 13 28 -20 27 -109 -2 -234 -34 -144 -42
-166 -76 -204 -23 -27 -156 -116 -300 -200 -9 -5 -167 -101 -350 -211 -183
-111 -368 -221 -411 -244 -43 -23 -75 -46 -70 -50 15 -14 107 -40 172 -48 111
-15 274 22 446 103 39 18 165 86 280 150 334 187 675 359 990 500 17 7 62 28
100 45 100 46 113 45 135 -10 22 -52 25 -102 9 -133 -6 -12 -102 -112 -212
-223 -111 -110 -312 -312 -447 -449 -194 -197 -268 -265 -358 -328 -62 -44
-130 -99 -151 -123 -70 -79 -116 -203 -106 -283 8 -61 20 -84 66 -129 47 -46
95 -65 137 -53 23 7 175 95 302 176 80 51 280 171 515 309 138 81 257 151 265
156 37 23 270 140 278 140 12 0 114 -215 209 -440 139 -328 327 -853 339 -947
6 -49 5 -53 -16 -61 -13 -5 -37 -8 -54 -7 -17 2 -73 6 -124 9 -79 6 -191 23
-327 51 -122 25 -362 111 -530 190 -66 31 -138 65 -161 75 -22 11 -55 32 -72
49 -27 24 -31 33 -23 53 19 52 125 87 193 63 56 -19 111 -19 206 1 42 9 82 17
87 18 6 1 46 10 90 21 255 58 283 79 236 180 -46 97 -115 138 -235 139 -178 0
-383 -56 -622 -170 -247 -117 -245 -292 7 -585 213 -248 493 -441 836 -578
215 -85 357 -114 560 -113 173 0 271 36 352 128 42 48 131 214 134 251 1 25
-6 48 -103 338 -43 127 -112 331 -153 455 -78 232 -239 702 -322 940 -26 74
-49 142 -51 150 -3 11 29 32 118 75 164 81 288 149 316 175 31 29 27 57 -13
96 -70 66 -220 93 -398 72 -69 -8 -104 -8 -121 0 -14 6 -38 40 -62 86 -21 42
-57 98 -81 125 -24 27 -43 54 -43 60 0 45 243 218 468 333 299 153 311 160
322 194 14 42 5 56 -73 114 -143 106 -249 122 -450 70 -101 -25 -1061 -364
-1111 -391 -17 -10 -18 -7 -11 68 4 43 9 94 10 113 9 120 44 234 96 310 41 59
107 112 195 156 39 20 80 48 91 62 72 98 35 218 -82 262 -27 10 -210 15 -251
6 -24 -5 -79 -8 -111 -7 -12 1 -32 11 -43 23 -21 23 -112 176 -164 278 -68
131 -113 168 -233 193 -69 14 -234 23 -243 13z m1493 -1611 c-72 -65 -87 -71
-118 -51 -20 13 -23 20 -14 34 11 18 158 73 172 64 5 -2 -13 -24 -40 -47z
m-211 -482 c26 -62 47 -125 54 -162 5 -25 -49 -63 -237 -171 -191 -109 -196
-112 -292 -164 -33 -17 -66 -35 -75 -41 -71 -42 -226 -121 -269 -136 -45 -15
-53 -16 -53 -3 0 7 3 14 8 14 4 0 20 20 35 45 16 25 35 48 42 53 10 6 83 70
195 172 205 187 285 256 418 362 74 59 138 106 140 103 3 -3 18 -35 34 -72z"/>
<path d="M1627 5282 c-75 -39 -74 -55 3 -105 24 -16 47 -46 75 -101 39 -76 40
-81 41 -185 2 -206 -50 -399 -191 -716 -7 -16 -56 -131 -108 -255 -284 -672
-407 -977 -433 -1075 -53 -195 37 -394 218 -486 33 -17 61 -29 63 -27 2 2 32
55 67 118 36 63 77 138 93 165 15 28 46 84 68 125 22 41 48 87 59 102 10 14
18 28 18 31 0 11 130 235 143 245 10 9 19 7 35 -9 12 -11 22 -24 22 -29 0 -5
15 -42 34 -82 94 -202 238 -629 277 -818 5 -25 15 -76 24 -115 34 -158 63
-353 70 -480 12 -199 15 -238 31 -312 18 -88 66 -221 99 -273 73 -114 254
-209 373 -194 138 17 193 189 148 464 -8 52 -17 113 -21 135 -6 46 -42 258
-50 295 -3 14 -10 52 -16 85 -37 198 -123 534 -143 553 -12 13 -17 12 -38 -8
-42 -39 -56 -43 -72 -18 -19 30 -109 255 -240 598 -57 151 -111 291 -119 310
-24 54 -81 114 -156 164 -77 50 -101 78 -101 116 0 14 32 134 71 265 39 132
104 362 144 510 84 311 88 328 100 426 3 30 8 65 10 79 7 44 18 174 17 198
-10 152 -257 313 -499 327 -53 3 -72 -1 -116 -23z"/>
</g>
</svg>
