<?xml version="1.0" encoding="utf-8"?>
<!-- Generator: Adobe Illustrator 21.1.0, SVG Export Plug-In . SVG Version: 6.00 Build 0)  -->
<svg version="1.1" id="Layer_1" xmlns="http://www.w3.org/2000/svg" xmlns:xlink="http://www.w3.org/1999/xlink" x="0px" y="0px"
	 viewBox="0 0 348.1 348.1" style="enable-background:new 0 0 348.1 348.1;" xml:space="preserve">
<style type="text/css">
	.st0{fill:#302D2D;}
</style>
<path class="st0" d="M147.3,347.2c-10.8,0-20.8-4-28.4-11.6L11.7,228.4c-15.6-15.6-15.6-40.8,0-56.4L172.1,12.4
	c7.6-7.6,17.2-11.6,28-11.6h108c22,0,40,18,40,40v106c0,10.8-4.4,20.8-12,28.4L175.3,335.6C167.7,343.2,157.7,347.2,147.3,347.2z
	 M200.1,16.9c-6.4,0-12.4,2.4-16.8,6.8L22.9,183.2c-9.2,9.2-9.2,24.4,0,34l107.2,107.2c4.4,4.4,10.4,6.8,16.8,6.8s12.4-2.4,16.8-6.8
	l160.8-160.4c4.8-4.8,7.2-10.8,7.2-17.2v-106c0-13.2-10.8-24-24-24L200.1,16.9L200.1,16.9z M260.1,118.9c-16.5,0-30-13.5-30-30
	s13.5-30,30-30s30,13.5,30,30S276.6,118.9,260.1,118.9z M260.1,71.3c-9.6,0-17.5,7.9-17.5,17.5s7.9,17.5,17.5,17.5
	s17.5-7.9,17.5-17.5S269.7,71.3,260.1,71.3z"/>
</svg>
