<?xml version="1.0" encoding="utf-8"?>
<!-- Generator: Adobe Illustrator 21.1.0, SVG Export Plug-In . SVG Version: 6.00 Build 0)  -->
<svg version="1.1" id="Layer_1" xmlns="http://www.w3.org/2000/svg" xmlns:xlink="http://www.w3.org/1999/xlink" x="0px" y="0px"
	 viewBox="0 0 348.1 348.1" style="enable-background:new 0 0 348.1 348.1;" xml:space="preserve">
<style type="text/css">
	.st0{stroke:#FFFFFF;stroke-width:6.2736;stroke-miterlimit:10;}
</style>
<g>
	<g>
		<path class="st0" d="M172.9,200.3c49.8,0,90.1-40.4,90.1-90.1s-40.4-89.8-90.1-89.8s-90.1,40.4-90.1,89.8S123.2,200.3,172.9,200.3
			z M172.9,43.8c36.5,0,66.3,29.9,66.3,66.3s-29.9,66.3-66.3,66.3s-66.3-29.9-66.3-66.3S136.5,43.8,172.9,43.8z"/>
		<path class="st0" d="M17,341H330c6.6,0,11.9-5.3,11.9-11.9c0-62.2-50.6-113.1-113.1-113.1H118.2C56,216.1,5.2,266.6,5.2,329.1
			C5.2,335.7,10.4,341,17,341z M118.2,239.8h110.6c45.3,0,82.7,33.7,88.5,77.4H29.8C35.6,273.8,72.9,239.8,118.2,239.8z"/>
	</g>
</g>
</svg>
