<?xml version="1.0" encoding="utf-8"?>
<!-- Generator: Adobe Illustrator 21.1.0, SVG Export Plug-In . SVG Version: 6.00 Build 0)  -->
<svg version="1.1" id="Layer_1" xmlns="http://www.w3.org/2000/svg" xmlns:xlink="http://www.w3.org/1999/xlink" x="0px" y="0px"
	 viewBox="0 0 260 260" style="enable-background:new 0 0 260 260;" xml:space="preserve">
<style type="text/css">
	.st0{fill:#DD0031;}
	.st1{fill:#C3002F;}
	.st2{fill:#FFFFFF;}
</style>
<g>
	<polygon class="st0" points="90.1,25.6 90.1,25.6 90.1,25.6 6.7,94.7 67.5,215.9 165.1,231.4 165.1,231.4 165.1,231.4 229.9,156.8 
		198.4,25 	"/>
	<polygon class="st1" points="90.1,25.6 98.5,48.4 98.4,48.4 136.4,152.6 136.4,152.6 165.1,231.4 165.1,231.4 229.9,156.8 
		198.4,25 	"/>
	<path class="st2" d="M98.4,48.4L87.3,204.5l0,0l22.4-8.1l0,0l1.1-34.4l50.8-18.5l23,25.7l0,0l22.4-8.1l0,0L98.4,48.4L98.4,48.4
		L98.4,48.4L98.4,48.4L98.4,48.4z M147.1,127.7L112,140.5l2.2-48.5L147.1,127.7z"/>
</g>
</svg>
