<?xml version="1.0" encoding="utf-8"?>
<!-- Generator: Adobe Illustrator 21.1.0, SVG Export Plug-In . SVG Version: 6.00 Build 0)  -->
<svg version="1.1" id="Layer_1" xmlns="http://www.w3.org/2000/svg" xmlns:xlink="http://www.w3.org/1999/xlink" x="0px" y="0px"
	 viewBox="0 0 260 260" style="enable-background:new 0 0 260 260;" xml:space="preserve">
<style type="text/css">
	.st0{fill:#2D3E53;}
	.st1{fill:#2E3E52;}
	.st2{fill:#97CBDC;}
	.st3{fill:#6DC2DD;}
	.st4{fill:#96CADC;}
	.st5{opacity:0.5;fill:#BCD4DB;enable-background:new    ;}
	.st6{fill:#F5283F;}
	.st7{fill:#96CADB;}
	.st8{fill:#6EBFDA;}
	.st9{fill:#ED2940;}
</style>
<g id="_x37_l3eZF.tif">
	<g>
		<path class="st0" d="M99.2,165.4c-0.6-1.6-1.5-3.4-2.1-5C84,124.5,70.9,88.5,57.8,52.6c-1.6-4.4-0.9-6.5,3.6-7.8
			c7.1-2.2,13.7-4.7,20.7-7.5c3.8-1.7,6.5-0.9,9.6,1.5c12.8,9.4,25.8,18.7,38.6,28.1c3.5,2.7,4.4,2,5.5-2
			c3.7-15.3,7.7-30.8,11.2-46.1c0.7-3.9,2.5-5.9,6.5-7c7.4-2.4,14.7-5.3,21.9-8c2.5-0.9,4.5-1.3,5.7,1.9
			c13.6,37.5,27.4,75.4,41.1,112.9c0.2,0.7-0.2,1.6,0.2,2.5c-12.1,4.4-24.5,8.9-36.6,13.3l-0.4-0.2c-4.9-13.3-9.7-26.7-14.5-39.7
			c-4.6,12.1-7.6,23.6-10.5,35.5c-1,5.1-2.4,6.3-7.3,2.7c-10-7.5-20-14.3-30.7-21.9c0.2,1.4,0,2.1,0.3,2.8
			c3.2,8.9,6.4,17.5,9.6,26.4c1.5,4.1,2.7,8.4,4.2,12.5C124,156.3,111.6,160.9,99.2,165.4z M164.6,35.4c0.3-0.1,0.8,0,1.4-0.2
			c0.7,1.9,1.4,3.9,2.1,5.7c8.3,22.9,16.7,45.8,25,68.7c0.6,1.6,0.6,4.5,3.9,3.6c2.6-0.6,1.9-2.8,1.3-4.4c-10-27.3-20-55-30-82.3
			c-0.5-1.3-0.7-2.9-2.8-2.6c-1.4,0.2-2.9,0.7-3.5,2.3c-0.5,1.7-1,3.2-1.1,4.8c-5.2,20.3-10.1,40.4-15,60.6
			c-1.1,4.8-2.5,5.3-6.4,2.3c-17.2-12.8-34.7-25.2-52.2-37.5c-2-1.4-4-3.2-6.6-1.2c-2.6,2-0.3,4.1,0.4,5.9
			c9.5,26,18.8,51.8,28.4,77.9c0.5,1.3,0.8,2.3,1.3,3.5c0.5,1.3,1.5,2,2.7,1.6c1.6-0.6,2.2-1.9,1.6-3.5c-0.6-1.6-1.2-3.2-1.6-4.4
			C105.4,114.3,97.3,92,89.3,70c-0.7-1.9-1-3.6-2.1-6.8c19,13.6,36.9,26.2,54.5,38.8c4.3,3.1,5.6,2.6,7-2.5
			C153.7,77.8,159.4,56.7,164.6,35.4z"/>
		<path class="st1" d="M47.3,184.3c-0.9-1.5-1.9-3.2-2.5-4.8c-13.1-36-26.2-72-39.2-107.9c-1.7-4.8-0.8-6.2,3.6-7.8
			c10.3-3.4,20.4-7.4,30.5-11.1c2.3-0.8,4.2-1.2,5.3,1.7c13.7,38.5,27.7,77.1,41.6,115.2C73.4,174.7,60.4,179.5,47.3,184.3z
			 M43.4,118.8c4.9,13.3,9.7,26.7,14.7,40.4c0.6,1.6,0.7,4.8,3.5,3.7c3.6-1,1.6-3.5,0.9-5.3c-9.7-26.7-19.3-53.1-29-79.8
			c-0.7-1.9-0.8-5.1-4-4c-3.5,1.3-1.1,4-0.5,5.6C33.8,92.3,38.5,105.4,43.4,118.8z"/>
		<path class="st2" d="M69.1,242.9c-5.8-9-8.2-19.7-11.6-29.9c13.3-4.9,26.4-9.6,39.7-14.5c3.6,9.9,7.3,20,10.9,29.9
			C95.1,233.5,82.2,238.2,69.1,242.9z"/>
		<path class="st3" d="M97.3,198.8c-13.3,4.9-26.4,9.6-39.7,14.5c-3.7-9.4-7.6-18.8-10.1-28.7c13.1-4.8,26-9.5,39.5-14.4
			C90.3,179.5,93.7,189,97.3,198.8z"/>
		<path class="st4" d="M119.9,224.4c-3.6-9.9-7.3-20-10.6-30c12.4-4.5,25.1-9.1,37.5-13.6c2.1,5.7,4.3,11.7,6.6,17.4
			c1.5,4.1,3,8.3,4.2,12.5C145.4,215.2,132.6,219.8,119.9,224.4z"/>
		<path class="st4" d="M232.4,149.6c3.6,9.9,7.3,20,10.9,29.9c-12.4,4.5-24.5,8.9-36.8,13.4c-1.3-3.5-2.5-7-3.7-10.1
			c-2.4-6.7-4.8-13.1-7.2-19.7C207.9,158.6,220,154.2,232.4,149.6z"/>
		<path class="st3" d="M146.9,180.8c-12.4,4.5-25.1,9.1-37.5,13.6c-3.5-9.5-7.6-18.8-10.1-28.7c12.4-4.5,24.8-9,37.2-13.5
			c2.1,5.7,4.6,11.6,6.6,17.4C144.4,173.1,145.6,177,146.9,180.8z"/>
		<path class="st3" d="M232.4,149.6c-12.4,4.5-24.5,8.9-36.8,13.4c-1.3-3.5-2.5-7-3.7-10.1c-2.2-6-4.2-12.5-6.4-18.5
			c12.1-4.4,24.5-8.9,36.6-13.3C225.5,130.6,229,140.2,232.4,149.6z"/>
		<path class="st5" d="M69.1,242.9c13.1-4.8,26-9.5,39.1-14.2c1.8,5.1,3.6,9.9,5.4,14.9c-13.1,4.8-26,9.5-39.1,14.2
			C72.7,252.8,70.9,248,69.1,242.9z"/>
		<path class="st5" d="M119.9,224.4c12.7-4.6,25.1-9.1,37.9-13.8c1.8,5.1,3.6,9.9,5.4,14.9c-12.7,4.6-25.5,9.3-37.9,13.8
			C123.5,234.3,121.7,229.2,119.9,224.4z"/>
		<path class="st5" d="M206.4,193c12.4-4.5,24.5-8.9,36.8-13.4c1.8,5.1,3.6,9.9,5.4,14.9c-12.4,4.5-24.5,8.9-36.8,13.4
			C210,202.8,208.2,198,206.4,193z"/>
		<path class="st5" d="M191.5,153c1.3,3.5,2.5,7,3.7,10.1c2.4,6.7,4.8,13.1,7.2,19.7c-1.6,0.6-2.3,1.6-2.8,3.1
			c-2.2,9.8-5.4,18.9-6.5,28.6c-3.9,1.4-7.6,2.8-11.5,4.2c-8.7-8-18.8-14-28.4-20.6c-2.1-5.7-4.3-11.7-6.6-17.4
			c-1.4-3.9-2.8-7.6-4.2-11.5c2.2,0.3,3.6,1.9,5.1,3.2c8.7,6.2,17.5,12.4,26.3,18.8c3.8,2.6,5.6,2.6,6.7-2.4
			c2.1-10.1,4.9-20.2,7.5-30.1C189.2,156.5,188.9,153.7,191.5,153z"/>
		<path class="st6" d="M164.6,35.4c-5.3,21-10.9,42.2-16.2,63.5c-1.3,5.2-2.6,5.6-7,2.5C123.7,88.3,106,76.1,87,62.5
			c0.9,3.3,1.5,4.9,2.1,6.8c8,21.9,16.1,44.2,24.1,66.2c0.6,1.6,1.2,3.2,1.6,4.4c0.6,1.6,0,2.9-1.6,3.5c-1.6,0.6-2.2-0.3-2.7-1.6
			s-0.8-2.3-1.3-3.5c-9.5-26-18.8-51.8-28.4-77.9c-0.7-1.9-2.9-3.9-0.4-6c2.5-2,4.6-0.2,6.6,1.2c17.5,12.4,35.1,25,52.2,37.5
			c3.9,2.9,5.3,2.5,6.4-2.3c4.9-20.2,10.1-40.4,15-60.6c0.5-1.7,0.7-3.1,1.1-4.8c0.4-1.7,1.8-2.1,3.5-2.3c2-0.4,2.3,1.3,2.8,2.6
			c10,27.3,20,55,30,82.3c0.6,1.6,1.7,3.8-1.3,4.4c-3.3,0.9-3.3-2-3.9-3.6c-8.3-22.9-16.7-45.8-25-68.7c-0.7-1.9-1.4-3.9-2.1-5.7
			C165.6,35.4,165,35.6,164.6,35.4z"/>
		<path class="st7" d="M191.5,153c-2.5,0.9-2.4,3.4-3,5.5c-2.5,10-5.3,19.9-7.5,30.1c-1,5.1-2.7,5.4-6.7,2.4
			c-8.7-6.2-17.6-12.6-26.3-18.8c-1.5-1.3-2.9-2.9-5.1-3.2c-2.1-5.7-4.6-11.6-6.6-17.4c-1.5-4.1-2.7-8.4-4.2-12.5
			c7.6,5.1,15.3,10.6,23,15.8c13.7,9.8,13.7,9.8,17.7-6.7c1.8-7.9,3.9-15.8,5.9-24.5c3.4,3.5,2.6,8.1,5.8,10.1l0.4,0.2
			C187.3,140.5,189.5,146.6,191.5,153z"/>
		<path class="st8" d="M184.6,134c-3.4-2.4-2.4-6.7-5.8-10.1c-2,8.3-4.2,16.3-5.9,24.5c-4,16.9-4.1,16.6-17.7,6.7
			c-7.7-5.5-15.3-10.6-23-15.8c-3.2-8.9-6.4-17.5-9.6-26.4c-0.2-0.7-0.1-1-0.3-2.8c10.6,7.6,20.7,14.4,30.7,21.9
			c4.6,3.8,5.9,2.5,7.3-2.7c2.6-11.7,5.8-23.4,10.5-35.5C174.9,107.3,179.7,120.6,184.6,134z"/>
		<path class="st9" d="M43.4,118.8c-4.9-13.4-9.6-26.5-14.5-39.8c-0.7-1.9-3.1-4.3,0.5-5.6s3.3,2,4,4c9.7,26.7,19.3,53.1,29,79.8
			c0.7,1.9,2.7,4.5-0.9,5.3c-2.9,0.7-2.9-2.1-3.5-3.7C53.1,145.4,48.2,132.1,43.4,118.8z"/>
	</g>
</g>
</svg>
