<?xml version="1.0" encoding="utf-8"?>
<!-- Generator: Adobe Illustrator 21.1.0, SVG Export Plug-In . SVG Version: 6.00 Build 0)  -->
<svg version="1.1" id="Layer_1" xmlns="http://www.w3.org/2000/svg" xmlns:xlink="http://www.w3.org/1999/xlink" x="0px" y="0px"
	 viewBox="0 0 260 260" style="enable-background:new 0 0 260 260;" xml:space="preserve">
<style type="text/css">
	.st0{fill:#EFD641;}
</style>
<path class="st0" d="M117.5,158c6.2,16.9-0.2,34-15.9,43.1c-18.5,11.3-39.2,12-55.2,0.4c-5.6-4.2-5.6-4.2-1.3-9.7
	c4.2-5.6,8.2-10.4,12.7-16c2.4,2,4.6,3.4,7.1,5.4c4.6,3.4,10.6,4.1,16.2,1.6c8.1-2.9,11-9.1,8-17.2c-2.7-7.5-5.6-15.3-8.3-22.9
	c-8-21.9-15.9-43.8-23.8-65.5c-2.4-6.6-2-5.5,3.5-7.6c6-2.2,12.1-4.4,18.4-6.7c2.5-0.9,3.2-0.6,4.1,1.9
	C95.1,95.1,106.7,126.9,117.5,158z M229,136.8c-3.5,13.8-13.6,22.9-25.8,28.5c-2,0.7-4,1.5-6.4,2.9c-19.1,6.4-37.4,6.1-54.4-6.7
	c-3.8-2.6-3.8-2.6-0.7-6.6c4-4.9,8-9.2,11.7-14c2-2.4,3.5-3,6.1-0.5c10.2,7.7,21.6,8.4,33.1,2.2c5.4-2.5,9.3-7.4,8.8-13.4
	c-0.3-5.6-3.7-10.1-8.6-11.1c-4.5-1.2-9.2-1.8-13.5-2.5c-10-0.9-20.6-1-30.7-3.6c-19.7-4.8-31.8-24-28.6-44.3
	c2.1-12.8,10.2-22.9,22-28.2c6.4-2.9,13.8-5,20.9-5.9c10.8-1.7,21.1,2.5,29.4,9.5c0.6,0.3,1.2,1.8,0.9,2.5l-0.3,0.6
	c-4.2,5.6-8.5,11.1-13.3,17.4c-1.4,2.2-3,1.1-4.1-0.2c-6.2-4.5-12.9-5.5-20.5-2.2c-4.3,2.1-7.2,5.5-7,10.5
	c-0.5,4.8,2.8,9.2,6.9,11.2c2.7,1.3,5.3,2.1,8.7,1.9c8.3,1,16.8,1.3,25.6,2.1c3.6,0.4,6.6,1,9.7,1.6
	C220.3,93.5,234.6,115.4,229,136.8z"/>
</svg>
