<?xml version="1.0" encoding="utf-8"?>
<!-- Generator: Adobe Illustrator 21.1.0, SVG Export Plug-In . SVG Version: 6.00 Build 0)  -->
<svg version="1.1" id="Layer_1" xmlns="http://www.w3.org/2000/svg" xmlns:xlink="http://www.w3.org/1999/xlink" x="0px" y="0px"
	 viewBox="0 0 260 260" style="enable-background:new 0 0 260 260;" xml:space="preserve">
<style type="text/css">
	.st0{fill:#53C9E5;}
</style>
<g>
	<path class="st0" d="M226.2,94.1c-4.6-12.7-24.9-19-52-17.6c-3.4-27-13.2-45.9-26.5-48.2c-3.1-0.6-6.3-0.1-9.5,1l3.2,8.7
		c1.8-0.6,3.4-0.8,4.8-0.6c6.5,1.1,12.9,11.9,16.6,27.5c0.9,3.8,1.6,7.9,2.2,12.2c-8.4,0.9-17.3,2.6-26.3,4.8
		c-7.9-5.3-15.8-9.9-23.4-13.6c8.5-16.5,18-27.3,26.2-30.3l-3.2-8.7l0,0c-10.8,3.9-22,16.7-31.5,35.2c-19.2-8-36.1-10.4-46.9-6.5
		l3.2,8.7c8.1-2.9,22.5-0.8,39.5,6.3c-3.4,7.7-6.5,16.3-9,25.4c-8.5,4.2-16.3,8.6-23.3,13.4c-2.4-3.6-4.4-7.1-6.2-10.6
		C56.7,87,54.8,74.5,59,69.4c0.9-1.1,2.3-2,4.1-2.7L59.9,58l0,0c-3.3,1.2-6.1,2.9-8,5.4c-8.7,10.3-3.9,31,10.7,53.8
		c-21.6,16.4-33,34.1-28.4,46.8s24.9,18.9,52,17.6c3.4,27,13.2,45.9,26.5,48.2c3.1,0.6,6.3,0.1,9.6-1.1c10.8-3.9,22-16.7,31.5-35.2
		c19.1,8.1,35.9,10.6,46.7,6.6c3.3-1.2,6.1-2.9,8-5.4c8.7-10.3,3.9-31-10.7-53.8C219.3,124.6,230.8,106.8,226.2,94.1z M165.7,86.6
		c0.4,5.6,0.4,11.4,0.3,17.3c-2.7-2.5-5.6-5.1-8.6-7.5c-2.9-2.5-6-4.8-9-7.1C154.4,88.1,160.2,87.2,165.7,86.6z M163,134.7
		c-1.1,6.4-2.4,12.6-4,18.4c-5.7,2.6-11.5,5-17.4,7.2c-5.9,2.2-11.9,4-17.8,5.6c-5-3.5-9.9-7.3-14.9-11.4
		c-4.9-4.1-9.4-8.3-13.9-12.6c0.5-6.2,1.3-12.4,2.4-18.5c1.1-6.4,2.4-12.6,4-18.4c5.7-2.6,11.5-5,17.4-7.2s11.9-4,17.8-5.6
		c5,3.5,9.9,7.3,14.9,11.4c4.9,4.1,9.4,8.3,13.9,12.6C164.8,122.3,164,128.6,163,134.7z M173.7,125.1c4,4.5,7.8,9.1,11,13.6
		c-4.7,3.1-9.7,6.2-15,9c0.8-3.7,1.6-7.5,2.3-11.4C172.7,132.5,173.3,128.8,173.7,125.1z M149.3,181.3c-5-2.4-10.1-5.4-15.4-8.5
		c3.5-1.1,7.2-2.3,10.9-3.7s7.3-2.8,10.8-4.2C153.6,170.7,151.5,176.2,149.3,181.3z M111.7,168.8c-5.9,1.2-11.6,2.1-17.2,2.7
		c-0.4-5.6-0.4-11.4-0.3-17.3c2.7,2.5,5.6,5.1,8.6,7.5C105.8,164.1,108.8,166.6,111.7,168.8z M111.1,76.9c5,2.4,10.1,5.4,15.4,8.5
		c-3.5,1.1-7.2,2.3-10.9,3.7c-3.7,1.4-7.3,2.8-10.8,4.2C106.7,87.4,108.9,81.9,111.1,76.9z M90.5,110.4c-0.8,3.7-1.6,7.5-2.3,11.4
		c-0.7,3.8-1.2,7.6-1.7,11.2c-4-4.5-7.8-9.1-11-13.6C80.2,116.3,85.2,113.3,90.5,110.4z M72.9,172.3c-16-0.9-27.8-5.3-30.1-11.5
		c-2.2-6.1,3.9-17.2,15.6-28.1c2.9-2.6,6.1-5.3,9.4-7.9c5.1,6.9,10.9,13.8,17.5,20.7c-0.6,9.5-0.6,18.4,0,26.8
		C81,172.5,76.8,172.6,72.9,172.3z M114.3,220.5c-6.5-1.1-12.9-11.9-16.6-27.5c-0.9-3.8-1.6-7.9-2.2-12.2c8.4-0.9,17.3-2.6,26.3-4.8
		c7.9,5.3,15.8,9.9,23.4,13.6c-8.5,16.5-18,27.3-26.2,30.3C117.3,220.6,115.7,220.9,114.3,220.5z M196.3,157
		c7.3,14.3,9.2,26.8,5.1,31.8c-0.9,1.1-2.3,2-4.1,2.7c-8.1,2.9-22.5,0.8-39.5-6.3c3.4-7.7,6.5-16.3,9-25.4
		c8.5-4.2,16.3-8.6,23.3-13.4C192.5,149.9,194.5,153.5,196.3,157z M201.8,125.4c-2.9,2.6-6.1,5.3-9.4,7.9
		c-5.1-6.9-10.9-13.8-17.5-20.7c0.6-9.5,0.6-18.4,0-26.8c4.3-0.2,8.4-0.2,12.4-0.1c16,0.9,27.8,5.3,30.1,11.5
		C219.7,103.4,213.5,114.5,201.8,125.4z"/>
	<path class="st0" d="M59.9,58L59.9,58L59.9,58z"/>
	<ellipse transform="matrix(0.9397 -0.342 0.342 0.9397 -36.298 52.3124)" class="st0" cx="130.2" cy="129.1" rx="19" ry="19"/>
	<path class="st0" d="M137.9,29.4L137.9,29.4L137.9,29.4z"/>
</g>
</svg>
